<?xml version="1.0" encoding="utf-8"?>
<!-- Generator: Adobe Illustrator 28.1.0, SVG Export Plug-In . SVG Version: 6.00 Build 0)  -->
<svg version="1.1" id="Calque_1" xmlns="http://www.w3.org/2000/svg" xmlns:xlink="http://www.w3.org/1999/xlink" x="0px" y="0px"
	 viewBox="0 0 250.02 263.79" style="enable-background:new 0 0 250.02 263.79;" xml:space="preserve" class="">
<style type="text/css">

		.st0{clip-path:url(#SVGID_00000102521067896766116870000011304948385768390538_);fill:url(#SVGID_00000168801754667134938620000006151996254048933531_);}
	.st1{fill:#EC671D;}

		.st2{clip-path:url(#SVGID_00000091703758880798401080000012647520590559099539_);fill:url(#SVGID_00000179607523548589615910000015294509389709388428_);}
</style>
<g>
	<g>
		<defs>
			<path id="SVGID_1_" d="M69.06,191.7c0,0,3.29,14.43-3.94,23.63h59.1V191.7H69.06z"/>
		</defs>
		<clipPath id="SVGID_00000078729677553580288450000011559252105985090978_">
			<use xlink:href="#SVGID_1_"  style="overflow:visible;"/>
		</clipPath>

			<linearGradient id="SVGID_00000010274662364369720910000014533714096817118869_" gradientUnits="userSpaceOnUse" x1="-1210.4062" y1="293.3488" x2="-1209.541" y2="293.3488" gradientTransform="matrix(92.0643 1.3545 -1.3545 92.0643 111907.8125 -25164.2266)">
			<stop  offset="0" style="stop-color:#EC671D"/>
			<stop  offset="1" style="stop-color:#1E1E1C"/>
		</linearGradient>

			<polygon style="clip-path:url(#SVGID_00000078729677553580288450000011559252105985090978_);fill:url(#SVGID_00000010274662364369720910000014533714096817118869_);" points="
			65.13,190.83 124.57,191.7 124.21,216.19 64.77,215.32 		"/>
	</g>
</g>
<polyline points="139.27,143.36 69.34,143.36 103.75,28.92 103.66,28.59 110.08,9.71 113.39,0 77.06,0 0,243.57 38.73,243.57
	54.98,191.7 154.13,191.7 "/>
<path class="st1" d="M145.01,242.3l89.44-0.02c3.37,0.02,5.22,0.02,7.57,0l0,0c0,0,13.9-3.6,5.05-35.82
	c-0.17-1.22-0.3-1.93-0.3-1.93l-15.64-43.97c-0.08-0.23-0.15-0.44-0.23-0.66l-0.47-1.33c-3.5-9.83-4.55-12.79-4.55-12.79L174.05,0
	H77.06l53.24,149.73l4.69,13.17h0.11c2.21,6.05,5.45,15.08,8.51,24.26l-8.63-24.26 M150.6,210.52c0.02,0.05,0.02,0.11,0.04,0.16
	c0,0.14,0.02,0.27,0.03,0.41C150.64,210.89,150.62,210.71,150.6,210.52"/>
<g>
	<g>
		<defs>
			<path id="SVGID_00000010284661593771231770000002807707951001898414_" d="M90.14,143.36c6.62,48.49,14.93,99.03,54.87,98.94
				c22.39-0.04-16.97-98.94-16.97-98.94L90.14,143.36L90.14,143.36z"/>
		</defs>
		<clipPath id="SVGID_00000095318600571293980200000012818475205918864317_">
			<use xlink:href="#SVGID_00000010284661593771231770000002807707951001898414_"  style="overflow:visible;"/>
		</clipPath>

			<linearGradient id="SVGID_00000072989111550193609520000006877869798430928056_" gradientUnits="userSpaceOnUse" x1="-1218.7527" y1="289.0401" x2="-1217.8878" y2="289.0401" gradientTransform="matrix(291.095 88.0049 -88.0049 291.095 380300.25 23299.3867)">
			<stop  offset="0" style="stop-color:#EC671D"/>
			<stop  offset="4.926110e-03" style="stop-color:#EC671D"/>
			<stop  offset="1" style="stop-color:#1E1E1C"/>
		</linearGradient>

			<polygon style="clip-path:url(#SVGID_00000095318600571293980200000012818475205918864317_);fill:url(#SVGID_00000072989111550193609520000006877869798430928056_);" points="
			96.61,121.95 194.83,151.65 160.93,263.79 62.71,234.09 		"/>
	</g>
</g>
</svg>
