<?xml version="1.0" encoding="utf-8"?>
<!-- Generator: Adobe Illustrator 28.2.0, SVG Export Plug-In . SVG Version: 6.00 Build 0)  -->
<svg version="1.1" id="Calque_1" xmlns="http://www.w3.org/2000/svg" xmlns:xlink="http://www.w3.org/1999/xlink" x="0px" y="0px"
	 viewBox="0 0 368.5 368.5" style="enable-background:new 0 0 368.5 368.5;" xml:space="preserve" class="h-6 w-6">
<style type="text/css">
	.st0{opacity:0.5;fill:none;stroke:#649999;stroke-width:5;stroke-miterlimit:10;}

		.st1{clip-path:url(#SVGID_00000152979330578828799050000000173562970361699213_);fill:url(#SVGID_00000053520284020660431420000000375842625809886610_);}
	.st2{fill:#659999;}

		.st3{clip-path:url(#SVGID_00000073721619835166055440000017682303645973626813_);fill:url(#SVGID_00000103254303161934975820000012009280926951468195_);}
</style>
<circle class="st0" cx="184.3" cy="184.2" r="172.9"/>
<g>
	<defs>
		<path id="SVGID_1_" d="M132.3,232.5c0,0,3.3,14.4-3.9,23.6h59.1v-23.6H132.3z"/>
	</defs>
	<clipPath id="SVGID_00000145740384622664046720000004768225422543669645_">
		<use xlink:href="#SVGID_1_"  style="overflow:visible;"/>
	</clipPath>

		<linearGradient id="SVGID_00000070829678481661198400000014424106734025201554_" gradientUnits="userSpaceOnUse" x1="-365.4603" y1="411.0332" x2="-364.595" y2="411.0332" gradientTransform="matrix(92.0643 1.3545 1.3545 -92.0643 33227.6328 38580.5312)">
		<stop  offset="0" style="stop-color:#659999"/>
		<stop  offset="0.8912" style="stop-color:#1E1E1C"/>
	</linearGradient>

		<polygon style="clip-path:url(#SVGID_00000145740384622664046720000004768225422543669645_);fill:url(#SVGID_00000070829678481661198400000014424106734025201554_);" points="
		128.4,231.6 187.8,232.5 187.5,257 128,256.1 	"/>
</g>
<path d="M217.4,232.5h-99.1L102,284.4H63.3l77.1-243.6c6.3,9.6,10.8,20.1,16.7,29.9c3.3-0.3,6.7-0.7,10-1l-34.4,114.4
	c6.9,0,13.9,0,20.8,0c0.8,2.4,1.6,4.8,2.3,7.3c11.9-2.4,23.7-4.8,35.6-7.3"/>
<path class="st2" d="M208.3,284.3c2.3,0.2,98.2-0.1,97,0c31.5-11.2-63-210.9-68-243.5h-97c1.5,4.2,58.4,165.1,57.9,163.7h0.1
	c2.2,6.1,5.5,15.2,8.5,24.4l-8.6-24.4 M213.9,252.4c0.1,0.2,0.1,0.4,0.1,0.6C213.9,252.8,213.9,252.6,213.9,252.4"/>
<g>
	<defs>
		<path id="SVGID_00000061463982698233376440000005244770434874506129_" d="M153.4,184.2c6.6,49.1,14.9,100.3,54.9,100.2
			c22.4,0-17-100.2-17-100.2H153.4z"/>
	</defs>
	<clipPath id="SVGID_00000179605109435717988450000017570461376067263396_">
		<use xlink:href="#SVGID_00000061463982698233376440000005244770434874506129_"  style="overflow:visible;"/>
	</clipPath>

		<linearGradient id="SVGID_00000088815106709488930960000001074817375329900163_" gradientUnits="userSpaceOnUse" x1="-368.0379" y1="411.5379" x2="-367.1685" y2="411.5379" gradientTransform="matrix(291.095 88.0049 88.0049 -291.095 71070.1953 152408.4375)">
		<stop  offset="0" style="stop-color:#659999"/>
		<stop  offset="1.805969e-03" style="stop-color:#659999"/>
		<stop  offset="0.6276" style="stop-color:#1E1E1C"/>
	</linearGradient>

		<polygon style="clip-path:url(#SVGID_00000179605109435717988450000017570461376067263396_);fill:url(#SVGID_00000088815106709488930960000001074817375329900163_);" points="
		159.9,162.5 258.1,192.6 224.2,306.1 126,276.1 	"/>
</g>
</svg>
