<?xml version="1.0" encoding="UTF-8"?>
<svg width="254px" height="246px" viewBox="0 0 254 246" version="1.1" xmlns="http://www.w3.org/2000/svg" xmlns:xlink="http://www.w3.org/1999/xlink">
    <title>Untitled</title>
    <g id="Page-1" stroke="none" fill="none" fill-rule="evenodd">
        <g id="ads-outline" transform="translate(2, 1)">
            <path d="M128.029474,143.36 L69.34,143.36 L96.1783866,54.1015008 L91.772689,42.773312 L87.1441632,28.92 L83.6473063,18.7517536 L80.3428331,9.84929161 L78.0334748,2.92065924 C77.8588396,2.39671171 77.2925265,2.11353806 76.768579,2.28817319 C76.4648384,2.38941189 76.227938,2.62996807 76.1313622,2.93522323 L0,243.57 L0,243.57 L38.73,243.57 L54.98,191.7 L145.73632,191.7" id="Path" fill="currentColor" style="opacity: 0.5;"></path>
            <path d="M163.53877,242.28 L234.45,242.28 C237.82,242.3 239.67,242.3 242.02,242.28 C242.02,242.28 255.92,238.68 247.07,206.46 C246.9,205.24 246.77,204.53 246.77,204.53 L231.13,160.56 C231.05,160.33 230.98,160.12 230.9,159.9 L230.43,158.57 C226.93,148.74 225.88,145.78 225.88,145.78 L174.05,0 L77.06,0 L130.3,149.73 L134.99,162.9 L135.1,162.9 C137.31,168.95 160.47877,233.1 163.53877,242.28 L134.98,162.9" id="Shape" fill="currentColor"></path>
        </g>
    </g>
</svg>