<?xml version="1.0" encoding="UTF-8"?>
<svg id="Calque_1" xmlns="http://www.w3.org/2000/svg" version="1.1" viewBox="0 0 679.5 86.1">
  <!-- Generator: Adobe Illustrator 29.8.2, SVG Export Plug-In . SVG Version: 2.1.1 Build 3)  -->
  <path d="M240.3,54.4c0,16.9-8.4,24.4-27.4,24.4s-27.4-7.5-27.4-24.4V4.9h-7.9v49.7c0,20.9,11.9,31.5,35.3,31.5s35.3-10.6,35.3-31.5V4.9h-7.9v49.5Z"/>
  <path d="M122,4.1c-23.4,0-35.3,10.6-35.3,31.5v18.2c0,20.9,11.9,31.5,35.3,31.5s35.3-10.6,35.3-31.5v-18.2c0-20.9-11.8-31.5-35.3-31.5ZM149.4,35.8v17.8c0,16.9-8.4,24.5-27.4,24.5s-27.4-7.5-27.4-24.4v-17.8c0-16.9,8.4-24.4,27.4-24.4s27.5,7.5,27.5,24.4h0Z"/>
  <path d="M362.2,52.6V4.9h-7.9v48c0,20.9,11.9,31.5,35.3,31.5h29.4v-7.3h-29.4c-19,0-27.4-7.5-27.4-24.4Z"/>
  <path d="M0,36.4v16.5c0,20.9,11.9,31.5,35.3,31.5h35.3v-7.3h-35.3c-19,0-27.4-7.5-27.4-24.4v-16.1c0-16.9,8.5-24.4,27.4-24.4h35.3v-7.3h-35.3C11.9,4.9,0,15.5,0,36.4Z"/>
  <path d="M644.1,12.2h35.3v-7.3h-35.3c-23.5,0-35.3,10.6-35.3,31.5v16.5c0,20.9,11.9,31.5,35.3,31.5h35.3v-7.3h-35.3c-19,0-27.4-7.5-27.4-24.4v-16.1c0-16.9,8.5-24.4,27.4-24.4Z"/>
  <path d="M553.2,3.9c-23.5,0-35.3,10.6-35.3,31.5v48.9h7.9v-48.7c0-16.9,8.5-24.4,27.4-24.4s27.4,7.5,27.4,24.4v48.7h7.9v-48.9c0-20.9-11.9-31.5-35.3-31.5Z"/>
  <path d="M462.4,3.9c-23.5,0-35.3,10.6-35.3,31.5v48.9h7.9v-30.6h54.8v30.6h7.9v-48.9c0-20.9-11.9-31.5-35.4-31.5ZM489.8,35.6v11h-54.8v-11c0-16.9,8.5-24.4,27.4-24.4s27.4,7.5,27.4,24.4Z"/>
  <path d="M323.4,31.1c-1.9-17-13.1-25.8-33.5-26.2h-23.5v7.3h21.9c16.4,0,24.9,5.8,26.9,18.2.3,1.8.4,3.6.5,5.4v.8l.8.2c.9.2,1.8.5,2.6.8,6.4,2.2,10.5,6.2,12.4,12.4.6,2,.9,4.1.9,6.2,0,2.1-.2,4.1-.7,6.1-2.9,10.2-11.2,15-26.2,15h-39.1v7.3h40.6c17.9-.4,28.8-7.2,32.4-20.2.7-2.6,1.1-5.3,1-8,0-2.9-.5-5.9-1.4-8.6-2.5-7.9-7.8-13.4-15.7-16.4Z"/>
</svg>