<?xml version="1.0" encoding="utf-8"?>
<!-- Generator: Adobe Illustrator 28.1.0, SVG Export Plug-In . SVG Version: 6.00 Build 0)  -->
<svg version="1.1" id="logo_vec" xmlns="http://www.w3.org/2000/svg" xmlns:xlink="http://www.w3.org/1999/xlink" x="0px" y="0px"
	 viewBox="0 0 130.71 41.39" style="enable-background:new 0 0 130.71 41.39;" xml:space="preserve">
<style type="text/css">
	.st0{fill:#E3000F;}
	.st1{fill:#FFFFFF;}
</style>
<rect x="29.33" class="st0" width="101.38" height="29.55"/>
<g>
	<path class="st0" d="M26.17,27.65c0-0.26,0.21-0.47,0.46-0.47h2.77c0.25,0,0.46,0.21,0.46,0.47v1.43c0,0.26-0.21,0.47-0.46,0.47
		h-2.77c-0.25,0-0.46-0.21-0.46-0.47V27.65z"/>
	<path class="st0" d="M22.94,25.91c0-0.27,0.21-0.48,0.46-0.48h2.77c0.26,0,0.46,0.21,0.46,0.48v1.42c0,0.26-0.21,0.47-0.46,0.47
		H23.4c-0.25,0-0.46-0.21-0.46-0.47V25.91z"/>
	<path class="st0" d="M19.7,27.65c0-0.26,0.21-0.47,0.46-0.47h2.77c0.25,0,0.46,0.21,0.46,0.47v1.43c0,0.26-0.21,0.47-0.46,0.47
		h-2.77c-0.25,0-0.46-0.21-0.46-0.47V27.65z"/>
	<path class="st0" d="M16.47,25.91c0-0.27,0.21-0.48,0.46-0.48h2.77c0.25,0,0.46,0.21,0.46,0.48v1.42c0,0.26-0.21,0.47-0.46,0.47
		h-2.77c-0.26,0-0.46-0.21-0.46-0.47V25.91z"/>
	<path class="st0" d="M13.24,27.65c0-0.26,0.21-0.47,0.46-0.47h2.77c0.26,0,0.46,0.21,0.46,0.47v1.43c0,0.26-0.21,0.47-0.46,0.47
		H13.7c-0.25,0-0.46-0.21-0.46-0.47V27.65z"/>
	<path class="st0" d="M10.01,25.91c0-0.27,0.21-0.48,0.46-0.48h2.77c0.26,0,0.46,0.21,0.46,0.48v1.42c0,0.26-0.21,0.47-0.46,0.47
		h-2.77c-0.25,0-0.46-0.21-0.46-0.47V25.91z"/>
	<path class="st0" d="M6.77,27.65c0-0.26,0.21-0.47,0.46-0.47h2.77c0.25,0,0.46,0.21,0.46,0.47v1.43c0,0.26-0.21,0.47-0.46,0.47
		H7.24c-0.26,0-0.46-0.21-0.46-0.47V27.65z"/>
	<path class="st0" d="M3.54,25.91c0-0.27,0.21-0.48,0.46-0.48h2.77c0.25,0,0.46,0.21,0.46,0.48v1.42c0,0.26-0.21,0.47-0.46,0.47H4
		c-0.26,0-0.46-0.21-0.46-0.47V25.91z"/>
	<path class="st0" d="M0.31,27.65c0-0.26,0.21-0.47,0.46-0.47h2.77C3.8,27.18,4,27.39,4,27.65v1.43c0,0.26-0.21,0.47-0.46,0.47H0.77
		c-0.25,0-0.46-0.21-0.46-0.47V27.65z"/>
	<path class="st0" d="M26.17,23.95c0-0.26,0.21-0.48,0.46-0.48h2.77c0.25,0,0.46,0.21,0.46,0.48v1.43c0,0.26-0.21,0.47-0.46,0.47
		h-2.77c-0.25,0-0.46-0.21-0.46-0.47V23.95z"/>
	<path class="st0" d="M22.94,21.77c0-0.26,0.21-0.47,0.46-0.47h2.77c0.26,0,0.46,0.21,0.46,0.47v1.42c0,0.26-0.21,0.47-0.46,0.47
		H23.4c-0.25,0-0.46-0.21-0.46-0.47V21.77z"/>
	<path class="st0" d="M19.7,23.95c0-0.26,0.21-0.48,0.46-0.48h2.77c0.25,0,0.46,0.21,0.46,0.48v1.43c0,0.26-0.21,0.47-0.46,0.47
		h-2.77c-0.25,0-0.46-0.21-0.46-0.47V23.95z"/>
	<path class="st0" d="M16.47,21.77c0-0.26,0.21-0.47,0.46-0.47h2.77c0.25,0,0.46,0.21,0.46,0.47v1.42c0,0.26-0.21,0.47-0.46,0.47
		h-2.77c-0.26,0-0.46-0.21-0.46-0.47V21.77z"/>
	<path class="st0" d="M13.24,23.95c0-0.26,0.21-0.48,0.46-0.48h2.77c0.26,0,0.46,0.21,0.46,0.48v1.43c0,0.26-0.21,0.47-0.46,0.47
		H13.7c-0.25,0-0.46-0.21-0.46-0.47V23.95z"/>
	<path class="st0" d="M10.01,21.77c0-0.26,0.21-0.47,0.46-0.47h2.77c0.26,0,0.46,0.21,0.46,0.47v1.42c0,0.26-0.21,0.47-0.46,0.47
		h-2.77c-0.25,0-0.46-0.21-0.46-0.47V21.77z"/>
	<path class="st0" d="M6.77,23.95c0-0.26,0.21-0.48,0.46-0.48h2.77c0.25,0,0.46,0.21,0.46,0.48v1.43c0,0.26-0.21,0.47-0.46,0.47
		H7.24c-0.26,0-0.46-0.21-0.46-0.47V23.95z"/>
	<path class="st0" d="M3.54,21.77c0-0.26,0.21-0.47,0.46-0.47h2.77c0.25,0,0.46,0.21,0.46,0.47v1.42c0,0.26-0.21,0.47-0.46,0.47H4
		c-0.26,0-0.46-0.21-0.46-0.47V21.77z"/>
	<path class="st0" d="M0.31,23.95c0-0.26,0.21-0.48,0.46-0.48h2.77C3.8,23.47,4,23.69,4,23.95v1.43c0,0.26-0.21,0.47-0.46,0.47H0.77
		c-0.25,0-0.46-0.21-0.46-0.47V23.95z"/>
	<path class="st0" d="M26.17,19.38c0-0.26,0.21-0.47,0.46-0.47h2.77c0.25,0,0.46,0.21,0.46,0.47v1.42c0,0.26-0.21,0.47-0.46,0.47
		h-2.77c-0.25,0-0.46-0.21-0.46-0.47V19.38z"/>
	<path class="st0" d="M22.94,16.77c0-0.26,0.21-0.47,0.46-0.47h2.77c0.26,0,0.46,0.21,0.46,0.47v1.43c0,0.26-0.21,0.47-0.46,0.47
		H23.4c-0.25,0-0.46-0.21-0.46-0.47V16.77z"/>
	<path class="st0" d="M19.7,19.38c0-0.26,0.21-0.47,0.46-0.47h2.77c0.25,0,0.46,0.21,0.46,0.47v1.42c0,0.26-0.21,0.47-0.46,0.47
		h-2.77c-0.25,0-0.46-0.21-0.46-0.47V19.38z"/>
	<path class="st0" d="M16.47,16.77c0-0.26,0.21-0.47,0.46-0.47h2.77c0.25,0,0.46,0.21,0.46,0.47v1.43c0,0.26-0.21,0.47-0.46,0.47
		h-2.77c-0.26,0-0.46-0.21-0.46-0.47V16.77z"/>
	<path class="st0" d="M13.24,19.38c0-0.26,0.21-0.47,0.46-0.47h2.77c0.26,0,0.46,0.21,0.46,0.47v1.42c0,0.26-0.21,0.47-0.46,0.47
		H13.7c-0.25,0-0.46-0.21-0.46-0.47V19.38z"/>
	<path class="st0" d="M10.01,16.77c0-0.26,0.21-0.47,0.46-0.47h2.77c0.26,0,0.46,0.21,0.46,0.47v1.43c0,0.26-0.21,0.47-0.46,0.47
		h-2.77c-0.25,0-0.46-0.21-0.46-0.47V16.77z"/>
	<path class="st0" d="M6.77,19.38c0-0.26,0.21-0.47,0.46-0.47h2.77c0.25,0,0.46,0.21,0.46,0.47v1.42c0,0.26-0.21,0.47-0.46,0.47
		H7.24c-0.26,0-0.46-0.21-0.46-0.47V19.38z"/>
	<path class="st0" d="M3.54,16.77c0-0.26,0.21-0.47,0.46-0.47h2.77c0.25,0,0.46,0.21,0.46,0.47v1.43c0,0.26-0.21,0.47-0.46,0.47H4
		c-0.26,0-0.46-0.21-0.46-0.47V16.77z"/>
	<path class="st0" d="M0.31,19.38c0-0.26,0.21-0.47,0.46-0.47h2.77C3.8,18.91,4,19.12,4,19.38v1.42c0,0.26-0.21,0.47-0.46,0.47H0.77
		c-0.25,0-0.46-0.21-0.46-0.47V19.38z"/>
	<path class="st0" d="M26.17,13.95c0-0.27,0.21-0.48,0.46-0.48h2.77c0.25,0,0.46,0.21,0.46,0.48v1.42c0,0.26-0.21,0.47-0.46,0.47
		h-2.77c-0.25,0-0.46-0.21-0.46-0.47V13.95z"/>
	<path class="st0" d="M22.94,10.9c0-0.27,0.21-0.48,0.46-0.48h2.77c0.26,0,0.46,0.21,0.46,0.48v1.42c0,0.26-0.21,0.47-0.46,0.47
		H23.4c-0.25,0-0.46-0.21-0.46-0.47V10.9z"/>
	<path class="st0" d="M19.7,13.95c0-0.27,0.21-0.48,0.46-0.48h2.77c0.25,0,0.46,0.21,0.46,0.48v1.42c0,0.26-0.21,0.47-0.46,0.47
		h-2.77c-0.25,0-0.46-0.21-0.46-0.47V13.95z"/>
	<path class="st0" d="M16.47,10.9c0-0.27,0.21-0.48,0.46-0.48h2.77c0.25,0,0.46,0.21,0.46,0.48v1.42c0,0.26-0.21,0.47-0.46,0.47
		h-2.77c-0.26,0-0.46-0.21-0.46-0.47V10.9z"/>
	<path class="st0" d="M13.24,13.95c0-0.27,0.21-0.48,0.46-0.48h2.77c0.26,0,0.46,0.21,0.46,0.48v1.42c0,0.26-0.21,0.47-0.46,0.47
		H13.7c-0.25,0-0.46-0.21-0.46-0.47V13.95z"/>
	<path class="st0" d="M10.01,10.9c0-0.27,0.21-0.48,0.46-0.48h2.77c0.26,0,0.46,0.21,0.46,0.48v1.42c0,0.26-0.21,0.47-0.46,0.47
		h-2.77c-0.25,0-0.46-0.21-0.46-0.47V10.9z"/>
	<path class="st0" d="M6.77,13.95c0-0.27,0.21-0.48,0.46-0.48h2.77c0.25,0,0.46,0.21,0.46,0.48v1.42c0,0.26-0.21,0.47-0.46,0.47
		H7.24c-0.26,0-0.46-0.21-0.46-0.47V13.95z"/>
	<path class="st0" d="M3.54,10.9c0-0.27,0.21-0.48,0.46-0.48h2.77c0.25,0,0.46,0.21,0.46,0.48v1.42c0,0.26-0.21,0.47-0.46,0.47H4
		c-0.26,0-0.46-0.21-0.46-0.47V10.9z"/>
	<path class="st0" d="M0.31,13.95c0-0.27,0.21-0.48,0.46-0.48h2.77C3.8,13.47,4,13.68,4,13.95v1.42c0,0.26-0.21,0.47-0.46,0.47H0.77
		c-0.25,0-0.46-0.21-0.46-0.47V13.95z"/>
	<path class="st0" d="M26.17,7.64c0-0.26,0.21-0.48,0.46-0.48h2.77c0.25,0,0.46,0.21,0.46,0.48v1.42c0,0.26-0.21,0.47-0.46,0.47
		h-2.77c-0.25,0-0.46-0.21-0.46-0.47V7.64z"/>
	<path class="st0" d="M22.94,4.17c0-0.26,0.21-0.47,0.46-0.47h2.77c0.26,0,0.46,0.21,0.46,0.47v1.42c0,0.26-0.21,0.48-0.46,0.48
		H23.4c-0.25,0-0.46-0.21-0.46-0.48V4.17z"/>
	<path class="st0" d="M19.7,7.64c0-0.26,0.21-0.48,0.46-0.48h2.77c0.25,0,0.46,0.21,0.46,0.48v1.42c0,0.26-0.21,0.47-0.46,0.47
		h-2.77c-0.25,0-0.46-0.21-0.46-0.47V7.64z"/>
	<path class="st0" d="M16.47,4.17c0-0.26,0.21-0.47,0.46-0.47h2.77c0.25,0,0.46,0.21,0.46,0.47v1.42c0,0.26-0.21,0.48-0.46,0.48
		h-2.77c-0.26,0-0.46-0.21-0.46-0.48V4.17z"/>
	<path class="st0" d="M13.24,7.64c0-0.26,0.21-0.48,0.46-0.48h2.77c0.26,0,0.46,0.21,0.46,0.48v1.42c0,0.26-0.21,0.47-0.46,0.47
		H13.7c-0.25,0-0.46-0.21-0.46-0.47V7.64z"/>
	<path class="st0" d="M10.01,4.17c0-0.26,0.21-0.47,0.46-0.47h2.77c0.26,0,0.46,0.21,0.46,0.47v1.42c0,0.26-0.21,0.48-0.46,0.48
		h-2.77c-0.25,0-0.46-0.21-0.46-0.48V4.17z"/>
	<path class="st0" d="M6.77,7.64c0-0.26,0.21-0.48,0.46-0.48h2.77c0.25,0,0.46,0.21,0.46,0.48v1.42c0,0.26-0.21,0.47-0.46,0.47H7.24
		c-0.26,0-0.46-0.21-0.46-0.47V7.64z"/>
	<path class="st0" d="M3.54,4.17c0-0.26,0.21-0.47,0.46-0.47h2.77c0.25,0,0.46,0.21,0.46,0.47v1.42c0,0.26-0.21,0.48-0.46,0.48H4
		c-0.26,0-0.46-0.21-0.46-0.48V4.17z"/>
	<path class="st0" d="M0.31,7.64c0-0.26,0.21-0.48,0.46-0.48h2.77C3.8,7.17,4,7.38,4,7.64v1.42C4,9.33,3.8,9.54,3.54,9.54H0.77
		c-0.25,0-0.46-0.21-0.46-0.47V7.64z"/>
	<path class="st0" d="M26.17,0.48c0-0.26,0.21-0.48,0.46-0.48h2.77c0.25,0,0.46,0.21,0.46,0.48V1.9c0,0.26-0.21,0.48-0.46,0.48
		h-2.77c-0.25,0-0.46-0.21-0.46-0.48V0.48z"/>
	<path class="st0" d="M19.7,0.48C19.7,0.21,19.91,0,20.16,0h2.77c0.25,0,0.46,0.21,0.46,0.48V1.9c0,0.26-0.21,0.48-0.46,0.48h-2.77
		c-0.25,0-0.46-0.21-0.46-0.48V0.48z"/>
	<path class="st0" d="M13.24,0.48C13.24,0.21,13.45,0,13.7,0h2.77c0.26,0,0.46,0.21,0.46,0.48V1.9c0,0.26-0.21,0.48-0.46,0.48H13.7
		c-0.25,0-0.46-0.21-0.46-0.48V0.48z"/>
	<path class="st0" d="M6.77,0.48C6.77,0.21,6.98,0,7.24,0h2.77c0.25,0,0.46,0.21,0.46,0.48V1.9c0,0.26-0.21,0.48-0.46,0.48H7.24
		c-0.26,0-0.46-0.21-0.46-0.48V0.48z"/>
	<path class="st0" d="M0.31,0.48C0.31,0.21,0.52,0,0.77,0h2.77C3.8,0,4,0.21,4,0.48V1.9C4,2.16,3.8,2.38,3.54,2.38H0.77
		c-0.25,0-0.46-0.21-0.46-0.48V0.48z"/>
	<path class="st1" d="M50.33,21.99c0,0.69-0.41,1.04-1.23,1.04c-0.82,0-1.23-0.35-1.23-1.04v-9.93l-2.61,4.47
		c-0.28,0.46-0.68,0.7-1.21,0.7c-0.51,0-0.9-0.22-1.17-0.65l-3.12-4.84v10.25c0,0.69-0.41,1.04-1.23,1.04
		c-0.82,0-1.23-0.35-1.23-1.04V7.85c0-0.78,0.38-1.17,1.15-1.17c0.49,0,0.88,0.22,1.18,0.67L43.99,14l4-6.62
		c0.27-0.46,0.66-0.7,1.17-0.7c0.37,0,0.66,0.12,0.86,0.35c0.2,0.23,0.31,0.5,0.31,0.82V21.99z"/>
	<path class="st1" d="M64.42,22.05c0,0.69-0.41,1.04-1.24,1.04h-9.09c-0.33,0-0.62-0.1-0.87-0.31c-0.24-0.21-0.37-0.45-0.37-0.73
		V7.76c0-0.26,0.12-0.5,0.37-0.72c0.25-0.22,0.54-0.32,0.87-0.32h9.09c0.82,0,1.24,0.35,1.24,1.04c0,0.69-0.41,1.04-1.24,1.04h-7.86
		v4.7H61c0.82,0,1.24,0.34,1.24,1.04c0,0.69-0.41,1.04-1.24,1.04h-5.67v5.44h7.86C64.01,21.01,64.42,21.36,64.42,22.05"/>
	<path class="st1" d="M108.51,22.05c0,0.69-0.41,1.04-1.23,1.04h-9.1c-0.33,0-0.62-0.1-0.87-0.31c-0.25-0.21-0.37-0.45-0.37-0.73
		V7.76c0-0.26,0.12-0.5,0.37-0.72c0.24-0.22,0.53-0.32,0.87-0.32h9.1c0.82,0,1.23,0.35,1.23,1.04c0,0.69-0.41,1.04-1.23,1.04h-7.86
		v4.7h5.67c0.82,0,1.24,0.34,1.24,1.04c0,0.69-0.41,1.04-1.24,1.04h-5.67v5.44h7.86C108.1,21.01,108.51,21.36,108.51,22.05"/>
	<path class="st1" d="M76.27,8.78h-7.43v5.16h7.43V8.78z M78.93,22.08c0,0.3-0.12,0.54-0.36,0.75c-0.24,0.2-0.52,0.3-0.84,0.3
		c-0.5,0-0.86-0.21-1.06-0.64l-2.83-6.46h-5v6.01c0,0.7-0.39,1.04-1.18,1.04c-0.78,0-1.17-0.35-1.17-1.04V7.74
		c0-0.28,0.12-0.53,0.35-0.73c0.23-0.2,0.51-0.31,0.83-0.31h9.78c0.32,0,0.59,0.11,0.83,0.31c0.24,0.21,0.35,0.45,0.35,0.73v7.24
		c0,0.28-0.12,0.52-0.35,0.73c-0.23,0.21-0.51,0.31-0.83,0.31h-1.09l2.49,5.66C78.9,21.81,78.93,21.95,78.93,22.08"/>
	<path class="st1" d="M94.58,21.99c0,0.69-0.41,1.04-1.23,1.04c-0.82,0-1.23-0.35-1.23-1.04v-9.93l-2.62,4.47
		c-0.27,0.46-0.68,0.7-1.21,0.7c-0.51,0-0.9-0.22-1.17-0.65L84,11.75v10.25c0,0.69-0.41,1.04-1.23,1.04c-0.82,0-1.23-0.35-1.23-1.04
		V7.85c0-0.78,0.38-1.17,1.15-1.17c0.49,0,0.88,0.22,1.18,0.67L88.24,14l4-6.62c0.27-0.46,0.66-0.7,1.17-0.7
		c0.37,0,0.66,0.12,0.86,0.35c0.2,0.23,0.31,0.5,0.31,0.82V21.99z"/>
	<path class="st1" d="M123.38,7.75c0,0.69-0.41,1.04-1.24,1.04h-4.12v13.29c0,0.7-0.41,1.04-1.23,1.04c-0.82,0-1.23-0.35-1.23-1.04
		V8.79h-4.12c-0.82,0-1.24-0.35-1.24-1.04c0-0.69,0.41-1.04,1.24-1.04h10.7C122.96,6.71,123.38,7.06,123.38,7.75"/>
</g>
<g>
	<g>
		<path d="M3.51,35.44c-0.28-0.48-0.61-0.76-1.21-0.76c-0.62,0-1.16,0.45-1.16,1.09c0,0.6,0.62,0.88,1.1,1.1l0.46,0.2
			c0.91,0.4,1.68,0.86,1.68,1.97c0,1.23-0.98,2.17-2.2,2.17c-1.12,0-1.96-0.73-2.18-1.81l0.76-0.21c0.1,0.72,0.65,1.3,1.4,1.3
			c0.75,0,1.44-0.58,1.44-1.37c0-0.82-0.64-1.1-1.29-1.39l-0.43-0.19c-0.82-0.37-1.52-0.79-1.52-1.79c0-1.09,0.92-1.78,1.96-1.78
			c0.78,0,1.44,0.4,1.81,1.09L3.51,35.44z"/>
		<path d="M7.78,38.24c0,0.52-0.02,1.12,0.31,1.56c0.31,0.43,0.9,0.67,1.41,0.67c0.5,0,1.05-0.23,1.38-0.62
			c0.37-0.45,0.34-1.06,0.34-1.61v-4.17H12v4.39c0,0.76-0.06,1.37-0.61,1.94c-0.48,0.52-1.18,0.8-1.89,0.8
			c-0.66,0-1.34-0.25-1.81-0.72C7.08,39.9,7,39.26,7,38.46v-4.39h0.78V38.24z"/>
		<path d="M14.93,33.77l5.46,5.72v-5.43h0.78v7.32l-5.46-5.72v5.4h-0.78V33.77z"/>
		<path d="M33.82,35.6c-0.56-0.58-1.33-0.93-2.14-0.93c-1.56,0-2.82,1.36-2.82,2.9c0,1.54,1.27,2.9,2.84,2.9
			c0.79,0,1.56-0.37,2.12-0.93v0.97c-0.6,0.44-1.35,0.69-2.09,0.69c-1.98,0-3.65-1.61-3.65-3.6c0-2.01,1.65-3.65,3.65-3.65
			c0.78,0,1.47,0.22,2.09,0.69V35.6z"/>
		<path d="M43.58,37.58c0,2.02-1.65,3.62-3.65,3.62c-2,0-3.65-1.6-3.65-3.62c0-2.01,1.65-3.63,3.65-3.63
			C41.93,33.95,43.58,35.58,43.58,37.58z M37.06,37.57c0,1.58,1.28,2.9,2.87,2.9c1.59,0,2.87-1.32,2.87-2.9
			c0-1.59-1.26-2.9-2.87-2.9C38.32,34.67,37.06,35.98,37.06,37.57z"/>
		<path d="M46.18,33.77l5.46,5.72v-5.43h0.78v7.32l-5.46-5.72v5.4h-0.78V33.77z"/>
		<path d="M57.24,41.08h-0.78v-6.28h-1.69v-0.72h4.18v0.72h-1.71V41.08z"/>
		<path d="M62.02,41.08h-0.78v-7.01h1.01c1.33,0,2.56,0.35,2.56,1.93c0,1.08-0.68,1.84-1.76,1.93l2.23,3.14h-0.96L62.22,38h-0.2
			V41.08z M62.02,37.31h0.24c0.88,0,1.77-0.17,1.77-1.25c0-1.15-0.85-1.26-1.78-1.26h-0.23V37.31z"/>
		<path d="M74.72,37.58c0,2.02-1.65,3.62-3.65,3.62c-2,0-3.65-1.6-3.65-3.62c0-2.01,1.65-3.63,3.65-3.63
			C73.07,33.95,74.72,35.58,74.72,37.58z M68.2,37.57c0,1.58,1.28,2.9,2.87,2.9c1.59,0,2.87-1.32,2.87-2.9c0-1.59-1.26-2.9-2.87-2.9
			C69.46,34.67,68.2,35.98,68.2,37.57z"/>
		<path d="M78.05,40.35h1.93v0.72h-2.71v-7.01h0.78V40.35z"/>
		<path d="M88.46,41.08h-0.78v-6.28h-1.69v-0.72h4.18v0.72h-1.71V41.08z"/>
		<path d="M92.46,34.07h3.63v0.72h-2.85v2.08h2.77v0.72h-2.77v2.75h2.85v0.72h-3.63V34.07z"/>
		<path d="M98.51,34.07h0.89l1.43,2.64l1.43-2.64h0.89l-1.9,3.38l2.07,3.62h-0.89l-1.61-2.88l-1.61,2.88h-0.89l2.07-3.62
			L98.51,34.07z"/>
		<path d="M107.51,41.08h-0.78v-6.28h-1.69v-0.72h4.18v0.72h-1.71V41.08z"/>
		<path d="M112.31,41.08h-0.78v-7.01h0.78V41.08z"/>
		<path d="M116,40.35h1.93v0.72h-2.71v-7.01H116V40.35z"/>
		<path d="M120.19,34.07h3.63v0.72h-2.85v2.08h2.77v0.72h-2.77v2.75h2.85v0.72h-3.63V34.07z"/>
		<path d="M129.82,35.44c-0.28-0.48-0.61-0.76-1.21-0.76c-0.62,0-1.16,0.45-1.16,1.09c0,0.6,0.62,0.88,1.1,1.1l0.46,0.2
			c0.91,0.4,1.68,0.86,1.68,1.97c0,1.23-0.99,2.17-2.2,2.17c-1.12,0-1.96-0.73-2.18-1.81l0.76-0.21c0.1,0.72,0.65,1.3,1.4,1.3
			c0.75,0,1.44-0.58,1.44-1.37c0-0.82-0.64-1.1-1.29-1.39l-0.43-0.19c-0.82-0.37-1.53-0.79-1.53-1.79c0-1.09,0.92-1.78,1.96-1.78
			c0.78,0,1.44,0.4,1.81,1.09L129.82,35.44z"/>
	</g>
</g>
</svg>
