<svg width="341" height="127" xmlns="http://www.w3.org/2000/svg" xmlns:xlink="http://www.w3.org/1999/xlink"><defs><path id="path-1" d="M0 .567h47.905v61.31H0z"/><path id="path-3" d="M.539.287h16v13.117h-16z"/><path id="path-5" d="M0 128h342V1H0z"/></defs><g id="Page-1" stroke="none" stroke-width="1" fill="none" fill-rule="evenodd"><g id="Logo_Bouvet"><g id="Group-3" transform="translate(0 26)"><mask id="mask-2" fill="#fff"><use xlink:href="#path-1"/></mask><path d="M37.571 43.679c0-5.213-4.642-8.04-11.648-8.04H10.51v16.52c4.817.176 9.72.353 13.574.353 8.583 0 13.487-2.739 13.487-8.833M10.51 10.02v16.61h13.574c6.743 0 11.035-3.358 11.035-8.658 0-5.742-4.029-8.128-12.173-8.128-3.942 0-8.32.177-12.436.177m37.395 34.542c0 11.22-8.583 17.314-22.595 17.314-7.444 0-19.355-.44-25.31-.794V1.009C5.693.832 16.114.567 24.17.567c13.4 0 20.844 5.654 20.844 15.814 0 6.89-4.116 12.19-11.035 14.046 8.583 1.679 13.925 7.067 13.925 14.135" id="Fill-1" fill="#231F20" mask="url(#mask-2)"/></g><path d="M89.826 65.324c0-7.91-5.13-13.095-12.782-13.095-7.74 0-12.957 5.185-12.957 13.095 0 8.086 5.218 13.448 12.957 13.448 7.652 0 12.782-5.362 12.782-13.448m10.174 0C100 78.947 90.696 88 77.044 88 63.304 88 54 78.947 54 65.324 54 51.964 63.305 43 77.044 43 90.696 43 100 51.965 100 65.324" id="Fill-4" fill="#231F20"/><path d="M149 85.797c-4.527.97-15.67 2.203-23.677 2.203C115.05 88 108 83.418 108 71.787V45h10.098v24.408c0 6.608 3.133 9.868 9.401 9.868 3.569 0 7.486-.264 11.403-.792V45H149v40.797z" id="Fill-6" fill="#231F20"/><path id="Fill-8" fill="#231F20" d="M175.51 87L157 45h11.159l12.84 29.835L193.752 45H205l-18.598 42z"/><path d="M218.413 61.159H240.9c-.262-6.199-4.725-10.214-10.937-10.214-6.3 0-10.587 4.015-11.55 10.214m31.587.087c0 3.58-.087 4.453-.612 7.595h-30.625c1.488 5.587 6.037 9.167 13.124 9.167 3.763 0 8.138-.786 14.876-2.27l1.4 8.206C241.687 85.953 236.524 87 231.624 87 216.05 87 208 77.397 208 65c0-13.444 9.363-22 21.788-22 11.637 0 20.037 7.246 20.212 18.246" id="Fill-10" fill="#231F20"/><path d="M289 86.671c-3.726.886-5.719 1.329-10.829 1.329-9.79 0-15.247-5.758-15.247-16.565v-17.54H254v-9.126h8.924V29h9.962v15.769H286.4v9.125h-13.515v16.477c0 5.58 1.992 8.504 7.19 8.504 2.513 0 4.852-.177 7.884-.708l1.04 8.504z" id="Fill-12" fill="#231F20"/><path d="M324.321 8.675A65.966 65.966 0 01332 14c-.667-4.854-1.83-9.27-3.371-12.998V1c-3.91.49-8.209 1.661-12.629 3.495a65.433 65.433 0 018.321 4.18" id="Fill-14" fill="#7A6B7C"/><path d="M307.678 37.325A66.32 66.32 0 01300 32c0 .012.003.026.005.04.669 4.84 1.83 9.242 3.366 12.96 3.91-.49 8.21-1.661 12.629-3.495a65.334 65.334 0 01-8.322-4.18" id="Fill-16" fill="#F4811F"/><g id="Group-20" transform="translate(300)"><mask id="mask-4" fill="#fff"><use xlink:href="#path-3"/></mask><path d="M8.217 8.03a65.172 65.172 0 018.321-4.216C12.118 1.964 7.82.782 3.91.286A.042.042 0 013.906.3C2.562 3.584 1.504 7.399.814 11.575a62.715 62.715 0 00-.267 1.772l-.008.057a66.233 66.233 0 017.678-5.373" id="Fill-18" fill="#00ADEE" mask="url(#mask-4)"/></g><path d="M324.321 37.324a65.363 65.363 0 01-8.321 4.18c4.416 1.83 8.71 3.002 12.616 3.494a.037.037 0 00.012.002c1.542-3.728 2.705-8.145 3.372-13a66.04 66.04 0 01-7.679 5.324" id="Fill-21" fill="#61BB46"/><path d="M332 13.002V13c.404 3.02.625 6.206.625 9.502 0 3.296-.22 6.479-.625 9.498 3.645-3.016 6.69-6.255 8.99-9.486a.168.168 0 00.01-.012c-2.303-3.238-5.35-6.48-9-9.5" id="Fill-23" fill="#FFCA05"/><path d="M299.375 22.501c0-3.296.22-6.48.625-9.501l-.035.03c-3.633 3.013-6.67 6.245-8.965 9.471l.006.009c2.298 3.227 5.337 6.46 8.972 9.472L300 32a71.735 71.735 0 01-.625-9.499" id="Fill-25" fill="#816AAE"/><mask id="mask-6" fill="#fff"><use xlink:href="#path-5"/></mask><g id="Group" mask="url(#mask-6)" fill="#231F20"><g transform="translate(24 108)"><path id="Fill-27" d="M0 15V1h1.42v12.682H9V15z"/><path d="M10.262 2.03c-.548-.167-.834-.503-.834-.942C9.428.48 10 0 10.714 0 11.43 0 12 .481 12 1.088c0 .524-.12.67-1.786 3.912H9l1.262-2.97z" id="Fill-29"/><path d="M14.32 15h1.38V5.474h-1.38V15zM14 2.032C14 1.433 14.44 1 15 1s1 .433 1 1.032a.988.988 0 01-1 1.01c-.56 0-1-.433-1-1.01z" id="Fill-31"/><path d="M29 8.962V15h-1.405V9.298c0-1.866-1.018-2.978-2.688-2.978-1.059 0-2.24.064-3.502.295V15H20V5.524C21.405 5.21 23.482 5 25.151 5 27.534 5 29 6.489 29 8.962" id="Fill-33"/><path d="M41 8.962V15h-1.405V9.298c0-1.866-1.018-2.978-2.688-2.978-1.059 0-2.24.064-3.502.295V15H32V5.524C33.405 5.21 35.482 5 37.151 5 39.534 5 41 6.489 41 8.962" id="Fill-34"/><path d="M52.617 9.98c0-2.238-1.483-3.71-3.617-3.71-2.115 0-3.617 1.472-3.617 3.71 0 2.258 1.502 3.77 3.617 3.77 2.134 0 3.617-1.512 3.617-3.77m1.383 0c0 3.004-2.055 5.02-5 5.02-2.925 0-5-2.016-5-5.02C44 6.996 46.075 5 49 5c2.945 0 5 1.996 5 4.98" id="Fill-35"/><path id="Fill-36" d="M59.286 15L55 6h1.508l3.512 7.442L63.512 6H65l-4.266 9z"/><path d="M67.444 10c0 2.256 1.422 3.801 3.63 3.801 1.147 0 2.165-.304 3.482-1.138v-6.2A21.873 21.873 0 0071.16 6.2c-2.42 0-3.715 1.565-3.715 3.801M76 5.508v9.187h-1.444v-.833c-1.21.772-2.293 1.138-3.673 1.138C67.953 15 66 12.988 66 9.96 66.02 6.992 67.91 5 70.99 5c1.825 0 3.035.143 5.01.508" id="Fill-37"/><path d="M85 14.73c-.71.187-1.208.27-1.956.27-2.052 0-3.011-1.147-3.011-3.672V6.34H78V5.047h2.033V1h1.304v4.047H84.5v1.294h-3.164v4.862c0 1.731.537 2.504 1.918 2.504a9.05 9.05 0 001.592-.168L85 14.73z" id="Fill-38"/><path d="M88.32 15h1.38V5.474h-1.38V15zM88 2.032C88 1.433 88.44 1 89 1s1 .433 1 1.032a.988.988 0 01-1 1.01c-.56 0-1-.433-1-1.01z" id="Fill-39"/><path d="M100.617 9.98c0-2.238-1.483-3.71-3.617-3.71-2.115 0-3.617 1.472-3.617 3.71 0 2.258 1.502 3.77 3.617 3.77 2.134 0 3.617-1.512 3.617-3.77m1.383 0c0 3.004-2.055 5.02-5 5.02-2.925 0-5-2.016-5-5.02C92 6.996 94.075 5 97 5c2.945 0 5 1.996 5 4.98" id="Fill-40"/><path d="M114 8.962V15h-1.405V9.298c0-1.866-1.018-2.978-2.688-2.978-1.059 0-2.24.064-3.502.295V15H105V5.524c1.405-.314 3.482-.524 5.151-.524C112.534 5 114 6.489 114 8.962" id="Fill-41"/><path d="M131.56 9.899c0-2.19-1.272-3.724-3.709-3.724-1.186 0-2.16.08-3.39.259v6.711c1.696.3 2.416.278 3.476.278 2.203 0 3.622-1.513 3.622-3.524m1.441-.04c0 2.768-1.95 4.74-4.894 4.74-1.25 0-2.034 0-3.644-.28V19H123V5.498A25.99 25.99 0 01128.02 5c3.094 0 4.938 1.952 4.98 4.86" id="Fill-42"/><path d="M142.617 9.98c0-2.238-1.483-3.71-3.617-3.71-2.115 0-3.617 1.472-3.617 3.71 0 2.258 1.502 3.77 3.617 3.77 2.134 0 3.617-1.512 3.617-3.77m1.383 0c0 3.004-2.055 5.02-5 5.02-2.925 0-5-2.016-5-5.02 0-2.984 2.075-4.98 5-4.98 2.945 0 5 1.996 5 4.98" id="Fill-43"/><path d="M155 14.476c-1.388.336-3.49.524-5.163.524-2.367 0-3.837-1.258-3.837-3.962V5h1.388v5.766c0 1.95.96 2.997 2.694 2.997 1.06 0 2.244-.084 3.53-.293V5H155v9.476z" id="Fill-44"/><path d="M163 6.417c-1.299 0-2.345.041-3.663.211V15H158V5.508A26.227 26.227 0 01163 5v1.417z" id="Fill-45"/><path d="M180.559 9.899c0-2.19-1.27-3.724-3.707-3.724-1.187 0-2.161.08-3.39.259v6.711c1.695.3 2.415.278 3.474.278 2.203 0 3.623-1.513 3.623-3.524m1.441-.04c0 2.768-1.949 4.74-4.894 4.74-1.25 0-2.034 0-3.644-.28V19H172V5.498A25.989 25.989 0 01177.021 5c3.093 0 4.936 1.952 4.979 4.86" id="Fill-46"/><path d="M185.444 10c0 2.256 1.423 3.801 3.63 3.801 1.147 0 2.166-.304 3.483-1.138v-6.2a21.872 21.872 0 00-3.398-.264c-2.42 0-3.715 1.565-3.715 3.801M194 5.508v9.187h-1.443v-.833c-1.21.772-2.293 1.138-3.674 1.138-2.93 0-4.883-2.012-4.883-5.04.02-2.968 1.91-4.96 4.99-4.96 1.826 0 3.036.143 5.01.508" id="Fill-47"/><path d="M196.323 12.902c1.354.59 2.789.937 3.92.937 1.434 0 2.464-.57 2.464-1.63 0-1.2-1.394-1.425-3.212-1.812-2.04-.428-3.09-1.059-3.09-2.607 0-1.772 1.393-2.79 3.696-2.79 1.233 0 2.647.306 3.596.652l-.343 1.1c-1.152-.367-2.405-.612-3.354-.612-1.434 0-2.242.55-2.242 1.589 0 .978.848 1.201 2.505 1.589 2.202.488 3.737.916 3.737 2.77 0 1.934-1.576 2.912-3.838 2.912-1.293 0-2.828-.367-4.162-.937l.323-1.161z" id="Fill-48"/><path d="M206.323 12.902c1.354.59 2.789.937 3.92.937 1.434 0 2.464-.57 2.464-1.63 0-1.2-1.394-1.425-3.212-1.812-2.04-.428-3.09-1.059-3.09-2.607 0-1.772 1.393-2.79 3.696-2.79 1.233 0 2.647.306 3.596.652l-.343 1.1c-1.152-.367-2.405-.612-3.354-.612-1.434 0-2.242.55-2.242 1.589 0 .978.848 1.201 2.505 1.589 2.202.488 3.737.916 3.737 2.77 0 1.934-1.576 2.912-3.838 2.912-1.293 0-2.828-.367-4.162-.937l.323-1.161z" id="Fill-49"/><path d="M216.32 15h1.38V5.474h-1.38V15zM216 2.032c0-.599.44-1.032 1-1.032s1 .433 1 1.032a.988.988 0 01-1 1.01c-.56 0-1-.433-1-1.01z" id="Fill-50"/><path d="M228.617 9.98c0-2.238-1.483-3.71-3.617-3.71-2.115 0-3.617 1.472-3.617 3.71 0 2.258 1.502 3.77 3.617 3.77 2.134 0 3.617-1.512 3.617-3.77m1.383 0c0 3.004-2.055 5.02-5 5.02-2.925 0-5-2.016-5-5.02 0-2.984 2.075-4.98 5-4.98 2.945 0 5 1.996 5 4.98" id="Fill-51"/><path d="M241 8.962V15h-1.405V9.298c0-1.866-1.018-2.978-2.688-2.978-1.059 0-2.24.064-3.502.295V15H232V5.524c1.405-.314 3.482-.524 5.151-.524C239.534 5 241 6.489 241 8.962" id="Fill-52"/></g></g></g></g></svg>