<?xml version="1.0" encoding="utf-8"?>
<!-- Generator: Adobe Illustrator 28.1.0, SVG Export Plug-In . SVG Version: 6.00 Build 0)  -->
<svg version="1.1" id="Calque_1" xmlns="http://www.w3.org/2000/svg" xmlns:xlink="http://www.w3.org/1999/xlink" x="0px" y="0px"
	 viewBox="0 0 374.95 122.74" style="enable-background:new 0 0 374.95 122.74;" xml:space="preserve">
<style type="text/css">
	.st0{fill:#FFFFFF;stroke:#FFFFFF;stroke-width:4.9999;}
	.st1{fill:#DB0027;}
	.st2{fill:#909395;}
	.st3{fill:#FFFFFF;}
</style>
<g>
	<path class="st0" d="M354.3,2.5H282.9h-16.76H20.64C10.62,2.5,2.5,10.62,2.5,20.64v61.32c0,10.02,8.12,18.14,18.14,18.14h219.72
		h16.96h96.99c10.02,0,18.14-8.12,18.14-18.14V20.64C372.45,10.62,364.32,2.5,354.3,2.5z"/>
</g>
<g>
	<path class="st1" d="M176.33,62.55L234.96,2.5H20.64C10.62,2.5,2.5,10.62,2.5,20.64v61.32c0,10.02,8.12,18.14,18.14,18.14h188.73
		L176.33,62.55z"/>
	<path class="st2" d="M354.32,2.5h-88.17l-60.69,59.94l34.91,37.66h113.95c10.02,0,18.14-8.12,18.14-18.14V20.64
		C372.46,10.62,364.34,2.5,354.32,2.5z"/>
	<g>
		<path class="st3" d="M285.36,50.72c0.29,0.03,0.44,0.03,0.67,0.05c10.66,0.87,20.13-4.36,21.15-11.7
			c0.76-5.42-1.56-12.23-8.06-14.84l-21.05,24.69c-7.8-2.61-12.89-6.91-12.89-11.79c0-7.96,13.6-14.41,30.39-14.41
			c16.8,0,30.41,6.45,30.41,14.41c0,7.96-13.61,14.42-30.41,14.42C291.99,51.55,288.55,51.27,285.36,50.72z"/>
		<path class="st3" d="M241.07,58.83h7.31c4.86,0,9.42,2.98,9.42,9.26c0,6.34-5.36,9.28-9.82,9.28h-6.91V58.83z M246.82,74.38
			c4.15,0,7.52-1.78,7.52-6.29c0-4.5-2.93-6.28-6.96-6.28h-3.02v12.57H246.82z"/>
		<path class="st3" d="M260.47,58.83h3.3v18.54h-3.3V58.83z"/>
		<path class="st1" d="M281.99,67.41l8.38-8.58h4.45l-8.67,8.56l9.25,9.98h-4.64L281.99,67.41z"/>
		<path class="st3" d="M306.27,62.8c-0.7-0.99-1.96-1.46-3.25-1.46c-1.51,0-3.04,0.68-3.04,2.38c0,3.72,8.8,1.6,8.8,8.2
			c0,3.98-3.14,5.91-6.78,5.91c-2.31,0-4.56-0.7-6.08-2.51l2.49-2.4c0.81,1.22,2.21,1.94,3.67,1.94c1.52,0,3.25-0.84,3.25-2.55
			c0-4.06-8.8-1.73-8.8-8.35c0-3.82,3.41-5.6,6.84-5.6c1.94,0,3.88,0.54,5.32,1.91L306.27,62.8z"/>
		<path class="st3" d="M321.02,58.36c5.79-0.12,9.87,3.77,9.87,9.71c0,5.79-4.08,9.65-9.87,9.76c-5.71,0-9.79-3.88-9.79-9.67
			C311.23,62.22,315.31,58.36,321.02,58.36z M321.04,74.86c3.85,0,6.39-2.93,6.39-6.89c0-3.69-2.54-6.62-6.39-6.62
			c-3.82,0-6.36,2.93-6.36,6.62C314.68,71.92,317.22,74.86,321.04,74.86z"/>
		<path class="st3" d="M333.57,58.83h4.38l8.98,13.77l0.05,0.05h-0.05l0.05-0.05V58.83h3.3v18.54h-4.19l-9.17-14.22h-0.05v14.22
			h-3.31V58.83z"/>
		<g>
			<path class="st3" d="M354.45,57.84c1.31,0,2.38,1.07,2.38,2.38c0,1.31-1.07,2.38-2.38,2.38c-1.32,0-2.38-1.06-2.38-2.38
				C352.07,58.91,353.13,57.84,354.45,57.84z M354.45,62.18c1.08,0,1.96-0.87,1.96-1.96c0-1.07-0.88-1.96-1.96-1.96
				c-1.09,0-1.96,0.88-1.96,1.96C352.5,61.31,353.36,62.18,354.45,62.18z M353.53,58.85h1.05c0.65,0,0.96,0.3,0.96,0.81
				c0,0.48-0.28,0.71-0.65,0.75l0.71,1.16h-0.53l-0.68-1.11h-0.36v1.11h-0.5V58.85z M354.04,60.03h0.36c0.32,0,0.65-0.02,0.65-0.38
				c0-0.36-0.33-0.39-0.65-0.38h-0.36V60.03z"/>
		</g>
		<path class="st3" d="M276.28,74.83c-3.83,0-6.37-2.93-6.37-6.88c0-3.7,2.54-6.63,6.37-6.63c1.65,0,3.06,0.54,4.14,1.45l2.33-2.39
			c-1.7-1.35-3.92-2.09-6.49-2.04c-5.71,0-9.79,3.87-9.79,9.81c0,5.79,4.08,9.66,9.79,9.66c2.69-0.05,5.01-0.91,6.72-2.4l-2.14-2.45
			C279.73,74.13,278.16,74.83,276.28,74.83z"/>
	</g>
	<g>
		<g>
			<path class="st3" d="M25.22,77.23h-3.11l11.42-26.25h2.6l11.42,26.25h-3.12l-2.89-6.9H28.12L25.22,77.23z M29.12,67.88H40.5
				l-5.68-13.8L29.12,67.88z"/>
			<path class="st3" d="M74.75,55.79c-1.78-1.89-4.27-3.04-7.49-3.04c-6.75,0-10.79,5.3-10.79,11.35c0,6.05,4.04,11.35,10.79,11.35
				c2.71,0,5.3-0.74,7.27-1.86v-8.79h-6.27v-2.45h8.94v12.87c-2.93,1.74-6.75,2.67-9.94,2.67c-7.82,0-13.68-5.82-13.68-13.79
				c0-7.97,5.86-13.8,13.68-13.8c4.15,0,7.16,1.19,9.49,3.52L74.75,55.79z"/>
			<path class="st3" d="M92.27,77.23H89.6V50.97h8.08c5.34,0,8.64,2.3,8.64,7.01c0,3.63-2.41,6.42-6.71,6.79l7.56,12.46h-3.26
				l-7.19-12.2h-4.45V77.23z M92.27,62.58h4.75c4.78,0,6.42-2.08,6.42-4.6c0-2.52-1.63-4.56-6.42-4.56h-4.75V62.58z"/>
			<path class="st3" d="M120.01,74.78h14.05v2.45h-16.72V50.97h16.28v2.45h-13.61v8.94h12.72v2.45h-12.72V74.78z M124.72,52.95
				h-2.19l3.71-5.34h3.37L124.72,52.95z"/>
			<path class="st3" d="M148.53,74.78h14.05v2.45h-16.72V50.97h16.28v2.45h-13.61v8.94h12.72v2.45h-12.72V74.78z M153.24,52.95
				h-2.19l3.71-5.34h3.38L153.24,52.95z"/>
		</g>
		<g>
			<path class="st3" d="M34.43,29.33c-0.7-0.9-2.11-1.33-3.18-1.33c-1.24,0-2.96,0.56-2.96,2.06c0,3.63,9.18,1.3,9.18,8.28
				c0,4.45-3.58,6.57-7.69,6.57c-2.56,0-4.82-0.76-6.71-2.51l3.13-3.44c0.9,1.18,2.37,1.89,3.83,1.89c1.44,0,3.04-0.68,3.04-2.08
				c0-3.66-9.35-1.69-9.35-8.34c0-4.26,3.69-6.48,7.61-6.48c2.26,0,4.42,0.59,6.11,2.08L34.43,29.33z"/>
			<path class="st3" d="M46.01,28.35h-5.69v-3.89H56.1v3.89H50.4v16.06h-4.39V28.35z"/>
			<path class="st3" d="M69.43,23.95c6.23,0,10.76,4.09,10.76,10.48c0,6.4-4.54,10.48-10.76,10.48c-6.23,0-10.76-4.09-10.76-10.48
				C58.66,28.04,63.2,23.95,69.43,23.95z M69.43,40.86c3.75,0,6.2-2.7,6.2-6.42c0-3.72-2.45-6.42-6.2-6.42c-3.75,0-6.2,2.7-6.2,6.42
				C63.23,38.15,65.68,40.86,69.43,40.86z"/>
			<path class="st3" d="M84.59,24.46h7.72c4.08,0,7.52,1.41,7.52,6.06c0,2.79-1.49,4.96-4.31,5.47l5.07,8.42h-5.27l-4.17-7.97h-2.17
				v7.97h-4.4V24.46z M88.98,32.71h2.59c1.6,0,3.69-0.06,3.69-2.23c0-2-1.8-2.31-3.41-2.31h-2.87V32.71z"/>
			<path class="st3" d="M104.2,24.46h4.4v19.95h-4.4V24.46z"/>
			<path class="st3" d="M123.87,29.33c-0.7-0.9-2.11-1.33-3.18-1.33c-1.24,0-2.96,0.56-2.96,2.06c0,3.63,9.18,1.3,9.18,8.28
				c0,4.45-3.58,6.57-7.69,6.57c-2.56,0-4.82-0.76-6.71-2.51l3.13-3.44c0.9,1.18,2.37,1.89,3.83,1.89c1.44,0,3.04-0.68,3.04-2.08
				c0-3.66-9.35-1.69-9.35-8.34c0-4.26,3.69-6.48,7.61-6.48c2.25,0,4.42,0.59,6.11,2.08L123.87,29.33z"/>
			<path class="st3" d="M135.45,28.35h-5.69v-3.89h15.78v3.89h-5.69v16.06h-4.4V28.35z"/>
			<path class="st3" d="M149.34,24.46h13.55v4.06h-9.16v3.72h8.65v4.06h-8.65v4.05h9.66v4.06h-14.06V24.46z"/>
		</g>
	</g>
	<g>
		<path class="st3" d="M23.39,110.58h1.86l3.48,9.65h0.03l3.62-9.65h1.76l-4.67,11.86h-1.51L23.39,110.58z"/>
		<path class="st3" d="M36.51,116.51c0-3.52,2.56-6.23,6.18-6.23c3.62,0,6.18,2.71,6.18,6.23c0,3.52-2.56,6.23-6.18,6.23
			C39.07,122.74,36.51,120.02,36.51,116.51z M47.16,116.51c0-2.6-1.76-4.72-4.47-4.72s-4.47,2.13-4.47,4.72
			c0,2.6,1.76,4.72,4.47,4.72S47.16,119.1,47.16,116.51z"/>
		<path class="st3" d="M55.33,112.08h-3.82v-1.51h9.24v1.51h-3.82v10.35h-1.61V112.08z"/>
		<path class="st3" d="M64.15,110.58h4.17c3.03,0,3.8,1.83,3.8,3.32c0,1.51-1.12,2.93-2.91,3.13l3.37,5.41h-2.01l-3.01-5.22h-1.79
			v5.22h-1.61V110.58z M65.75,115.8h2.11c1.27,0,2.54-0.3,2.54-1.91c0-1.61-1.27-1.91-2.54-1.91h-2.11V115.8z"/>
		<path class="st3" d="M76.06,110.58h7.65v1.51h-6.05v3.53h5.63v1.51h-5.63v3.8h6.35v1.51h-7.96V110.58z"/>
		<path class="st3" d="M94.3,110.58h4.17c3.03,0,3.8,1.83,3.8,3.32c0,1.49-0.77,3.32-3.8,3.32h-2.56v5.22H94.3V110.58z M95.91,115.8
			h2.11c1.27,0,2.54-0.3,2.54-1.91c0-1.61-1.27-1.91-2.54-1.91h-2.11V115.8z"/>
		<path class="st3" d="M105.91,110.58h4.17c3.03,0,3.8,1.83,3.8,3.32c0,1.51-1.12,2.93-2.91,3.13l3.37,5.41h-2.01l-3.01-5.22h-1.79
			v5.22h-1.61V110.58z M107.52,115.8h2.11c1.27,0,2.54-0.3,2.54-1.91c0-1.61-1.27-1.91-2.54-1.91h-2.11V115.8z"/>
		<path class="st3" d="M117.08,116.51c0-3.52,2.56-6.23,6.18-6.23c3.62,0,6.18,2.71,6.18,6.23c0,3.52-2.56,6.23-6.18,6.23
			C119.65,122.74,117.08,120.02,117.08,116.51z M127.74,116.51c0-2.6-1.76-4.72-4.47-4.72c-2.71,0-4.47,2.13-4.47,4.72
			c0,2.6,1.76,4.72,4.47,4.72C125.98,121.23,127.74,119.1,127.74,116.51z"/>
		<path class="st3" d="M133.43,110.58h7.45v1.51h-5.84v3.72h5.44v1.51h-5.44v5.12h-1.61V110.58z"/>
		<path class="st3" d="M144.73,110.58h7.65v1.51h-6.05v3.53h5.63v1.51h-5.63v3.8h6.35v1.51h-7.96V110.58z"/>
		<path class="st3" d="M156.99,119.95c0.57,0.87,1.56,1.27,2.51,1.27c1.05,0,2.36-0.67,2.36-1.98c0-2.73-5.84-1.04-5.84-5.66
			c0-1.39,1.17-3.32,4.02-3.32c1.29,0,2.53,0.27,3.42,1.36l-1.31,1.19c-0.4-0.62-1.19-1.04-2.11-1.04c-1.78,0-2.31,1.07-2.31,1.81
			c0,3,5.84,1.2,5.84,5.48c0,2.29-1.84,3.67-4.12,3.67c-1.52,0-2.98-0.52-3.79-1.64L156.99,119.95z"/>
		<path class="st3" d="M167.98,119.95c0.57,0.87,1.56,1.27,2.51,1.27c1.05,0,2.36-0.67,2.36-1.98c0-2.73-5.84-1.04-5.84-5.66
			c0-1.39,1.17-3.32,4.02-3.32c1.29,0,2.53,0.27,3.42,1.36l-1.31,1.19c-0.4-0.62-1.19-1.04-2.11-1.04c-1.78,0-2.31,1.07-2.31,1.81
			c0,3,5.85,1.2,5.85,5.48c0,2.29-1.84,3.67-4.12,3.67c-1.52,0-2.98-0.52-3.79-1.64L167.98,119.95z"/>
		<path class="st3" d="M178.62,110.58h1.61v11.86h-1.61V110.58z"/>
		<path class="st3" d="M184.21,116.51c0-3.52,2.56-6.23,6.18-6.23c3.62,0,6.18,2.71,6.18,6.23c0,3.52-2.56,6.23-6.18,6.23
			C186.77,122.74,184.21,120.02,184.21,116.51z M194.86,116.51c0-2.6-1.76-4.72-4.47-4.72c-2.71,0-4.47,2.13-4.47,4.72
			c0,2.6,1.76,4.72,4.47,4.72C193.1,121.23,194.86,119.1,194.86,116.51z"/>
		<path class="st3" d="M200.56,110.58h2.11l6.53,9.75h0.03v-9.75h1.61v11.86h-2.04l-6.6-9.75h-0.03v9.75h-1.61V110.58z"/>
		<path class="st3" d="M215.57,110.58h2.11l6.53,9.75h0.03v-9.75h1.61v11.86h-2.04l-6.6-9.75h-0.03v9.75h-1.61V110.58z"/>
		<path class="st3" d="M230.58,110.58h7.65v1.51h-6.05v3.53h5.63v1.51h-5.63v3.8h6.35v1.51h-7.96V110.58z"/>
		<path class="st3" d="M242.49,110.58h1.61v10.35h5.44v1.51h-7.05V110.58z"/>
		<path class="st3" d="M258.93,110.58h4.14c5.01,0,6.23,3.74,6.23,5.93c0,3.03-2.26,5.93-6.5,5.93h-3.87V110.58z M260.53,120.93
			h2.03c2.71,0,5.02-1.49,5.02-4.42c0-1.51-0.79-4.42-4.64-4.42h-2.41V120.93z"/>
		<path class="st3" d="M274.67,110.58v7.27c0,1.47,0.74,3.38,2.98,3.38c2.24,0,2.98-1.91,2.98-3.38v-7.27h1.61v7.52
			c0,2.75-1.99,4.64-4.59,4.64c-2.6,0-4.59-1.89-4.59-4.64v-7.52H274.67z"/>
		<path class="st3" d="M293.44,119.95c0.57,0.87,1.56,1.27,2.51,1.27c1.05,0,2.36-0.67,2.36-1.98c0-2.73-5.84-1.04-5.84-5.66
			c0-1.39,1.17-3.32,4.02-3.32c1.29,0,2.53,0.27,3.42,1.36l-1.31,1.19c-0.4-0.62-1.19-1.04-2.11-1.04c-1.78,0-2.31,1.07-2.31,1.81
			c0,3,5.85,1.2,5.85,5.48c0,2.29-1.84,3.67-4.12,3.67c-1.52,0-2.98-0.52-3.79-1.64L293.44,119.95z"/>
		<path class="st3" d="M306.55,112.08h-3.82v-1.51h9.25v1.51h-3.82v10.35h-1.61V112.08z"/>
		<path class="st3" d="M314.63,116.51c0-3.52,2.56-6.23,6.18-6.23c3.62,0,6.18,2.71,6.18,6.23c0,3.52-2.56,6.23-6.18,6.23
			C317.19,122.74,314.63,120.02,314.63,116.51z M325.28,116.51c0-2.6-1.76-4.72-4.47-4.72c-2.71,0-4.47,2.13-4.47,4.72
			c0,2.6,1.76,4.72,4.47,4.72C323.52,121.23,325.28,119.1,325.28,116.51z"/>
		<path class="st3" d="M330.98,110.58h4.17c3.03,0,3.8,1.83,3.8,3.32c0,1.51-1.12,2.93-2.91,3.13l3.37,5.41h-2.01l-3.01-5.22h-1.79
			v5.22h-1.61V110.58z M332.59,115.8h2.11c1.27,0,2.54-0.3,2.54-1.91c0-1.61-1.27-1.91-2.54-1.91h-2.11V115.8z"/>
		<path class="st3" d="M342.89,110.58h7.65v1.51h-6.05v3.53h5.63v1.51h-5.63v3.8h6.35v1.51h-7.96V110.58z"/>
	</g>
</g>
</svg>
