<?xml version="1.0" encoding="UTF-8" standalone="no"?>
<svg width="157px" height="65px" viewBox="0 0 157 65" version="1.1" xmlns="http://www.w3.org/2000/svg" xmlns:xlink="http://www.w3.org/1999/xlink" xmlns:sketch="http://www.bohemiancoding.com/sketch/ns">
    <!-- Generator: Sketch 3.3.2 (12043) - http://www.bohemiancoding.com/sketch -->
    <title>Logo Luxaflex_CMYK</title>
    <desc>Created with Sketch.</desc>
    <defs>
        <path id="path-1" d="M0.0149521531,0.0572796935 L156.22184,0.0572796935 L156.22184,65 L0.0149521531,65"></path>
    </defs>
    <g id="Page-1" stroke="none" stroke-width="1" fill="none" fill-rule="evenodd" sketch:type="MSPage">
        <g id="2.-Navigatie" sketch:type="MSArtboardGroup" transform="translate(-180.000000, -10.000000)">
            <g id="Menu-" sketch:type="MSLayerGroup">
                <g id="Logo-Luxaflex_CMYK" transform="translate(180.000000, 10.000000)">
                    <g id="Group-3">
                        <mask id="mask-2" sketch:name="Clip 2" fill="white">
                            <use xlink:href="#path-1"></use>
                        </mask>
                        <g id="Clip-2"></g>
                        <path d="M26.5345893,0.0572796935 L0,65 L129.687251,65 L156.22184,0.0572796935 L26.5345893,0.0572796935" id="Fill-1" fill="#1A1918" sketch:type="MSShapeGroup" mask="url(#mask-2)"></path>
                    </g>
                    <path d="M57.1496212,40.4140613 C56.8054725,41.2647893 57.7158094,41.440364 57.7158094,41.440364 C58.6258971,41.6480651 58.0405203,42.5864559 58.0275618,42.6327778 L52.0982855,42.6327778 L52.4404406,41.8941188 L52.8232157,40.873295 C52.8232157,40.873295 51.1149322,43.3335824 47.3160885,42.7762261 C43.4845993,42.2141379 45.2192982,39.1172989 45.3566089,38.7091188 L47.6153808,33.4954215 C47.9597787,32.6446935 47.0494418,32.4691188 47.0494418,32.4691188 C46.1391049,32.2614176 46.7247309,31.3230268 46.7850379,31.2358621 L53.0011463,31.2358621 L49.7851874,39.2520307 C49.7851874,39.2520307 49.1110945,40.672567 50.0079745,40.991341 C50.9048545,41.3098659 52.8992225,40.3341188 53.3111543,39.4681992 L55.8874103,33.4954215 C56.231559,32.6446935 55.3214713,32.4691188 55.3214713,32.4691188 C54.4111344,32.2614176 54.9965112,31.3230268 55.0570674,31.2358621 L60.9195574,31.2358621 L57.1496212,40.4140613" id="Fill-4" fill="#FFFFFF" sketch:type="MSShapeGroup"></path>
                    <path d="M120.937998,31.2358621 L127.796551,31.2358621 C127.539125,32.4474521 127.447917,32.2367625 126.333483,32.4691188 C126.333483,32.4691188 125.651415,32.6818008 125.944478,33.5835824 L126.762859,35.5587356 L129.467454,33.4772414 C130.527313,32.6444444 129.783692,32.4723563 129.783692,32.4723563 C129.067484,32.2683908 129.539972,31.335728 129.673794,31.2358621 L134.384719,31.2358621 C134.126794,32.4618966 134.035835,32.2367625 132.921402,32.4691188 C132.921402,32.4691188 132.52193,32.4531801 130.314743,34.3399234 L127.41577,36.7045785 L128.8751,40.4028544 C129.238437,41.3467241 129.905801,41.3830843 129.905801,41.3830843 C130.780253,41.5907854 130.218052,42.5291762 130.159988,42.616341 L122.558064,42.616341 C122.81549,41.404751 122.906449,41.6154406 124.020883,41.3830843 C124.020883,41.3830843 124.702951,41.1701533 124.410138,40.2686207 L123.591507,38.2934674 L121.088268,40.4036015 C120.028409,41.2363985 120.772279,41.4087356 120.772279,41.4087356 C121.488238,41.6124521 121.0155,42.5451149 120.882177,42.6307854 L116.171501,42.6307854 C116.429177,41.4191954 116.446621,41.6998659 117.387111,41.4645211 C117.387111,41.4645211 117.976724,41.4787165 120.160237,39.596954 L122.935108,37.1640613 L121.469049,33.4493487 C121.105961,32.5054789 120.438347,32.4691188 120.438347,32.4691188 C119.564145,32.2614176 120.126346,31.3230268 120.18441,31.2358621 L125.951705,31.2358621" id="Fill-5" fill="#FFFFFF" sketch:type="MSShapeGroup"></path>
                    <path d="M63.614683,31.2358621 L70.4732356,31.2358621 C70.2158094,32.4474521 70.1246013,32.2367625 69.0101675,32.4691188 C69.0101675,32.4691188 68.3281001,32.6818008 68.6211623,33.5835824 L69.4395435,35.5587356 L72.1441388,33.4772414 C73.2039972,32.6444444 72.4603768,32.4723563 72.4603768,32.4723563 C71.7441687,32.2683908 72.2169059,31.335728 72.3507277,31.2358621 L77.0614035,31.2358621 C76.8034789,32.4618966 76.7127691,32.2367625 75.5980861,32.4691188 C75.5980861,32.4691188 75.1986144,32.4531801 72.9914274,34.3399234 L70.0924541,36.7045785 L71.5520335,40.4028544 C71.9153708,41.3467241 72.582486,41.3830843 72.582486,41.3830843 C73.4569378,41.5907854 72.8947368,42.5291762 72.8366726,42.616341 L65.2347488,42.616341 C65.492175,41.404751 65.583134,41.6154406 66.6975678,41.3830843 C66.6975678,41.3830843 67.3796352,41.1701533 67.0870714,40.2686207 L66.2681918,38.2934674 L63.7649522,40.4036015 C62.7053429,41.2363985 63.4489633,41.4087356 63.4489633,41.4087356 C64.1649222,41.6124521 63.692185,42.5451149 63.5588616,42.6307854 L58.8481858,42.6307854 C59.1058612,41.4191954 59.1233054,41.6998659 60.0637959,41.4645211 C60.0637959,41.4645211 60.6534091,41.4787165 62.8369219,39.596954 L65.6117923,37.1640613 L64.1457337,33.4493487 C63.7826455,32.5054789 63.1150319,32.4691188 63.1150319,32.4691188 C62.2408293,32.2614176 62.8030303,31.3230268 62.8613437,31.2358621 L68.6283892,31.2358621" id="Fill-6" fill="#FFFFFF" sketch:type="MSShapeGroup"></path>
                    <path d="M112.155353,33.0581034 C112.668212,32.5014943 113.455443,32.1222031 114.19059,32.1222031 C114.906549,32.1222031 115.278858,32.364272 115.307516,32.8479119 C115.336174,33.3318008 115.095694,34.1805364 114.586324,35.395613 L110.561453,35.3946169 C111.062101,34.3274713 111.642245,33.6159579 112.155353,33.0581034 L112.155353,33.0581034 Z M116.278658,39.6666858 C115.604316,40.0758621 115.052083,40.3734674 114.620963,40.5592529 C113.807067,40.9153831 112.284938,41.4495785 111.535337,41.4490805 C111.535337,41.4490805 107.928878,41.6821839 109.892344,36.5578927 L118.363487,36.559636 C118.455193,36.3374904 118.552133,36.0162261 118.653309,35.5950958 C118.87809,34.6975479 118.920205,33.9676054 118.778907,33.4032759 C118.588517,32.6566475 118.117524,32.0728927 117.365929,31.6522605 C116.614334,31.2313793 115.713467,31.0204406 114.664075,31.0201916 C112.823465,31.0196935 111.03743,31.536954 109.305223,32.5699808 C107.573016,33.6037548 106.320275,35.0561686 105.547249,36.925728 C104.692235,38.9937739 104.756778,40.4992337 105.742374,41.4423563 C106.726974,42.385728 108.005632,42.8571648 109.5781,42.8576628 C110.671601,42.8579119 111.70305,42.7040038 112.674691,42.3959387 C113.966059,41.9810345 115.257426,41.2864559 116.547797,40.3156897 L116.278658,39.6666858 L116.278658,39.6666858 Z" id="Fill-7" fill="#FFFFFF" sketch:type="MSShapeGroup"></path>
                    <path d="M102.229615,40.3567816 C101.885217,41.2075096 102.795554,41.3830843 102.795554,41.3830843 C103.705642,41.5907854 103.120514,42.5291762 103.059958,42.616341 L95.2758672,42.616341 C95.290321,42.5291762 95.510616,41.5907854 96.5988836,41.3830843 C96.5988836,41.3830843 97.659988,41.2075096 98.0457536,40.3567816 L105.141547,22.9671648 C105.485945,22.1164368 104.575608,21.9408621 104.575608,21.9408621 C103.665271,21.7331609 104.250897,20.7950192 104.311204,20.7076054 L110.270385,20.7076054 L102.229615,40.3567816" id="Fill-8" fill="#FFFFFF" sketch:type="MSShapeGroup"></path>
                    <path d="M83.2229366,38.2897318 C81.7302133,41.7790613 79.242175,41.4635249 79.242175,41.4635249 C79.242175,41.4635249 77.6034191,41.4326437 78.5032895,39.26 C79.5210327,36.8034483 83.809061,36.9292146 83.809061,36.9292146 L83.2229366,38.2897318 L83.2229366,38.2897318 Z M77.4992524,34.1852682 C78.0527313,34.5717816 78.7689394,34.5717816 78.7689394,34.5717816 C78.7689394,34.5717816 79.6585925,34.6793678 80.765301,34.1317241 C81.8720096,33.5843295 81.3479366,32.6337356 81.3479366,32.6337356 L81.2617125,32.5084674 C81.7912679,32.2367625 82.1845096,32.1416284 82.7354964,32.1418774 C84.1464813,32.1423755 84.8582037,33.1878544 84.3241627,34.4791379 L83.7654506,35.8648084 C83.7654506,35.8648084 75.6912879,34.8733716 73.9757775,39.1638697 C72.2602671,43.4543678 79.2960028,43.8680268 82.0195375,41.2052682 C82.0195375,41.2052682 82.3125997,43.3124138 84.8761463,42.7416092 C85.7371411,42.5498467 86.4725379,42.3394061 87.421252,41.4610345 L87.2124203,40.9480077 C86.934061,41.1071456 86.7386862,41.2050192 86.6262959,41.2408812 C86.5139055,41.2764943 86.3975279,41.2941762 86.2784091,41.2941762 C86.1386065,41.2941762 86.0424143,41.2324138 85.9888357,41.1088889 C85.9352572,40.9858621 85.952203,40.8366858 86.0394238,40.6616092 C86.0394238,40.6616092 87.983453,36.3021264 88.1155303,35.980613 C89.2795554,33.1397893 87.8152412,31.0256705 83.8905502,31.0256705 C81.4388955,31.0256705 79.88437,31.4510345 78.9127293,31.9257088 C76.2405303,33.2406513 77.4992524,34.1852682 77.4992524,34.1852682 L77.4992524,34.1852682 Z" id="Fill-9" fill="#FFFFFF" sketch:type="MSShapeGroup"></path>
                    <path d="M25.6591407,48.7517433 C23.2483553,49.7115517 20.8216208,49.5626245 20.8216208,49.5626245 C20.8216208,49.5626245 13.5132576,49.400249 13.5179924,46.7663793 C13.5227273,44.1327586 19.1975678,44.294387 21.4077452,44.4472989 C25.2918162,44.7155172 30.6850578,45.6404598 30.6850578,45.6404598 C30.6850578,45.6404598 28.6809709,47.5483716 25.6591407,48.7517433 L25.6591407,48.7517433 Z M88.5319478,49.8562452 L38.1352173,43.1415709 C43.1190191,38.5437548 48.672498,24.6267816 48.672498,24.6267816 C49.8587022,22.1595211 55.2392344,6.79685824 66.2098784,6.79685824 C66.2724282,6.79561303 70.5300538,6.77643678 71.8293959,9.66333333 C72.421252,10.9785249 72.380632,12.7935441 71.5801934,14.7525096 C68.5339414,22.2070881 61.0987341,23.9097893 57.7205443,24.2300575 C57.2056918,24.2786207 56.3633872,24.61159 56.1296352,25.1440421 L56.0394238,25.3569732 C63.0183413,25.3569732 72.3340311,22.5973372 75.3448963,15.1883333 C76.3260068,12.7738697 76.6631778,10.3960153 74.8858652,8.24354406 C72.4603768,5.30584291 66.4169657,5.38005747 66.1939294,5.38503831 C57.7566786,5.38503831 53.3373206,8.70252874 53.3373206,8.70252874 C47.4566388,12.2498851 43.0848784,22.6401724 43.0848784,22.6401724 C39.7642544,30.5213602 36.991876,37.6063602 33.419059,42.3929502 C33.419059,42.3929502 30.7662978,41.9080651 24.2045455,41.4378736 C16.2482556,40.867567 13.20001,43.2658429 12.1805223,45.6494253 C11.2936104,47.7227011 12.6874003,51.0108046 20.2594199,51.0108046 C28.8868122,51.0108046 34.7303628,46.1719157 34.7303628,46.1719157 L86.3793361,53.9096552 L88.5319478,49.8562452 Z" id="Fill-10" fill="#FFFFFF" sketch:type="MSShapeGroup"></path>
                    <path d="M90.0488437,50.4327778 C90.0690291,50.3904406 90.0899621,50.3495977 90.1098983,50.3070115 L94.6877492,38.8971456 L96.8044757,33.6834483 C97.172797,32.8327203 98.1616328,32.6571456 98.1616328,32.6571456 L99.4387959,32.4691188 C100.453798,32.2614176 100.668361,31.3230268 100.682815,31.2358621 L97.8461423,31.2358621 L102.445425,19.9970881 C102.445425,19.9970881 104.988038,13.4858812 110.734151,13.4858812 L111.340461,13.4794061 L111.347438,13.5426628 L111.039922,13.5463985 C109.602771,13.6923372 108.358254,14.5433142 107.922648,15.6067241 C107.445175,16.7724904 108.147677,17.7186015 109.752791,17.7193487 C111.357905,17.7203448 112.521182,16.7622797 113.029805,15.6094636 C114.483403,12.3148851 109.94692,12.4110153 109.559161,12.4110153 C107.38437,12.4110153 101.960726,12.2063027 98.4305223,19.8436782 C97.5408692,21.7682759 93.3941388,31.2358621 93.3941388,31.2358621 L90.2863337,31.2358621 C90.2257775,31.3230268 89.6374103,32.2614176 90.5519837,32.4691188 L91.7638557,32.6571456 C91.7638557,32.6571456 92.6741926,32.8327203 92.3300439,33.6834483 L85.6892943,49.8562452 L83.5366826,53.9096552 C81.7020534,56.4877395 79.7166567,57.507567 78.1962719,57.8791379 C77.1835128,58.1266858 76.1697568,58.1700192 75.6902911,58.8245019 L75.4914274,59.0822605 C75.4914274,59.0822605 82.3920953,59.8881609 87.3721591,54.4597893 L90.0488437,50.4327778" id="Fill-11" fill="#FFFFFF" sketch:type="MSShapeGroup"></path>
                    <path d="M87.2213915,54.3111111 C88.9914773,54.5377395 91.8620415,54.8926245 96.5051834,55.4487356 C107.454645,56.7601916 121.05936,55.9019923 131.787779,45.6862835 L132.108254,45.3956513 C132.108254,45.3956513 130.64992,45.2728736 129.499103,46.0869923 C120.546501,52.7458812 110.066537,52.0567816 106.106958,51.8804598 C101.279406,51.6657854 94.1796252,50.8285057 89.9035586,50.2840996" id="Fill-12" fill="#FFFFFF" sketch:type="MSShapeGroup"></path>
                    <path d="M138.645335,9.78337165 L139.210526,9.78337165 C139.853718,9.78337165 140.399721,9.54952107 140.399721,8.94584291 C140.399721,8.51699234 140.087719,8.08863985 139.210526,8.08863985 C138.957087,8.08863985 138.781649,8.10806513 138.645335,8.12749042 L138.645335,9.78337165 L138.645335,9.78337165 Z M138.645335,12.4912069 L137.865331,12.4912069 L137.865331,7.60151341 C138.274771,7.54298851 138.664773,7.48471264 139.249402,7.48471264 C139.990032,7.48471264 140.477721,7.64061303 140.770036,7.85478927 C141.0626,8.06921456 141.218351,8.40019157 141.218351,8.86789272 C141.218351,9.51091954 140.789474,9.90042146 140.263158,10.0563218 L140.263158,10.0951724 C140.691786,10.1731226 140.984101,10.5626245 141.082037,11.2836015 C141.198913,12.0434291 141.315789,12.3355556 141.39379,12.4912069 L140.575159,12.4912069 C140.458034,12.3355556 140.340909,11.8875287 140.24372,11.2445019 C140.126844,10.6211494 139.814593,10.3872989 139.191089,10.3872989 L138.645335,10.3872989 L138.645335,12.4912069 L138.645335,12.4912069 Z M139.463716,6.23775862 C137.53439,6.23775862 135.955193,7.89363985 135.955193,9.93927203 C135.955193,12.0237548 137.53439,13.6602107 139.483652,13.6602107 C141.432915,13.679636 142.992175,12.0237548 142.992175,9.95869732 C142.992175,7.89363985 141.432915,6.23775862 139.483652,6.23775862 L139.463716,6.23775862 L139.463716,6.23775862 Z M139.483652,5.55613027 C141.880981,5.55613027 143.791617,7.50413793 143.791617,9.93927203 C143.791617,12.4132567 141.880981,14.3420881 139.463716,14.3420881 C137.066388,14.3420881 135.116876,12.4132567 135.116876,9.93927203 C135.116876,7.50413793 137.066388,5.55613027 139.463716,5.55613027 L139.483652,5.55613027 L139.483652,5.55613027 Z" id="Fill-13" fill="#FFFFFF" sketch:type="MSShapeGroup"></path>
                </g>
            </g>
        </g>
    </g>
</svg>