<?xml version="1.0" encoding="UTF-8"?>
<svg id="svg4155" xmlns="http://www.w3.org/2000/svg" xmlns:svg="http://www.w3.org/2000/svg" xmlns:sodipodi="http://sodipodi.sourceforge.net/DTD/sodipodi-0.dtd" xmlns:rdf="http://www.w3.org/1999/02/22-rdf-syntax-ns#" xmlns:inkscape="http://www.inkscape.org/namespaces/inkscape" xmlns:dc="http://purl.org/dc/elements/1.1/" xmlns:cc="http://creativecommons.org/ns#" version="1.1" viewBox="0 0 640 218.7">
  <!-- Generator: Adobe Illustrator 29.8.2, SVG Export Plug-In . SVG Version: 2.1.1 Build 3)  -->
  <sodipodi:namedview id="base" bordercolor="#666666" borderopacity="1.0" fit-margin-bottom="0" fit-margin-left="0" fit-margin-right="0" fit-margin-top="0" inkscape:current-layer="layer1" inkscape:cx="300.49263" inkscape:cy="5.7114907" inkscape:document-units="px" inkscape:pageopacity="0.0" inkscape:pageshadow="2" inkscape:window-height="1056" inkscape:window-maximized="1" inkscape:window-width="1855" inkscape:window-x="65" inkscape:window-y="24" inkscape:zoom="0.98994949" pagecolor="#ffffff" showgrid="false" units="px"/>
  <g id="layer1" inkscape:groupmode="layer" inkscape:label="Calque 1">
    <g id="g4929">
      <path id="path4910" d="M256.4,201.3c-.1-.1-.1-.8,0-1.4.3-1.1.3-1.1,3.7-1,3,.1,3.5,0,4.6-.8,1.4-1.1,2.2-2.8,2.6-5.7l.3-2.1-1.4,1.3c-2.8,2.6-5.2,3-7,1.2-1-1-1.1-1.3-.9-4.8.1-3.1.4-4.1,1.3-5.7,1.5-2.5,3.3-3.9,6-4.6,2.3-.6,6.6-.3,7.1.4.5.8-3,17.9-4,19.8-1.4,2.6-3.8,3.6-8.4,3.6s-3.8-.1-3.9-.2ZM264,190.8c2.2-1.2,6.3-9.1,5.4-10.5-.5-.8-4.3-.2-5.6.9-1.7,1.5-2.7,4.1-2.7,6.8,0,3.2.8,4,2.9,2.8ZM310.7,201.3c-.3-.1-.4-.6-.2-1.4.3-1.1.4-1.1,3.4-1,1.7,0,3.6,0,4.3-.3,1.6-.7,2.9-3.1,3.3-6l.3-2.3-1.4,1.3c-2.8,2.6-5.2,3-7,1.2-.9-.9-1-1.4-1-4,0-5,1.8-8.6,5.2-10.4,1.4-.8,2.5-.9,5.3-1,1.9,0,3.7.2,3.9.4.7.7-3,18.9-4.2,20.6-1.5,2.1-3.8,3-7.9,2.9-1.9,0-3.6-.1-3.9-.2h0ZM319.2,189.9c1.8-1.8,4-6.3,4.2-8.3v-1.5c.1,0-2.2,0-2.2,0-2.1,0-2.4.2-3.7,1.6-1.6,1.7-2.3,3.9-2.3,6.7,0,3.3,1.6,3.9,4,1.5h0ZM157.3,193.6c-1.9-.7-2.1-2.7-.8-8.9.5-2.3.7-4.3.5-4.5-.2-.2-.8-.4-1.4-.5-1.6-.2-1.5-1.8.2-2,1.8-.2,2.2-.7,2.5-2.7.3-2.2.9-2.9,2.2-2.9s1,0,.9,2.7v2.7c-.1,0,1.6.2,1.6.2,1.3.2,1.7.4,1.7,1.1s-.3.9-2,1c-2.5.2-2.5.2-3.5,5.9-.9,4.9-.7,5.7,1.6,5.7s2.1,1.2,1,2c-.8.6-3.2.7-4.5.3ZM453.1,193.4c-.6-.4,13.7-75.1,14.5-76,.7-.7,12.2-.8,13.2-.2.5.3-.7,7-6.7,38.2-4,20.8-7.4,37.9-7.4,38-.3.3-13.1.4-13.6,0h0ZM167,192.7c0-1.5,4-21.6,4.4-22.1.6-.7,2-.7,2.3,0,.1.3-.2,2.6-.6,5-.5,2.4-.8,4.4-.7,4.5,0,0,.9-.4,1.9-1.2,2.2-1.8,5.1-2.2,6.4-.9,1.4,1.4,1.5,2.6.2,9l-1.2,6.1h-1.4c-1.7.3-1.6.5-.5-5.2,1.1-5.8,1.1-7.6,0-8-2.6-.8-6.2,4.8-7.8,12.3-.2,1-.5,1.2-1.5,1.2s-1.3-.2-1.3-.7h0ZM186.1,193.1c-.1-.2.4-3.7,1.2-7.8.8-4.1,1.4-7.5,1.4-7.6,0,0,.6-.1,1.3-.1,1.1,0,1.3.2,1.3,1,0,1.3-2.4,13.8-2.8,14.3-.3.5-2.2.6-2.5.1ZM195.2,192.5c0-1.6,2.5-14.1,2.9-14.5.2-.2.8-.3,1.4-.2.9.1,1,.3.9,1.6v1.4c-.1,0,1.7-1.5,1.7-1.5,1.9-1.6,3.9-2.3,5.7-1.8,2.3.6,2.5,3.3.9,11.1l-1,4.7h-1.4c-1.7.3-1.6.4-.5-5.4,1-5.2,1.1-6.9.2-7.6-2-1.6-6.2,3.7-7.5,9.4-.9,3.9-.8,3.8-2.2,3.8s-1.2-.2-1.2-1h0ZM214.2,193.1c-.2-.4,3.8-22,4.2-22.7.3-.5,2.2-.5,2.5,0,.1.2-.3,2.8-.8,5.8-1.5,7.7-1.4,7.9,2.2,4.1,2.7-2.8,3.1-3.1,4.1-2.9.6.2,1.1.5,1.1.8s-1.3,1.9-3,3.5c-1.6,1.6-3,3.1-3,3.3s.9,1.9,1.9,3.8,1.9,3.7,1.9,4-.5.6-1.5.6c-1.4,0-1.5-.1-3.2-3.4-1.8-3.5-2.4-4.1-2.7-2.4-1.2,5.5-1.3,5.6-2.4,5.8-.6,0-1.2,0-1.4-.2h0ZM230.3,193.1c-.1-.2.3-3.3,1-6.9,1.8-9.2,1.5-8.5,3-8.5s1.3.2,1.3,1c0,1.2-2.4,13.9-2.8,14.4-.3.5-2.2.5-2.5,0h0ZM239.4,192.5c0-1.6,2.5-14.1,2.9-14.5.2-.2.8-.3,1.4-.2.9.1,1,.3.9,1.6v1.5c-.1,0,1.7-1.6,1.7-1.6,2.1-1.8,4.1-2.3,5.9-1.6,2.1.9,2.2,2.4.9,9.4l-1.1,6.1h-1.4c-1.7.3-1.7.2-.5-5.5,1.2-6,1.1-7.9-.7-7.9s-3.6,2.7-4.8,5.1c-1.1,2.2-1.5,3.4-2.3,7.3-.2,1-.5,1.2-1.5,1.2s-1.3-.2-1.3-1h0ZM284.4,193.2c-.2-.3,3.6-21.3,4.1-22.5.2-.6,2.2-.8,2.6-.2.1.2-.2,2.4-.6,4.9-.5,2.5-.8,4.7-.6,4.8.1.1.8-.3,1.4-.9,2.2-2.1,4.8-2.6,6.6-1.1,1.4,1.1,1.5,2.7.3,8.9-1.3,6.8-1.1,6.4-2.6,6.4s-1.3,0-1.1-1.6c.1-.9.5-3.7,1-6.2.8-4.3.8-4.6,0-5.3-.7-.7-.8-.7-2.1,0-2.5,1.3-4.6,5.2-6.1,11.4-.3,1.2-.6,1.5-1.5,1.6-.6,0-1.2,0-1.3-.2h0ZM303.3,192.7c0-.4.6-3.9,1.4-7.8l1.4-7h1.4c1.7-.3,1.7-.6,0,8.3l-1.4,7h-1.4c-1.1.2-1.4.1-1.4-.5h0ZM330.5,192.9c0-1.3,4-21.9,4.4-22.4.6-.7,2-.7,2.3.1.1.4-.1,2.6-.6,5-.5,2.4-.8,4.4-.7,4.5s.6-.2,1.1-.7c3.5-3.2,7.7-2.9,8.2.7.1.8-.3,4.1-1,7.2-1.1,5.3-1.3,5.8-2.2,5.9-.6,0-1.2,0-1.4-.2-.2-.2,0-2.7.7-6.1.6-3.1,1.1-5.7,1.1-5.8,0-.4-1.4-1.5-1.9-1.5-2.1,0-5.7,5.7-6.7,10.7-.5,2.6-.6,2.7-1.9,2.8-.9,0-1.4,0-1.4-.4h0ZM352.7,192.5c0-.5.7-4.6,1.6-9.2.9-4.5,1.5-8.3,1.4-8.4s-1.1-.2-2.3-.3c-2.8-.1-3.2-.3-3.2-1.5s.7-1.5,8.5-1.4c5.5.1,6.6.2,6.7.8.2,1.4-.7,1.9-3.6,2.1l-2.9.2-1.8,9.2c-1,5-1.8,9.2-1.8,9.3,0,0-.6.1-1.3.1-1,0-1.3-.2-1.3-.9h0ZM365.5,192.8c0-1.2,3.4-19.1,3.8-20.1.4-.9.6-1,5.4-.9h5v1.2c0,1,0,1.1-3.7,1.2-3,0-3.8.3-4.1.9-.3.6-1.1,4.2-1.1,5.4,0,.2,1.5.5,3.4.6,3.3.2,3.4.2,3.4,1.3s0,1.1-3.7,1.2c-3.4.1-3.7.2-3.9,1.1-1.5,6.8-1.7,6.3,2.5,6.3s4.3.3,3.9,1.7c-.2.8-.7.8-5.6.8s-5.3,0-5.3-.7h0ZM379.9,193.1c0-.2,1.8-2.6,4-5.3,2.2-2.7,4-5.3,4-5.7s-.9-2.7-1.9-5.1c-1.1-2.4-1.8-4.6-1.7-4.8.4-.6,2.2-.5,2.8.1.3.3,1.1,2,1.9,3.7s1.6,3.2,1.8,3.2,1.6-1.4,3-3.2,2.9-3.4,3.2-3.8c.8-.6,2.5-.5,2.7.1,0,.2-1.6,2.6-3.7,5.2l-3.9,4.8,2.2,5c1.2,2.7,2.2,5.2,2.2,5.6,0,.4-.5.5-1.6.4-1.5-.1-1.6-.2-3.3-4.1-.9-2.2-1.9-3.9-2.1-3.8-.2,0-1.8,1.8-3.5,4-2.8,3.4-3.3,3.8-4.7,4-.9,0-1.6,0-1.6-.2h0ZM189.9,174.5c-.4-.4-.7-.9-.7-1.1,0-1,1-2.1,1.8-2.1,2,0,2.7,2,1,3.2-1.2.8-1.4.8-2.2,0h0ZM234.2,174.7c-1.5-.9-.7-3.4,1.2-3.4s2.6,2,1,3.2c-1.1.8-1.2.8-2.1.2ZM307.5,174.7c-.9-.5-1-2.1-.2-2.9.8-.8,2.4-.6,2.9.3.5,1,.2,2-.9,2.6-.9.5-.9.5-1.8,0h0ZM70.5,147.1c-.6-.4-.3-3.1,1.1-10.7l.7-3.6h193.8c0-.1,193.8-.2,193.8-.2v.9c0,1.6-2.3,12.9-2.7,13.5-.3.4-39.5.5-193.3.5-106.1,0-193.2-.2-193.5-.4h0ZM406.9,112.7c-12.8,0-20.1-.3-20.1-.5,0-1,2.2-11.8,2.6-12.7l.4-1h20.8c15.9,0,20.9.1,21,.5,0,.3-.4,3.3-1.1,6.7-1.2,6-1.8,7.4-3.1,7.2-.2,0-9.5-.2-20.6-.2h0ZM452.8,112.6c-.6-5.3.7-7.8,2-13.9h22.9c0-.1,22.9-.2,22.9-.2v.9c0,1.4-2.2,12.5-2.5,12.8-.3.3-44.3.7-45.2.4h0ZM521.6,112.5c-.5-.3.2-5.6,1.5-11.4l.5-2.3h20.8c11.5-.2,21,0,21.2.1.4.4-2,12.8-2.5,13.4-.4.4-40.8.7-41.5.2h0ZM472.1,93.7c-.1-.3,2.3-13.6,5.4-29.5,3.1-15.9,6.4-32.9,7.3-37.8s1.8-9,1.8-9.1c0,0,3.3,0,7.1,0h7c0,.1-7.3,38.1-7.3,38.1-4,20.9-7.5,38.2-7.6,38.4-.5.7-13.4.7-13.7-.1h0Z" inkscape:connector-curvature="0" sodipodi:nodetypes="csccscssssccsscssssscsssscssscccscccsccsccccsscssssccssssscccssccsccscsssccscssscscssccsccscscsccssssscscsscssssssssccccsscccccccscscsccsssssccscscscssssscsccccscssccccccsscsssccssssscssscsssscscssssscssscssssssssssssccsssccscsscscssscsscccsscsccccccscccssscssscscscsccccscccscscsccsscccsccc"/>
      <path id="path4908" d="M418.5,193.1c-.1-.2,1.6-9.5,3.7-20.8l3.9-20.4h6.7c5.5-.2,6.7-.1,6.7.4,0,.9-7.6,40.3-7.9,40.8-.3.5-12.8.5-13.1,0h0ZM487.5,192.9c0-.3,1.6-9.6,3.7-20.8l3.9-20.2h6.7c4.8-.2,6.7,0,6.7.3,0,.8-7.7,40.6-7.9,40.9-.1.2-3.1.3-6.6.3s-6.4-.1-6.6-.5h0ZM70.2,145.5c.2-.9.4-1.9.6-2.3.2-.4.7-2.5,1.1-4.7.4-2.2.9-4.4,1.1-4.8.4-.7,10-.7,193.3-.7h192.9v.9c0,.5-.5,3.6-1.1,6.8l-1.1,5.9h-192.8c-106,0-193.1.1-193.5.3-.6.2-.7,0-.4-1.4h0ZM480.7,146.3c-.2-.3,2.1-12.2,2.5-12.9.3-.5,75.4-.5,75.7,0,.1.2-.3,3.2-1,6.7-.7,3.5-1.3,6.4-1.3,6.4,0,.3-75.8.1-75.9-.2h0ZM431.2,127.7c-.2-.4,7.1-39.5,8.2-44,.2-.9.3-1,6.8-1s6.6,0,6.6.9c0,1.6-8.2,43.6-8.6,44.1-.6.8-12.6.8-12.9,0h0ZM500.2,127.7c-.2-.5,7.4-41.5,8.2-44.2.2-.7.9-.7,6.8-.7s6.6,0,6.6.7c0,1.5-8.3,43.8-8.6,44.3-.6.8-12.6.8-12.9,0ZM81.7,113.2c-.2,0-1.3-.3-2.4-.4-1.8-.2-2-.4-2-1.4,0-1.2,1.5-8.5,1.8-8.8,0,0,1.3.1,2.7.5,1.4.4,3.9.7,5.5.7,3.9,0,6.5-1.3,7.6-4,1.3-3.3,0-5.2-5.7-8.5-7.1-4.1-9.1-8.6-6.8-15.8,2.1-6.6,8.1-11,16.2-11.8,3.3-.3,11.3,0,11.8.5.2.2,0,2.2-.5,4.7l-.8,4.4h-1.3c-.7-.1-2.8-.3-4.7-.5-2.9-.2-3.7-.2-5.4.6-2.3,1-3.5,2.6-3.5,4.8s1.4,3.6,5.9,6.3c4.6,2.7,6.8,4.9,7.7,7.8.8,2.8.8,4.2,0,7.4-2.3,8.7-10.4,13.9-21.7,13.8-2.1,0-4,0-4.3-.2ZM113.4,112.1c0-.3,5.9-11.1,13-24.1l13-23.5h13.9l.2,1.2c1.6,7.9,7.9,46.3,7.6,46.6-.2.2-2.9.3-6.1.2h-5.7c0-.1-.5-3.3-.5-3.3-1-5.8.4-5.1-10.1-5.1s-9.2-.5-12.2,4.8l-1.9,3.5h-5.6c-4.2.2-5.6.1-5.6-.3ZM146.3,93.2c0-1.2-.5-4.7-1.1-7.9-.7-4.2-1.1-5.8-1.6-5.9-.8-.1-9.1,14.6-8.8,15.5.2.5,1.3.6,5.9.5h5.7c0-.1-.1-2.2-.1-2.2ZM174.6,112.2c-.1-.2,1.4-8.6,3.4-18.6s3.5-18.5,3.4-18.8c-.1-.4-1.7-.5-6-.5-6.7,0-6.2.6-5.1-5.8l.7-4h18c14.1,0,18,.1,18,.5,0,1.3-1.4,8.3-1.8,8.7-.3.4-2.1.5-6.1.5s-5.7,0-6.1,1c-.2.5-1.9,8.9-3.8,18.7-1.9,9.8-3.5,18-3.6,18.2-.3.5-10.7.6-11,.1ZM216.7,112.2c-.1-.2,1.4-8.6,3.4-18.6,2-10.1,3.5-18.5,3.4-18.8-.1-.4-1.7-.5-6-.5h-5.8v-1.2c0-.6.4-2.8.8-4.8l.7-3.6h18c16.3-.2,18-.2,18,.5,0,1.7-1.5,8.5-1.9,8.8-.3.2-3,.3-6.1.3-4.9,0-5.7,0-6,.8-.2.4-1.9,8.6-3.7,18.2-1.8,9.6-3.4,17.9-3.7,18.4-.4.9-.6,1-5.7,1s-5.4-.1-5.5-.3h0ZM249.9,112.1c-.2-.3,5.3-30.5,8.3-45.5l.4-2.2h5.5c5,0,5.5,0,5.5.7,0,.4-1.5,8.7-3.4,18.4-3.1,16.3-3.3,17.7-2.7,18.2.5.4,2.7.5,7.4.5s6.7,0,6.7.7c0,1.5-1.4,8.4-1.8,8.9-.5.7-25.7.8-26.1.1ZM286.6,112.2c-.2-.3,8.4-46,8.8-47.2.2-.5,2.8-.6,14.5-.6s14.3.1,14.3.3c0,1.1-1.5,7.7-1.8,8.1-.3.4-2.6.5-8.7.5-9.6,0-8.6-.6-9.7,5.5-.5,2.8-.6,3.7-.2,4.2.4.5,2,.6,8.2.6h7.7l-.3,2.2c-.2,1.2-.5,3.1-.8,4.2l-.5,2h-8.2c-7.6.2-8.2.3-8.4,1-.6,2-1.8,9.1-1.6,9.7.2.5,1.9.6,8.5.6h8.3v1c0,1.2-1.2,7.5-1.5,8-.3.5-28.2.5-28.4,0h0ZM328.4,111.8c0-.4,2-11.2,4.4-23.9,4.1-21.9,4.4-23.2,5.4-23.5,1.7-.6,18.6-.4,21.9.2,4.7,1,7.3,2.8,9.1,6.2,1.3,2.4,1.1,8.1-.3,11.1-2,4.3-5.4,7.2-10.5,9-1.4.5-2.6,1.1-2.6,1.3s2.1,4.6,4.7,9.8c2.6,5.1,4.7,9.7,4.7,10,0,.6-.9.6-6.5.5h-6.5c0-.1-3.9-9.3-3.9-9.3-2.1-5-4.1-9.2-4.3-9.3-.7-.2-.9.5-2.6,9.3-.9,4.7-1.8,8.7-1.9,8.9-.2.2-2.5.4-5.6.4-4.8,0-5.3,0-5.3-.7h0ZM353,84.7c5.1-2.4,6.4-9,2.2-11.2-1.8-1-7.1-1-7.7,0-.6.9-2.5,10.8-2.2,11.6.4,1.1,5.1.8,7.8-.4h0ZM394,77.4c0-.4,2.2-11.5,2.4-12.2.2-.7,2.4-.7,38.3-.7h38.1l-.3,1.4c-.1.8-.7,3.7-1.3,6.4-.6,2.8-1,5.1-1,5.2s-17.1.2-38.1.2-38.1,0-38.1-.2h0ZM494.1,76.8c0-.5.5-3.4,1.1-6.6l1.1-5.8h38.2c21-.2,38.2-.2,38.3-.1,0,0,0,.9-.4,1.9-.3,1-.9,3.9-1.5,6.5l-.9,4.7h-38c-37.5.2-38,.2-38-.6h0ZM444.2,58.9c0-.2,1.7-9.4,3.8-20.3s3.8-20.2,3.8-20.7c0-.8.4-.8,7.1-.8h7.1l-.3,1c-.2.5-2.1,10-4.2,21l-3.9,20h-6.7c-4.2.2-6.7,0-6.7-.2h0ZM513.2,59c0-.2,1.8-9.7,3.9-21.1l4-20.8h7c6.5,0,6.9,0,6.7.7-.2.4-2.1,9.8-4.2,21l-3.9,20.2h-6.7c-3.7.2-6.7,0-6.7,0h0Z" inkscape:connector-curvature="0"/>
    </g>
  </g>
</svg>