<?xml version="1.0" encoding="utf-8"?>
<!-- Generator: Adobe Illustrator 28.1.0, SVG Export Plug-In . SVG Version: 6.00 Build 0)  -->
<svg version="1.1" id="Calque_1" xmlns="http://www.w3.org/2000/svg" xmlns:xlink="http://www.w3.org/1999/xlink" x="0px" y="0px"
	 viewBox="0 0 641.93 295.56" style="enable-background:new 0 0 641.93 295.56;" xml:space="preserve" fill="currentColor">
<polygon points="564.07,0 577.09,0 564.07,20.61 "/>
<g>
	<path d="M57.78,71.08c-4.08-4.08-7.55-6.33-14.09-6.33c-8.17,0-17.15,6.12-17.15,19.6v64.11H0V42.09h25.93V52.3
		c5.1-6.12,15.31-11.43,26.75-11.43c10.41,0,17.76,2.65,25.11,10L57.78,71.08z"/>
	<path d="M111.47,103.55c0,13.68,8.37,23.68,23.27,23.68c11.64,0,17.35-3.27,24.09-10l16.13,15.72
		c-10.82,10.82-21.23,16.74-40.42,16.74c-25.11,0-49.2-11.43-49.2-54.51c0-34.71,18.78-54.31,46.34-54.31
		c29.6,0,46.35,21.64,46.35,50.84v11.84H111.47z M149.44,73.94c-2.86-6.33-8.78-11.02-17.76-11.02c-8.98,0-14.9,4.7-17.76,11.02
		c-1.63,3.88-2.25,6.74-2.45,11.43h40.42C151.69,80.68,151.07,77.82,149.44,73.94z"/>
	<path d="M236.41,65.37v83.09h-26.54V65.37h-11.02V45.16h11.02V31.89c0-15.11,9.39-30.42,31.03-30.42h15.11v22.46H245.6
		c-6.33,0-9.19,3.47-9.19,9.6v11.64h19.6v20.21H236.41z"/>
	<path d="M310.52,148.46c-21.85,0-31.03-15.31-31.03-30.42V3.1h26.54v113.31c0,6.33,2.65,9.6,9.39,9.6h10.21v22.46
		H310.52z"/>
	<path d="M366.63,103.55c0,13.68,8.37,23.68,23.27,23.68c11.64,0,17.35-3.27,24.09-10l16.13,15.72
		c-10.82,10.82-21.23,16.74-40.42,16.74c-25.11,0-49.2-11.43-49.2-54.51c0-34.71,18.78-54.31,46.34-54.31
		c29.6,0,46.34,21.64,46.34,50.84v11.84H366.63z M404.61,73.94c-2.86-6.33-8.78-11.02-17.76-11.02s-14.9,4.7-17.76,11.02
		c-1.63,3.88-2.25,6.74-2.45,11.43h40.42C406.85,80.68,406.24,77.82,404.61,73.94z"/>
	<path d="M518.91,148.46l-19.6-31.85l-19.39,31.85h-31.85l36.75-54.31L449.5,42.09h31.85l17.97,30.42l18.17-30.42h31.85
		l-35.32,52.06l36.75,54.31H518.91z"/>
</g>
<path d="M424.42,179.08c6.48,5.63,10.54,13.55,10.54,22.17h-13.58c0-11.79-9.12-20.06-22.29-20.06
	c-13.78,0-22.7,8.8-22.9,20.23v0.88c0,8.45,6.89,13.55,16.42,18.13c4.66,2.29,9.93,4.58,15.4,6.69c10.94,4.4,20.67,10.2,26.95,18.65
	c3.04,4.22,4.66,9.5,4.66,15.66c0,9.33-4.86,17.77-12.16,23.93c-7.5,6.16-17.83,9.86-28.37,9.86c-10.74,0-20.47-3.87-27.56-10.2
	c-7.3-6.16-11.55-14.61-11.55-23.93v-0.88h12.97v0.88c0,6.34,2.84,11.97,7.7,16.01c4.66,4.23,11.15,6.69,18.44,6.69
	s13.98-2.46,18.85-6.69c4.86-4.04,8.11-9.68,8.11-16.01c0-10.03-6.89-16.19-16.21-21.11c-4.66-2.46-9.73-4.75-15.2-6.86
	c-10.94-4.22-20.67-9.32-26.95-16.72c-3.04-3.69-4.66-8.27-4.66-14.08v-0.88c0-8.62,4.05-16.54,10.54-22.35
	c6.48-5.63,15.6-9.15,25.53-9.15C408.81,169.93,417.93,173.45,424.42,179.08z"/>
<path d="M527.39,179.78c7.09,6.16,11.35,14.61,11.35,23.93v57.89c0,9.33-4.26,17.77-11.35,23.93
	c-7.09,6.16-16.82,9.85-27.56,9.85c-10.74,0-20.47-3.69-27.56-9.85c-7.09-6.16-11.35-14.61-11.35-23.93v-57.89
	c0-9.33,4.26-17.77,11.35-23.93c7.09-6.16,16.82-9.85,27.56-9.85C510.57,169.93,520.3,173.62,527.39,179.78z M481.59,187.88
	c-4.86,4.22-7.7,9.68-7.7,15.84v57.89c0,6.16,2.84,11.79,7.7,15.84c4.66,4.05,11.15,6.51,18.24,6.51c7.09,0,13.58-2.46,18.44-6.51
	c4.66-4.05,7.5-9.68,7.5-15.84v-57.89c0-6.16-2.84-11.62-7.5-15.84c-4.86-4.05-11.35-6.51-18.44-6.51
	C492.74,181.37,486.25,183.83,481.59,187.88z"/>
<path d="M628.96,260.9v0.88c0,6.16-2.84,11.79-7.5,15.83c-4.86,4.05-11.35,6.51-18.44,6.51s-13.58-2.46-18.24-6.51
	c-4.86-4.04-7.7-9.68-7.7-15.83V27.03l-13.01,20.05l0.04,214.7c0,9.32,4.26,17.77,11.35,23.93c7.09,6.16,16.82,9.86,27.56,9.86
	s20.47-3.7,27.56-9.86c7.09-6.16,11.35-14.61,11.35-23.93v-0.88H628.96z"/>
<g>
	<path d="M8.07,200.59c-3.36,0-5.56-0.85-7.67-2.96L2.04,196c1.85,1.85,3.58,2.45,6.1,2.45c3.27,0,5.28-1.54,5.28-4.15
		c0-1.16-0.35-2.17-1.07-2.8c-0.72-0.63-1.29-0.82-2.92-1.07l-2.61-0.41c-1.76-0.28-3.14-0.85-4.12-1.7
		c-1.13-1.01-1.7-2.39-1.7-4.18c0-3.8,2.73-6.32,7.17-6.32c2.86,0,4.75,0.72,6.66,2.45l-1.54,1.54c-1.38-1.26-2.86-1.92-5.22-1.92
		c-2.99,0-4.71,1.67-4.71,4.15c0,1.1,0.31,1.98,1.01,2.58c0.69,0.6,1.85,1.04,3.02,1.23l2.45,0.38c2.11,0.31,3.14,0.75,4.09,1.57
		c1.23,1.04,1.89,2.58,1.89,4.43C15.8,198.17,12.72,200.59,8.07,200.59z"/>
	<path d="M27.37,180.16v20.24h-2.39v-20.24h-6.48v-2.14h15.34v2.14H27.37z"/>
	<path d="M50.1,198.27c-1.51,1.51-3.49,2.33-5.72,2.33s-4.21-0.82-5.72-2.33c-2.11-2.11-2.11-4.31-2.11-9.05
		c0-4.75,0-6.95,2.11-9.05c1.51-1.51,3.49-2.33,5.72-2.33s4.21,0.82,5.72,2.33c2.11,2.11,2.11,4.31,2.11,9.05
		C52.2,193.96,52.2,196.16,50.1,198.27z M48.24,181.58c-0.97-1.01-2.39-1.6-3.87-1.6c-1.48,0-2.89,0.6-3.87,1.6
		c-1.41,1.45-1.57,2.95-1.57,7.64s0.16,6.19,1.57,7.64c0.97,1.01,2.39,1.6,3.87,1.6c1.48,0,2.89-0.6,3.87-1.6
		c1.41-1.45,1.57-2.96,1.57-7.64S49.66,183.02,48.24,181.58z"/>
	<path d="M70.68,200.41l-5.09-9.93h-5.38v9.93h-2.39v-22.38h8.58c3.9,0,6.63,2.36,6.63,6.22c0,3.27-1.98,5.41-4.87,6
		l5.31,10.15H70.68z M66.19,180.16h-5.97v8.2h5.97c2.61,0,4.46-1.35,4.46-4.09C70.65,181.54,68.8,180.16,66.19,180.16z"/>
	<path d="M78.45,200.41v-22.38h13.89v2.14h-11.5v7.89h9.81v2.14h-9.81v8.08h11.5v2.14H78.45z"/>
	<path d="M126,200.41l-1.79-5.06h-9.78l-1.79,5.06h-2.55l8.24-22.38h2.01l8.2,22.38H126z M119.37,181.45l-4.21,11.82
		h8.36L119.37,181.45z"/>
	<path d="M146.43,200.41l-11.88-17.95v17.95h-2.39v-22.38h2.26l11.88,17.88v-17.88h2.39v22.38H146.43z"/>
	<path d="M161.74,180.16v20.24h-2.39v-20.24h-6.48v-2.14h15.34v2.14H161.74z"/>
	<path d="M172.4,200.41v-22.38h2.39v22.38H172.4z"/>
	<path d="M196.06,200.59c-2.2,0-4.21-0.82-5.72-2.33c-2.11-2.11-2.11-4.31-2.11-9.05c0-4.75,0-6.95,2.11-9.05
		c1.51-1.51,3.52-2.33,5.72-2.33c4.02,0,7.01,2.45,7.76,6.66h-2.45c-0.6-2.73-2.51-4.53-5.31-4.53c-1.48,0-2.89,0.57-3.87,1.57
		c-1.41,1.45-1.57,2.99-1.57,7.67s0.16,6.22,1.57,7.67c0.97,1.01,2.39,1.57,3.87,1.57c2.8,0,4.78-1.79,5.38-4.53h2.39
		C203.1,198.14,200.06,200.59,196.06,200.59z"/>
	<path d="M222.12,200.41v-10.22H211.5v10.22h-2.39v-22.38h2.39v10.03h10.62v-10.03h2.39v22.38H222.12z"/>
	<path d="M244.03,200.41l-1.79-5.06h-9.78l-1.79,5.06h-2.55l8.24-22.38h2.01l8.2,22.38H244.03z M237.4,181.45
		l-4.21,11.82h8.36L237.4,181.45z"/>
	<path d="M250.19,200.41v-22.38h2.39v20.24h11.44v2.14H250.19z"/>
	<path d="M268.2,200.41v-22.38h13.89v2.14h-11.5v7.89h9.81v2.14h-9.81v8.08h11.5v2.14H268.2z"/>
	<path d="M294.54,200.59c-4.53,0-7.8-3.11-7.8-7.58v-14.99h2.39v14.8c0,3.39,2.14,5.63,5.41,5.63s5.44-2.23,5.44-5.63
		v-14.8h2.39v14.99C302.37,197.48,299.07,200.59,294.54,200.59z"/>
	<path d="M321.38,200.41l-5.09-9.93h-5.38v9.93h-2.39v-22.38h8.58c3.9,0,6.63,2.36,6.63,6.22c0,3.27-1.98,5.41-4.87,6
		l5.31,10.15H321.38z M316.89,180.16h-5.97v8.2h5.97c2.61,0,4.46-1.35,4.46-4.09C321.35,181.54,319.5,180.16,316.89,180.16z"/>
</g>
</svg>
