<?xml version="1.0" encoding="UTF-8"?>
<svg id="Calque_1" data-name="Calque 1" xmlns="http://www.w3.org/2000/svg" version="1.1" viewBox="0 0 286.2 51.7">
  <defs>
    <style>
      .cls-1 {
        fill: #737277;
      }

      .cls-1, .cls-2, .cls-3 {
        stroke-width: 0px;
      }

      .cls-2 {
        fill: #00a7e0;
      }

      .cls-3 {
        fill: #747578;
      }
    </style>
  </defs>
  <g>
    <path class="cls-1" d="M0,0h6.8v35.6c0,5.7,3.1,9.7,9.2,9.7s9.2-4,9.2-9.7V0h6.8v35.6c0,5.7,3.1,9.7,9.2,9.7s9.2-4,9.2-9.7V0h6.8v35.6c0,10.2-7.4,16.1-15,16.1s-10.2-1.5-13.7-6.6c-3.4,5.1-7.8,6.6-13.7,6.6S0,45.8,0,35.6V0Z"/>
    <path class="cls-1" d="M74.6,39.4l-2.6-5.1,17.2-9.6c-2.2-2.2-4-3.3-7.9-3.3-6.6,0-11.4,4.9-11.4,12.1s4.8,12.1,11.4,12.1,10.4-4.5,11.7-10.9l6.5.8c-.7,9.2-8.1,16.2-18.2,16.2s-18.1-7.4-18.1-18.2,8.4-18.2,18.1-18.2,13.6,4.3,16.9,11l-23.5,13.1Z"/>
    <path class="cls-1" d="M106.3,50.8V0h6.4v50.8h-6.4Z"/>
    <path class="cls-1" d="M122.4,50.8V0h6.4v50.8h-6.4Z"/>
    <path class="cls-1" d="M137.7,14.7l2.6-14.7h6.1l-3.3,14.7h-5.4Z"/>
    <path class="cls-1" d="M176.5,22.1h-4.9c-6,0-12,3.9-12,11.3s6,11.3,12,11.3h4.9v6.1h-6.1c-8.1,0-17.5-6.2-17.5-17.4s9.4-17.4,17.5-17.4h6.1v6.1Z"/>
    <path class="cls-1" d="M198.2,15.3c9.7,0,18.1,7.4,18.1,18.2s-8.4,18.2-18.1,18.2-18.1-7.4-18.1-18.2,8.4-18.2,18.1-18.2ZM198.2,45.5c6.6,0,11.4-4.9,11.4-12.1s-4.8-12.1-11.4-12.1-11.4,4.9-11.4,12.1,4.8,12.1,11.4,12.1Z"/>
    <path class="cls-1" d="M222,50.8v-23.7c0-6.5,5.4-11.9,12.5-11.9s7.8,1.6,10.2,4.9c2.3-3.3,6.2-4.9,10.2-4.9,7.1,0,12.5,5.4,12.5,11.9v23.7h-6.4v-22.2c0-4.4-2.5-7.3-6.2-7.3s-6.8,2.3-6.8,8.3v21.2h-6.4v-21.2c0-6-2.7-8.3-6.8-8.3s-6.2,2.8-6.2,7.3v22.2h-6.4Z"/>
    <path class="cls-1" d="M279,15.8c3.8,0,7.2,2.9,7.2,7s-3.3,7-7.2,7-7.2-2.9-7.2-7,3.3-7,7.2-7ZM279,28.6c3.1,0,5.5-2.5,5.5-5.8s-2.4-5.8-5.5-5.8-5.5,2.5-5.5,5.8,2.4,5.8,5.5,5.8ZM277.6,26.8h-1.3v-8.1h3.1c1.9,0,2.9.7,2.9,2.3s-.9,2.1-2.1,2.2l2.3,3.5h-1.4l-2.1-3.5h-1.3v3.5ZM277.6,22.3h1.7c1.1,0,1.7-.4,1.7-1.3s-.6-1.1-1.7-1.1h-1.6v2.4Z"/>
  </g>
  <g>
    <path class="cls-3" d="M0,0h6.8v35.6c0,5.7,3.1,9.7,9.2,9.7s9.2-4,9.2-9.7V0h6.8v35.6c0,5.7,3.1,9.7,9.2,9.7s9.2-4,9.2-9.7V0h6.8v35.6c0,10.2-7.4,16.1-15,16.1s-10.2-1.5-13.7-6.6c-3.4,5.1-7.8,6.6-13.7,6.6S0,45.8,0,35.6V0Z"/>
    <path class="cls-3" d="M74.6,39.4l-2.6-5.1,17.2-9.6c-2.2-2.2-4-3.3-7.9-3.3-6.6,0-11.4,4.9-11.4,12.1s4.8,12.1,11.4,12.1,10.4-4.5,11.7-10.9l6.5.8c-.7,9.2-8.1,16.2-18.2,16.2s-18.1-7.4-18.1-18.2,8.4-18.2,18.1-18.2,13.6,4.3,16.9,11l-23.5,13.1Z"/>
    <path class="cls-3" d="M106.3,50.8V0h6.4v50.8h-6.4Z"/>
    <path class="cls-3" d="M122.4,50.8V0h6.4v50.8h-6.4Z"/>
    <path class="cls-2" d="M137.7,14.7l2.6-14.7h6.1l-3.3,14.7h-5.4Z"/>
    <path class="cls-3" d="M176.5,22.1h-4.9c-6,0-12,3.9-12,11.3s6,11.3,12,11.3h4.9v6.1h-6.1c-8.1,0-17.5-6.2-17.5-17.4s9.4-17.4,17.5-17.4h6.1v6.1Z"/>
    <path class="cls-3" d="M198.2,15.3c9.7,0,18.1,7.4,18.1,18.2s-8.4,18.2-18.1,18.2-18.1-7.4-18.1-18.2,8.4-18.2,18.1-18.2ZM198.2,45.5c6.6,0,11.4-4.9,11.4-12.1s-4.8-12.1-11.4-12.1-11.4,4.9-11.4,12.1,4.8,12.1,11.4,12.1Z"/>
    <path class="cls-3" d="M222,50.8v-23.7c0-6.5,5.4-11.9,12.5-11.9s7.8,1.6,10.2,4.9c2.3-3.3,6.2-4.9,10.2-4.9,7.1,0,12.5,5.4,12.5,11.9v23.7h-6.4v-22.2c0-4.4-2.5-7.3-6.2-7.3s-6.8,2.3-6.8,8.3v21.2h-6.4v-21.2c0-6-2.7-8.3-6.8-8.3s-6.2,2.8-6.2,7.3v22.2h-6.4Z"/>
    <path class="cls-3" d="M279,15.8c3.8,0,7.2,2.9,7.2,7s-3.3,7-7.2,7-7.2-2.9-7.2-7,3.3-7,7.2-7ZM279,28.6c3.1,0,5.5-2.5,5.5-5.8s-2.4-5.8-5.5-5.8-5.5,2.5-5.5,5.8,2.4,5.8,5.5,5.8ZM277.6,26.8h-1.3v-8.1h3.1c1.9,0,2.9.7,2.9,2.3s-.9,2.1-2.1,2.2l2.3,3.5h-1.4l-2.1-3.5h-1.3v3.5ZM277.6,22.3h1.7c1.1,0,1.7-.4,1.7-1.3s-.6-1.1-1.7-1.1h-1.6v2.4Z"/>
  </g>
</svg>