<?xml version="1.0" encoding="utf-8"?>
<svg version="1.0" xmlns="http://www.w3.org/2000/svg" width="1024px" height="614px" viewBox="0 0 1024 614" preserveAspectRatio="xMidYMid meet">

 <g fill="currentColor">
  <path d="M370.88 487.48 c-14.48 -0.95 -27.25 -5.60 -38.38 -13.95 -2.47 -1.85 -7.65 -6.90 -9.68 -9.40 -6.63 -8.23 -11.55 -18.98 -13.43 -29.38 -0.90 -5 -1.23 -8.90 -1.25 -14.63 0 -11.68 1.92 -21.48 6.10 -31.05 4.70 -10.75 12.75 -20.27 22.50 -26.70 3.38 -2.22 6.30 -3.72 11.63 -6.03 3.25 -1.38 7.22 -2.53 12.38 -3.58 6.05 -1.23 8.18 -1.40 17.13 -1.40 7.32 0.03 8.65 0.08 11.88 0.57 8.48 1.33 14.80 3.30 21.73 6.80 3.72 1.85 10.52 6.25 10.52 6.80 0 0.15 -3.45 3.80 -7.68 8.15 -6.65 6.85 -7.80 7.93 -8.52 8 -0.65 0.08 -1.20 -0.20 -2.75 -1.27 -1.05 -0.75 -3.08 -2 -4.47 -2.80 l-2.58 -1.45 0 -1 c0 -0.85 -0.05 -0.95 -0.38 -0.68 -0.20 0.17 -0.38 0.57 -0.38 0.90 0 0.60 0 0.60 -0.93 0.20 -1.73 -0.75 -5.43 -1.85 -7.95 -2.38 -1.38 -0.28 -2.55 -0.57 -2.63 -0.68 -0.08 -0.10 -2.20 -0.20 -4.75 -0.25 -6.35 -0.10 -9.93 0.35 -15.70 2 -8.70 2.47 -16.70 8.15 -22.10 15.73 -2.05 2.83 -5.13 8.95 -6.18 12.23 -1.88 5.88 -2.38 9.20 -2.40 15.75 0 5.53 0.30 8.68 1.30 13.35 3.50 16.67 14.98 29.33 30.40 33.53 14.48 3.92 30.80 0.57 41.03 -8.48 1.73 -1.50 1.77 -1.52 3.22 -1.52 1.27 0.03 1.55 0.10 1.98 0.63 0.28 0.35 1.15 1.35 1.92 2.25 2.17 2.45 6.63 7.53 9.07 10.35 l2.17 2.53 -1.42 1.30 c-0.77 0.73 -2.55 2.10 -3.92 3.03 -2.17 1.48 -3.65 2.38 -7.63 4.63 -4 2.25 -13.45 5.43 -19.27 6.53 -4.85 0.88 -4.68 0.88 -9.73 1.27 -5 0.40 -5.95 0.43 -10.88 0.10z"/>
  <path d="M550.75 487.58 c-0.63 -0.05 -2.70 -0.30 -4.63 -0.57 -6.07 -0.85 -11.40 -2.42 -16.52 -4.88 -5.35 -2.55 -9.30 -5.35 -13.32 -9.48 l-2.35 -2.40 1.02 -1.10 c0.55 -0.60 2.97 -3 5.35 -5.30 2.38 -2.33 5.75 -5.60 7.47 -7.28 1.73 -1.70 3.33 -3.08 3.53 -3.08 0.22 0 1.23 0.98 2.22 2.20 2.28 2.72 4.28 4.50 7.22 6.32 5.50 3.47 13 5.22 19.23 4.50 6.70 -0.80 11.50 -2.97 15.35 -7 2.97 -3.10 4.20 -6.20 4.22 -10.65 0.03 -3.95 -1.27 -7.30 -3.90 -10.07 -2.35 -2.50 -7.30 -5.45 -11.90 -7.10 -1.83 -0.68 -11.02 -3.78 -12.75 -4.32 -2.92 -0.93 -9.48 -3.45 -11.73 -4.53 -1.30 -0.63 -2.63 -1.25 -2.92 -1.38 -0.32 -0.10 -1.90 -1.08 -3.53 -2.13 -2.10 -1.38 -3.70 -2.70 -5.57 -4.57 -4.65 -4.65 -7.03 -9.15 -8.25 -15.48 -1.38 -7.13 -0.98 -15 1.05 -20.92 3.85 -11.27 12.90 -19.60 26.08 -24 7.13 -2.38 16.02 -3.45 24.38 -2.90 12.10 0.77 22.45 4.60 30.65 11.30 1.08 0.88 1.85 1.70 1.85 1.95 0 0.25 -0.70 1.17 -1.55 2.08 -0.88 0.88 -3.92 4.10 -6.82 7.20 -7.60 8.13 -7.97 8.50 -8.30 8.50 -0.15 0 -0.75 -0.63 -1.33 -1.38 -1.90 -2.45 -6.28 -5.43 -9.88 -6.72 -7.25 -2.60 -15.65 -2.63 -22.17 -0.05 -5.18 2.03 -8.65 5.60 -9.80 10.02 -1.45 5.63 -0.17 10.68 3.55 14.15 3.70 3.47 7.63 5.25 21.42 9.75 12.27 3.97 17.77 6.50 23.35 10.68 5.80 4.32 9.88 10.60 11.52 17.65 0.95 4.13 1.33 7.53 1.15 10.90 -0.63 12.52 -4.82 21.75 -13.23 29.08 -8.30 7.25 -20.90 11.27 -34.80 11.13 -2.33 -0.03 -4.75 -0.08 -5.38 -0.13z"/>
  <path d="M681.25 487.40 c-14.70 -1.60 -26.55 -6.22 -36.75 -14.43 -11.30 -9.05 -18.63 -21.23 -22.10 -36.80 -0.93 -4.05 -1.80 -12.82 -1.30 -13 0.10 -0.03 0.08 -1.13 -0.10 -2.42 -0.38 -2.88 0.10 -10.02 1.02 -15.38 0.47 -2.70 1.92 -8.45 2.60 -10.25 2.38 -6.35 4.13 -9.95 7.13 -14.75 5.82 -9.27 15.35 -17.58 25.75 -22.38 6.80 -3.15 14.85 -5.32 23.13 -6.30 4.13 -0.47 15.95 -0.40 20 0.13 13.05 1.70 23.38 5.72 33.10 12.88 2.67 1.95 9.38 8.73 11.45 11.55 6.82 9.30 11.02 19.95 12.63 32 0.75 5.65 0.80 15.82 0.13 20.67 -0.65 4.57 -1.33 8.10 -2.17 11.07 -4.55 16.40 -14.57 29.45 -29.25 38.05 -3.38 1.98 -4.82 2.67 -9.50 4.53 -5.53 2.20 -11.70 3.70 -18.98 4.57 -4.45 0.52 -12.93 0.65 -16.77 0.25z m12.65 -20.90 c2.92 -0.28 8.50 -1.35 9.73 -1.88 0.43 -0.17 1.20 -0.45 1.75 -0.63 1.92 -0.60 6.70 -3.05 9.07 -4.68 3.13 -2.10 5.13 -3.85 7.75 -6.82 4.63 -5.20 7.57 -10.70 9.52 -17.88 1.48 -5.35 1.77 -6.97 2.10 -11.15 0.90 -11.50 -1.50 -22.30 -6.85 -30.88 -3.25 -5.20 -7.88 -9.95 -12.88 -13.18 -4.65 -3 -9.10 -4.80 -15.23 -6.07 -4.13 -0.88 -11.40 -1.10 -15.63 -0.50 -5.28 0.77 -10.20 2.22 -14.02 4.15 -5.18 2.60 -10.30 6.78 -13.95 11.35 -4.45 5.60 -7.55 12.45 -9.18 20.40 -0.68 3.20 -0.70 3.72 -0.70 10.13 -0.03 5.47 0.08 7.20 0.43 9.13 2.25 11.85 6.55 20.33 13.93 27.33 8.73 8.30 21.20 12.38 34.15 11.18z"/>
  <path d="M130.85 484.45 c-0.05 -0.10 -0.10 -29.23 -0.10 -64.75 0 -35.53 0 -64.72 0 -64.88 0 -0.40 0.93 -0.43 1.05 -0.05 0.08 0.20 0.35 0.20 1.08 0 1.25 -0.35 5.55 -0.38 5.75 -0.03 0.10 0.15 8.35 0.20 23.83 0.13 16.60 -0.08 23.92 -0.03 24.52 0.17 0.60 0.17 0.88 0.17 1 -0.03 0.32 -0.52 7.20 0.47 12.75 1.85 7.75 1.92 14 4.63 20.40 8.75 8.13 5.25 15.05 12.98 19.48 21.67 5.22 10.32 7.40 20.92 7.07 34.20 -0.32 12.70 -3.17 22.58 -9.38 32.47 -3.20 5.10 -7.05 9.52 -11.80 13.50 -7.70 6.47 -15.57 10.70 -25.50 13.73 -3.38 1.02 -10.38 2.53 -14.13 3.05 -2.22 0.30 -55.85 0.50 -56.03 0.20z m44.78 -21.23 c12.38 -0.60 22.75 -3.63 30.75 -8.90 2.85 -1.90 8.13 -6.97 9.82 -9.50 1.58 -2.33 3.65 -6.43 4.50 -8.85 1.92 -5.50 2.97 -13.48 2.58 -19.73 -0.70 -10.75 -3.50 -18.85 -8.82 -25.52 -5.20 -6.50 -14.07 -11.52 -23.77 -13.45 -6.13 -1.23 -7.68 -1.33 -21.80 -1.50 -7.43 -0.08 -13.88 -0.10 -14.32 -0.05 -0.60 0.05 -0.80 0.17 -0.70 0.45 0.08 0.20 0.15 19.92 0.15 43.85 l0 43.47 8.20 0 c4.50 0 10.55 -0.13 13.43 -0.28z"/>
  <path d="M266.58 484.60 c-0.25 -0.13 -0.32 -13.18 -0.32 -64.18 0 -35.22 0.08 -64.47 0.15 -64.97 l0.17 -0.95 11.45 0 11.48 0 0 65 0 65 -10.80 0 c-5.95 0 -11.05 0.05 -11.32 0.13 -0.28 0.05 -0.65 0.05 -0.80 -0.03z"/>
  <path d="M777.10 484.52 c-0.22 -0.25 -0.10 -129.27 0.15 -129.27 0.15 0 0.25 -0.15 0.25 -0.32 0 -0.30 2.40 -0.35 13.82 -0.38 7.57 -0.03 14.45 0.05 15.23 0.15 l1.42 0.17 1.58 2.38 c0.88 1.33 3.50 5.35 5.82 8.95 2.35 3.63 5.15 7.95 6.25 9.63 1.10 1.67 4.88 7.45 8.35 12.80 3.50 5.38 7.78 11.93 9.50 14.55 1.73 2.65 3.92 6.03 4.88 7.50 1.60 2.47 3.42 5.30 8.27 12.70 0.98 1.52 2.20 3.38 2.67 4.13 0.50 0.75 2.40 3.67 4.25 6.50 1.83 2.83 4.72 7.28 6.43 9.88 1.67 2.63 3.45 5.30 3.92 5.97 l0.85 1.20 0 -48.28 0 -48.28 11.63 0.05 11.60 0.08 0.08 64.95 0.08 64.93 -0.88 0 c-0.47 0 -7 0 -14.50 0.03 -7.50 0 -13.75 0 -13.90 0 -0.30 -0.03 -1.42 -1.73 -6.93 -10.27 -1.73 -2.67 -4.07 -6.32 -5.25 -8.13 -1.15 -1.77 -3.03 -4.70 -4.18 -6.50 -1.15 -1.77 -3.08 -4.78 -4.28 -6.63 -3.97 -6.10 -9.45 -14.60 -10.32 -16 -0.80 -1.33 -7.03 -10.95 -17.92 -27.83 -3.67 -5.68 -5.70 -8.80 -7.60 -11.80 -1.10 -1.73 -3.08 -4.80 -4.38 -6.82 -1.33 -2.03 -2.60 -4 -2.83 -4.38 -0.25 -0.38 -0.55 -0.63 -0.68 -0.55 -0.15 0.10 -0.25 18.35 -0.25 49.40 0 39.17 -0.08 49.28 -0.30 49.35 -0.40 0.15 -22.70 0.28 -22.85 0.15z"/>
  <path d="M919.28 380.85 c-2.38 -0.52 -5.45 -2.10 -7.32 -3.78 -1.70 -1.52 -3.17 -3.33 -2.72 -3.33 0.15 0 0.28 -0.28 0.28 -0.63 0 -0.57 0.10 -0.63 1.10 -0.63 0.98 0 1.27 0.15 2.40 1.20 3.22 2.90 5.65 4.05 9.13 4.25 4.07 0.20 7.50 -1.10 10.38 -3.95 2.83 -2.80 4.05 -5.85 3.97 -10 -0.03 -1.92 -0.17 -2.65 -0.73 -4.03 -1.05 -2.60 -1.85 -3.80 -3.63 -5.43 -2.58 -2.38 -5.55 -3.55 -8.90 -3.55 -4.07 0 -6.38 0.93 -9.38 3.80 -3.30 3.17 -4.40 5.80 -4.47 10.70 -0.03 3.45 -0.30 4.05 -1.63 3.95 -0.82 -0.08 -0.90 -0.15 -1.17 -1.33 -0.15 -0.68 -0.28 -2.20 -0.30 -3.38 -0.08 -8.18 5.10 -14.63 13.43 -16.75 0.75 -0.20 1.60 -0.20 2.88 -0.03 1.27 0.17 1.83 0.17 1.95 -0.03 0.25 -0.40 3.42 0.40 5.72 1.48 3.33 1.52 6.43 4.65 7.88 7.93 1.20 2.72 1.48 4.15 1.48 7.28 0.03 3.38 -0.30 4.68 -1.85 7.68 -3.40 6.63 -11.05 10.18 -18.48 8.55z"/>
  <path d="M917.58 374.08 c-0.30 -0.05 -0.65 -0.25 -0.80 -0.43 -0.20 -0.22 -0.25 -3.20 -0.22 -9.55 l0.08 -9.23 4.88 0 c4.75 0 4.93 0.03 6.28 0.68 1.77 0.80 2.65 2.15 2.88 4.35 0.30 2.80 -0.57 4.47 -2.97 5.70 l-1.38 0.68 1.30 1.92 c2.30 3.42 3.22 5.03 3.08 5.43 -0.13 0.28 -0.52 0.38 -1.60 0.38 -0.80 0 -1.60 -0.10 -1.77 -0.22 -0.20 -0.13 -1.33 -1.83 -2.53 -3.80 -2.15 -3.60 -2.15 -3.60 -3.20 -3.75 -1.30 -0.17 -1.33 -0.13 -1.33 4.05 0 2.22 -0.10 3.22 -0.30 3.40 -0.40 0.32 -1.65 0.52 -2.38 0.40z m7.60 -11.35 c1.20 -0.45 1.83 -1.23 1.83 -2.25 0 -0.95 -0.32 -1.45 -1.35 -2.10 -0.57 -0.38 -1.48 -0.47 -3.83 -0.40 l-1.58 0.03 0 2.50 0 2.50 2.10 0 c1.17 0 2.42 -0.13 2.83 -0.28z"/>
  <path d="M499.88 303.85 c-0.68 -0.05 -4.50 -0.20 -8.50 -0.35 -10.52 -0.40 -22.83 -1.42 -34.63 -2.88 -4.72 -0.57 -6 -0.88 -6 -1.35 0 -0.35 0.95 -0.40 9.93 -0.40 10.10 -0.03 16.33 -0.40 25.08 -1.52 5.82 -0.73 16.55 -2.75 19.77 -3.70 0.73 -0.22 1.65 -0.40 2.08 -0.40 0.43 0 1.05 -0.15 1.40 -0.32 0.35 -0.20 1.20 -0.47 1.88 -0.65 2.70 -0.68 10.23 -3.15 14.13 -4.65 21.33 -8.15 37.95 -19.38 50.53 -34.13 8.15 -9.55 14.27 -22.10 16.38 -33.47 0.32 -1.88 0.80 -3.95 1 -4.63 0.32 -1.02 0.43 -3.08 0.52 -11.48 0.05 -6.07 0.03 -10.32 -0.13 -10.50 -0.13 -0.17 -0.30 -1.33 -0.38 -2.60 -0.10 -1.25 -0.28 -2.78 -0.40 -3.38 -0.15 -0.60 -0.38 -1.85 -0.50 -2.83 -0.50 -3.42 -1.92 -9.27 -3.58 -14.63 -1.58 -5.15 -6.15 -15.32 -8.88 -19.83 -2.33 -3.83 -5.97 -9.02 -8.07 -11.55 -8.93 -10.65 -20.10 -19.08 -32.45 -24.48 l-2.50 -1.10 -1.10 1.17 c-0.63 0.63 -2.08 2.28 -3.20 3.65 -2.15 2.58 -5.60 6.63 -9.75 11.48 -3.83 4.45 -9.05 10.63 -9.88 11.60 -0.40 0.52 -1.92 2.28 -3.38 3.95 -2.90 3.35 -6.53 7.57 -10.50 12.35 -2.75 3.25 -8.07 9.52 -13 15.27 -1.60 1.85 -3.22 3.75 -3.63 4.25 -0.43 0.50 -1.80 2.13 -3.10 3.63 -3.70 4.32 -5.70 6.65 -9.80 11.50 -2.13 2.47 -5.97 7.03 -8.60 10.10 -2.60 3.05 -6.20 7.28 -7.95 9.35 -1.77 2.08 -3.97 4.68 -4.93 5.78 -0.95 1.10 -2.53 2.95 -3.53 4.13 -0.98 1.17 -2.95 3.47 -4.38 5.13 -7 8.15 -10.85 12.70 -12.57 14.75 -1.02 1.25 -2.83 3.35 -4 4.72 -1.17 1.35 -2.55 2.95 -3.03 3.53 -1.83 2.20 -7.63 9.05 -8.60 10.13 -0.57 0.63 -2.10 2.42 -3.40 4 -1.30 1.55 -3.22 3.80 -4.25 4.97 -1.98 2.25 -4.93 5.72 -6.63 7.78 -0.55 0.68 -2.13 2.53 -3.50 4.10 -1.38 1.60 -2.90 3.42 -3.38 4.03 -0.47 0.63 -1.08 1.13 -1.35 1.13 -1.15 0 -18.23 -6.55 -24.15 -9.27 -13.85 -6.35 -26.45 -13.85 -35.50 -21.08 -9.68 -7.72 -16.40 -14.95 -21.67 -23.25 -3.35 -5.28 -6.82 -13.50 -6.82 -16.17 0 -0.68 -0.10 -1.23 -0.20 -1.23 -0.73 0 -1.92 -15.02 -1.33 -16.77 0.15 -0.47 0.32 -1.73 0.40 -2.75 0.13 -2.22 1.45 -7.13 2.85 -10.68 2.97 -7.43 7.43 -14.35 13.85 -21.42 7.90 -8.70 18.63 -16.92 32.05 -24.58 4.20 -2.40 14.30 -7.47 15.63 -7.85 0.47 -0.15 1.15 -0.45 1.50 -0.70 0.35 -0.25 1.98 -0.98 3.60 -1.60 1.63 -0.65 3.20 -1.33 3.50 -1.52 0.30 -0.17 1.65 -0.75 3.03 -1.25 1.38 -0.50 2.70 -1.02 2.95 -1.17 0.25 -0.13 2.38 -0.90 4.75 -1.73 2.38 -0.85 5.10 -1.80 6.05 -2.13 0.98 -0.35 2.55 -0.82 3.50 -1.10 1.67 -0.47 3.30 -0.98 6.50 -2 3.70 -1.20 18.98 -5.05 25.25 -6.38 11.50 -2.40 27.90 -5.07 33.88 -5.50 1.17 -0.08 2.47 -0.25 2.88 -0.38 0.85 -0.25 7.05 -0.88 12.13 -1.25 1.85 -0.15 4.85 -0.35 6.63 -0.50 18.98 -1.45 43.05 -1.45 62.13 0 1.73 0.13 4.82 0.35 6.88 0.50 5.82 0.38 11.20 0.95 18 1.92 3.45 0.47 7.15 0.98 8.25 1.10 2.15 0.25 6.80 1.05 13.25 2.25 2.20 0.43 4.68 0.88 5.50 1.02 0.82 0.15 1.60 0.35 1.75 0.47 0.13 0.13 0.63 0.22 1.15 0.22 0.50 0 2.03 0.28 3.38 0.63 1.35 0.32 3.80 0.90 5.43 1.25 1.63 0.35 3.17 0.73 3.42 0.88 0.25 0.13 0.77 0.25 1.17 0.25 0.38 0 1.02 0.17 1.42 0.38 0.38 0.20 0.95 0.38 1.23 0.38 0.47 0 3 0.65 8.80 2.30 0.98 0.28 1.92 0.55 2.13 0.63 0.20 0.08 0.50 0.17 0.65 0.20 1.25 0.28 8.73 2.72 13.23 4.32 24.48 8.75 43.58 19 58.60 31.48 3.47 2.90 10.90 10.32 13.30 13.32 9.30 11.60 13.98 23.70 14 36.13 0.03 4.50 -0.13 5.95 -1.17 11.38 -1.17 6.03 -5.10 14.52 -9.68 20.88 -6.03 8.40 -14.80 16.90 -24.73 23.95 -9.63 6.85 -21.58 13.43 -34.42 18.92 -12.48 5.32 -28.02 10.57 -40.78 13.75 -1.17 0.30 -2.67 0.73 -3.38 0.98 -0.68 0.25 -1.75 0.55 -2.38 0.63 -0.63 0.10 -3.20 0.63 -5.75 1.15 -2.55 0.55 -5.75 1.23 -7.13 1.50 -3.33 0.68 -11.27 2.13 -13.63 2.47 -1.02 0.15 -3.78 0.60 -6.13 1 -2.33 0.40 -5.93 0.93 -8 1.15 -10.77 1.17 -12.98 1.38 -18.63 1.85 -13.18 1.10 -24.33 1.52 -37.50 1.48 -5.30 -0.03 -10.18 -0.08 -10.88 -0.10z"/>
 </g>
 <g fill="currentColor">
  <path d="M493.90 484.50 l-16.23 -0.13 -1.27 -1.55 c-0.70 -0.85 -2.90 -3.38 -4.90 -5.60 -2 -2.22 -4.50 -5.07 -5.57 -6.32 -1.10 -1.25 -3.03 -3.45 -4.30 -4.90 -1.27 -1.45 -3.80 -4.30 -5.63 -6.38 -4.18 -4.70 -5.75 -6.47 -8 -9 -1 -1.10 -2.65 -3 -3.65 -4.20 -1.67 -2 -4.95 -5.70 -11.60 -13.18 -1.30 -1.48 -3.38 -3.85 -4.63 -5.25 -1.23 -1.42 -3.33 -3.78 -4.63 -5.22 -2.38 -2.63 -5.47 -6.47 -6.40 -7.88 l-0.45 -0.73 0.73 -0.52 c0.43 -0.30 1.33 -1.13 2 -1.88 0.70 -0.73 2.70 -2.83 4.47 -4.63 5.15 -5.22 9.95 -10.18 19.02 -19.50 4.68 -4.82 10.45 -10.73 12.82 -13.13 2.38 -2.42 7.78 -7.93 12 -12.23 l7.68 -7.82 15.57 0.03 15.60 0 -1 1.17 c-0.55 0.68 -2.13 2.28 -3.47 3.58 -3.13 3.03 -32.90 32.38 -42.42 41.85 -4 3.97 -8.65 8.57 -10.32 10.25 -1.70 1.65 -3.08 3.10 -3.08 3.20 0 0.32 9.98 11.30 11.85 13.05 0.43 0.40 1 1.05 1.27 1.40 0.28 0.38 1.85 2.13 3.53 3.90 1.65 1.77 4.63 4.97 6.60 7.10 1.98 2.13 4.18 4.50 4.88 5.25 1.38 1.45 7.13 7.68 9.25 9.98 4.75 5.20 7.95 8.65 9.38 10.15 0.93 0.98 2.90 3.10 4.38 4.75 1.50 1.65 3.80 4.13 5.13 5.50 5.43 5.70 8.15 8.77 7.82 8.93 -0.13 0.05 -7.50 0.03 -16.42 -0.05z"/>
 </g>
 <g fill="currentColor">
  <path d="M590.50 476.55 c0 -0.32 0.57 -0.80 0.98 -0.80 0.28 0 0.25 0.10 -0.10 0.50 -0.47 0.52 -0.88 0.65 -0.88 0.30z"/>
  <path d="M592.58 474.60 c-0.08 -0.22 0.08 -0.60 0.38 -0.93 l0.55 -0.52 -0.13 0.60 c-0.08 0.35 -0.22 0.65 -0.38 0.70 -0.15 0.05 -0.20 0.20 -0.10 0.32 0.08 0.13 0.08 0.22 -0.03 0.22 -0.08 0 -0.20 -0.17 -0.30 -0.40z"/>
  <path d="M595.50 471 c0 -0.28 0.10 -0.47 0.22 -0.43 0.13 0.03 0.40 -0.17 0.60 -0.45 0.22 -0.28 0.47 -0.43 0.55 -0.32 0.20 0.17 -0.85 1.65 -1.17 1.67 -0.13 0.03 -0.20 -0.20 -0.20 -0.47z"/>
  <path d="M624.92 445.42 c-0.28 -0.73 -0.22 -1.08 0.10 -0.75 0.15 0.15 0.22 0.47 0.17 0.73 -0.08 0.45 -0.10 0.45 -0.28 0.03z"/>
  <path d="M602.67 438.67 c-0.08 -0.22 0.03 -0.52 0.22 -0.68 0.28 -0.25 0.35 -0.25 0.35 0.03 0 0.20 -0.10 0.50 -0.22 0.68 -0.17 0.28 -0.22 0.28 -0.35 -0.03z"/>
  <path d="M621.63 432.10 c-0.15 -1.25 -0.10 -1.70 0.15 -1.92 0.20 -0.17 0.25 -0.20 0.15 -0.08 -0.10 0.13 -0.08 0.35 0.05 0.50 0.13 0.15 0.30 0.93 0.40 1.73 0.15 1.20 0.13 1.42 -0.20 1.42 -0.30 0 -0.43 -0.40 -0.55 -1.65z"/>
  <path d="M597.53 425.65 c-0.32 -0.35 -0.52 -0.75 -0.47 -0.90 0.05 -0.17 0.40 0.10 0.77 0.60 0.80 1.02 0.57 1.23 -0.30 0.30z"/>
  <path d="M531.85 418.63 c-0.43 -0.32 -0.43 -0.35 -0.05 -0.38 0.22 0 0.50 0.13 0.57 0.28 0.28 0.43 0 0.50 -0.52 0.10z"/>
  <path d="M580.05 413.13 c-0.43 -0.20 -0.80 -0.40 -0.80 -0.47 0 -0.20 1.50 0 1.77 0.28 0.45 0.45 -0.10 0.55 -0.98 0.20z"/>
  <path d="M574.65 410.88 c-0.28 -0.20 -0.45 -0.43 -0.38 -0.47 0.17 -0.17 1.23 0.32 1.23 0.60 0 0.35 -0.28 0.30 -0.85 -0.13z"/>
  <path d="M572.05 410.23 c-0.60 -0.22 -0.75 -0.75 -0.22 -0.70 0.15 0 0.70 0.15 1.17 0.32 0.85 0.30 0.85 0.32 0.22 0.45 -0.35 0.05 -0.90 0.03 -1.17 -0.08z"/>
  <path d="M521.80 407.58 c-1.15 -2.28 -2.10 -4.85 -1.95 -5.22 0.08 -0.20 0.25 -0.35 0.43 -0.35 0.15 0 0.22 0.17 0.13 0.38 -0.08 0.25 0.03 0.38 0.30 0.38 0.35 0 0.38 0.05 0.05 0.25 -0.30 0.20 -0.30 0.25 0.08 0.40 0.35 0.13 0.38 0.22 0.15 0.50 -0.22 0.28 -0.20 0.38 0.13 0.50 0.22 0.08 0.40 0.35 0.40 0.57 0 0.22 0.13 0.55 0.30 0.73 0.22 0.22 0.22 0.30 -0.05 0.30 -0.28 0 -0.20 0.15 0.17 0.45 0.35 0.28 0.55 0.77 0.63 1.50 0.05 0.57 0.05 1.05 0.03 1.05 -0.05 0 -0.40 -0.65 -0.77 -1.42z"/>
  <path d="M835.08 396.95 c-0.55 -0.60 -2.28 -3.22 -2.25 -3.45 0 -0.08 -0.75 -1.13 -1.67 -2.35 -0.90 -1.23 -1.58 -2.30 -1.50 -2.38 0.15 -0.15 1.60 1.45 1.60 1.75 0 0.10 0.75 1.25 1.65 2.58 0.90 1.33 1.55 2.40 1.42 2.40 -0.10 0 -0.03 0.15 0.20 0.32 0.40 0.32 1.35 1.67 1.17 1.67 -0.08 0 -0.35 -0.25 -0.63 -0.55z"/>
  <path d="M801.63 387.02 c-0.20 -0.43 -0.30 -0.77 -0.17 -0.77 0.30 0 0.93 1.20 0.73 1.40 -0.08 0.08 -0.32 -0.20 -0.55 -0.63z"/>
  <path d="M162.25 375.50 c0 -0.13 0.40 -0.25 0.90 -0.25 0.52 0 0.82 0.10 0.73 0.25 -0.08 0.15 -0.47 0.25 -0.90 0.25 -0.40 0 -0.73 -0.10 -0.73 -0.25z"/>
  <path d="M777.05 364.58 l0.08 -9.95 15.27 -0.08 15.30 -0.05 1.52 2.25 c1.60 2.35 1.67 2.50 1.30 2.50 -0.13 0 -0.77 -0.85 -1.42 -1.85 -1.05 -1.70 -1.23 -1.85 -1.85 -1.75 -0.35 0.08 -1.13 0.03 -1.67 -0.13 -0.63 -0.17 -3.22 -0.28 -6.63 -0.25 -14.15 0.08 -19.65 0.15 -19.90 0.32 -0.17 0.10 -0.30 0.05 -0.30 -0.08 0 -0.15 -0.13 -0.28 -0.28 -0.28 -0.13 0 -0.20 0.10 -0.10 0.22 0.08 0.15 -0.08 0.38 -0.35 0.52 -0.47 0.25 -0.50 0.50 -0.38 8.70 0.10 8.27 0.05 9.80 -0.43 9.80 -0.15 0 -0.20 -3.92 -0.17 -9.93z"/>
  <path d="M919.15 360.60 c-0.08 -0.20 -0.05 -0.57 0.08 -0.80 0.10 -0.22 0.15 -0.57 0.10 -0.73 -0.08 -0.20 0.10 -0.32 0.40 -0.32 0.45 0 0.52 0.15 0.52 1.20 0 0.85 -0.08 1.08 -0.25 0.80 -0.15 -0.25 -0.25 -0.28 -0.25 -0.05 0 0.43 -0.43 0.38 -0.60 -0.10z"/>
  <path d="M131.38 356.63 c-0.10 -0.28 -0.28 -0.75 -0.40 -1.08 -0.13 -0.32 -0.22 -0.68 -0.22 -0.80 0 -0.28 53.08 -0.30 56.25 -0.03 1.65 0.13 1.88 0.20 1.88 0.65 0 0.45 -0.15 0.50 -1.38 0.43 -0.75 -0.03 -12.20 -0.05 -25.42 -0.05 -16.25 0.03 -24.08 -0.05 -24.17 -0.22 -0.20 -0.30 -4.40 -0.17 -4.63 0.15 -0.08 0.10 -0.30 0.20 -0.45 0.22 -0.95 0.08 -1.10 0.13 -0.98 0.30 0.05 0.10 0.03 0.35 -0.10 0.55 -0.17 0.30 -0.25 0.28 -0.38 -0.13z"/>
  <path d="M686.75 351.48 c0 -0.13 1.33 -0.22 2.95 -0.20 1.60 0 2.83 0.05 2.67 0.10 -0.63 0.20 -5.63 0.30 -5.63 0.10z"/>
  <path d="M919.50 348.77 c-0.35 -0.70 -0.35 -0.73 0.70 -0.90 2.20 -0.38 6.05 -0.13 6.05 0.38 0 0.10 -0.22 0.15 -0.50 0.08 -0.32 -0.10 -0.50 0 -0.50 0.25 0 0.38 -1 0.68 -2.22 0.68 -0.47 0 -0.55 -0.08 -0.30 -0.22 0.22 -0.15 -0.05 -0.25 -0.88 -0.32 -0.80 -0.05 -1.35 0.03 -1.55 0.22 -0.43 0.43 -0.47 0.43 -0.80 -0.15z"/>
  <path d="M478.17 298.50 c0.10 -0.35 0.35 -0.50 0.88 -0.50 0.65 0 0.70 0.05 0.45 0.50 -0.15 0.28 -0.52 0.50 -0.85 0.50 -0.47 0 -0.57 -0.10 -0.47 -0.50z"/>
  <path d="M387.45 285.08 c-1 -0.43 -1.33 -0.98 -0.40 -0.68 0.30 0.08 1.05 0.20 1.65 0.25 1.20 0.08 1.42 0.17 1.17 0.57 -0.22 0.38 -1.33 0.30 -2.42 -0.15z"/>
  <path d="M404.50 267.45 c0 -0.47 0.63 -1.02 1 -0.90 0.15 0.05 0 0.35 -0.35 0.68 -0.50 0.47 -0.65 0.52 -0.65 0.22z"/>
  <path d="M405.75 266.10 c0 -0.15 0.25 -0.60 0.57 -1 0.30 -0.38 0.68 -0.98 0.80 -1.30 0.22 -0.50 0.32 -0.55 0.55 -0.28 0.22 0.28 0.05 0.63 -0.82 1.60 -0.60 0.70 -1.10 1.13 -1.10 0.98z"/>
  <path d="M410 260.92 c0 -0.47 0.40 -0.77 0.60 -0.45 0.08 0.13 -0.03 0.35 -0.22 0.52 -0.30 0.25 -0.38 0.25 -0.38 -0.08z"/>
  <path d="M411.75 258.90 c0 -0.20 0.17 -0.55 0.40 -0.75 0.22 -0.22 0.43 -0.55 0.45 -0.73 0.08 -0.57 0.45 -0.93 1.45 -1.45 l1.02 -0.52 -1.58 1.90 c-0.85 1.05 -1.60 1.90 -1.65 1.90 -0.05 0 -0.10 -0.15 -0.10 -0.35z"/>
  <path d="M321.13 248 c-0.43 -0.45 -0.43 -0.50 -0.03 -0.50 0.22 0 0.47 0.17 0.57 0.38 0.22 0.63 -0.05 0.68 -0.55 0.13z"/>
  <path d="M421.75 247.23 c0 -0.63 0.45 -1.13 0.75 -0.82 0.17 0.17 0.13 0.40 -0.25 0.73 -0.38 0.35 -0.50 0.38 -0.50 0.10z"/>
  <path d="M424.50 244.07 c0 -0.45 0.95 -1.48 1.15 -1.25 0.10 0.10 -0.10 0.50 -0.47 0.88 -0.38 0.35 -0.68 0.55 -0.68 0.38z"/>
  <path d="M429.73 237.57 c0.13 -0.25 0.30 -0.65 0.38 -0.93 0.13 -0.38 0.22 -0.40 0.52 -0.15 0.35 0.30 0.32 0.40 -0.15 0.93 -0.65 0.68 -1.08 0.77 -0.75 0.15z"/>
  <path d="M434.50 232.32 c0 -0.43 0.68 -1.15 0.82 -0.90 0.10 0.15 -0.05 0.45 -0.32 0.70 -0.28 0.25 -0.50 0.35 -0.50 0.20z"/>
  <path d="M306.75 230.20 c-3.47 -5.90 -6.43 -14.15 -7.28 -20.33 -0.73 -5.25 -0.32 -13.10 0.93 -18.25 0.55 -2.20 0.57 -2.30 0.82 -1.90 0.13 0.20 0.08 0.60 -0.10 0.95 -0.20 0.35 -0.28 1 -0.20 1.42 0.08 0.45 0.03 1.20 -0.10 1.67 -0.13 0.47 -0.15 1.30 -0.05 1.85 0.10 0.55 0.10 1.05 0 1.13 -0.32 0.25 -0.77 2.58 -0.77 4.10 0 2.42 0.30 4.85 0.52 4.28 0.10 -0.28 0.17 0.55 0.15 1.88 -0.03 2.42 0.52 6.75 0.88 6.75 0.10 0 0.20 0.28 0.20 0.63 0 0.35 0.15 0.63 0.32 0.63 0.22 0 0.22 0.05 -0.03 0.20 -0.32 0.22 -0.38 2.80 -0.05 2.80 0.10 0 0.17 0.30 0.17 0.70 -0.03 1 0.30 2.03 0.80 2.58 0.25 0.28 0.60 0.80 0.80 1.17 0.20 0.38 0.45 0.75 0.55 0.82 0.13 0.08 0.25 0.30 0.28 0.50 0.05 0.20 0.20 0.63 0.32 0.98 0.15 0.35 0.22 0.70 0.15 0.82 -0.05 0.10 0.03 0.17 0.15 0.17 0.15 0 0.28 0.22 0.28 0.47 0 0.28 0.10 0.52 0.20 0.57 0.65 0.25 2.50 4.70 1.95 4.70 -0.08 0 -0.47 -0.60 -0.90 -1.30z"/>
  <path d="M435.83 230.38 c0.32 -0.70 0.93 -1.02 0.93 -0.52 0 0.32 -0.77 1.15 -1.05 1.15 -0.10 0 -0.03 -0.28 0.13 -0.63z"/>
  <path d="M592.03 219.45 c0.05 -0.70 0.35 -1.48 0.57 -1.48 0.30 0.03 0.43 0.77 0.13 0.77 -0.13 0 -0.22 0.15 -0.22 0.35 0 0.20 -0.10 0.45 -0.25 0.52 -0.13 0.08 -0.25 0 -0.22 -0.17z"/>
  <path d="M592.58 216.48 c0.08 -0.60 0.28 -2.55 0.43 -4.35 0.15 -1.77 0.32 -3.53 0.40 -3.85 0.13 -0.55 0.15 -0.57 0.63 -0.13 0.30 0.28 0.43 0.60 0.32 0.93 -0.08 0.25 -0.17 1.75 -0.22 3.33 -0.05 2.15 -0.17 3 -0.47 3.47 -0.22 0.35 -0.38 0.73 -0.30 0.82 0.08 0.13 -0.13 0.35 -0.40 0.52 -0.50 0.32 -0.52 0.30 -0.38 -0.75z"/>
  <path d="M447.70 216.57 c-0.15 -0.55 0.70 -1.55 1.63 -1.90 0.65 -0.25 0.52 0.10 -0.52 1.30 -0.88 1.02 -0.98 1.08 -1.10 0.60z"/>
  <path d="M451.75 211.90 c0 -0.22 0.17 -0.47 0.38 -0.57 0.63 -0.22 0.68 0.05 0.13 0.55 -0.45 0.43 -0.50 0.43 -0.50 0.03z"/>
  <path d="M453.17 210.35 c-0.28 -0.30 0.17 -1.10 0.63 -1.10 0.38 0 0.43 0.08 0.20 0.47 -0.30 0.57 -0.63 0.82 -0.82 0.63z"/>
  <path d="M456 207.10 c0 -0.32 0.73 -1.85 0.90 -1.85 0.05 0 0.10 0.22 0.10 0.47 0 0.50 -0.98 1.85 -1 1.38z"/>
  <path d="M457.25 205.60 c0.03 -0.43 0.93 -1.42 1.08 -1.17 0.10 0.15 -0.13 0.52 -0.45 0.82 -0.35 0.32 -0.63 0.47 -0.63 0.35z"/>
  <path d="M593.55 197.50 c-0.13 -0.35 -0.43 -2.65 -0.65 -5.13 -0.22 -2.47 -0.63 -5.85 -0.90 -7.50 -0.68 -4.10 -0.68 -4 -0.30 -3.92 0.15 0.03 0.30 -0.08 0.30 -0.22 0 -0.13 0.13 -0.17 0.25 -0.10 0.20 0.13 0.20 0.28 0 0.50 -0.22 0.25 -0.20 0.50 0.10 0.93 0.20 0.32 0.45 1.38 0.52 2.33 0.10 0.98 0.32 2.20 0.52 2.75 0.20 0.57 0.35 1.30 0.32 1.63 -0.03 1.20 0.20 3.67 0.35 3.92 0.25 0.40 0.25 3.88 -0.03 4.70 l-0.22 0.75 -0.28 -0.63z"/>
  <path d="M480.60 178.20 c0.08 -0.55 0.50 -1.13 0.90 -1.25 0.20 -0.05 0.38 -0.32 0.38 -0.57 0 -0.28 0.22 -0.60 0.52 -0.75 0.28 -0.13 0.47 -0.38 0.43 -0.50 -0.08 -0.28 0.90 -0.98 1.10 -0.77 0.10 0.10 -3.10 4.15 -3.30 4.15 -0.05 0 -0.05 -0.15 -0.03 -0.30z"/>
  <path d="M306.15 177 c0.38 -0.68 0.82 -1.25 1 -1.25 0.43 0 0.55 0.75 0.25 1.45 -0.25 0.57 -0.65 0.75 -0.65 0.28 0 -0.20 -0.13 -0.17 -0.38 0.03 -0.32 0.28 -0.32 0.38 -0.08 0.52 0.22 0.15 0.15 0.22 -0.25 0.22 l-0.57 0 0.68 -1.25z"/>
  <path d="M590.03 175.57 c-0.28 -0.95 -0.90 -3.08 -1.38 -4.75 -0.50 -1.67 -1.13 -3.65 -1.42 -4.38 -0.70 -1.77 -1.25 -3.92 -1.08 -4.22 0.25 -0.43 0.60 -0.22 0.60 0.35 0 0.30 0.17 0.88 0.38 1.27 0.20 0.38 0.38 1.02 0.38 1.42 0 0.40 0.13 0.73 0.28 0.73 0.13 0 0.20 0.10 0.10 0.22 -0.08 0.13 -0.03 0.30 0.10 0.40 0.15 0.08 0.20 0.30 0.10 0.50 -0.08 0.20 -0.03 0.38 0.10 0.38 0.13 0 0.20 0.35 0.13 0.75 -0.08 0.55 0 0.75 0.28 0.75 0.45 0 1.08 1.25 1.30 2.70 0.10 0.60 0.32 1.15 0.52 1.23 0.20 0.08 0.35 0.47 0.35 1 0 0.57 -0.10 0.80 -0.30 0.68 -0.20 -0.13 -0.22 -0.05 -0.13 0.25 0.10 0.25 0.17 0.60 0.17 0.80 0 0.22 0.13 0.30 0.25 0.22 0.15 -0.10 0.25 0.17 0.25 0.60 0 1.30 -0.45 0.88 -0.98 -0.90z"/>
  <path d="M713.22 172.18 c-0.20 -0.17 -0.80 -0.93 -1.27 -1.70 -0.50 -0.77 -1.35 -1.88 -1.92 -2.45 -0.57 -0.57 -1.02 -1.23 -1.02 -1.45 0 -0.22 -0.45 -0.90 -1.02 -1.50 -0.93 -1 -1.17 -1.63 -0.50 -1.20 0.63 0.38 5.53 6.57 6.38 8.05 0.22 0.43 -0.17 0.57 -0.63 0.25z"/>
  <path d="M486 171.52 c0.30 -0.57 0.73 -0.88 0.93 -0.68 0.17 0.17 -0.65 1.15 -0.98 1.15 -0.13 0 -0.10 -0.22 0.05 -0.47z"/>
  <path d="M487.88 169.50 c-0.20 -0.32 0.30 -1 0.77 -1 0.50 0 0.43 0.35 -0.13 0.85 -0.32 0.30 -0.52 0.35 -0.65 0.15z"/>
  <path d="M705.67 162.93 c-0.20 -0.30 -1.20 -1.40 -2.20 -2.45 -1.02 -1.02 -2 -2.08 -2.20 -2.30 -0.30 -0.40 -0.30 -0.43 0.13 -0.28 0.52 0.17 5 4.47 5.38 5.18 0.38 0.68 -0.63 0.55 -1.10 -0.15z"/>
  <path d="M493.60 162.60 c0.05 -0.25 0.32 -0.52 0.65 -0.65 0.55 -0.20 0.55 -0.17 0.20 0.35 -0.47 0.70 -0.93 0.85 -0.85 0.30z"/>
  <path d="M494.90 161.30 c-0.17 -0.30 0.47 -0.88 0.85 -0.75 0.17 0.05 0.08 0.28 -0.20 0.52 -0.28 0.25 -0.57 0.35 -0.65 0.22z"/>
  <path d="M496.38 159.52 c0.15 -0.75 0.35 -1.02 0.77 -1.02 0.52 0 0.43 0.32 -0.28 1 -0.60 0.57 -0.60 0.57 -0.50 0.03z"/>
  <path d="M324.65 155.27 c-0.17 -0.25 0.80 -1.17 1 -0.95 0.17 0.17 -0.35 1.17 -0.65 1.17 -0.13 0 -0.28 -0.10 -0.35 -0.22z"/>
  <path d="M326.25 153.80 c0 -0.13 0.17 -0.40 0.40 -0.57 0.35 -0.30 0.40 -0.28 0.32 0.13 -0.10 0.50 -0.73 0.88 -0.73 0.45z"/>
  <path d="M696.25 153.63 c-0.52 -0.63 -0.03 -0.77 0.57 -0.17 0.43 0.45 0.45 0.55 0.13 0.55 -0.20 0 -0.52 -0.17 -0.70 -0.38z"/>
  <path d="M503.50 151.32 c0 -0.43 0.68 -1.15 0.82 -0.90 0.10 0.15 -0.05 0.45 -0.32 0.70 -0.28 0.25 -0.50 0.35 -0.50 0.20z"/>
  <path d="M692.25 150.38 c-0.47 -0.57 -0.20 -0.65 0.50 -0.13 0.47 0.38 0.52 0.50 0.22 0.50 -0.22 0 -0.55 -0.17 -0.73 -0.38z"/>
  <path d="M690.65 149.23 c-0.38 -0.30 -0.63 -0.57 -0.55 -0.65 0.15 -0.15 1.65 0.73 1.65 0.98 0 0.35 -0.40 0.22 -1.10 -0.32z"/>
  <path d="M679.92 142.07 c-0.25 -0.22 -0.22 -0.57 0.03 -0.57 0.13 0 0.43 0.17 0.70 0.38 0.47 0.35 0.47 0.35 -0.05 0.38 -0.28 0 -0.60 -0.08 -0.68 -0.17z"/>
  <path d="M350.60 137.60 c0.08 -0.22 0.15 -0.43 0.15 -0.47 0 -0.15 3.67 -2.13 3.90 -2.13 0.13 0 0.05 0.15 -0.17 0.32 -0.22 0.17 -0.45 0.52 -0.50 0.80 -0.08 0.30 -0.65 0.80 -1.35 1.17 -1.42 0.80 -2.25 0.90 -2.03 0.30z"/>
  <path d="M514.50 137.85 c0 -0.30 1.20 -1.58 1.35 -1.42 0.08 0.10 0.15 0.03 0.15 -0.15 0 -0.17 0.13 -0.22 0.30 -0.13 0.20 0.13 0.22 0.05 0.13 -0.28 -0.17 -0.40 0.38 -1.10 0.90 -1.13 0.43 0 0.10 0.63 -1 1.90 -1 1.17 -1.83 1.70 -1.83 1.20z"/>
  <path d="M671.17 136.75 c-0.13 -0.45 -0.08 -0.47 0.60 -0.10 0.88 0.45 0.93 0.60 0.13 0.60 -0.38 0 -0.65 -0.17 -0.73 -0.50z"/>
  <path d="M359 133.13 c0 -0.20 0.13 -0.38 0.25 -0.38 0.15 0 0.32 0 0.43 0 0.10 0 0.20 0.15 0.22 0.38 0.03 0.22 -0.13 0.38 -0.43 0.38 -0.25 0 -0.47 -0.17 -0.47 -0.38z"/>
  <path d="M661.15 131.88 c-0.15 -0.40 0.28 -0.50 0.80 -0.15 0.28 0.17 0.25 0.25 -0.08 0.38 -0.55 0.20 -0.55 0.20 -0.73 -0.22z"/>
  <path d="M363 131.38 c-0.22 -0.28 -0.08 -0.45 0.70 -0.85 0.85 -0.43 9.73 -4.28 9.88 -4.28 0.03 0 0.08 0.28 0.08 0.60 0.05 0.55 -0.22 0.70 -2.63 1.67 -1.45 0.57 -2.80 1.15 -2.97 1.30 -0.17 0.13 -0.38 0.17 -0.45 0.10 -0.10 -0.08 -0.52 0.10 -0.95 0.43 -0.43 0.32 -1.35 0.77 -2.08 0.98 -1.10 0.32 -1.35 0.32 -1.58 0.05z"/>
  <path d="M656.50 129.57 c0 -0.40 0.20 -0.40 0.95 0.03 0.60 0.32 0.60 0.32 -0.17 0.32 -0.47 0 -0.77 -0.13 -0.77 -0.35z"/>
  <path d="M522.13 129.23 c-0.17 -0.25 0.25 -0.70 0.70 -0.73 0.30 0 0.20 0.43 -0.17 0.73 -0.28 0.22 -0.40 0.22 -0.52 0z"/>
  <path d="M378.90 124.53 c-0.57 -0.22 -0.57 -0.22 1.85 -1.05 l1.38 -0.47 -0.93 0.88 c-0.95 0.88 -1.40 1 -2.30 0.65z"/>
  <path d="M640.90 123.57 c-0.10 -0.13 -0.28 -0.20 -0.35 -0.20 -0.43 -0.03 -1.65 -0.85 -1.27 -0.88 0.70 0 2.72 0.80 2.58 1.02 -0.15 0.28 -0.70 0.30 -0.95 0.05z"/>
  <path d="M554.65 123.05 c-0.05 -0.10 0 -0.35 0.13 -0.55 0.20 -0.32 0.25 -0.32 0.45 0 0.25 0.38 0.15 0.75 -0.22 0.75 -0.13 0 -0.28 -0.10 -0.35 -0.20z"/>
  <path d="M527.95 122.25 c0.13 -0.90 0.40 -1.13 0.77 -0.68 0.20 0.28 0.13 0.47 -0.30 0.90 l-0.60 0.52 0.13 -0.75z"/>
  <path d="M636.08 122.32 c-0.32 -0.08 -0.57 -0.20 -0.57 -0.32 0 -0.10 0.25 -0.15 0.57 -0.08 0.38 0.10 0.47 0.05 0.30 -0.10 -0.35 -0.35 -1.95 -0.65 -1.75 -0.32 0.20 0.30 -0.63 0.32 -1.10 0.03 -0.17 -0.13 -0.28 -0.35 -0.17 -0.47 0.25 -0.40 -1.77 -0.98 -2.15 -0.60 -0.32 0.32 -0.95 0.13 -0.95 -0.35 0 -0.17 -0.22 -0.45 -0.52 -0.60 -1.08 -0.57 -0.25 -0.47 2.05 0.28 4.57 1.48 5.95 2.03 5.82 2.33 -0.13 0.30 -0.60 0.38 -1.52 0.22z"/>
  <path d="M387.88 121.28 c-0.38 -0.15 0.08 -0.38 1.95 -1 1.35 -0.45 2.53 -0.75 2.60 -0.68 0.10 0.08 -0.10 0.43 -0.43 0.77 -0.40 0.43 -0.65 0.55 -0.77 0.35 -0.22 -0.38 -1.63 -0.13 -2.13 0.40 -0.43 0.43 -0.50 0.43 -1.23 0.15z"/>
  <path d="M626.03 118.60 c-0.03 -0.20 -0.40 -0.25 -1.13 -0.17 -0.65 0.08 -1.15 0.03 -1.25 -0.15 -0.10 -0.15 -0.40 -0.28 -0.68 -0.28 -0.25 0 -0.47 -0.17 -0.47 -0.38 0 -0.43 -0.40 -0.50 -0.63 -0.13 -0.10 0.15 -0.38 0.15 -0.75 0 -0.35 -0.13 -0.63 -0.17 -0.63 -0.10 0 0.05 -0.15 -0.03 -0.35 -0.20 -0.20 -0.17 -0.30 -0.40 -0.22 -0.50 0.05 -0.13 -0.05 -0.22 -0.22 -0.25 -1.20 -0.13 -1.70 -0.10 -1.70 0.15 0 0.15 -0.10 0.13 -0.22 -0.08 -0.13 -0.20 -0.40 -0.28 -0.63 -0.20 -0.22 0.10 -0.40 0.05 -0.40 -0.08 0 -0.13 -0.20 -0.40 -0.43 -0.65 -0.43 -0.40 -0.40 -0.43 0.17 -0.30 3.30 0.73 12.85 3.60 10.32 3.10 -0.30 -0.05 -0.60 0.03 -0.68 0.20 -0.08 0.20 -0.13 0.20 -0.13 0z"/>
  <path d="M533.50 116.07 c0 -0.13 0.17 -0.45 0.38 -0.73 0.30 -0.40 0.35 -0.40 0.38 -0.08 0 0.22 -0.17 0.55 -0.38 0.73 -0.20 0.17 -0.38 0.20 -0.38 0.08z"/>
  <path d="M613.38 115.50 c-0.40 -0.10 -1.08 -0.28 -1.45 -0.35 -0.43 -0.10 -0.63 -0.28 -0.52 -0.45 0.13 -0.20 -0.17 -0.22 -1 -0.15 -0.63 0.08 -1.23 0.05 -1.30 -0.08 -0.08 -0.13 -0.25 -0.17 -0.38 -0.10 -0.13 0.10 -0.22 0.03 -0.22 -0.10 0 -0.15 -0.30 -0.28 -0.65 -0.28 -0.57 0 -0.63 -0.05 -0.35 -0.38 0.30 -0.35 0.17 -0.38 -0.95 -0.28 -0.70 0.08 -1.35 0.03 -1.42 -0.10 -0.10 -0.15 -0.03 -0.25 0.13 -0.25 0.15 0 0.20 -0.10 0.13 -0.25 -0.25 -0.40 0.25 -0.32 5.13 0.90 4.78 1.17 5.95 1.58 4.68 1.60 -0.40 0 -0.65 0.10 -0.55 0.25 0.17 0.30 -0.17 0.30 -1.25 0z"/>
  <path d="M600.25 112.05 c0 -0.10 -0.40 -0.15 -0.88 -0.10 -0.70 0.08 -0.88 0.03 -0.88 -0.30 0 -0.25 -0.13 -0.35 -0.25 -0.28 -0.15 0.10 -0.77 0.17 -1.40 0.17 -0.85 0 -1.23 -0.15 -1.58 -0.57 -0.40 -0.50 -0.52 -0.52 -0.88 -0.25 -0.32 0.28 -0.43 0.28 -0.55 -0.08 -0.10 -0.22 -0.35 -0.40 -0.57 -0.35 -0.22 0.03 -0.52 -0.03 -0.70 -0.13 -0.15 -0.10 -0.35 -0.08 -0.45 0.08 -0.20 0.35 -1.05 0.32 -1.27 -0.05 -0.13 -0.20 -0.05 -0.22 0.25 -0.13 0.35 0.13 0.43 0.08 0.30 -0.20 -0.08 -0.20 -0.08 -0.38 0 -0.38 0.08 0 2.20 0.40 4.72 0.90 3.40 0.68 4.55 1 4.45 1.23 -0.05 0.17 0.10 0.38 0.35 0.45 0.35 0.10 0.35 0.13 -0.10 0.15 -0.32 0 -0.57 -0.08 -0.57 -0.17z"/>
  <path d="M579.28 108.18 c-0.15 -0.20 -0.75 -0.38 -1.35 -0.38 -2.13 -0.05 -4.53 -0.30 -4.72 -0.50 -0.10 -0.10 -0.08 -0.35 0.05 -0.52 0.17 -0.30 0.88 -0.25 4.68 0.32 4.38 0.68 5.43 0.98 4.28 1.20 -1.25 0.28 -2.63 0.20 -2.92 -0.13z"/>
 </g>
 <g fill="currentColor">
  <path d="M690 487.48 c0 -0.43 0.13 -0.45 2.80 -0.52 1.25 -0.05 2.10 0.03 2.38 0.25 0.35 0.25 0.25 0.30 -0.70 0.30 -0.60 0 -1.85 0.08 -2.78 0.17 -1.38 0.13 -1.70 0.08 -1.70 -0.20z"/>
  <path d="M372.13 487.25 c0.20 -0.32 1.38 -0.32 1.88 0 0.28 0.17 0.05 0.25 -0.82 0.25 -0.75 0 -1.15 -0.10 -1.05 -0.25z"/>
  <path d="M381.50 487.20 c0 -0.35 1.10 -0.45 2.38 -0.25 l1.25 0.22 -1.83 0.10 c-0.98 0.05 -1.80 0.03 -1.80 -0.08z"/>
  <path d="M368.45 486.95 c0.20 -0.20 0.43 -0.20 0.85 0 0.55 0.25 0.52 0.28 -0.28 0.28 -0.68 0.03 -0.80 -0.05 -0.57 -0.28z"/>
  <path d="M697.50 486.90 c0 -0.25 0.17 -0.30 0.55 -0.20 0.38 0.10 0.47 0.05 0.32 -0.20 -0.15 -0.22 0.05 -0.28 0.85 -0.17 1.13 0.13 1.33 -0.10 0.47 -0.52 -0.55 -0.25 -0.55 -0.28 0.13 -0.28 1.38 -0.05 1.73 1.05 0.43 1.33 -1.90 0.38 -2.75 0.40 -2.75 0.05z"/>
  <path d="M702.95 485.83 c0.13 -0.60 0.30 -0.68 1.25 -0.43 0.80 0.22 0.55 0.70 -0.50 0.88 -0.80 0.13 -0.85 0.10 -0.75 -0.45z"/>
  <path d="M177.75 484.30 c0 -0.10 0.28 -0.22 0.65 -0.25 0.35 -0.03 0.57 0.05 0.47 0.20 -0.17 0.30 -1.13 0.35 -1.13 0.05z"/>
  <path d="M878.75 484.25 c0.20 -0.13 1.90 -0.25 3.75 -0.28 1.85 0 4.40 -0.10 5.63 -0.22 2.17 -0.20 4.13 0.08 4.13 0.55 0 0.13 -3.13 0.20 -6.93 0.20 -4.57 0 -6.82 -0.10 -6.57 -0.25z"/>
  <path d="M190.07 483.52 c0.40 -0.13 0.88 -0.38 1.05 -0.52 0.20 -0.17 0.60 -0.22 0.93 -0.10 0.50 0.15 0.52 0.13 0.22 -0.25 -0.20 -0.22 -0.22 -0.40 -0.08 -0.40 0.15 0 0.35 0.13 0.43 0.25 0.10 0.15 0.28 0.20 0.40 0.13 0.13 -0.10 0.22 0 0.22 0.20 0 0.35 -0.45 0.47 -3 0.80 -0.82 0.13 -0.82 0.10 -0.17 -0.10z"/>
  <path d="M194.35 482.35 c0.20 -0.43 0.38 -0.50 0.70 -0.32 0.65 0.35 0.55 0.65 -0.25 0.77 -0.65 0.10 -0.68 0.05 -0.45 -0.45z"/>
  <path d="M420.70 468.15 c-0.13 -1.10 0.03 -1.13 0.75 -0.15 0.65 0.88 0.65 0.93 0.17 0.93 -0.20 0 -0.38 -0.13 -0.38 -0.28 0 -0.15 -0.10 -0.13 -0.22 0.08 -0.15 0.22 -0.25 0.05 -0.32 -0.57z"/>
  <path d="M518.38 465.75 c0.68 -0.68 1.25 -1.25 1.25 -1.25 0 0 0 0.30 -0.03 0.68 0 0.50 -0.22 0.77 -0.80 1.05 -0.45 0.20 -0.80 0.45 -0.80 0.57 0 0.10 -0.20 0.20 -0.43 0.20 -0.30 0 -0.05 -0.38 0.80 -1.25z"/>
  <path d="M387.25 465.55 c0 -0.17 3.30 -1.08 3.42 -0.95 0.05 0.03 -0.08 0.25 -0.25 0.45 -0.30 0.43 -3.17 0.85 -3.17 0.50z"/>
  <path d="M850.38 462.45 c-0.25 -0.65 -0.05 -1.08 0.30 -0.65 0.17 0.20 0.20 0.47 0.08 0.70 -0.20 0.30 -0.25 0.30 -0.38 -0.05z"/>
  <path d="M893.67 455.83 c-0.22 -3.03 -0.17 -61.28 0.05 -67.45 0.10 -2.75 0.20 11.80 0.22 32.33 0.03 20.50 0 37.30 -0.05 37.30 -0.03 0 -0.15 -0.98 -0.22 -2.17z"/>
  <path d="M870.75 434.23 c0 -9 0.10 -16.20 0.22 -16.02 0.22 0.38 0.40 4.60 0.38 8.93 -0.03 1.65 -0.03 5.25 -0.03 8 0.03 2.75 0.03 6.75 0.05 8.88 0 3.65 -0.17 6.15 -0.50 6.45 -0.08 0.08 -0.13 -7.22 -0.13 -16.23z"/>
  <path d="M725.55 448.25 c0.17 -0.28 0.40 -0.40 0.52 -0.28 0.30 0.30 0 0.77 -0.47 0.77 -0.30 0 -0.30 -0.08 -0.05 -0.50z"/>
  <path d="M729.20 441.80 c0.38 -0.82 0.73 -1.45 0.80 -1.38 0.28 0.25 0.13 1.33 -0.17 1.33 -0.20 0 -0.45 0.28 -0.57 0.60 -0.13 0.32 -0.32 0.68 -0.47 0.75 -0.15 0.10 0.05 -0.50 0.43 -1.30z"/>
  <path d="M335.50 438.88 c-0.30 -0.38 -0.13 -0.98 0.22 -0.75 0.30 0.17 0.52 1.13 0.28 1.13 -0.10 0 -0.32 -0.17 -0.50 -0.38z"/>
  <path d="M308.23 424.08 c-0.08 -0.60 -0.08 -1.08 -0.05 -1.08 0.25 0 0.47 1 0.32 1.50 -0.15 0.52 -0.17 0.47 -0.28 -0.43z"/>
  <path d="M308 419.10 c0 -2.08 0.28 -4.60 0.52 -4.60 0.10 0 0.13 1.20 0.05 2.70 -0.15 3 -0.55 4.32 -0.57 1.90z"/>
  <path d="M314.48 388.58 c0.57 -1.17 0.65 -1.25 0.85 -0.73 0.08 0.17 -0.20 0.68 -0.63 1.05 l-0.75 0.73 0.52 -1.05z"/>
  <path d="M317.25 383.35 c0.03 -0.13 0.17 -0.50 0.35 -0.82 0.25 -0.45 0.35 -0.50 0.47 -0.20 0.08 0.20 -0.08 0.57 -0.35 0.82 -0.25 0.22 -0.47 0.32 -0.47 0.20z"/>
  <path d="M630.55 382.27 c0.17 -0.28 0.38 -0.45 0.50 -0.38 0.28 0.17 -0.08 0.85 -0.45 0.85 -0.30 0 -0.30 -0.10 -0.05 -0.47z"/>
  <path d="M404.85 381.70 c-0.40 -0.30 -0.80 -0.60 -0.93 -0.70 -0.10 -0.08 0.35 -0.13 1 -0.08 0.63 0.05 1.48 -0.03 1.88 -0.15 0.65 -0.22 0.68 -0.20 0.45 0.22 -0.35 0.68 -0.98 1.25 -1.35 1.25 -0.17 0 -0.65 -0.25 -1.05 -0.55z"/>
  <path d="M318.27 381.73 c-0.03 -0.35 1.60 -2.95 2.72 -4.40 l0.45 -0.57 0.13 0.68 c0.10 0.50 -0.05 0.82 -0.55 1.33 -0.77 0.75 -1.27 1.60 -1.27 2.13 0 0.22 -0.10 0.32 -0.25 0.25 -0.13 -0.08 -0.25 -0.03 -0.25 0.10 0 0.15 -0.15 0.28 -0.35 0.28 -0.20 0 -0.43 0.15 -0.47 0.32 -0.10 0.20 -0.15 0.17 -0.15 -0.10z"/>
  <path d="M924.58 380.70 c0.03 -0.28 0.17 -0.40 0.38 -0.32 0.17 0.08 0.45 0.13 0.57 0.13 0.50 0 0.20 0.45 -0.38 0.55 -0.47 0.10 -0.60 0.03 -0.57 -0.35z"/>
  <path d="M400.95 379.05 c-0.65 -0.38 -1.20 -0.75 -1.20 -0.85 0 -0.38 0.95 -0.20 1.10 0.17 0.08 0.20 0.22 0.38 0.32 0.35 0.52 -0.08 0.82 0.08 1.08 0.52 0.35 0.65 0.13 0.63 -1.30 -0.20z"/>
  <path d="M913.63 378.38 c-0.70 -0.57 -0.73 -0.60 -0.15 -0.50 0.70 0.13 0.85 0.25 0.93 0.75 0.08 0.47 0.10 0.47 -0.77 -0.25z"/>
  <path d="M931.17 378.85 c-0.25 -0.25 0.40 -1.05 0.75 -0.93 0.17 0.08 0.32 0.22 0.32 0.35 0 0.28 -0.90 0.75 -1.08 0.57z"/>
  <path d="M916.50 377.50 c0 -0.28 -0.30 -0.68 -0.68 -0.93 -0.40 -0.25 -0.77 -0.55 -0.88 -0.70 -0.22 -0.32 -0.77 -0.35 -1 -0.03 -0.20 0.28 -0.90 -0.38 -0.77 -0.73 0.10 -0.32 -1.20 -1.13 -1.85 -1.13 -0.32 0 -0.38 -0.05 -0.13 -0.22 0.28 -0.17 0.25 -0.25 -0.08 -0.38 -0.73 -0.28 -0.88 -0.17 -0.63 0.50 0.35 0.93 0.32 1.23 -0.13 0.85 -0.20 -0.15 -0.45 -0.22 -0.57 -0.15 -0.47 0.30 -2.80 -4.43 -3.20 -6.50 -0.08 -0.47 -0.08 -1.05 0.03 -1.27 0.15 -0.43 0.17 -0.43 0.43 0.03 0.20 0.38 0.20 0.52 0 0.60 -0.17 0.05 -0.30 0.20 -0.30 0.32 0 0.15 0.13 0.17 0.30 0.08 0.17 -0.10 0.20 -0.08 0.10 0.10 -0.08 0.15 0.05 0.38 0.30 0.52 0.63 0.32 1.13 -0.50 0.93 -1.55 -0.10 -0.52 -0.08 -0.68 0.08 -0.47 0.17 0.28 0.28 0.25 0.40 -0.10 0.10 -0.28 0.05 -0.50 -0.08 -0.55 -0.15 -0.05 -0.28 -0.30 -0.28 -0.55 0 -0.25 -0.10 -0.55 -0.25 -0.63 -0.30 -0.20 -0.32 -1.38 -0.03 -1.38 0.13 0 0.35 -0.32 0.52 -0.75 0.55 -1.33 0.95 -0.93 0.73 0.70 -0.70 5 2.55 10.88 7.32 13.27 1.30 0.65 1.38 0.75 0.82 0.88 -0.35 0.10 -0.63 0.28 -0.63 0.40 0 0.15 -0.10 0.25 -0.25 0.25 -0.13 0 -0.25 -0.22 -0.25 -0.50z"/>
  <path d="M355.20 377.17 c0.05 -0.22 0.38 -0.50 0.70 -0.57 0.32 -0.08 0.60 -0.30 0.60 -0.47 0 -0.17 0.38 -0.38 0.88 -0.43 1.33 -0.15 1.02 0.32 -0.73 1.17 -1.33 0.63 -1.55 0.68 -1.45 0.30z"/>
  <path d="M397.38 376.98 c-0.68 -0.40 -1.67 -0.85 -2.17 -1 -0.57 -0.17 -0.88 -0.40 -0.77 -0.63 0.05 -0.17 -0.13 -0.45 -0.45 -0.60 -0.47 -0.28 -0.52 -0.25 -0.40 0.10 0.15 0.35 0.08 0.40 -0.40 0.25 -0.75 -0.22 -1.45 -0.85 -1.27 -1.15 0.08 -0.13 0.20 -0.17 0.28 -0.10 0.08 0.08 0.35 0.03 0.60 -0.13 0.32 -0.15 0.63 -0.15 0.95 0.08 0.43 0.25 0.65 0.22 1.45 -0.22 0.60 -0.35 1.20 -0.47 1.65 -0.40 0.75 0.15 0.90 0.50 0.30 0.73 -0.47 0.20 -0.50 0.60 -0.03 0.60 0.40 0 0.25 1 -0.20 1.30 -0.15 0.13 -0.03 0.20 0.30 0.20 0.32 0 0.50 0.10 0.43 0.25 -0.08 0.15 0 0.25 0.17 0.25 0.17 0 0.60 0.30 0.93 0.63 0.77 0.82 0.22 0.75 -1.35 -0.15z"/>
  <path d="M933.05 377.48 c0.05 -0.17 0.25 -0.38 0.43 -0.43 0.20 -0.08 0.30 0.03 0.22 0.22 -0.05 0.17 -0.25 0.38 -0.43 0.43 -0.20 0.08 -0.30 -0.03 -0.22 -0.22z"/>
  <path d="M929.75 376.30 c0.35 -0.22 1.20 -0.90 1.92 -1.48 l1.30 -1.08 -0.43 0.85 c-0.22 0.47 -0.52 0.80 -0.63 0.73 -0.10 -0.05 -0.38 0.10 -0.63 0.38 -0.22 0.28 -0.82 0.63 -1.30 0.77 l-0.88 0.25 0.63 -0.43z"/>
  <path d="M361 374.77 c0 -0.40 0.63 -0.73 1.33 -0.73 0.40 0 0.63 0.10 0.50 0.20 -0.35 0.32 -1.83 0.73 -1.83 0.52z"/>
  <path d="M636.78 373.85 c-0.03 -0.13 0.32 -0.57 0.75 -1 l0.80 -0.73 -0.45 0.80 c-0.25 0.45 -0.55 0.75 -0.65 0.68 -0.10 -0.05 -0.25 0.05 -0.30 0.20 -0.08 0.17 -0.15 0.20 -0.15 0.05z"/>
  <path d="M381.95 372.58 c-0.60 -0.10 -0.68 -0.17 -0.45 -0.60 0.22 -0.40 0.55 -0.47 1.88 -0.47 1.50 0 2.20 0.28 1.63 0.63 -0.15 0.10 -0.20 0.28 -0.13 0.40 0.15 0.22 -1.58 0.25 -2.92 0.05z"/>
  <path d="M693.28 372.45 c-1.05 -0.30 -0.63 -0.68 0.55 -0.50 0.43 0.08 0.65 0.17 0.47 0.22 -0.15 0.08 -0.25 0.22 -0.15 0.35 0.08 0.13 0.10 0.22 0.05 0.20 -0.05 0 -0.45 -0.13 -0.93 -0.28z"/>
  <path d="M373.90 371.98 c0.13 -0.20 0.70 -0.25 1.83 -0.13 1.25 0.10 1.80 0.05 2.17 -0.20 0.32 -0.25 0.63 -0.28 0.88 -0.13 0.20 0.13 0.60 0.22 0.93 0.22 0.30 0 0.55 0.13 0.55 0.25 0 0.15 -1.25 0.25 -3.28 0.25 -2.35 0 -3.20 -0.08 -3.08 -0.28z"/>
  <path d="M921.05 365.98 c0.05 -0.15 0.17 -0.25 0.28 -0.25 0.10 0.03 0.35 0.03 0.57 0.03 0.20 0 0.30 0.13 0.22 0.25 -0.20 0.32 -1.20 0.32 -1.08 -0.03z"/>
  <path d="M906.28 364.50 c0 -1.13 0.08 -1.48 0.22 -1.13 0.20 0.45 0.22 0.47 0.22 0.03 0.03 -0.30 0.15 -0.40 0.43 -0.30 0.22 0.08 0.45 0.15 0.50 0.15 0.05 0 0.10 0.20 0.10 0.43 0 0.22 -0.08 0.35 -0.15 0.25 -0.25 -0.22 -0.85 0.47 -0.85 1 0 0.25 -0.13 0.63 -0.25 0.82 -0.17 0.25 -0.25 -0.13 -0.22 -1.25z"/>
  <path d="M927.80 365.13 c0.15 -0.35 0.43 -0.63 0.63 -0.63 0.52 0 0.38 0.40 -0.30 0.85 -0.63 0.40 -0.63 0.40 -0.32 -0.22z"/>
  <path d="M936.35 362.05 c-0.10 -0.50 -0.40 -1.52 -0.65 -2.25 -0.55 -1.45 -0.45 -1.92 0.25 -1.15 0.43 0.47 0.60 0.93 0.63 1.52 0 0.17 0.15 0.35 0.35 0.43 0.45 0.17 0.43 2.05 -0.05 2.22 -0.25 0.13 -0.40 -0.10 -0.52 -0.77z"/>
  <path d="M916.95 355.50 c-0.52 -0.60 -0.35 -0.75 0.88 -0.75 l1 0 -0.68 0.63 c-0.38 0.35 -0.70 0.63 -0.73 0.60 -0.03 0 -0.22 -0.22 -0.47 -0.47z"/>
  <path d="M917 352.02 c0 -0.30 1.15 -1.02 1.63 -1.02 0.20 0 0.38 0.13 0.38 0.25 0 0.15 -0.05 0.25 -0.10 0.25 -0.05 0 -0.50 0.17 -1 0.38 -0.50 0.20 -0.90 0.28 -0.90 0.15z"/>
  <path d="M448.45 299.42 c-1.95 -0.20 -2.20 -0.30 -2.20 -0.73 0 -0.45 0.10 -0.50 1.20 -0.32 0.65 0.10 2.42 0.28 3.92 0.38 1.52 0.10 2.33 0.20 1.80 0.20 -0.52 0.03 -1.13 0.22 -1.33 0.43 -0.22 0.20 -0.57 0.35 -0.80 0.35 -0.22 -0.03 -1.40 -0.15 -2.60 -0.30z"/>
  <path d="M570.75 258.88 c0.45 -0.47 0.93 -0.80 1.05 -0.73 0.40 0.25 0.20 0.60 -0.32 0.60 -0.45 0 -0.47 0.05 -0.22 0.38 0.25 0.30 0.25 0.38 -0.03 0.40 -0.20 0 -0.55 0.05 -0.82 0.10 -0.35 0.08 -0.28 -0.10 0.35 -0.75z"/>
  <path d="M575.05 143.23 c-0.17 -0.28 -0.28 -0.57 -0.22 -0.63 0.17 -0.17 0.73 0.60 0.63 0.90 -0.05 0.15 -0.22 0.03 -0.40 -0.28z"/>
  <path d="M488 103.25 c-0.22 -0.15 -0.15 -0.25 0.25 -0.38 0.30 -0.10 0.65 -0.08 0.80 0.08 0.30 0.30 -0.63 0.57 -1.05 0.30z"/>
 </g>
 <g fill="currentColor">
  <path d="M684.15 487.52 c-0.28 -0.43 1.33 -0.70 2.20 -0.38 0.22 0.08 0.40 0.25 0.40 0.38 0 0.30 -2.42 0.30 -2.60 0z"/>
  <path d="M688.88 487.50 c-0.55 -0.10 -0.88 -0.20 -0.75 -0.22 0.63 -0.15 3.45 0 3.78 0.17 0.50 0.28 -1.60 0.30 -3.03 0.05z"/>
  <path d="M696.75 486.88 c0 -0.40 0.43 -0.47 1.10 -0.22 0.65 0.25 0.45 0.60 -0.35 0.60 -0.50 0 -0.75 -0.13 -0.75 -0.38z"/>
  <path d="M187.07 483.80 c0.35 -0.38 0.38 -0.52 0.13 -0.60 -0.17 -0.08 0.15 -0.17 0.75 -0.22 0.75 -0.08 1.05 -0.03 1.05 0.20 0 0.17 0.30 0.32 0.70 0.35 l0.68 0.03 -0.63 0.17 c-0.35 0.13 -1.20 0.28 -1.88 0.38 -1.23 0.20 -1.25 0.20 -0.80 -0.30z"/>
  <path d="M682.10 466.73 c-0.17 -0.30 0.47 -0.52 1.17 -0.43 0.47 0.08 0.45 0.10 -0.25 0.38 -0.45 0.15 -0.82 0.17 -0.93 0.05z"/>
  <path d="M636.28 464.90 c-0.45 -0.52 -0.25 -0.93 0.28 -0.55 0.25 0.17 0.32 0.43 0.22 0.63 -0.15 0.22 -0.28 0.20 -0.50 -0.08z"/>
  <path d="M411.77 457.27 c-0.77 -0.93 -1.15 -1.20 -1.52 -1.10 -0.28 0.08 -0.65 0.03 -0.82 -0.10 -0.50 -0.40 -1.23 -0.60 -1.02 -0.30 0.10 0.20 -0.03 0.22 -0.38 0.10 -0.40 -0.13 -0.73 0 -1.20 0.47 -0.35 0.35 -0.52 0.65 -0.35 0.65 0.15 0 0.28 0.13 0.28 0.28 0 0.17 -0.28 0.22 -0.70 0.15 -0.52 -0.10 -0.77 -0.03 -1.02 0.35 -0.22 0.38 -0.38 0.45 -0.63 0.25 -0.17 -0.15 -0.40 -0.22 -0.50 -0.15 -0.32 0.25 0.77 -0.85 2.67 -2.60 1.33 -1.25 2.03 -1.75 2.28 -1.60 0.17 0.10 1.02 1.02 1.85 2 0.82 1 1.67 2 1.90 2.20 0.40 0.40 0.50 0.63 0.30 0.63 -0.05 0 -0.57 -0.55 -1.13 -1.23z"/>
  <path d="M733.40 428.75 c-0.08 -0.20 -0.05 -0.77 0.05 -1.25 0.17 -0.80 0.22 -0.82 0.47 -0.38 0.17 0.35 0.17 0.70 -0.08 1.25 -0.22 0.52 -0.35 0.65 -0.45 0.38z"/>
  <path d="M621.53 427.42 c0 -0.40 -0.13 -0.90 -0.25 -1.15 -0.17 -0.32 -0.10 -0.63 0.35 -1.17 0.45 -0.52 0.60 -0.63 0.63 -0.30 0 0.22 -0.15 0.45 -0.30 0.52 -0.25 0.10 -0.25 0.17 0 0.45 0.15 0.17 0.30 0.50 0.30 0.73 0 0.32 -0.03 0.32 -0.25 0 -0.20 -0.32 -0.25 -0.30 -0.25 0.08 0 0.22 0.13 0.43 0.25 0.43 0.15 0 0.25 0.13 0.25 0.28 0 0.13 -0.10 0.20 -0.22 0.10 -0.13 -0.08 -0.30 0.08 -0.35 0.30 -0.08 0.28 -0.13 0.17 -0.15 -0.25z"/>
  <path d="M620.90 423.63 c-0.08 -0.28 -0.15 -1.48 -0.15 -2.67 0 -1.63 0.08 -2.17 0.32 -2.13 0.20 0.03 0.32 -0.32 0.35 -1.08 0.05 -1.63 0.08 -1.70 0.35 -1.05 0.13 0.32 0.32 0.50 0.47 0.43 0.15 -0.10 0.25 0.17 0.22 0.68 0 0.68 -0.05 0.75 -0.22 0.32 -0.25 -0.55 -0.35 1.15 -0.25 4.30 0.05 1.67 0 1.80 -0.47 1.75 -0.28 0 -0.55 -0.25 -0.63 -0.55z"/>
  <path d="M723.50 387.67 c-0.20 -0.17 -0.70 -0.68 -1.13 -1.13 -0.63 -0.70 -0.68 -0.85 -0.38 -1.05 0.43 -0.28 1.50 0.80 1.50 1.50 0 0.22 0.13 0.52 0.30 0.70 0.40 0.40 0.17 0.38 -0.30 -0.03z"/>
  <path d="M715.95 380.65 c-0.25 -0.17 -0.45 -0.45 -0.45 -0.63 0 -0.15 0.20 -0.28 0.45 -0.28 0.28 0 0.43 0.20 0.45 0.63 0.03 0.35 0.03 0.63 0 0.63 0 0 -0.22 -0.17 -0.45 -0.35z"/>
  <path d="M708.60 376.42 c-0.68 -0.35 -0.68 -0.35 -0.47 -0.68 0.13 -0.20 0.25 -0.20 0.50 0 0.20 0.17 0.47 0.22 0.60 0.15 0.38 -0.25 0.50 0.20 0.17 0.50 -0.22 0.20 -0.45 0.22 -0.80 0.03z"/>
  <path d="M324.25 373.27 c0 -0.35 0.45 -0.57 0.77 -0.38 0.20 0.10 0.17 0.22 -0.05 0.38 -0.45 0.28 -0.73 0.28 -0.73 0z"/>
  <path d="M907.53 371 c-0.13 -0.40 -0.22 -0.75 -0.20 -0.77 0.77 -0.30 1.15 -0.05 0.65 0.45 -0.20 0.20 -0.20 0.32 0 0.43 0.32 0.22 0.38 0.65 0.05 0.65 -0.13 0 -0.35 -0.32 -0.50 -0.75z"/>
  <path d="M906.50 367.15 c0 -0.55 0.43 -0.70 0.60 -0.25 0.22 0.55 0.20 0.60 -0.22 0.60 -0.20 0 -0.38 -0.15 -0.38 -0.35z"/>
  <path d="M906.65 362.27 c-0.10 -0.15 -0.08 -0.47 0.08 -0.70 0.22 -0.43 0.25 -0.43 0.43 0 0.20 0.52 -0.25 1.13 -0.50 0.70z"/>
  <path d="M934.28 356.95 c-0.43 -0.68 -0.25 -0.75 0.45 -0.22 0.45 0.35 0.50 0.47 0.22 0.57 -0.20 0.10 -0.50 -0.08 -0.68 -0.35z"/>
  <path d="M912.70 355.45 c0.38 -0.38 0.40 -0.80 0.03 -0.57 -0.15 0.10 -0.13 -0.05 0.08 -0.35 0.40 -0.63 0.88 -0.85 1.35 -0.57 0.30 0.15 0.17 0.38 -0.50 1 -0.82 0.75 -1.60 1.15 -0.95 0.50z"/>
  <path d="M528.95 303.58 c-1.38 -0.15 -1.15 -0.57 0.28 -0.57 1.25 0 1.85 0.32 1.13 0.60 -0.22 0.08 -0.40 0.13 -0.43 0.10 -0.03 -0.03 -0.47 -0.08 -0.98 -0.13z"/>
  <path d="M489.13 303.25 c0.10 -0.15 0.25 -0.20 0.38 -0.13 0.13 0.08 0.28 0.03 0.38 -0.10 0.17 -0.30 0.88 -0.08 0.88 0.25 0 0.13 -0.40 0.22 -0.90 0.22 -0.52 0 -0.82 -0.10 -0.73 -0.25z"/>
  <path d="M481.35 303.08 c-1.15 -0.10 -1.27 -0.15 -1.17 -0.57 0.10 -0.38 0.35 -0.50 0.98 -0.50 0.85 0 1.15 0.35 0.55 0.57 -0.17 0.08 0.25 0.15 0.98 0.15 0.70 0.03 1.38 0.15 1.45 0.28 0.15 0.25 -0.13 0.25 -2.78 0.08z"/>
  <path d="M541.75 302.83 c0.20 -0.08 0.45 -0.25 0.52 -0.38 0.17 -0.28 1.75 0.05 1.58 0.32 -0.08 0.13 -0.65 0.22 -1.30 0.20 -0.65 0 -1 -0.08 -0.80 -0.15z"/>
  <path d="M545.67 302.60 c-0.35 -0.35 -0.17 -0.57 0.45 -0.52 0.35 0.03 0.65 0.17 0.70 0.30 0.05 0.30 -0.90 0.47 -1.15 0.22z"/>
  <path d="M547.25 302.27 c0 -0.13 0.25 -0.17 0.55 -0.08 0.32 0.08 0.47 0.03 0.38 -0.13 -0.15 -0.22 0.30 -0.25 1.58 -0.10 0.32 0.03 0.32 0.05 0 0.28 -0.47 0.30 -2.50 0.32 -2.50 0.03z"/>
  <path d="M470.67 302.08 c-0.40 -0.38 -0.13 -0.55 0.85 -0.52 0.57 0 0.90 0.10 0.73 0.20 -0.22 0.15 -0.22 0.22 0.03 0.32 0.20 0.08 -0.05 0.15 -0.55 0.15 -0.50 0.03 -0.98 -0.05 -1.05 -0.15z"/>
  <path d="M551.40 301.88 c0.10 -0.20 0.35 -0.38 0.60 -0.38 0.25 0 0.50 0.17 0.60 0.38 0.10 0.28 -0.05 0.38 -0.60 0.38 -0.55 0 -0.70 -0.10 -0.60 -0.38z"/>
  <path d="M556.58 301.45 c0.05 -0.17 0.25 -0.32 0.43 -0.32 0.17 0 0.38 0.15 0.45 0.32 0.05 0.17 -0.13 0.30 -0.45 0.30 -0.32 0 -0.50 -0.13 -0.43 -0.30z"/>
  <path d="M377.25 281.33 c-1.10 -0.47 -1.10 -0.45 -0.77 -1 0.15 -0.25 0.28 -0.30 0.28 -0.13 0 0.15 0.28 0.30 0.63 0.30 0.47 0 0.57 0.10 0.45 0.43 -0.10 0.28 -0.08 0.35 0.13 0.22 0.17 -0.10 0.30 -0.03 0.30 0.20 0 0.22 -0.03 0.40 -0.05 0.38 -0.05 0 -0.47 -0.17 -0.95 -0.40z"/>
  <path d="M564.63 265 c-0.08 -0.15 -0.03 -0.25 0.13 -0.25 0.15 0 0.22 -0.10 0.15 -0.22 -0.08 -0.13 0.13 -0.40 0.43 -0.60 0.50 -0.32 0.60 -0.32 0.60 -0.03 0 0.20 -0.10 0.35 -0.22 0.35 -0.13 0 -0.17 0.10 -0.10 0.20 0.05 0.10 -0.10 0.32 -0.35 0.50 -0.30 0.17 -0.52 0.20 -0.63 0.05z"/>
  <path d="M566.50 263.35 c0 -0.28 0.22 -0.73 0.50 -0.98 0.43 -0.38 0.50 -0.40 0.50 -0.08 0 0.22 -0.22 0.65 -0.50 0.98 -0.47 0.57 -0.47 0.57 -0.50 0.08z"/>
  <path d="M571.97 257.52 c1.38 -1.63 1.67 -1.88 1.92 -1.50 0.10 0.20 0.08 0.22 -0.10 0.13 -0.20 -0.10 -0.30 0 -0.30 0.28 -0.03 0.57 -0.57 1.33 -1 1.33 -0.17 0 -0.25 0.15 -0.17 0.35 0.15 0.38 -0.30 0.65 -1 0.65 -0.25 0 -0.03 -0.40 0.65 -1.23z"/>
  <path d="M582.25 244.30 c0 -0.28 0.55 -0.80 0.80 -0.80 0.13 0 0.10 0.22 -0.05 0.50 -0.28 0.50 -0.75 0.70 -0.75 0.30z"/>
  <path d="M584.03 241.23 c0.45 -0.80 0.90 -1.48 1 -1.48 0.32 0 0.25 0.57 -0.15 1.08 -0.17 0.28 -0.28 0.65 -0.20 0.88 0.10 0.25 0.05 0.32 -0.13 0.20 -0.20 -0.10 -0.30 0 -0.30 0.28 0 0.30 -0.20 0.47 -0.50 0.50 -0.47 0.05 -0.45 -0.05 0.28 -1.45z"/>
  <path d="M314.60 240.95 c-1.98 -2.10 -2.25 -2.45 -1.80 -2.45 0.20 0 0.95 0.57 1.67 1.30 0.95 0.93 1.20 1.33 0.98 1.48 -0.20 0.15 -0.22 0.22 -0.05 0.22 0.17 0 0.35 0.17 0.45 0.38 0.20 0.55 0.13 0.50 -1.25 -0.93z"/>
  <path d="M721.08 218.98 c-0.05 -1.30 0.10 -1.60 0.57 -1.10 0.32 0.32 0.32 0.47 -0.08 1.25 l-0.47 0.90 -0.03 -1.05z"/>
  <path d="M461.90 105.32 c-0.35 -0.38 -0.10 -0.57 0.70 -0.57 0.47 0 0.95 0.13 1.05 0.30 0.10 0.17 0.08 0.20 -0.10 0.10 -0.17 -0.10 -0.30 -0.08 -0.30 0.03 0 0.25 -1.10 0.38 -1.35 0.15z"/>
  <path d="M501.75 103 c0 -0.13 -0.25 -0.25 -0.55 -0.25 -0.32 0 -0.45 -0.10 -0.30 -0.22 0.32 -0.30 4.10 -0.55 4.10 -0.25 0 0.13 -0.22 0.22 -0.52 0.22 -0.28 0 -0.45 0.10 -0.38 0.22 0.08 0.13 -0.03 0.30 -0.25 0.38 -0.63 0.25 -2.10 0.17 -2.10 -0.10z"/>
 </g>
 <g fill="currentColor">
  <path d="M130.75 484.27 c0 -0.75 0.43 -0.88 1.13 -0.32 0.70 0.55 0.57 0.80 -0.43 0.80 -0.52 0 -0.70 -0.13 -0.70 -0.47z"/>
  <path d="M777.17 484.58 c-0.10 -0.08 -0.17 -0.43 -0.17 -0.75 l0 -0.60 0.60 0.57 c0.32 0.32 0.52 0.65 0.47 0.77 -0.13 0.22 -0.68 0.22 -0.90 0z"/>
  <path d="M777.05 427.70 c-0.03 -36.58 0.03 -54.72 0.20 -54.83 0.28 -0.17 0.28 100.13 0 106.13 -0.08 1.85 -0.17 -21.23 -0.20 -51.30z"/>
  <path d="M621.90 433.83 c-0.32 -0.32 -0.15 -1.05 0.22 -0.93 0.40 0.17 0.50 0.75 0.15 0.95 -0.10 0.08 -0.28 0.08 -0.38 -0.03z"/>
  <path d="M332.90 428.08 c-0.32 -1.10 -0.43 -2.78 -0.20 -2.92 0.15 -0.10 0.32 0.47 0.43 1.48 0.17 1.60 0.05 2.38 -0.22 1.45z"/>
  <path d="M756.53 403.58 c-0.50 -2.20 -0.70 -3.83 -0.50 -3.83 0.25 0 0.43 0.68 0.43 1.70 0.03 0.45 0.20 1.15 0.40 1.60 0.45 0.85 0.52 1.70 0.17 1.70 -0.13 0 -0.35 -0.52 -0.50 -1.17z"/>
  <path d="M749.42 383.30 c-0.20 -0.22 -0.50 -0.77 -0.65 -1.17 -0.28 -0.70 -0.25 -0.73 0.13 -0.25 0.45 0.57 1.15 1.88 1.02 1.88 -0.05 0 -0.28 -0.20 -0.50 -0.45z"/>
  <path d="M893.83 369 c0 -0.63 0.05 -0.88 0.10 -0.55 0.05 0.30 0.05 0.80 0 1.13 -0.05 0.30 -0.10 0.05 -0.10 -0.57z"/>
  <path d="M211.57 360.95 c-0.50 -0.25 -0.80 -0.70 -0.45 -0.70 0.30 0 1.88 0.73 1.88 0.85 0 0.22 -0.82 0.15 -1.42 -0.15z"/>
  <path d="M781.13 355 c-0.28 -0.10 -0.82 -0.13 -1.25 -0.08 -0.40 0.05 -1.02 0 -1.38 -0.15 -0.47 -0.17 -0.10 -0.25 1.75 -0.25 1.30 0.03 2.20 0.08 2 0.15 -0.20 0.08 -0.43 0.22 -0.50 0.32 -0.08 0.10 -0.35 0.10 -0.63 0z"/>
  <path d="M921.70 347.98 c0.32 -0.30 1.70 -0.45 2.05 -0.20 0.43 0.25 0.28 0.30 -1.17 0.32 -0.57 0.03 -0.98 -0.05 -0.88 -0.13z"/>
  <path d="M443.77 298.73 c-2.35 -0.47 -2.72 -0.60 -2.47 -0.85 0.20 -0.20 6.03 0.43 6.32 0.68 0.13 0.13 0.05 0.20 -0.20 0.20 -0.22 0 -0.43 0.13 -0.43 0.25 0 0.32 -0.40 0.30 -3.22 -0.28z"/>
  <path d="M593.15 193.80 c-0.05 -0.10 -0.25 -1.83 -0.40 -3.80 -0.15 -2 -0.38 -3.97 -0.50 -4.43 -0.15 -0.57 -0.13 -0.75 0.13 -0.68 0.35 0.15 0.85 3.42 1.02 6.80 0.13 2.15 0.05 2.60 -0.25 2.10z"/>
  <path d="M588.90 171.93 c-0.28 -1 -0.20 -1.27 0.22 -0.93 0.40 0.35 0.50 1.15 0.15 1.35 -0.13 0.08 -0.28 -0.10 -0.38 -0.43z"/>
 </g>
 <g fill="currentColor">
  <path d="M509.98 484.58 c-0.03 -0.10 -0.03 -0.28 0 -0.38 0 -0.13 -0.35 -0.20 -0.82 -0.20 -0.95 0 -1.42 -0.43 -1.17 -1.05 0.13 -0.38 0.22 -0.40 0.90 -0.05 0.90 0.45 1.75 1.50 1.38 1.73 -0.13 0.08 -0.28 0.08 -0.28 -0.05z"/>
  <path d="M450.77 420.75 c-0.17 -0.10 -0.28 -0.43 -0.22 -0.75 l0.08 -0.55 0.57 0.63 c0.45 0.47 0.50 0.65 0.22 0.75 -0.20 0.08 -0.47 0.05 -0.65 -0.08z"/>
  <path d="M446.83 416.50 c-0.40 -0.60 -0.05 -0.85 0.57 -0.38 0.30 0.22 0.35 0.35 0.15 0.38 -0.17 0 -0.25 0.13 -0.17 0.25 0.08 0.15 0.05 0.25 -0.05 0.25 -0.13 0 -0.35 -0.22 -0.50 -0.50z"/>
  <path d="M461 399.38 c0 -0.50 1.20 -1.63 1.70 -1.63 0.28 0 0.08 0.35 -0.57 1 -1.10 1.13 -1.13 1.15 -1.13 0.63z"/>
  <path d="M468.15 362.05 c-0.08 -0.13 0.08 -0.43 0.32 -0.65 0.28 -0.25 0.55 -0.32 0.63 -0.20 0.08 0.13 -0.08 0.43 -0.32 0.65 -0.28 0.25 -0.55 0.32 -0.63 0.20z"/>
  <path d="M504.13 356.27 c-1.27 -0.25 -1.08 -1.52 0.25 -1.52 0.63 0 1.23 1.13 0.77 1.45 -0.15 0.13 -0.60 0.15 -1.02 0.08z"/>
  <path d="M503.88 102.25 c0.10 -0.15 1.63 -0.25 3.78 -0.25 2.35 0 3.58 0.10 3.47 0.25 -0.10 0.15 -1.63 0.25 -3.78 0.25 -2.35 0 -3.58 -0.10 -3.47 -0.25z"/>
 </g>
 <g fill="currentColor">
  <path d="M480.77 379.75 c1.13 -1.23 2.17 -2.25 2.33 -2.25 0.15 0 -0.75 1.02 -1.98 2.25 -1.23 1.25 -2.28 2.25 -2.33 2.25 -0.05 0 0.85 -1 1.98 -2.25z"/>
 </g>
</svg>