<?xml version="1.0" encoding="UTF-8"?>
<svg id="Calque_1" data-name="Calque 1" xmlns="http://www.w3.org/2000/svg" version="1.1" viewBox="0 0 595.3 331.9">
  <defs>
    <style>
      .cls-1 {
        fill: #00ade9;
      }

      .cls-1, .cls-2, .cls-3 {
        stroke-width: 0px;
      }

      .cls-2 {
        fill: #696a6f;
      }

      .cls-3 {
        fill: #000;
      }

      .cls-4 {
        opacity: .1;
      }
    </style>
  </defs>
  <g class="cls-4">
    <g>
      <g>
        <g>
          <path class="cls-3" d="M304.4,258.4"/>
          <path class="cls-3" d="M297.1,259.4c0,.4-.2.9-.6.9-.4,0-.9-.2-.9-.6,0-.4.2-.9.6-.9s.9.2.9.6Z"/>
          <path class="cls-3" d="M289.5,259.6c.1.8-.4,1.5-1.2,1.6-.8.1-1.5-.4-1.6-1.2-.1-.8.4-1.5,1.2-1.6.8-.1,1.5.4,1.6,1.2Z"/>
          <path class="cls-3" d="M281.8,259.1c.2,1-.5,2-1.6,2.2-1,.2-2-.5-2.2-1.6-.2-1,.5-2,1.6-2.2,1-.2,2,.5,2.2,1.6Z"/>
          <path class="cls-3" d="M274,257.8c.2,1.3-.6,2.5-1.9,2.7-1.3.2-2.5-.6-2.7-1.9-.2-1.3.6-2.5,1.9-2.7,1.3-.2,2.5.6,2.7,1.9Z"/>
          <path class="cls-3" d="M266.3,255.8c.3,1.4-.7,2.8-2.1,3-1.4.3-2.8-.7-3-2.1-.3-1.4.7-2.8,2.1-3,1.4-.3,2.8.7,3,2.1Z"/>
          <circle class="cls-3" cx="256" cy="253.7" r="2.8" transform="translate(-40.3 48.6) rotate(-10.1)"/>
          <path class="cls-3" d="M251.4,249.8c.3,1.6-.8,3.2-2.4,3.5-1.6.3-3.2-.8-3.5-2.4-.3-1.6.8-3.2,2.4-3.5,1.6-.3,3.2.8,3.5,2.4Z"/>
          <circle class="cls-3" cx="241.3" cy="246.3" r="3.1" transform="translate(-24.5 466) rotate(-85.2)"/>
          <circle class="cls-3" cx="234.6" cy="241.7" r="3.1"/>
          <circle class="cls-3" cx="228.2" cy="236.5" r="3"/>
          <path class="cls-3" d="M225.2,230.2c.3,1.6-.8,3.1-2.3,3.3-1.6.3-3.1-.8-3.3-2.3-.3-1.6.8-3.1,2.3-3.3,1.6-.3,3.1.8,3.3,2.3Z"/>
          <path class="cls-3" d="M219.8,223.9c.3,1.5-.7,2.9-2.2,3.1-1.5.3-2.9-.7-3.1-2.2-.3-1.5.7-2.9,2.2-3.1,1.5-.3,2.9.7,3.1,2.2Z"/>
          <circle class="cls-3" cx="212.4" cy="217.7" r="2.4" transform="translate(-42.6 383.4) rotate(-78.7)"/>
          <circle class="cls-3" cx="208.4" cy="210.5" r="2"/>
          <path class="cls-3" d="M206.6,202.8c.1.8-.4,1.7-1.3,1.8-.8.1-1.7-.4-1.8-1.3-.1-.8.4-1.7,1.3-1.8.8-.1,1.7.4,1.8,1.3Z"/>
          <path class="cls-3" d="M203.3,195.1c0,.5-.3,1-.8,1.1-.5,0-1-.3-1.1-.8,0-.5.3-1,.8-1.1.5,0,1,.3,1.1.8Z"/>
          <path class="cls-3" d="M200.6,187.3c0,.1,0,.2-.2.3-.1,0-.2,0-.3-.2,0-.1,0-.2.2-.3.1,0,.2,0,.3.2Z"/>
        </g>
        <g>
          <path class="cls-3" d="M273.1,80.9"/>
          <circle class="cls-3" cx="281.2" cy="79.9" r=".8" transform="translate(180 354.1) rotate(-85.6)"/>
          <path class="cls-3" d="M290.9,79.3c.1.8-.4,1.5-1.2,1.6-.8.1-1.5-.4-1.6-1.2-.1-.8.4-1.5,1.2-1.6.8-.1,1.5.4,1.6,1.2Z"/>
          <circle class="cls-3" cx="297.6" cy="80" r="1.9" transform="translate(-7.4 36.3) rotate(-6.9)"/>
          <circle class="cls-3" cx="305.8" cy="81.1" r="2.3"/>
          <path class="cls-3" d="M316.3,82.6c.3,1.4-.7,2.8-2.1,3-1.4.3-2.8-.7-3-2.1s.7-2.8,2.1-3c1.4-.3,2.8.7,3,2.1Z"/>
          <path class="cls-3" d="M324.3,85.2c.3,1.5-.8,3-2.3,3.3s-3-.8-3.3-2.3c-.3-1.5.8-3,2.3-3.3s3,.8,3.3,2.3Z"/>
          <circle class="cls-3" cx="329" cy="89" r="3" transform="translate(-3.9 16.1) rotate(-2.8)"/>
          <circle class="cls-3" cx="336.2" cy="93" r="3.1" transform="translate(178.1 404) rotate(-78.5)"/>
          <circle class="cls-3" cx="343" cy="97.7" r="3.1"/>
          <circle class="cls-3" cx="349.3" cy="102.9" r="3" transform="translate(-3.9 14.3) rotate(-2.3)"/>
          <circle class="cls-3" cx="355.1" cy="108.7" r="2.9" transform="translate(194.1 443.3) rotate(-81.3)"/>
          <circle class="cls-3" cx="360.4" cy="115" r="2.7" transform="translate(59.5 344.2) rotate(-55)"/>
          <circle class="cls-3" cx="365.1" cy="121.7" r="2.4"/>
          <path class="cls-3" d="M371.1,128.5c.2,1.1-.5,2.2-1.6,2.4-1.1.2-2.2-.5-2.4-1.6s.5-2.2,1.6-2.4,2.2.5,2.4,1.6Z"/>
          <path class="cls-3" d="M374,136c.1.8-.4,1.7-1.3,1.8-.8.1-1.7-.4-1.8-1.3-.1-.8.4-1.7,1.3-1.8.8-.1,1.7.4,1.8,1.3Z"/>
          <path class="cls-3" d="M376.1,143.9c0,.5-.3,1-.8,1.1-.5,0-1-.3-1.1-.8,0-.5.3-1,.8-1.1s1,.3,1.1.8Z"/>
          <path class="cls-3" d="M377.4,152c0,.1,0,.2-.2.3-.1,0-.2,0-.3-.2,0-.1,0-.2.2-.3.1,0,.2,0,.3.2Z"/>
        </g>
      </g>
      <g>
        <g>
          <path class="cls-3" d="M271.4,268.3"/>
          <path class="cls-3" d="M263.3,266.5c0,.5-.5.8-1,.7-.5,0-.8-.5-.7-1,0-.5.5-.8,1-.7.5,0,.8.5.7,1Z"/>
          <path class="cls-3" d="M255.3,263.8c-.2.9-1,1.4-1.8,1.3-.9-.2-1.4-1-1.3-1.8.2-.9,1-1.4,1.8-1.3.9.2,1.4,1,1.3,1.8Z"/>
          <path class="cls-3" d="M247.5,260.3c-.2,1.2-1.3,1.9-2.5,1.7-1.2-.2-1.9-1.3-1.7-2.5.2-1.2,1.3-1.9,2.5-1.7,1.2.2,1.9,1.3,1.7,2.5Z"/>
          <path class="cls-3" d="M239.9,256.1c-.2,1.4-1.6,2.3-3,2.1-1.4-.2-2.3-1.6-2.1-3s1.6-2.3,3-2.1,2.3,1.6,2.1,3Z"/>
          <path class="cls-3" d="M232.6,251.1c-.3,1.6-1.8,2.6-3.4,2.4-1.6-.3-2.6-1.8-2.4-3.4.3-1.6,1.8-2.6,3.4-2.4,1.6.3,2.6,1.8,2.4,3.4Z"/>
          <circle class="cls-3" cx="222.6" cy="244.9" r="3.2" transform="translate(-40.7 445.4) rotate(-85)"/>
          <circle class="cls-3" cx="216.1" cy="238.6" r="3.3" transform="translate(-103.8 202.9) rotate(-41.5)"/>
          <path class="cls-3" d="M213.5,232.3c-.3,1.9-2.1,3.1-3.9,2.8-1.9-.3-3.1-2.1-2.8-3.9.3-1.9,2.1-3.1,3.9-2.8,1.9.3,3.1,2.1,2.8,3.9Z"/>
          <circle class="cls-3" cx="204.8" cy="224.3" r="3.4"/>
          <circle class="cls-3" cx="200.2" cy="216.4" r="3.4"/>
          <path class="cls-3" d="M199.5,208.7c-.3,1.7-2,2.9-3.7,2.6-1.7-.3-2.9-2-2.6-3.7.3-1.7,2-2.9,3.7-2.6,1.7.3,2.9,2,2.6,3.7Z"/>
          <path class="cls-3" d="M196.1,200.1c-.3,1.6-1.8,2.7-3.5,2.4-1.6-.3-2.7-1.8-2.4-3.5.3-1.6,1.8-2.7,3.5-2.4,1.6.3,2.7,1.8,2.4,3.5Z"/>
          <circle class="cls-3" cx="190.8" cy="190.8" r="2.7" transform="translate(-50.7 311.1) rotate(-71.5)"/>
          <path class="cls-3" d="M191.5,182.2c-.2,1.2-1.4,2-2.6,1.8-1.2-.2-2-1.4-1.8-2.6.2-1.2,1.4-2,2.6-1.8,1.2.2,2,1.4,1.8,2.6Z"/>
          <path class="cls-3" d="M190.4,173c-.2.9-1.1,1.6-2,1.4-.9-.2-1.6-1.1-1.4-2,.2-.9,1.1-1.6,2-1.4.9.2,1.6,1.1,1.4,2Z"/>
          <path class="cls-3" d="M189.9,163.8c-.1.6-.7,1-1.3.9-.6-.1-1-.7-.9-1.3.1-.6.7-1,1.3-.9.6.1,1,.7.9,1.3Z"/>
          <path class="cls-3" d="M190,154.5c0,.1-.2.2-.3.2-.1,0-.2-.2-.2-.3s.2-.2.3-.2c.1,0,.2.2.2.3Z"/>
        </g>
        <g>
          <path class="cls-3" d="M306.2,71.1"/>
          <path class="cls-3" d="M315.9,73.2c0,.5-.5.8-1,.7-.5,0-.8-.5-.7-1s.5-.8,1-.7.8.5.7,1Z"/>
          <path class="cls-3" d="M325.3,76.1c-.2.9-1,1.4-1.8,1.3s-1.4-1-1.3-1.8c.2-.9,1-1.4,1.8-1.3.9.2,1.4,1,1.3,1.8Z"/>
          <path class="cls-3" d="M334.2,79.8c-.2,1.2-1.3,1.9-2.5,1.7-1.2-.2-1.9-1.3-1.7-2.5.2-1.2,1.3-1.9,2.5-1.7,1.2.2,1.9,1.3,1.7,2.5Z"/>
          <circle class="cls-3" cx="340.2" cy="83.7" r="2.6"/>
          <circle class="cls-3" cx="347.8" cy="88.7" r="2.9" transform="translate(12 215.5) rotate(-35)"/>
          <path class="cls-3" d="M358,95c-.3,1.7-1.9,2.9-3.7,2.6s-2.9-1.9-2.6-3.7,1.9-2.9,3.7-2.6,2.9,1.9,2.6,3.7Z"/>
          <path class="cls-3" d="M364.7,101.4c-.3,1.8-2,3-3.8,2.7-1.8-.3-3-2-2.7-3.8.3-1.8,2-3,3.8-2.7,1.8.3,3,2,2.7,3.8Z"/>
          <circle class="cls-3" cx="367.4" cy="107.7" r="3.4"/>
          <circle class="cls-3" cx="372.7" cy="115.1" r="3.4" transform="translate(11.8 263) rotate(-39.4)"/>
          <circle class="cls-3" cx="377.3" cy="123" r="3.4" transform="translate(193.1 474.5) rotate(-80.4)"/>
          <circle class="cls-3" cx="381.2" cy="131.2" r="3.2"/>
          <circle class="cls-3" cx="384.4" cy="139.8" r="3" transform="translate(-18.7 209.3) rotate(-29.8)"/>
          <circle class="cls-3" cx="386.7" cy="148.6" r="2.7" transform="translate(-15.3 248.7) rotate(-35)"/>
          <path class="cls-3" d="M390.4,158c-.2,1.2-1.4,2-2.6,1.8-1.2-.2-2-1.4-1.8-2.6.2-1.2,1.4-2,2.6-1.8,1.2.2,2,1.4,1.8,2.6Z"/>
          <path class="cls-3" d="M390.6,167c-.2.9-1.1,1.6-2,1.4-.9-.2-1.6-1.1-1.4-2,.2-.9,1.1-1.6,2-1.4.9.2,1.6,1.1,1.4,2Z"/>
          <path class="cls-3" d="M389.8,176c-.1.6-.7,1-1.3.9-.6-.1-1-.7-.9-1.3.1-.6.7-1,1.3-.9.6.1,1,.7.9,1.3Z"/>
          <path class="cls-3" d="M388,184.9c0,.1-.2.2-.3.2-.1,0-.2-.2-.2-.3,0-.1.2-.2.3-.2.1,0,.2.2.2.3Z"/>
        </g>
      </g>
      <g>
        <g>
          <path class="cls-3" d="M233.1,266"/>
          <path class="cls-3" d="M225.4,261.1c-.3.5-.9.6-1.3.4s-.6-.9-.4-1.3.9-.6,1.3-.4c.5.3.6.9.4,1.3Z"/>
          <path class="cls-3" d="M218.1,255.3c-.5.8-1.6,1.1-2.4.6-.8-.5-1.1-1.6-.6-2.4.5-.8,1.6-1.1,2.4-.6.8.5,1.1,1.6.6,2.4Z"/>
          <path class="cls-3" d="M211.2,248.7c-.7,1.1-2.1,1.5-3.2.9-1.1-.7-1.5-2.1-.9-3.2.7-1.1,2.1-1.5,3.2-.9,1.1.7,1.5,2.1.9,3.2Z"/>
          <circle class="cls-3" cx="202.4" cy="239.9" r="2.9" transform="translate(-89.2 356.1) rotate(-71.6)"/>
          <path class="cls-3" d="M199.2,233.4c-.9,1.5-2.9,2.1-4.4,1.2-1.5-.9-2.1-2.9-1.2-4.4.9-1.5,2.9-2.1,4.4-1.2,1.5.9,2.1,2.9,1.2,4.4Z"/>
          <circle class="cls-3" cx="191.1" cy="223.1" r="3.5" transform="translate(-94.4 292) rotate(-63)"/>
          <circle class="cls-3" cx="186.7" cy="214" r="3.7" transform="translate(-34 392.8) rotate(-87.9)"/>
          <path class="cls-3" d="M186.4,206.4c-1,1.8-3.4,2.4-5.2,1.4-1.8-1-2.4-3.4-1.4-5.2,1-1.8,3.4-2.4,5.2-1.4,1.8,1,2.4,3.4,1.4,5.2Z"/>
          <circle class="cls-3" cx="180.4" cy="194.8" r="3.8" transform="translate(-74.6 268.6) rotate(-63.3)"/>
          <circle class="cls-3" cx="178.5" cy="184.8" r="3.7"/>
          <path class="cls-3" d="M180.7,176.5c-1,1.7-3.2,2.3-4.9,1.3-1.7-1-2.3-3.2-1.3-4.9,1-1.7,3.2-2.3,4.9-1.3,1.7,1,2.3,3.2,1.3,4.9Z"/>
          <circle class="cls-3" cx="177.6" cy="164.6" r="3.3"/>
          <path class="cls-3" d="M181.1,156c-.8,1.4-2.6,1.9-4.1,1.1-1.4-.8-1.9-2.6-1.1-4.1s2.6-1.9,4.1-1.1c1.4.8,1.9,2.6,1.1,4.1Z"/>
          <circle class="cls-3" cx="180.3" cy="144.5" r="2.5"/>
          <path class="cls-3" d="M184.8,135.7c-.5.9-1.7,1.2-2.6.7-.9-.5-1.2-1.7-.7-2.6.5-.9,1.7-1.2,2.6-.7.9.5,1.2,1.7.7,2.6Z"/>
          <path class="cls-3" d="M187.7,125.9c-.3.6-1.1.8-1.6.4-.6-.3-.8-1.1-.4-1.6.3-.6,1.1-.8,1.6-.4.6.3.8,1.1.4,1.6Z"/>
          <path class="cls-3" d="M191.4,116.4c0,.1-.2.2-.4.1-.1,0-.2-.2-.1-.4s.2-.2.4-.1.2.2.1.4Z"/>
        </g>
        <g>
          <path class="cls-3" d="M344.4,73.3"/>
          <path class="cls-3" d="M353.8,79.3c-.3.5-.9.6-1.3.4-.5-.3-.6-.9-.4-1.3.3-.5.9-.6,1.3-.4.5.3.6.9.4,1.3Z"/>
          <path class="cls-3" d="M362.5,85.9c-.5.8-1.6,1.1-2.4.6-.8-.5-1.1-1.6-.6-2.4s1.6-1.1,2.4-.6c.8.5,1.1,1.6.6,2.4Z"/>
          <circle class="cls-3" cx="368.4" cy="91.9" r="2.4"/>
          <circle class="cls-3" cx="375.1" cy="99.4" r="2.9"/>
          <circle class="cls-3" cx="381.1" cy="107.6" r="3.2" transform="translate(31.3 293.2) rotate(-43.7)"/>
          <circle class="cls-3" cx="386.4" cy="116.3" r="3.5"/>
          <circle class="cls-3" cx="390.8" cy="125.4" r="3.7" transform="translate(33.1 326.6) rotate(-47.1)"/>
          <circle class="cls-3" cx="394.4" cy="134.8" r="3.8" transform="translate(42.9 358.8) rotate(-51.4)"/>
          <circle class="cls-3" cx="397.2" cy="144.6" r="3.8" transform="translate(116.5 460.6) rotate(-68.4)"/>
          <circle class="cls-3" cx="399" cy="154.6" r="3.7"/>
          <circle class="cls-3" cx="399.9" cy="164.6" r="3.6"/>
          <circle class="cls-3" cx="399.9" cy="174.8" r="3.3"/>
          <circle class="cls-3" cx="399" cy="184.9" r="3"/>
          <circle class="cls-3" cx="397.2" cy="194.8" r="2.5"/>
          <path class="cls-3" d="M396.1,205.6c-.5.9-1.7,1.2-2.6.7-.9-.5-1.2-1.7-.7-2.6.5-.9,1.7-1.2,2.6-.7.9.5,1.2,1.7.7,2.6Z"/>
          <path class="cls-3" d="M391.9,214.7c-.3.6-1.1.8-1.6.4s-.8-1.1-.4-1.6c.3-.6,1.1-.8,1.6-.4.6.3.8,1.1.4,1.6Z"/>
          <path class="cls-3" d="M386.6,223.3c0,.1-.2.2-.4.1-.1,0-.2-.2-.1-.4,0-.1.2-.2.4-.1.1,0,.2.2.1.4Z"/>
        </g>
      </g>
      <g>
        <g>
          <path class="cls-3" d="M194.1,249.2"/>
          <path class="cls-3" d="M187.9,241.1c-.5.4-1.2.3-1.5-.1-.4-.5-.3-1.2.1-1.5.5-.4,1.2-.3,1.5.1s.3,1.2-.1,1.5Z"/>
          <path class="cls-3" d="M182.5,232.2c-.8.7-2.1.6-2.7-.2-.7-.8-.6-2.1.2-2.7s2.1-.6,2.7.2c.7.8.6,2.1-.2,2.7Z"/>
          <path class="cls-3" d="M177.8,222.7c-1.1.9-2.8.8-3.7-.3-.9-1.1-.8-2.8.3-3.7,1.1-.9,2.8-.8,3.7.3.9,1.1.8,2.8-.3,3.7Z"/>
          <path class="cls-3" d="M174,212.6c-1.3,1.1-3.3,1-4.5-.4-1.1-1.3-1-3.3.4-4.5,1.3-1.1,3.3-1,4.5.4,1.1,1.3,1,3.3-.4,4.5Z"/>
          <circle class="cls-3" cx="168.7" cy="199.4" r="3.6" transform="translate(-90.3 233.3) rotate(-57.2)"/>
          <circle class="cls-3" cx="166.5" cy="188.4" r="3.9" transform="translate(-84.1 168.4) rotate(-44)"/>
          <circle class="cls-3" cx="165.3" cy="177.2" r="4.1" transform="translate(-76.4 193.8) rotate(-50.9)"/>
          <circle class="cls-3" cx="165.2" cy="165.9" r="4.2" transform="translate(-64.8 121.9) rotate(-34.3)"/>
          <circle class="cls-3" cx="166" cy="154.7" r="4.2"/>
          <circle class="cls-3" cx="167.9" cy="143.6" r="4.1"/>
          <circle class="cls-3" cx="170.8" cy="132.7" r="4"/>
          <circle class="cls-3" cx="174.6" cy="122.1" r="3.7"/>
          <circle class="cls-3" cx="179.4" cy="111.9" r="3.3"/>
          <path class="cls-3" d="M186.9,104.4c-1.2,1-2.9.8-3.9-.3-1-1.2-.8-2.9.3-3.9,1.2-1,2.9-.8,3.9.3,1,1.2.8,2.9-.3,3.9Z"/>
          <path class="cls-3" d="M193.1,94.7c-.9.8-2.3.6-3-.3-.8-.9-.6-2.3.3-3,.9-.8,2.3-.6,3,.3.8.9.6,2.3-.3,3Z"/>
          <path class="cls-3" d="M199.9,85.6c-.6.5-1.4.4-1.9-.2-.5-.6-.4-1.4.2-1.9.6-.5,1.4-.4,1.9.2.5.6.4,1.4-.2,1.9Z"/>
          <path class="cls-3" d="M207.4,77c-.1.1-.3,0-.4,0-.1-.1,0-.3,0-.4.1-.1.3,0,.4,0,.1.1,0,.3,0,.4Z"/>
        </g>
        <g>
          <path class="cls-3" d="M383.5,90.2"/>
          <path class="cls-3" d="M391,100c-.5.4-1.2.3-1.5-.1-.4-.5-.3-1.2.1-1.5.5-.4,1.2-.3,1.5.1s.3,1.2-.1,1.5Z"/>
          <path class="cls-3" d="M397.6,110.2c-.8.7-2.1.6-2.7-.2-.7-.8-.6-2.1.2-2.7.8-.7,2.1-.6,2.7.2.7.8.6,2.1-.2,2.7Z"/>
          <path class="cls-3" d="M403.1,120.7c-1.1.9-2.8.8-3.7-.3-.9-1.1-.8-2.8.3-3.7,1.1-.9,2.8-.8,3.7.3.9,1.1.8,2.8-.3,3.7Z"/>
          <circle class="cls-3" cx="405.6" cy="129.2" r="3.2" transform="translate(160.3 477.1) rotate(-72.5)"/>
          <circle class="cls-3" cx="408.8" cy="140" r="3.6" transform="translate(142.7 480.4) rotate(-70.9)"/>
          <circle class="cls-3" cx="411" cy="151" r="3.9"/>
          <circle class="cls-3" cx="412.2" cy="162.2" r="4.1" transform="translate(-28.9 202.4) rotate(-26.7)"/>
          <circle class="cls-3" cx="412.3" cy="173.5" r="4.2" transform="translate(-32.5 126.5) rotate(-16.8)"/>
          <circle class="cls-3" cx="411.5" cy="184.7" r="4.2" transform="translate(33.5 430.8) rotate(-57.2)"/>
          <circle class="cls-3" cx="409.6" cy="195.8" r="4.1" transform="translate(103 530.6) rotate(-73.1)"/>
          <circle class="cls-3" cx="406.8" cy="206.7" r="4"/>
          <circle class="cls-3" cx="402.9" cy="217.3" r="3.7" transform="translate(-53.8 247.8) rotate(-32.2)"/>
          <circle class="cls-3" cx="398.1" cy="227.4" r="3.3"/>
          <path class="cls-3" d="M394.2,239.3c-1.2,1-2.9.8-3.9-.3-1-1.2-.8-2.9.3-3.9,1.2-1,2.9-.8,3.9.3,1,1.2.8,2.9-.3,3.9Z"/>
          <path class="cls-3" d="M387.2,247.9c-.9.8-2.3.6-3-.3-.8-.9-.6-2.3.3-3,.9-.8,2.3-.6,3,.3.8.9.6,2.3-.3,3Z"/>
          <path class="cls-3" d="M379.3,255.8c-.6.5-1.4.4-1.9-.2-.5-.6-.4-1.4.2-1.9.6-.5,1.4-.4,1.9.2.5.6.4,1.4-.2,1.9Z"/>
          <path class="cls-3" d="M370.5,262.8c-.1.1-.3,0-.4,0-.1-.1,0-.3,0-.4.1-.1.3,0,.4,0,.1.1,0,.3,0,.4Z"/>
        </g>
      </g>
      <g>
        <g>
          <path class="cls-3" d="M159.7,216.7"/>
          <path class="cls-3" d="M156.3,205.9c-.6.2-1.3,0-1.6-.7-.2-.6,0-1.3.7-1.6.6-.2,1.3,0,1.6.7.2.6,0,1.3-.7,1.6Z"/>
          <path class="cls-3" d="M154,194.5c-1.1.4-2.4-.2-2.8-1.3-.4-1.1.2-2.4,1.3-2.8,1.1-.4,2.4.2,2.8,1.3.4,1.1-.2,2.4-1.3,2.8Z"/>
          <circle class="cls-3" cx="151.7" cy="180.1" r="2.9"/>
          <circle class="cls-3" cx="151.4" cy="167.6" r="3.5"/>
          <circle class="cls-3" cx="152.1" cy="155.1" r="4" transform="translate(-29.9 273.6) rotate(-78.6)"/>
          <circle class="cls-3" cx="154" cy="142.7" r="4.3" transform="translate(-20.2 25.5) rotate(-8.9)"/>
          <circle class="cls-3" cx="157.1" cy="130.6" r="4.6" transform="translate(-42.7 88) rotate(-27.7)"/>
          <circle class="cls-3" cx="161.2" cy="118.8" r="4.7" transform="translate(-34.6 77.1) rotate(-24.4)"/>
          <circle class="cls-3" cx="166.3" cy="107.4" r="4.7" transform="translate(-29.6 79) rotate(-24.6)"/>
          <path class="cls-3" d="M174.1,100.8c-2.4.9-5-.4-5.9-2.7-.9-2.4.4-5,2.7-5.9,2.4-.9,5,.4,5.9,2.7.9,2.4-.4,5-2.7,5.9Z"/>
          <circle class="cls-3" cx="179.6" cy="86.2" r="4.4" transform="translate(-16.3 122.7) rotate(-36.2)"/>
          <circle class="cls-3" cx="187.7" cy="76.6" r="4.1"/>
          <circle class="cls-3" cx="196.5" cy="67.8" r="3.7"/>
          <circle class="cls-3" cx="206.2" cy="59.9" r="3.1"/>
          <path class="cls-3" d="M217.3,55c-1.2.4-2.6-.2-3.1-1.4-.4-1.2.2-2.6,1.4-3.1,1.2-.4,2.6.2,3.1,1.4.4,1.2-.2,2.6-1.4,3.1Z"/>
          <path class="cls-3" d="M228,48.1c-.8.3-1.6-.1-1.9-.9-.3-.8.1-1.6.9-1.9.8-.3,1.6.1,1.9.9.3.8-.1,1.6-.9,1.9Z"/>
          <path class="cls-3" d="M239,42c-.2,0-.4,0-.4-.2,0-.2,0-.4.2-.4.2,0,.4,0,.4.2,0,.2,0,.4-.2.4Z"/>
        </g>
        <g>
          <path class="cls-3" d="M417.9,122.7"/>
          <path class="cls-3" d="M422,135.8c-.6.2-1.3,0-1.6-.7-.2-.6,0-1.3.7-1.6.6-.2,1.3,0,1.6.7.2.6,0,1.3-.7,1.6Z"/>
          <path class="cls-3" d="M425,148.9c-1.1.4-2.4-.2-2.8-1.3-.4-1.1.2-2.4,1.3-2.8,1.1-.4,2.4.2,2.8,1.3.4,1.1-.2,2.4-1.3,2.8Z"/>
          <path class="cls-3" d="M426.8,162c-1.5.6-3.2-.2-3.7-1.7-.6-1.5.2-3.2,1.7-3.7,1.5-.6,3.2.2,3.7,1.7s-.2,3.2-1.7,3.7Z"/>
          <circle class="cls-3" cx="426.2" cy="171.8" r="3.5" transform="translate(247 594.9) rotate(-89)"/>
          <circle class="cls-3" cx="425.4" cy="184.3" r="4" transform="translate(35.5 435) rotate(-56.2)"/>
          <circle class="cls-3" cx="423.5" cy="196.6" r="4.3"/>
          <circle class="cls-3" cx="420.5" cy="208.8" r="4.6" transform="translate(-47.8 242.1) rotate(-30.5)"/>
          <circle class="cls-3" cx="416.4" cy="220.6" r="4.7"/>
          <circle class="cls-3" cx="411.2" cy="232" r="4.7"/>
          <circle class="cls-3" cx="405" cy="242.9" r="4.6" transform="translate(-57.4 338.5) rotate(-42.6)"/>
          <circle class="cls-3" cx="397.9" cy="253.1" r="4.4" transform="translate(-62.5 355.5) rotate(-45)"/>
          <circle class="cls-3" cx="389.9" cy="262.7" r="4.1"/>
          <circle class="cls-3" cx="381" cy="271.5" r="3.7"/>
          <circle class="cls-3" cx="371.3" cy="279.5" r="3.1" transform="translate(-52.4 88.5) rotate(-12.7)"/>
          <path class="cls-3" d="M361.8,288.8c-1.2.4-2.6-.2-3.1-1.4-.4-1.2.2-2.6,1.4-3.1,1.2-.4,2.6.2,3.1,1.4.4,1.2-.2,2.6-1.4,3.1Z"/>
          <path class="cls-3" d="M350.6,294c-.8.3-1.6-.1-1.9-.9-.3-.8.1-1.6.9-1.9.8-.3,1.6.1,1.9.9.3.8-.1,1.6-.9,1.9Z"/>
          <path class="cls-3" d="M338.7,298c-.2,0-.4,0-.4-.2,0-.2,0-.4.2-.4.2,0,.4,0,.4.2,0,.2,0,.4-.2.4Z"/>
        </g>
      </g>
      <g>
        <g>
          <path class="cls-3" d="M136.1,169.7"/>
          <path class="cls-3" d="M136.7,157.2c-.7,0-1.4-.6-1.4-1.4s.6-1.4,1.4-1.4,1.4.6,1.4,1.4-.6,1.4-1.4,1.4Z"/>
          <circle class="cls-3" cx="138.6" cy="142" r="2.4" transform="translate(-21 24) rotate(-9.2)"/>
          <circle class="cls-3" cx="141.7" cy="128.5" r="3.2"/>
          <circle class="cls-3" cx="146.1" cy="115.3" r="3.9" transform="translate(-38.7 137.1) rotate(-45)"/>
          <circle class="cls-3" cx="151.6" cy="102.5" r="4.4" transform="translate(-28.1 137.3) rotate(-45)"/>
          <circle class="cls-3" cx="158.3" cy="90.3" r="4.8" transform="translate(-6.9 13.4) rotate(-4.7)"/>
          <circle class="cls-3" cx="166.1" cy="78.8" r="5.1"/>
          <circle class="cls-3" cx="174.9" cy="68" r="5.2" transform="translate(79.7 229.8) rotate(-80.8)"/>
          <circle class="cls-3" cx="184.6" cy="58.1" r="5.2" transform="translate(-6.9 30.3) rotate(-9.2)"/>
          <circle class="cls-3" cx="195.2" cy="49.1" r="5.1" transform="translate(-6.1 46.2) rotate(-13.3)"/>
          <circle class="cls-3" cx="206.5" cy="41.1" r="4.9"/>
          <circle class="cls-3" cx="218.6" cy="34.1" r="4.5"/>
          <circle class="cls-3" cx="231.2" cy="28.3" r="4.1"/>
          <circle class="cls-3" cx="244.3" cy="23.6" r="3.4" transform="translate(181.8 261) rotate(-80.8)"/>
          <circle class="cls-3" cx="257.7" cy="20.2" r="2.6" transform="translate(178.9 266.4) rotate(-76.7)"/>
          <path class="cls-3" d="M271.5,19.7c-.9,0-1.6-.7-1.6-1.6s.7-1.6,1.6-1.6,1.6.7,1.6,1.6-.7,1.6-1.6,1.6Z"/>
          <path class="cls-3" d="M285.3,17.5c-.2,0-.4-.2-.4-.4s.2-.4.4-.4.4.2.4.4-.2.4-.4.4Z"/>
        </g>
        <g>
          <path class="cls-3" d="M441.4,169.7"/>
          <circle class="cls-3" cx="440.8" cy="183.6" r="1.4"/>
          <circle class="cls-3" cx="438.9" cy="197.3" r="2.4"/>
          <circle class="cls-3" cx="435.8" cy="210.9" r="3.2"/>
          <circle class="cls-3" cx="431.4" cy="224.1" r="3.9" transform="translate(114.2 592.5) rotate(-76.7)"/>
          <circle class="cls-3" cx="425.9" cy="236.8" r="4.4"/>
          <circle class="cls-3" cx="419.2" cy="249" r="4.8" transform="translate(-53.3 369.3) rotate(-45)"/>
          <circle class="cls-3" cx="411.4" cy="260.5" r="5.1" transform="translate(63.3 601.1) rotate(-76.7)"/>
          <circle class="cls-3" cx="402.6" cy="271.3" r="5.2"/>
          <circle class="cls-3" cx="392.9" cy="281.3" r="5.2"/>
          <circle class="cls-3" cx="382.3" cy="290.3" r="5.1" transform="translate(55.8 642.2) rotate(-84.3)"/>
          <circle class="cls-3" cx="371" cy="298.3" r="4.9"/>
          <circle class="cls-3" cx="359" cy="305.3" r="4.5"/>
          <circle class="cls-3" cx="346.3" cy="311.1" r="4.1" transform="translate(-36 576.7) rotate(-76.7)"/>
          <circle class="cls-3" cx="333.2" cy="315.7" r="3.4"/>
          <circle class="cls-3" cx="319.8" cy="319.2" r="2.6"/>
          <circle class="cls-3" cx="306.1" cy="321.4" r="1.6"/>
          <path class="cls-3" d="M292.2,322.7c-.2,0-.4-.2-.4-.4s.2-.4.4-.4.4.2.4.4-.2.4-.4.4Z"/>
        </g>
      </g>
    </g>
  </g>
  <g>
    <path class="cls-2" d="M48.7,125.2h10.5v54.6c0,8.8,4.7,14.9,14.1,14.9s14.1-6.1,14.1-14.9v-54.6h10.5v54.6c0,8.8,4.7,14.9,14.1,14.9s14.1-6.1,14.1-14.9v-54.6h10.5v54.6c0,15.7-11.4,24.7-23.1,24.7s-15.7-2.3-20.9-10.1c-5.2,7.8-12,10.1-20.9,10.1s-23.1-9-23.1-24.7v-54.6Z"/>
    <path class="cls-2" d="M163.1,185.5l-4-7.8,26.4-14.7c-3.3-3.3-6.1-5.1-12.1-5.1-10.1,0-17.5,7.6-17.5,18.5s7.3,18.5,17.5,18.5,15.9-6.9,17.9-16.7l9.9,1.2c-1.1,14.1-12.5,24.8-27.8,24.8s-27.7-11.4-27.7-27.8,12.9-27.8,27.7-27.8,20.8,6.6,25.8,16.9l-36.1,20Z"/>
    <path class="cls-2" d="M211.6,203.1v-78h9.8v78h-9.8Z"/>
    <path class="cls-2" d="M236.3,203.1v-78h9.8v78h-9.8Z"/>
    <path class="cls-1" d="M259.8,147.7l4-22.5h9.4l-5.1,22.5h-8.2Z"/>
    <g>
      <path class="cls-1" d="M294.2,147.2c5.6.8,8.4,3,8.4,6.8-.6,2.6-2.2,3.9-4.7,3.9l-4-.5h-1.6c-1.9,0-4.6,1.6-8,4.9-1.2,2.8-1.9,4.6-1.9,5.4v.7c0,.8,1.8,2.3,5.4,4.7,3.9,2.2,5.8,3.3,5.7,3.3,8.1-8.7,13.7-13.1,16.7-13,3,.1,4,1.7,3.1,4.7-.9,3-2.8,5.7-5.7,8.1-2.9,2.4-5,4.3-6.1,5.9,2.6,4.2,3.3,8.5,1.9,12.8-1.4,4.3-3.4,7.7-6,10.1s-6.1,4-10.5,4.6l-2,.2c-5.6-.6-8.3-3.3-8.3-8,.3-5.2,3.7-10.8,10.4-16.9l-2.9-2c-4.9-2-8.7-5.4-11.3-10.2l-.8-4.2c0-4.8,2.8-9.8,8.3-14.8,3.7-4.4,8.3-6.5,13.9-6.5ZM292.9,197.4c1.9-1.8,2.8-3.5,2.8-4.9,0-1.5-.2-2.2-.6-2.2-.4,0-1.7.8-3.9,2.3-2.2,1.6-3.5,3.9-4,6.9,1.9.5,3.8-.2,5.7-2Z"/>
      <path class="cls-1" d="M331.6,151.2c2.3.3,4.8,3.9,7.5,10.7,2.7,6.8,3.7,14,3.1,21.7-.7,7.7-3.3,13.1-7.9,16.4-4.6,3.3-8.8,4.9-12.7,4.9-6.9,0-11.5-3.3-13.7-9.9l-.4-2.9c1-11.3,3.1-19.9,6.1-25.9,3-6,6.2-10.1,9.6-12.2,3.4-2.2,6.2-3.1,8.5-2.7ZM318.3,189.4c0,2.3.9,3.9,2.7,4.8.2,0,.7.1,1.5.1,1.8,0,4.1-1.1,6.7-3.2,2.6-2.2,4-6.4,4.1-12.7.1-6.3-.9-11.2-3.2-14.6-.4-.3-.8-.5-1.3-.5-2.8,0-5.8,4.8-9,14.4-1,3.6-1.5,7.5-1.5,11.7Z"/>
      <path class="cls-1" d="M359,124.8h1.6c3,1.7,4.4,3.8,4.4,6.5-2.4,24.8-3.7,43.7-3.9,57v10.9c0,2.6-1.5,4.6-4.7,6-4.4,0-6.4-4.5-6.3-13.2v-1.1c.3-15.3,1.6-35.6,4-61,1.2-3.3,2.8-5,4.9-4.9Z"/>
      <path class="cls-1" d="M415.1,196.1c1.6-.7,2.8-1.3,3.7-1.8.9-.5,2.1-.4,3.6.1,1.5.6,2.3,1.6,2.3,3s-.8,2.9-2.5,4.5c-1.7,1.6-4.8,2.6-9.4,3-4.6.4-8.5-2-11.5-7.2-.9-1.5-1.7-2.8-2.3-3.8-3.1,3.6-6.7,6.6-10.9,9.1-3,1.4-5.8,1.9-8.4,1.5-5.2-.7-8-5-8.6-12.9l.2-1.7c1.2-8.8,4-16.7,8.1-23.8,1.8-3.6,4.9-7.8,9.3-12.4,4.2-3.8,8.8-5.2,13.8-4.5,4.4.6,6.8,3.3,7,8,.3,4.7,0,9.5-.7,14.6-1.2,9.1-1.4,15-.7,17.7.7,2.7,1.7,4.6,2.8,5.8,1.1,1.2,2.5,1.4,4,.7ZM398.1,160.1c-1.6.7-3.7,2.2-6.3,4.7-2.6,2.5-5.3,7.2-7.9,14.2-2.7,7-3.3,11.9-1.9,14.7l1.7.3c.7,0,1.6-.2,2.5-.9,1-.7,2.8-2.4,5.6-5.3,2.8-2.9,4.5-6.5,5.1-10.9.7-4.4,1-10,1.2-16.8Z"/>
      <path class="cls-1" d="M433.2,151.7c3,.7,4.2,3.5,3.7,8.3l-3.7,40.7c-1.5,2.4-3.4,3.5-5.6,3.2-3.9-.4-5.2-6.2-4.1-17.5,1.9-19.2,3.3-29.8,4.2-31.7.9-1.9,2.7-2.9,5.4-3.1ZM434.2,132.8c4.9-1.2,7.7,0,8.3,3.9.6,3.9-1.9,6.7-7.7,8.7l-2.2.6c-3.8-.2-5.7-2-5.7-5.4s2.4-6.5,7.3-7.8Z"/>
      <path class="cls-1" d="M449.5,163c-3.6,2.6-5.9,2.9-6.8.9-1-2-.6-4.4,1.1-7.1,1.7-2.7,5.1-4.9,10.4-6.6,4.7-1.9,9.9-2.8,15.7-2.8,8.1,0,13.1,2.4,15,7.3l.2,2c0,4.8-1.8,8.9-5.3,12.2-3.6,3.4-6.8,5.8-9.6,7.4-2.8,1.6-5,3-6.6,4,1.1.5,2.2,1,3.4,1.6,2.4,1,5.3,3.9,8.7,8.7,3.5,4.8,5.4,8.2,5.9,10.3.5,2.1-.6,3.3-3.3,3.5-2.7.3-5.8-2.1-9.4-7.2-3.6-5.1-8-8.4-13.2-9.9-.8,12-2.7,18-5.9,18s-4.5-1.7-4.5-5.2l1-15c-1.2-2.3-1.6-4.2-1.3-5.5.3-1.4,1.5-3.2,3.7-5.6l1-10.9ZM458.2,172.6c4.6-2.4,9.1-5.8,13.7-10,1.8-2,2.7-3.3,2.7-4,0-.6-.9-1.1-2.5-1.3-1.6-.2-3.6-.3-5.8-.1-2.3.1-4.4.6-6.4,1.5l-1.6,13.9Z"/>
      <path class="cls-1" d="M506.7,147.5c5-.9,7.8,2.2,8.4,9.2.6,7-4.5,16.9-15.4,29.6l-1.1,1.9v.6c-.3,3.5,1.4,5.5,5.1,6,3.7.6,6.7.4,9-.4,2.3-.8,4.2-2,5.7-3.7,1.5-1.7,2.8-2,4-.8,1.2,1.2,1.8,2.4,1.8,3.6s-1.5,3.6-4.4,5.9c-2.9,2.3-7.4,3.9-13.4,4.7-6,.8-10.4-.7-13.2-4.6-2.8-3.9-4.3-5.9-4.5-6-1.3,1.3-2.5,1.2-3.7-.3-1.2-1.5-1.3-3-.2-4.6s1.8-2.8,2.4-3.7c.6-.8.8-1.6.8-2.3-.3-10.6,1.5-18.9,5.4-24.9,3.9-6,8.3-9.5,13.4-10.4ZM503.1,168c1.7-3.3,2.6-5.9,2.8-7.8.2-1.9-.9-1.9-3.2,0-2.4,2.1-4.6,8.5-6.6,19.1,3-4.2,5.4-8,7.1-11.3Z"/>
    </g>
  </g>
</svg>