<?xml version="1.0" encoding="utf-8"?>
<!-- Generator: Adobe Illustrator 27.3.1, SVG Export Plug-In . SVG Version: 6.00 Build 0)  -->
<svg version="1.1"
	 id="svg2" xmlns:svg="http://www.w3.org/2000/svg" xmlns:sodipodi="http://sodipodi.sourceforge.net/DTD/sodipodi-0.dtd" xmlns:inkscape="http://www.inkscape.org/namespaces/inkscape" sodipodi:docname="TEMPOTEST_CENTENARIO_NEG_ORIZZ_BOLD.eps"
	 xmlns="http://www.w3.org/2000/svg" xmlns:xlink="http://www.w3.org/1999/xlink" x="0px" y="0px" viewBox="0 0 321.9 43.8"
	 style="enable-background:new 0 0 321.9 43.8;" xml:space="preserve">
<style type="text/css">
	.st0{fill:#092C52;stroke:#092C52;stroke-miterlimit:10;}
	.st1{fill:#092C52;stroke:#092C52;stroke-width:0.6667;stroke-miterlimit:1.3333;}
	.st2{fill:#092C52;stroke:#092C52;stroke-width:1.3333;stroke-miterlimit:1.3333;}
	.st3{fill:#092C52;stroke:#092C52;stroke-miterlimit:1.3333;}
	.st4{fill:#FFFFFF;}
	.st5{fill:#F9A521;}
</style>
<sodipodi:namedview  bordercolor="#666666" borderopacity="1.0" id="namedview4" inkscape:pagecheckerboard="0" inkscape:pageopacity="0.0" inkscape:pageshadow="2" pagecolor="#ffffff">
	</sodipodi:namedview>
<g id="g8" transform="matrix(1.3333333,0,0,-1.3333333,0,43.773333)" inkscape:groupmode="layer" inkscape:label="ink_ext_XXXXXX">
	<g id="g10" transform="scale(0.1)">
		<path id="path12" class="st0" d="M8,41.3V3H5v38.3H8L8,41.3"/>
		<path id="path14" class="st1" d="M8,41.3V3H5v38.3H8z"/>
		<path id="path16" class="st0" d="M72.3,41.3v-2.5H58V3h-3v35.8H40.6v2.5L72.3,41.3L72.3,41.3"/>
		<path id="path18" class="st1" d="M72.3,41.3v-2.5H58V3h-3v35.8H40.6v2.5C40.6,41.3,72.3,41.3,72.3,41.3z"/>
		<path id="path20" class="st0" d="M122,18.7l-8.3,18.1l-8.2-18.1H122z M114.6,41.6L132.3,3h-3.1l-6.1,13.3h-18.7L98.4,3h-3.1
			L113,41.6H114.6L114.6,41.6"/>
		<path id="path22" class="st1" d="M122,18.7l-8.3,18.1l-8.2-18.1H122z M114.6,41.6L132.3,3h-3.1l-6.1,13.3h-18.7L98.4,3h-3.1
			L113,41.6H114.6z"/>
		<path id="path24" class="st0" d="M168,41.3V5.5h19V3H165v38.3H168L168,41.3"/>
		<path id="path26" class="st1" d="M168,41.3V5.5h19V3H165v38.3C165,41.3,168,41.3,168,41.3z"/>
		<path id="path28" class="st0" d="M222.4,41.3V3h-3v38.3H222.4L222.4,41.3"/>
		<path id="path30" class="st1" d="M222.4,41.3V3h-3v38.3H222.4z"/>
		<path id="path32" class="st0" d="M281.8,18.7l-8.2,18.1l-8.2-18.1H281.8z M274.3,41.6L292.1,3H289l-6.1,13.3h-18.7l-6-13.3H255
			l17.7,38.6H274.3L274.3,41.6"/>
		<path id="path34" class="st1" d="M281.8,18.7l-8.2,18.1l-8.2-18.1H281.8z M274.3,41.6L292.1,3H289l-6.1,13.3h-18.7l-6-13.3H255
			l17.7,38.6H274.3z"/>
		<path id="path36" class="st0" d="M359.3,41.3V3h-2.4l-29.1,33.5V3h-3v38.3h2.5l29.1-33.5v33.5H359.3L359.3,41.3"/>
		<path id="path38" class="st1" d="M359.3,41.3V3h-2.4l-29.1,33.5V3h-3v38.3h2.5l29.1-33.5v33.5H359.3z"/>
		<path id="path40" class="st0" d="M442.8,38.8V23.4h7.1c3.2,0,5.6,0.7,7.3,2c1.7,1.3,2.5,3.3,2.5,5.7c0,2.4-0.8,4.2-2.4,5.6
			c-1.6,1.4-4,2.1-7,2.1C450.3,38.8,442.8,38.8,442.8,38.8z M439.8,41.3h10.5c4,0,7.1-0.9,9.3-2.7c2.1-1.8,3.2-4.3,3.2-7.4
			c0-3.2-1.1-5.7-3.2-7.5c-2.2-1.8-5.3-2.8-9.5-2.8h-7.3V3h-3L439.8,41.3L439.8,41.3"/>
		<path id="path42" class="st1" d="M442.8,38.8V23.4h7.1c3.2,0,5.6,0.7,7.3,2c1.7,1.3,2.5,3.3,2.5,5.7c0,2.4-0.8,4.2-2.4,5.6
			c-1.6,1.4-4,2.1-7,2.1C450.3,38.8,442.8,38.8,442.8,38.8z M439.8,41.3h10.5c4,0,7.1-0.9,9.3-2.7c2.1-1.8,3.2-4.3,3.2-7.4
			c0-3.2-1.1-5.7-3.2-7.5c-2.2-1.8-5.3-2.8-9.5-2.8h-7.3V3h-3C439.8,3,439.8,41.3,439.8,41.3z"/>
		<path id="path44" class="st0" d="M517.5,41.3v-2.5h-17.9V23.5h17.5V21h-17.5V5.5H518V3h-21.3v38.3H517.5L517.5,41.3"/>
		<path id="path46" class="st1" d="M517.5,41.3v-2.5h-17.9V23.5h17.5V21h-17.5V5.5H518V3h-21.3v38.3H517.5z"/>
		<path id="path48" class="st0" d="M555.2,38.8v-15h6.4c3.2,0,5.7,0.7,7.4,2c1.7,1.3,2.6,3.2,2.6,5.6c0,2.4-0.9,4.2-2.6,5.5
			c-1.7,1.3-4.2,2-7.5,2H555.2z M552.2,41.3h9.8c4.1,0,7.3-0.9,9.4-2.7c2.2-1.8,3.3-4.2,3.3-7.2c0-4.4-2.4-7.5-7.3-9.3
			c1.3-0.6,3-2.5,5.1-5.8L581.2,3h-3.5L571,13.5c-2.2,3.5-4,5.7-5.2,6.6c-1.2,0.9-3.1,1.3-5.5,1.3h-5.2V3h-3V41.3L552.2,41.3"/>
		<path id="path50" class="st1" d="M555.2,38.8v-15h6.4c3.2,0,5.7,0.7,7.4,2c1.7,1.3,2.6,3.2,2.6,5.6c0,2.4-0.9,4.2-2.6,5.5
			c-1.7,1.3-4.2,2-7.5,2H555.2z M552.2,41.3h9.8c4.1,0,7.3-0.9,9.4-2.7c2.2-1.8,3.3-4.2,3.3-7.2c0-4.4-2.4-7.5-7.3-9.3
			c1.3-0.6,3-2.5,5.1-5.8L581.2,3h-3.5L571,13.5c-2.2,3.5-4,5.7-5.2,6.6c-1.2,0.9-3.1,1.3-5.5,1.3h-5.2V3h-3
			C552.2,3,552.2,41.3,552.2,41.3z"/>
		<path id="path52" class="st0" d="M632.1,41.3v-2.5h-16.8V24.3h15.1v-2.5h-15.1V3h-3v38.3H632.1L632.1,41.3"/>
		<path id="path54" class="st1" d="M632.1,41.3v-2.5h-16.8V24.3h15.1v-2.5h-15.1V3h-3v38.3H632.1z"/>
		<path id="path56" class="st0" d="M683.9,5.2c4.8,0,8.8,1.6,12.1,4.9c3.3,3.3,4.9,7.3,4.9,12c0,4.7-1.6,8.8-4.9,12
			c-3.3,3.3-7.3,4.9-12.1,4.9c-4.8,0-8.8-1.6-12.1-4.9c-3.3-3.3-5-7.3-5-12c0-4.7,1.7-8.7,5-12C675.1,6.9,679.1,5.2,683.9,5.2z
			 M683.8,41.8c5.7,0,10.5-1.9,14.4-5.7c3.9-3.8,5.9-8.5,5.9-13.9c0-5.5-2-10.1-5.9-13.9c-3.9-3.8-8.7-5.7-14.4-5.7
			c-5.7,0-10.4,1.9-14.4,5.7c-3.9,3.8-5.9,8.4-5.9,13.9c0,5.5,2,10.1,5.9,13.9C673.4,39.9,678.1,41.8,683.8,41.8L683.8,41.8"/>
		<path id="path58" class="st1" d="M683.9,5.2c4.8,0,8.8,1.6,12.1,4.9c3.3,3.3,4.9,7.3,4.9,12c0,4.7-1.6,8.8-4.9,12
			c-3.3,3.3-7.3,4.9-12.1,4.9c-4.8,0-8.8-1.6-12.1-4.9c-3.3-3.3-5-7.3-5-12c0-4.7,1.7-8.7,5-12C675.1,6.9,679.1,5.2,683.9,5.2z
			 M683.8,41.8c5.7,0,10.5-1.9,14.4-5.7c3.9-3.8,5.9-8.5,5.9-13.9c0-5.5-2-10.1-5.9-13.9c-3.9-3.8-8.7-5.7-14.4-5.7
			c-5.7,0-10.4,1.9-14.4,5.7c-3.9,3.8-5.9,8.4-5.9,13.9c0,5.5,2,10.1,5.9,13.9C673.4,39.9,678.1,41.8,683.8,41.8z"/>
		<path id="path60" class="st0" d="M742.4,38.8v-15h6.4c3.2,0,5.7,0.7,7.4,2c1.7,1.3,2.6,3.2,2.6,5.6c0,2.4-0.9,4.2-2.6,5.5
			c-1.7,1.3-4.2,2-7.5,2H742.4L742.4,38.8z M739.5,41.3h9.8c4.1,0,7.2-0.9,9.4-2.7c2.2-1.8,3.3-4.2,3.3-7.2c0-4.4-2.4-7.5-7.3-9.3
			c1.3-0.6,3-2.5,5.1-5.8L768.5,3H765l-6.7,10.5c-2.2,3.5-4,5.7-5.2,6.6c-1.2,0.9-3.1,1.3-5.4,1.3h-5.2V3h-3V41.3L739.5,41.3"/>
		<path id="path62" class="st1" d="M742.4,38.8v-15h6.4c3.2,0,5.7,0.7,7.4,2c1.7,1.3,2.6,3.2,2.6,5.6c0,2.4-0.9,4.2-2.6,5.5
			c-1.7,1.3-4.2,2-7.5,2H742.4L742.4,38.8z M739.5,41.3h9.8c4.1,0,7.2-0.9,9.4-2.7c2.2-1.8,3.3-4.2,3.3-7.2c0-4.4-2.4-7.5-7.3-9.3
			c1.3-0.6,3-2.5,5.1-5.8L768.5,3H765l-6.7,10.5c-2.2,3.5-4,5.7-5.2,6.6c-1.2,0.9-3.1,1.3-5.4,1.3h-5.2V3h-3
			C739.5,3,739.5,41.3,739.5,41.3z"/>
		<path id="path64" class="st0" d="M817.3,23.5l14.5,17.8h3V3h-3v34l-14.6-17.9L802.6,37V3h-3v38.3h3L817.3,23.5L817.3,23.5"/>
		<path id="path66" class="st1" d="M817.3,23.5l14.5,17.8h3V3h-3v34l-14.6-17.9L802.6,37V3h-3v38.3h3
			C802.6,41.3,817.3,23.5,817.3,23.5z"/>
		<path id="path68" class="st0" d="M894.2,18.7L886,36.8l-8.2-18.1H894.2z M886.8,41.6L904.5,3h-3.1l-6.1,13.3h-18.7l-6-13.3h-3.1
			l17.7,38.6H886.8L886.8,41.6"/>
		<path id="path70" class="st1" d="M894.2,18.7L886,36.8l-8.2-18.1H894.2z M886.8,41.6L904.5,3h-3.1l-6.1,13.3h-18.7l-6-13.3h-3.1
			l17.7,38.6H886.8z"/>
		<path id="path72" class="st0" d="M971.7,41.3V3h-2.4l-29.1,33.5V3h-3v38.3h2.5l29.1-33.5v33.5H971.7L971.7,41.3"/>
		<path id="path74" class="st1" d="M971.7,41.3V3h-2.4l-29.1,33.5V3h-3v38.3h2.5l29.1-33.5v33.5H971.7z"/>
		<path id="path76" class="st0" d="M1040.5,38.6v-3.2c-4.6,2.5-9.2,3.7-13.7,3.7c-4.8,0-8.7-1.6-11.9-4.9c-3.2-3.2-4.8-7.3-4.8-12.1
			c0-4.9,1.6-8.9,4.8-12.1c3.2-3.2,7.3-4.7,12.3-4.7c4.2,0,8.7,1.3,13.6,3.9V6.1c-4.5-2.4-9.1-3.6-13.6-3.6
			c-5.8,0-10.7,1.9-14.6,5.6c-3.9,3.7-5.8,8.4-5.8,14c0,5.6,2,10.3,6,14.1c4,3.8,8.7,5.6,14.2,5.6
			C1031.4,41.8,1035.9,40.7,1040.5,38.6L1040.5,38.6"/>
		<path id="path78" class="st1" d="M1040.5,38.6v-3.2c-4.6,2.5-9.2,3.7-13.7,3.7c-4.8,0-8.7-1.6-11.9-4.9c-3.2-3.2-4.8-7.3-4.8-12.1
			c0-4.9,1.6-8.9,4.8-12.1c3.2-3.2,7.3-4.7,12.3-4.7c4.2,0,8.7,1.3,13.6,3.9V6.1c-4.5-2.4-9.1-3.6-13.6-3.6
			c-5.8,0-10.7,1.9-14.6,5.6c-3.9,3.7-5.8,8.4-5.8,14c0,5.6,2,10.3,6,14.1c4,3.8,8.7,5.6,14.2,5.6
			C1031.4,41.8,1035.9,40.7,1040.5,38.6L1040.5,38.6z"/>
		<path id="path80" class="st0" d="M1095.7,41.3v-2.5h-17.9V23.5h17.5V21h-17.5V5.5h18.4V3h-21.3v38.3H1095.7L1095.7,41.3"/>
		<path id="path82" class="st1" d="M1095.7,41.3v-2.5h-17.9V23.5h17.5V21h-17.5V5.5h18.4V3h-21.3v38.3H1095.7z"/>
		<path id="path84" class="st0" d="M1193.7,41.3v-2.5H1177V24.3h15.1v-2.5H1177V3h-3v38.3H1193.7L1193.7,41.3"/>
		<path id="path86" class="st1" d="M1193.7,41.3v-2.5H1177V24.3h15.1v-2.5H1177V3h-3v38.3H1193.7z"/>
		<path id="path88" class="st0" d="M1247,18.7l-8.2,18.1l-8.2-18.1H1247z M1239.6,41.6L1257.3,3h-3.1l-6.1,13.3h-18.7L1223.4,3h-3.1
			l17.7,38.6H1239.6L1239.6,41.6"/>
		<path id="path90" class="st1" d="M1247,18.7l-8.2,18.1l-8.2-18.1H1247z M1239.6,41.6L1257.3,3h-3.1l-6.1,13.3h-18.7L1223.4,3h-3.1
			l17.7,38.6H1239.6L1239.6,41.6z"/>
		<path id="path92" class="st0" d="M1293,21.1V5.5h7.9c3.3,0,5.8,0.7,7.4,2.1c1.7,1.4,2.6,3.3,2.6,5.7c0,5.2-3.8,7.8-11.3,7.8H1293
			L1293,21.1z M1293,38.8V23.6h4.1c7,0,10.4,2.6,10.4,7.6c0,5.1-3.5,7.6-10.6,7.6H1293L1293,38.8z M1290.1,41.3h8
			c4.2,0,7.4-0.9,9.5-2.6c2.2-1.7,3.2-4.2,3.2-7.3c0-3.7-1.8-6.5-5.5-8.5c5.9-1.3,8.8-4.5,8.8-9.7c0-3.1-1.2-5.6-3.5-7.4
			s-5.4-2.8-9.4-2.8h-11.2V41.3L1290.1,41.3"/>
		<path id="path94" class="st1" d="M1293,21.1V5.5h7.9c3.3,0,5.8,0.7,7.4,2.1c1.7,1.4,2.6,3.3,2.6,5.7c0,5.2-3.8,7.8-11.3,7.8H1293
			L1293,21.1z M1293,38.8V23.6h4.1c7,0,10.4,2.6,10.4,7.6c0,5.1-3.5,7.6-10.6,7.6H1293L1293,38.8z M1290.1,41.3h8
			c4.2,0,7.4-0.9,9.5-2.6c2.2-1.7,3.2-4.2,3.2-7.3c0-3.7-1.8-6.5-5.5-8.5c5.9-1.3,8.8-4.5,8.8-9.7c0-3.1-1.2-5.6-3.5-7.4
			s-5.4-2.8-9.4-2.8h-11.2V41.3z"/>
		<path id="path96" class="st0" d="M1350.9,38.8v-15h6.4c3.2,0,5.7,0.7,7.4,2c1.7,1.3,2.6,3.2,2.6,5.6c0,2.4-0.9,4.2-2.6,5.5
			c-1.7,1.3-4.2,2-7.5,2H1350.9z M1347.9,41.3h9.8c4.1,0,7.3-0.9,9.4-2.7c2.2-1.8,3.3-4.2,3.3-7.2c0-4.4-2.4-7.5-7.3-9.3
			c1.3-0.6,3-2.5,5.1-5.8l8.7-13.3h-3.5l-6.7,10.5c-2.2,3.5-4,5.7-5.2,6.6c-1.2,0.9-3.1,1.3-5.4,1.3h-5.2V3h-2.9L1347.9,41.3
			L1347.9,41.3"/>
		<path id="path98" class="st1" d="M1350.9,38.8v-15h6.4c3.2,0,5.7,0.7,7.4,2c1.7,1.3,2.6,3.2,2.6,5.6c0,2.4-0.9,4.2-2.6,5.5
			c-1.7,1.3-4.2,2-7.5,2H1350.9z M1347.9,41.3h9.8c4.1,0,7.3-0.9,9.4-2.7c2.2-1.8,3.3-4.2,3.3-7.2c0-4.4-2.4-7.5-7.3-9.3
			c1.3-0.6,3-2.5,5.1-5.8l8.7-13.3h-3.5l-6.7,10.5c-2.2,3.5-4,5.7-5.2,6.6c-1.2,0.9-3.1,1.3-5.4,1.3h-5.2V3h-2.9L1347.9,41.3
			L1347.9,41.3z"/>
		<path id="path100" class="st0" d="M1411.1,41.3V3h-3v38.3H1411.1L1411.1,41.3"/>
		<path id="path102" class="st1" d="M1411.1,41.3V3h-3v38.3H1411.1z"/>
		<path id="path104" class="st0" d="M1479.9,38.6v-3.2c-4.7,2.5-9.2,3.7-13.7,3.7c-4.8,0-8.7-1.6-11.9-4.9
			c-3.2-3.2-4.8-7.3-4.8-12.1c0-4.9,1.6-8.9,4.8-12.1c3.2-3.2,7.3-4.7,12.3-4.7c4.2,0,8.7,1.3,13.6,3.9V6.1
			c-4.5-2.4-9.1-3.6-13.6-3.6c-5.8,0-10.7,1.9-14.6,5.6c-3.9,3.7-5.8,8.4-5.8,14c0,5.6,2,10.3,5.9,14.1c4,3.8,8.7,5.6,14.2,5.6
			C1470.7,41.8,1475.2,40.7,1479.9,38.6L1479.9,38.6"/>
		<path id="path106" class="st1" d="M1479.9,38.6v-3.2c-4.7,2.5-9.2,3.7-13.7,3.7c-4.8,0-8.7-1.6-11.9-4.9
			c-3.2-3.2-4.8-7.3-4.8-12.1c0-4.9,1.6-8.9,4.8-12.1c3.2-3.2,7.3-4.7,12.3-4.7c4.2,0,8.7,1.3,13.6,3.9V6.1
			c-4.5-2.4-9.1-3.6-13.6-3.6c-5.8,0-10.7,1.9-14.6,5.6c-3.9,3.7-5.8,8.4-5.8,14c0,5.6,2,10.3,5.9,14.1c4,3.8,8.7,5.6,14.2,5.6
			C1470.7,41.8,1475.2,40.7,1479.9,38.6L1479.9,38.6z"/>
		<path id="path108" class="st0" d="M1532.1,39.4v-3.3c-3.3,2-6.2,2.9-8.6,2.9c-2.3,0-4.2-0.7-5.8-2.1c-1.5-1.4-2.3-3.1-2.3-5.2
			c0-1.5,0.4-2.8,1.4-4c0.9-1.2,2.8-2.3,5.7-3.4c2.9-1.1,5-2,6.4-2.7c1.3-0.7,2.5-1.8,3.4-3.2c0.9-1.4,1.4-3.2,1.4-5.4
			c0-2.9-1.1-5.4-3.2-7.4c-2.2-2-4.8-3-7.9-3c-3.2,0-6.4,1.1-9.8,3.4v3.5c3.7-2.7,6.9-4.1,9.7-4.1c2.3,0,4.2,0.7,5.8,2.2
			c1.6,1.5,2.3,3.3,2.3,5.4c0,1.6-0.5,3.1-1.4,4.4c-1,1.3-2.9,2.5-5.9,3.7c-3,1.1-5.1,2.1-6.3,2.7c-1.3,0.7-2.3,1.7-3.2,3
			c-0.9,1.3-1.3,2.9-1.3,5c0,2.8,1.1,5.2,3.2,7.2c2.2,2,4.8,3,7.8,3C1526.2,41.8,1529.2,41,1532.1,39.4L1532.1,39.4"/>
		<path id="path110" class="st1" d="M1532.1,39.4v-3.3c-3.3,2-6.2,2.9-8.6,2.9c-2.3,0-4.2-0.7-5.8-2.1c-1.5-1.4-2.3-3.1-2.3-5.2
			c0-1.5,0.4-2.8,1.4-4c0.9-1.2,2.8-2.3,5.7-3.4c2.9-1.1,5-2,6.4-2.7c1.3-0.7,2.5-1.8,3.4-3.2c0.9-1.4,1.4-3.2,1.4-5.4
			c0-2.9-1.1-5.4-3.2-7.4c-2.2-2-4.8-3-7.9-3c-3.2,0-6.4,1.1-9.8,3.4v3.5c3.7-2.7,6.9-4.1,9.7-4.1c2.3,0,4.2,0.7,5.8,2.2
			c1.6,1.5,2.3,3.3,2.3,5.4c0,1.6-0.5,3.1-1.4,4.4c-1,1.3-2.9,2.5-5.9,3.7c-3,1.1-5.1,2.1-6.3,2.7c-1.3,0.7-2.3,1.7-3.2,3
			c-0.9,1.3-1.3,2.9-1.3,5c0,2.8,1.1,5.2,3.2,7.2c2.2,2,4.8,3,7.8,3C1526.2,41.8,1529.2,41,1532.1,39.4z"/>
		<path id="path116" class="st0" d="M171.1,320.8v-12.9H95.9V120.2H80.2v187.6H5v12.9H171.1L171.1,320.8"/>
		<path id="path118" class="st2" d="M171.1,320.8v-12.9H95.9V120.2H80.2v187.6H5v12.9H171.1z"/>
		<path id="path120" class="st0" d="M305.3,320.8v-12.9h-93.9v-80.2h91.4v-13.1h-91.4v-81.4h96.2v-12.9H195.9v200.5H305.3
			L305.3,320.8"/>
		<path id="path122" class="st2" d="M305.3,320.8v-12.9h-93.9v-80.2h91.4v-13.1h-91.4v-81.4h96.2v-12.9H195.9v200.5H305.3z"/>
		<path id="path124" class="st0" d="M431.3,227.6l76.2,93.1h15.7V120.2h-15.6v177.9l-76.3-93.7l-76.6,93.7V120.2h-15.5v200.5h15.5
			L431.3,227.6L431.3,227.6"/>
		<path id="path126" class="st2" d="M431.3,227.6l76.2,93.1h15.7V120.2h-15.6v177.9l-76.3-93.7l-76.6,93.7V120.2h-15.5v200.5h15.5
			C354.7,320.8,431.3,227.6,431.3,227.6z"/>
		<path id="path128" class="st0" d="M584.5,307.8v-81h37.3c16.7,0,29.5,3.5,38.2,10.6c8.7,7.1,13.1,17.1,13.1,30
			c0,12.3-4.3,22.2-12.8,29.4c-8.5,7.3-20.7,10.9-36.6,10.9C623.7,307.8,584.5,307.8,584.5,307.8z M569,320.8h55.3
			c21.1,0,37.4-4.7,48.6-14.2c11.2-9.5,16.9-22.4,16.9-38.8c0-16.6-5.7-29.7-17-39.3c-11.3-9.7-28-14.5-49.9-14.5h-38.3v-93.7H569
			V320.8L569,320.8"/>
		<path id="path130" class="st2" d="M584.5,307.8v-81h37.3c16.7,0,29.5,3.5,38.2,10.6c8.7,7.1,13.1,17.1,13.1,30
			c0,12.3-4.3,22.2-12.8,29.4c-8.5,7.3-20.7,10.9-36.6,10.9C623.7,307.8,584.5,307.8,584.5,307.8z M569,320.8h55.3
			c21.1,0,37.4-4.7,48.6-14.2c11.2-9.5,16.9-22.4,16.9-38.8c0-16.6-5.7-29.7-17-39.3c-11.3-9.7-28-14.5-49.9-14.5h-38.3v-93.7H569
			V320.8z"/>
		<path id="path132" class="st0" d="M1083.1,320.8v-12.9h-75.2V120.2h-15.6v187.6H917v12.9H1083.1L1083.1,320.8"/>
		<path id="path134" class="st2" d="M1083.1,320.8v-12.9h-75.2V120.2h-15.6v187.6H917v12.9H1083.1z"/>
		<path id="path136" class="st0" d="M1217.3,320.8v-12.9h-93.9v-80.2h91.4v-13.1h-91.4v-81.4h96.2v-12.9h-111.7v200.5H1217.3
			L1217.3,320.8"/>
		<path id="path138" class="st2" d="M1217.3,320.8v-12.9h-93.9v-80.2h91.4v-13.1h-91.4v-81.4h96.2v-12.9h-111.7v200.5H1217.3
			L1217.3,320.8z"/>
		<path id="path140" class="st3" d="M1346.1,310.7v-17.1c-17.4,10.2-32.4,15.4-44.9,15.4c-12.1,0-22.1-3.7-30.2-11
			c-8.1-7.3-12.1-16.4-12.1-27.2c0-7.7,2.4-14.7,7.2-21c4.8-6.2,14.8-12.2,30-17.9c15.2-5.8,26.3-10.5,33.3-14.4
			c7-3.8,12.9-9.4,17.8-16.7c4.9-7.3,7.3-16.7,7.3-28.3c0-15.4-5.6-28.4-16.9-39c-11.3-10.6-25.1-15.9-41.3-15.9
			c-16.6,0-33.8,5.8-51.4,17.5v18.2c19.4-14.3,36.3-21.4,50.5-21.4c11.9,0,21.9,3.8,30.1,11.5c8.2,7.7,12.3,17.2,12.3,28.4
			c0,8.5-2.5,16.2-7.6,23c-5.1,6.8-15.4,13.2-30.8,19.2c-15.5,6-26.6,10.7-33.2,14.4c-6.7,3.6-12.3,8.8-16.9,15.6
			c-4.7,6.7-7,15.4-7,26c0,14.7,5.7,27.3,16.9,37.7c11.3,10.4,24.9,15.6,40.8,15.6C1315.3,323.4,1330.7,319.1,1346.1,310.7
			L1346.1,310.7"/>
		<path id="path142" class="st2" d="M1346.1,310.7v-17.1c-17.4,10.2-32.4,15.4-44.9,15.4c-12.1,0-22.1-3.7-30.2-11
			c-8.1-7.3-12.1-16.4-12.1-27.2c0-7.7,2.4-14.7,7.2-21c4.8-6.2,14.8-12.2,30-17.9c15.2-5.8,26.3-10.5,33.3-14.4
			c7-3.8,12.9-9.4,17.8-16.7c4.9-7.3,7.3-16.7,7.3-28.3c0-15.4-5.6-28.4-16.9-39c-11.3-10.6-25.1-15.9-41.3-15.9
			c-16.6,0-33.8,5.8-51.4,17.5v18.2c19.4-14.3,36.3-21.4,50.5-21.4c11.9,0,21.9,3.8,30.1,11.5c8.2,7.7,12.3,17.2,12.3,28.4
			c0,8.5-2.5,16.2-7.6,23c-5.1,6.8-15.4,13.2-30.8,19.2c-15.5,6-26.6,10.7-33.2,14.4c-6.7,3.6-12.3,8.8-16.9,15.6
			c-4.7,6.7-7,15.4-7,26c0,14.7,5.7,27.3,16.9,37.7c11.3,10.4,24.9,15.6,40.8,15.6C1315.3,323.4,1330.7,319.1,1346.1,310.7
			L1346.1,310.7z"/>
		<path id="path146" class="st2" d="M1533.7,320.8v-12.9h-75.2V120.2h-15.6v187.6h-75.2v12.9H1533.7z"/>
		<path id="path148" class="st4" d="M725.6,171.3c4.6-8.4,10.5-16.2,17.9-23.5c20.3-20,44.5-29.7,73.9-29.7
			c29.3,0,53.2,9.7,73.2,29.6c7.3,7.3,13.2,15.2,17.8,23.6H725.6L725.6,171.3"/>
		<path id="path150" class="st2" d="M725.6,171.3c4.6-8.4,10.5-16.2,17.9-23.5c20.3-20,44.5-29.7,73.9-29.7
			c29.3,0,53.2,9.7,73.2,29.6c7.3,7.3,13.2,15.2,17.8,23.6H725.6z"/>
		<path id="path152" class="st5" d="M835.4,321.5c-5.8,0.9-11.8,1.4-18,1.4c-6.5,0-12.8-0.5-18.9-1.5v-101h36.9V321.5L835.4,321.5"
			/>
		<path id="path154" class="st5" d="M792.9,320.3c-13.5-3-25.8-8.5-36.9-16.6v-83.4h36.9V320.3L792.9,320.3"/>
		<path id="path156" class="st5" d="M883.4,299.7v-79.4h36.9c0,28.8-9.9,53.1-29.8,72.9C888.2,295.5,885.8,297.7,883.4,299.7
			L883.4,299.7"/>
		<path id="path158" class="st5" d="M840.9,320.4V220.3h36.9V304C866.7,312.1,854.4,317.6,840.9,320.4L840.9,320.4"/>
		<path id="path160" class="st5" d="M750.5,299.3c-2.3-1.9-4.6-4-6.8-6.1c-20.1-19.8-30.1-44.1-30.1-72.9h36.9L750.5,299.3
			L750.5,299.3"/>
		<path id="path162" class="st5" d="M713.5,203.9L713.5,203.9c0-10.2,8.3-18.5,18.5-18.5c10.2,0,18.5,8.3,18.5,18.5v10.9h-36.9
			L713.5,203.9L713.5,203.9"/>
		<path id="path164" class="st5" d="M756,203.9L756,203.9c0-10.2,8.3-18.5,18.5-18.5c10.2,0,18.5,8.3,18.5,18.5v10.9H756V203.9
			L756,203.9"/>
		<path id="path166" class="st5" d="M798.5,203.9L798.5,203.9c0-10.2,8.3-18.5,18.5-18.5c10.2,0,18.5,8.3,18.5,18.5v10.9h-36.9
			V203.9L798.5,203.9"/>
		<path id="path168" class="st5" d="M840.9,203.9L840.9,203.9c0-10.2,8.3-18.5,18.5-18.5c10.2,0,18.5,8.3,18.5,18.5v10.9h-36.9
			L840.9,203.9L840.9,203.9"/>
		<path id="path170" class="st5" d="M883.4,214.8v-10.9c0-10.2,8.3-18.5,18.5-18.5c10.2,0,18.5,8.3,18.5,18.5v10.9H883.4
			L883.4,214.8"/>
	</g>
</g>
</svg>
