<?xml version="1.0" encoding="utf-8"?>
<!-- Generator: Adobe Illustrator 28.1.0, SVG Export Plug-In . SVG Version: 6.00 Build 0)  -->
<svg version="1.1" id="Calque_1" xmlns="http://www.w3.org/2000/svg" xmlns:xlink="http://www.w3.org/1999/xlink" x="0px" y="0px"
	 viewBox="0 0 1920 1080" style="enable-background:new 0 0 1920 1080;" xml:space="preserve">
<style type="text/css">
	.st0{fill:#FFFFFF;}
</style>
<g>
	<path class="st0" d="M1385.32,752.28c-283.44,0-566.88,0-850.32,0c0-141.76,0-283.52,0-425.28c283.44,0,566.88,0,850.32,0
		C1385.32,468.76,1385.32,610.52,1385.32,752.28z M1117.93,674.4c0.05-1.12,0.12-1.98,0.12-2.84c0.01-15.01,0.04-30.03-0.03-45.04
		c-0.01-2.86-0.15-5.76-0.64-8.58c-1.73-10.01-7.26-17-16.94-20.52c-3.93-1.43-8-2.06-12.15-2.45c-6.92-0.65-13.74-0.18-20.4,1.7
		c-9.76,2.76-16.31,8.92-18.7,18.92c-0.76,3.15-1.09,6.47-1.11,9.71c-0.12,15.57-0.06,31.15-0.06,46.72c0,0.77,0.11,1.53,0.18,2.37
		c2.44,0,4.65,0,7.18,0c0-10.07,0-20.01,0-29.86c2.64-0.71,53.07-0.65,55.2,0.02c0.05,0.96,0.13,1.99,0.14,3.01
		c0.01,7.91,0,15.81,0.02,23.72c0,1,0.14,2,0.23,3.11C1113.34,674.4,1115.46,674.4,1117.93,674.4z M777.72,635.1
		c0.11,0,0.21-0.01,0.32-0.01c-0.26-5.5-0.13-11.05-0.87-16.48c-1.49-10.91-7.73-18.11-18.26-21.54c-4.6-1.5-9.35-2.02-14.16-2.14
		c-5.61-0.15-11.18,0.19-16.62,1.7c-8.12,2.26-14.41,6.78-17.79,14.75c-1.51,3.56-2.41,7.3-2.46,11.16
		c-0.1,7.99-0.09,15.98-0.04,23.97c0.01,1.91,0.22,3.83,0.55,5.71c1.76,9.9,7.13,16.91,16.69,20.48c3.61,1.35,7.35,2.07,11.19,2.44
		c7.47,0.73,14.86,0.45,22.07-1.71c8.56-2.56,14.73-7.81,17.63-16.48c1.04-3.12,1.7-6.33,1.73-9.63
		C777.75,643.25,777.72,639.18,777.72,635.1z M1208.79,674.42c0.07-1.21,0.17-2.23,0.17-3.24c0.01-13.58,0.03-27.16-0.01-40.74
		c-0.01-3.27-0.05-6.56-0.38-9.81c-1.17-11.45-6.93-19.92-18.61-23.65c-3.59-1.15-7.28-1.69-11.03-2.02
		c-7.32-0.65-14.53-0.12-21.53,2.13c-8.01,2.56-13.74,7.66-16.6,15.68c-1.35,3.79-2,7.73-2,11.75c-0.02,15.9-0.02,31.79-0.01,47.69
		c0,0.69,0.1,1.39,0.17,2.16c2.44,0,4.71,0,7.25,0c0-1.1,0-2.04,0-2.98c0-14.86-0.02-29.72,0.02-44.57
		c0.01-2.31,0.15-4.63,0.47-6.91c1.25-8.81,6.13-14.58,14.79-16.85c8.35-2.19,16.78-2.18,25.1,0.1c7.79,2.14,12.64,7.29,14.1,15.28
		c0.56,3.04,0.81,6.18,0.83,9.28c0.08,14.54,0.03,29.08,0.05,43.61c0,1,0.11,2,0.18,3.09
		C1204.14,674.42,1206.28,674.42,1208.79,674.42z M798.66,595.79c-0.04,0.98-0.12,1.83-0.12,2.69c-0.01,15.42-0.03,30.84,0.02,46.25
		c0.01,2.55,0.14,5.12,0.53,7.63c1.6,10.31,7.05,17.61,17.03,21.26c4.01,1.46,8.16,2.08,12.39,2.48c6.76,0.63,13.42,0.14,19.94-1.65
		c10.28-2.83,16.93-9.34,19.18-19.9c0.61-2.87,0.91-5.85,0.93-8.79c0.09-15.82,0.05-31.64,0.04-47.45c0-0.84-0.17-1.67-0.27-2.59
		c-2.46-0.08-4.65-0.17-7.04,0.06c0,1.32,0,2.35,0,3.38c0,14.38,0.02,28.76-0.02,43.14c-0.01,2.55-0.06,5.12-0.36,7.65
		c-0.92,7.83-4.35,15.28-15.21,18.1c-7.8,2.02-15.67,2.01-23.48,0.23c-8.41-1.92-13.86-7.03-15.53-15.65
		c-0.53-2.72-0.69-5.55-0.71-8.33c-0.07-15.26-0.03-30.52-0.04-45.78c0-0.92-0.1-1.83-0.15-2.75
		C803.27,595.79,801.07,595.79,798.66,595.79z M691.04,595.78c-0.71-0.06-1.11-0.12-1.5-0.12c-11.99,0-23.98-0.09-35.97,0.06
		c-4.78,0.06-9.54,0.79-14.11,2.35c-9.09,3.11-15.02,9.21-17.23,18.61c-0.7,3.01-1.06,6.15-1.15,9.24
		c-0.17,6.15-0.16,12.3-0.01,18.45c0.07,2.93,0.39,5.91,1.03,8.77c2.01,8.99,7.33,15.24,16,18.57c4.52,1.73,9.22,2.69,14.02,2.74
		c12.31,0.12,24.62,0.07,36.93,0.08c0.61,0,1.23-0.12,1.96-0.19c0-2.15,0-4.17,0-6.47c-1.15,0-2.09,0-3.04,0
		c-10.15,0-20.31,0.04-30.46-0.02c-4.31-0.02-8.62-0.23-12.84-1.26c-8.51-2.09-13.88-7.25-15.54-15.94
		c-0.42-2.18-0.62-4.43-0.66-6.66c-0.09-5.43-0.08-10.86-0.01-16.29c0.03-2.31,0.15-4.64,0.48-6.92c1.27-8.57,6-14.26,14.4-16.7
		c3.54-1.03,7.17-1.53,10.87-1.53c11.35,0.01,22.7,0,34.05,0c0.86,0,1.72,0,2.76,0C691.04,600.18,691.04,598.08,691.04,595.78z
		 M1299.65,667.86c-1.31,0-2.34,0-3.37,0c-10.07,0-20.15,0.04-30.22-0.02c-4.31-0.02-8.62-0.23-12.84-1.28
		c-8.49-2.11-13.82-7.26-15.5-15.99c-0.78-4.03-0.79-8.1-0.72-12.17c0.1-5.59,0-11.19,0.46-16.75c0.75-9.1,6.03-15.19,14.79-17.66
		c3.55-1,7.18-1.47,10.88-1.46c11.27,0.01,22.55,0,33.82,0c0.86,0,1.71,0,2.68,0c0-2.4,0-4.5,0-6.72c-0.52-0.07-0.9-0.16-1.28-0.16
		c-13.5,0.22-27.02-0.52-40.51,0.42c-4.66,0.33-9.14,1.44-13.36,3.46c-6.55,3.13-10.9,8.19-13.11,15.11
		c-1.25,3.92-1.71,7.96-1.76,12.04c-0.07,5.43-0.11,10.87,0.02,16.3c0.07,3.02,0.31,6.07,0.86,9.04
		c1.82,9.85,7.49,16.56,16.95,19.97c4.39,1.58,8.95,2.44,13.6,2.47c12.23,0.08,24.47,0.06,36.7,0.06c0.61,0,1.22-0.13,1.92-0.21
		C1299.65,672.2,1299.65,670.24,1299.65,667.86z M887.48,674.38c0.81,0.07,1.36,0.15,1.92,0.15c13.67-0.01,27.35,0.04,41.02-0.09
		c4.89-0.05,9.68-1.06,14.24-2.91c7.85-3.19,12.97-8.87,15.2-17.04c1.04-3.81,1.3-7.68,0.72-11.63c-1.3-8.81-5.57-15.63-13.66-19.56
		c-2.44-1.18-3.26-2.68-3.73-5.11c-1.87-9.71-7.45-16.37-16.81-19.82c-4.86-1.79-9.92-2.52-15.02-2.65
		c-7.35-0.19-14.71-0.07-22.07-0.06c-0.6,0-1.2,0.15-1.9,0.24c0.05,2.31-0.19,4.43,0.15,6.64c1.15,0,2.03,0,2.9,0
		c6.72,0,13.44-0.1,20.15,0.06c3.09,0.07,6.24,0.37,9.26,1.04c8.91,1.95,14.55,7.3,16.18,16.45c0.39,2.19,0.58,4.41,0.87,6.73
		c0.85,0.26,1.67,0.51,2.5,0.78c6.32,2.05,10.89,5.95,12.95,12.41c1.26,3.96,1.4,8.03,0.44,12.06c-1.9,7.99-7.26,12.49-14.99,14.48
		c-4.21,1.08-8.52,1.31-12.84,1.32c-11.44,0.04-22.87,0.01-34.31,0.02c-1.01,0-2.03,0.11-3.15,0.17
		C887.48,670.24,887.48,672.2,887.48,674.38z M993.96,410.38c0-2.64,0-4.91,0-7.45c-1.1,0-2.03,0-2.97,0c-15.43,0-30.87,0-46.3,0
		c-5.92,0-11.81,0.36-17.65,1.4c-7.15,1.28-13.91,3.59-19.84,7.92c-9.42,6.87-13.88,16.55-14.98,27.8
		c-0.62,6.34-0.41,12.76-0.54,19.14c-0.01,0.44,0.2,0.88,0.32,1.4c2.71-0.04,5.31,0.19,8.03-0.16c0-1.04,0-1.84,0-2.63
		c0.01-3.83-0.19-7.68,0.08-11.5c0.28-3.88,0.68-7.82,1.63-11.58c2.97-11.67,10.76-18.7,22.17-21.96
		c6.35-1.81,12.87-2.34,19.43-2.36c15.75-0.05,31.51-0.02,47.26-0.02C991.63,410.38,992.67,410.38,993.96,410.38z M1020.24,461.47
		c0,2.24-0.01,4.22,0,6.2c0.04,5.35,0.04,10.7-0.93,16c-2.25,12.28-8.99,20.74-20.99,24.76c-5.65,1.89-11.47,2.81-17.41,2.83
		c-17.27,0.04-34.54,0.03-51.81,0.05c-0.92,0-1.85,0.09-2.73,0.13c0,2.57,0,4.84,0,7.17c0.85,0.06,1.48,0.15,2.11,0.15
		c17.99-0.02,35.98-0.01,53.97-0.11c6.18-0.03,12.25-1.08,18.14-2.94c10.97-3.46,19.4-9.94,24.07-20.73
		c2.01-4.66,3.27-9.53,3.53-14.59c0.29-5.74,0.31-11.49,0.43-17.24c0.01-0.53-0.15-1.06-0.25-1.69
		C1025.7,461.47,1023.17,461.47,1020.24,461.47z M975.34,595.76c-0.06,0.89-0.14,1.52-0.14,2.14c0,15.42-0.05,30.84,0.05,46.26
		c0.02,2.93,0.36,5.92,0.99,8.78c1.99,9.08,7.32,15.43,16.1,18.78c4.45,1.7,9.07,2.65,13.79,2.71c10.31,0.15,20.63,0.08,30.95,0.08
		c0.68,0,1.37-0.13,2.05-0.2c0-2.2,0-4.15,0-6.3c-1.11-0.06-2.05-0.15-2.99-0.15c-8.32-0.01-16.63,0.05-24.95-0.03
		c-4.71-0.05-9.41-0.31-13.97-1.72c-7.45-2.31-12.17-7.16-13.69-14.83c-0.56-2.8-0.86-5.7-0.88-8.55c-0.09-14.7-0.04-29.4-0.05-44.1
		c0-0.93-0.07-1.85-0.12-2.87C980.02,595.76,977.8,595.76,975.34,595.76z"/>
	<path d="M1117.93,674.4c-2.46,0-4.59,0-6.96,0c-0.09-1.11-0.23-2.11-0.23-3.11c-0.02-7.91-0.01-15.81-0.02-23.72
		c0-1.02-0.09-2.05-0.14-3.01c-2.13-0.67-52.56-0.73-55.2-0.02c0,9.85,0,19.79,0,29.86c-2.53,0-4.74,0-7.18,0
		c-0.07-0.84-0.18-1.6-0.18-2.37c-0.01-15.57-0.06-31.15,0.06-46.72c0.02-3.25,0.36-6.56,1.11-9.71c2.4-10,8.95-16.17,18.7-18.92
		c6.66-1.88,13.48-2.36,20.4-1.7c4.15,0.39,8.22,1.02,12.15,2.45c9.68,3.52,15.21,10.5,16.94,20.52c0.49,2.81,0.63,5.72,0.64,8.58
		c0.06,15.01,0.03,30.03,0.03,45.04C1118.05,672.42,1117.98,673.28,1117.93,674.4z M1055.85,637.21c18.19,0,36.32,0,54.5,0
		c0.13-0.57,0.33-1.03,0.32-1.49c-0.06-4.87,0.13-9.77-0.31-14.61c-0.89-9.79-6.12-15.82-15.66-18.23
		c-7.72-1.95-15.53-1.88-23.26-0.05c-8.98,2.13-14.44,7.82-15.48,17.01c-0.63,5.52-0.33,11.15-0.43,16.73
		C1055.54,636.71,1055.67,636.85,1055.85,637.21z"/>
	<path d="M777.72,635.1c0,4.07,0.03,8.15-0.01,12.22c-0.04,3.3-0.69,6.5-1.73,9.63c-2.89,8.67-9.06,13.92-17.63,16.48
		c-7.21,2.15-14.61,2.43-22.07,1.71c-3.83-0.37-7.57-1.09-11.19-2.44c-9.57-3.57-14.93-10.57-16.69-20.48
		c-0.33-1.88-0.54-3.81-0.55-5.71c-0.05-7.99-0.05-15.98,0.04-23.97c0.05-3.87,0.95-7.61,2.46-11.16
		c3.37-7.97,9.67-12.48,17.79-14.75c5.43-1.52,11.01-1.85,16.62-1.7c4.81,0.13,9.55,0.65,14.16,2.14
		c10.53,3.42,16.77,10.63,18.26,21.54c0.74,5.43,0.61,10.98,0.87,16.48C777.93,635.1,777.82,635.1,777.72,635.1z M770.29,635.23
		c0.02,0,0.05,0,0.07,0c0-3.27,0.07-6.55-0.02-9.82c-0.06-2.15-0.2-4.32-0.58-6.42c-1.43-7.83-5.85-13.18-13.57-15.48
		c-2.58-0.77-5.28-1.17-7.96-1.54c-6-0.82-11.97-0.39-17.81,1.17c-5.91,1.58-10.67,4.85-13.01,10.7c-1.05,2.63-1.92,5.52-2,8.32
		c-0.25,8.7-0.48,17.43,0.02,26.11c0.55,9.57,5.08,16.4,15.32,18.98c8.26,2.08,16.62,2.04,24.87-0.21c6.71-1.83,11.4-6,13.4-12.78
		c0.67-2.27,1.11-4.68,1.23-7.04C770.44,643.23,770.29,639.23,770.29,635.23z"/>
	<path d="M1208.79,674.42c-2.51,0-4.65,0-7.05,0c-0.07-1.09-0.18-2.09-0.18-3.09c-0.01-14.54,0.04-29.08-0.05-43.61
		c-0.02-3.1-0.27-6.23-0.83-9.28c-1.46-8-6.31-13.15-14.1-15.28c-8.32-2.28-16.75-2.29-25.1-0.1c-8.66,2.27-13.55,8.04-14.79,16.85
		c-0.32,2.28-0.46,4.61-0.47,6.91c-0.04,14.86-0.02,29.72-0.02,44.57c0,0.94,0,1.87,0,2.98c-2.54,0-4.81,0-7.25,0
		c-0.06-0.78-0.17-1.47-0.17-2.16c-0.01-15.9-0.01-31.79,0.01-47.69c0-4.02,0.65-7.96,2-11.75c2.86-8.02,8.59-13.12,16.6-15.68
		c7.01-2.24,14.21-2.77,21.53-2.13c3.75,0.33,7.44,0.87,11.03,2.02c11.68,3.73,17.43,12.2,18.61,23.65
		c0.33,3.25,0.37,6.54,0.38,9.81c0.04,13.58,0.02,27.16,0.01,40.74C1208.96,672.2,1208.86,673.21,1208.79,674.42z"/>
	<path d="M798.66,595.79c2.4,0,4.61,0,7.13,0c0.05,0.91,0.15,1.83,0.15,2.75c0.01,15.26-0.03,30.52,0.04,45.78
		c0.01,2.78,0.18,5.61,0.71,8.33c1.67,8.61,7.12,13.73,15.53,15.65c7.82,1.78,15.69,1.8,23.48-0.23
		c10.86-2.82,14.29-10.28,15.21-18.1c0.3-2.53,0.36-5.1,0.36-7.65c0.03-14.38,0.02-28.76,0.02-43.14c0-1.03,0-2.06,0-3.38
		c2.4-0.24,4.59-0.14,7.04-0.06c0.1,0.92,0.27,1.75,0.27,2.59c0.01,15.82,0.05,31.64-0.04,47.45c-0.02,2.93-0.32,5.92-0.93,8.79
		c-2.25,10.56-8.9,17.06-19.18,19.9c-6.52,1.8-13.18,2.29-19.94,1.65c-4.23-0.4-8.38-1.01-12.39-2.48
		c-9.98-3.65-15.44-10.94-17.03-21.26c-0.39-2.51-0.52-5.09-0.53-7.63c-0.05-15.42-0.03-30.84-0.02-46.25
		C798.54,597.62,798.62,596.77,798.66,595.79z"/>
	<path d="M691.04,595.78c0,2.3,0,4.4,0,6.76c-1.04,0-1.9,0-2.76,0c-11.35,0-22.7,0.01-34.05,0c-3.7,0-7.33,0.5-10.87,1.53
		c-8.4,2.45-13.13,8.13-14.4,16.7c-0.34,2.28-0.46,4.61-0.48,6.92c-0.07,5.43-0.08,10.86,0.01,16.29c0.04,2.22,0.24,4.48,0.66,6.66
		c1.67,8.69,7.03,13.86,15.54,15.94c4.22,1.04,8.53,1.24,12.84,1.26c10.15,0.06,20.3,0.02,30.46,0.02c0.95,0,1.89,0,3.04,0
		c0,2.3,0,4.32,0,6.47c-0.73,0.07-1.34,0.19-1.96,0.19c-12.31-0.01-24.62,0.05-36.93-0.08c-4.81-0.05-9.5-1.01-14.02-2.74
		c-8.67-3.33-13.99-9.58-16-18.57c-0.64-2.86-0.95-5.84-1.03-8.77c-0.15-6.15-0.17-12.3,0.01-18.45c0.09-3.09,0.44-6.23,1.15-9.24
		c2.2-9.4,8.14-15.5,17.23-18.61c4.57-1.57,9.33-2.29,14.11-2.35c11.99-0.15,23.98-0.06,35.97-0.06
		C689.93,595.66,690.33,595.72,691.04,595.78z"/>
	<path d="M1299.65,667.86c0,2.38,0,4.34,0,6.45c-0.7,0.08-1.31,0.21-1.92,0.21c-12.23,0-24.47,0.03-36.7-0.06
		c-4.66-0.03-9.21-0.89-13.6-2.47c-9.46-3.41-15.13-10.12-16.95-19.97c-0.55-2.97-0.79-6.02-0.86-9.04
		c-0.13-5.43-0.09-10.86-0.02-16.3c0.05-4.08,0.51-8.12,1.76-12.04c2.21-6.92,6.56-11.98,13.11-15.11c4.22-2.02,8.7-3.13,13.36-3.46
		c13.49-0.94,27.01-0.2,40.51-0.42c0.38-0.01,0.76,0.09,1.28,0.16c0,2.21,0,4.32,0,6.72c-0.97,0-1.82,0-2.68,0
		c-11.27,0-22.55,0.01-33.82,0c-3.7,0-7.33,0.46-10.88,1.46c-8.77,2.47-14.04,8.56-14.79,17.66c-0.46,5.56-0.37,11.16-0.46,16.75
		c-0.07,4.07-0.05,8.14,0.72,12.17c1.68,8.73,7.01,13.87,15.5,15.99c4.22,1.05,8.53,1.25,12.84,1.28
		c10.07,0.05,20.15,0.02,30.22,0.02C1297.31,667.86,1298.34,667.86,1299.65,667.86z"/>
	<path d="M887.48,674.38c0-2.18,0-4.14,0-6.32c1.12-0.06,2.13-0.17,3.15-0.17c11.44-0.01,22.87,0.02,34.31-0.02
		c4.31-0.02,8.63-0.24,12.84-1.32c7.73-1.99,13.09-6.49,14.99-14.48c0.96-4.04,0.82-8.1-0.44-12.06
		c-2.06-6.46-6.63-10.36-12.95-12.41c-0.82-0.27-1.65-0.52-2.5-0.78c-0.29-2.31-0.48-4.54-0.87-6.73
		c-1.63-9.16-7.27-14.5-16.18-16.45c-3.02-0.66-6.16-0.97-9.26-1.04c-6.71-0.15-13.43-0.05-20.15-0.06c-0.88,0-1.75,0-2.9,0
		c-0.33-2.21-0.09-4.33-0.15-6.64c0.7-0.09,1.3-0.24,1.9-0.24c7.36-0.01,14.72-0.13,22.07,0.06c5.11,0.13,10.16,0.86,15.02,2.65
		c9.36,3.45,14.95,10.11,16.81,19.82c0.47,2.44,1.3,3.93,3.73,5.11c8.1,3.92,12.36,10.74,13.66,19.56
		c0.58,3.95,0.32,7.83-0.72,11.63c-2.23,8.18-7.35,13.86-15.2,17.04c-4.56,1.85-9.34,2.86-14.24,2.91
		c-13.67,0.13-27.35,0.08-41.02,0.09C888.85,674.53,888.3,674.45,887.48,674.38z"/>
	<path d="M993.96,410.38c-1.3,0-2.33,0-3.36,0c-15.75,0-31.51-0.03-47.26,0.02c-6.56,0.02-13.09,0.55-19.43,2.36
		c-11.4,3.26-19.2,10.29-22.17,21.96c-0.96,3.76-1.35,7.7-1.63,11.58c-0.27,3.82-0.07,7.67-0.08,11.5c0,0.79,0,1.59,0,2.63
		c-2.73,0.35-5.33,0.12-8.03,0.16c-0.12-0.52-0.33-0.96-0.32-1.4c0.14-6.38-0.08-12.8,0.54-19.14c1.11-11.25,5.56-20.93,14.98-27.8
		c5.93-4.32,12.69-6.64,19.84-7.92c5.83-1.04,11.73-1.4,17.65-1.4c15.43,0.01,30.87,0,46.3,0c0.94,0,1.88,0,2.97,0
		C993.96,405.47,993.96,407.74,993.96,410.38z"/>
	<path d="M1020.24,461.47c2.93,0,5.46,0,8.11,0c0.1,0.63,0.26,1.16,0.25,1.69c-0.11,5.75-0.13,11.5-0.43,17.24
		c-0.26,5.06-1.52,9.93-3.53,14.59c-4.66,10.79-13.09,17.27-24.07,20.73c-5.89,1.86-11.96,2.9-18.14,2.94
		c-17.99,0.1-35.98,0.09-53.97,0.11c-0.63,0-1.26-0.09-2.11-0.15c0-2.34,0-4.6,0-7.17c0.89-0.04,1.81-0.13,2.73-0.13
		c17.27-0.02,34.54,0,51.81-0.05c5.94-0.01,11.76-0.94,17.41-2.83c12-4.01,18.74-12.48,20.99-24.76c0.97-5.3,0.97-10.64,0.93-16
		C1020.22,465.69,1020.24,463.71,1020.24,461.47z"/>
	<path d="M975.34,595.76c2.47,0,4.68,0,7.14,0c0.04,1.02,0.12,1.94,0.12,2.87c0.01,14.7-0.04,29.4,0.05,44.1
		c0.02,2.85,0.32,5.75,0.88,8.55c1.52,7.68,6.24,12.53,13.69,14.83c4.56,1.41,9.26,1.68,13.97,1.72c8.32,0.08,16.63,0.02,24.95,0.03
		c0.94,0,1.87,0.09,2.99,0.15c0,2.15,0,4.1,0,6.3c-0.68,0.07-1.37,0.2-2.05,0.2c-10.32,0-20.63,0.06-30.95-0.08
		c-4.72-0.07-9.35-1.01-13.79-2.71c-8.77-3.35-14.1-9.7-16.1-18.78c-0.63-2.87-0.97-5.85-0.99-8.78
		c-0.1-15.42-0.05-30.84-0.05-46.26C975.2,597.27,975.28,596.65,975.34,595.76z"/>
	<path class="st0" d="M1055.85,637.21c-0.18-0.37-0.32-0.51-0.31-0.64c0.1-5.58-0.19-11.21,0.43-16.73
		c1.04-9.19,6.5-14.88,15.48-17.01c7.73-1.83,15.54-1.91,23.26,0.05c9.53,2.41,14.77,8.44,15.66,18.23
		c0.44,4.84,0.25,9.74,0.31,14.61c0.01,0.46-0.19,0.92-0.32,1.49C1092.18,637.21,1074.05,637.21,1055.85,637.21z"/>
	<path class="st0" d="M770.29,635.23c0,3.99,0.14,7.99-0.05,11.98c-0.12,2.37-0.56,4.77-1.23,7.04c-2,6.78-6.7,10.94-13.4,12.78
		c-8.24,2.25-16.61,2.29-24.87,0.21c-10.24-2.58-14.77-9.4-15.32-18.98c-0.5-8.68-0.27-17.41-0.02-26.11c0.08-2.8,0.95-5.69,2-8.32
		c2.34-5.86,7.09-9.12,13.01-10.7c5.84-1.56,11.81-1.99,17.81-1.17c2.68,0.36,5.38,0.77,7.96,1.54c7.72,2.3,12.14,7.64,13.57,15.48
		c0.38,2.11,0.52,4.28,0.58,6.42c0.09,3.27,0.02,6.55,0.02,9.82C770.34,635.23,770.32,635.23,770.29,635.23z"/>
</g>
</svg>
