<?xml version="1.0" encoding="utf-8"?>
<!-- Generator: Adobe Illustrator 28.1.0, SVG Export Plug-In . SVG Version: 6.00 Build 0)  -->
<svg version="1.1" id="Calque_1" xmlns="http://www.w3.org/2000/svg" xmlns:xlink="http://www.w3.org/1999/xlink" x="0px" y="0px"
	 viewBox="0 0 128.79 33.5" style="enable-background:new 0 0 128.79 33.5;" xml:space="preserve">
<style type="text/css">
	.st0{fill:#FAB700;}
</style>
<g>
	<g>
		<g>
			<g>
				<path class="st0" d="M4.82,19.05c0.03,0.01,1.11,0.45,2.24,0.91l3.48,1.41c0.83,0.32,1.25,1.19,1.02,2.08
					c-0.28,1.1-1.61,2.15-4.44,1.77c-1.13-0.16-3.75-0.71-3.78-0.72l0.02,0.01c-0.06-0.02-1.64-0.59-2.62-0.07
					c-0.35,0.19-0.57,0.48-0.68,0.9c-0.37,1.47,1.15,1.98,1.16,1.99c0.54,0.19,1.14,0.33,1.62,0.43l0.41,0.11
					c0.03,0,3.48,0.82,6.21,0.78c1.79-0.02,6.15-0.43,7.86-3.56c0.25-0.46,0.6-2.07,0.43-3.09c-0.21-1.18-0.56-2.36-2.61-3.69
					c-0.52-0.33-2.14-0.87-3.57-1.34c-0.75-0.24-1.47-0.48-1.85-0.64c-2.51-1.01-2.96-1.93-3-2.39c-0.03-0.27,0.06-0.88,0.54-1.42
					c0.6-0.65,1.6-0.99,2.98-0.99c2.07,0,2.87,0.25,3.72,0.49c0.16,0.06,0.32,0.11,0.5,0.16c0.64,0.17,1.16,0.14,1.52-0.08
					c0.43-0.27,0.52-0.73,0.55-0.89c0.05-0.28,0.12-1.23-1.39-1.84c-0.12-0.05-3.2-1.25-8.05-0.57C6.41,8.88,5.08,9.15,3.82,9.85
					c-1.83,1.01-2.79,2.58-2.75,4.53C1.1,15.79,1.75,17.03,2.98,18C3.89,18.73,4.79,19.04,4.82,19.05"/>
			</g>
		</g>
		<path class="st0" d="M35.78,3.96c-7.95,0-14.39,6.44-14.39,14.39c0,7.94,6.43,14.39,14.39,14.39c7.95,0,14.39-6.44,14.39-14.39
			C50.18,10.4,43.73,3.96,35.78,3.96z M35.79,23.49c-2.83,0-5.14-2.3-5.14-5.14c0-2.84,2.31-5.14,5.14-5.14
			c2.83,0,5.14,2.3,5.14,5.14C40.92,21.19,38.61,23.49,35.79,23.49z"/>
		<path class="st0" d="M54.65,11.48c0,0-0.11-2.29,2.34-2.29c1.4,0,2.29,1.27,3.93,1.27c2.11,0,2.67-1.27,5.52-1.27
			c3.27,0,3.45,1.27,5.47,1.27c2.13,0,2.52-1.27,6.27-1.27c1.99,0,4.19,1.16,4.19,3.66c0,3.41,0.01,12.42,0.01,12.47
			c0,1.28-1.04,2.34-2.34,2.34c-1.29,0-2.33-1.05-2.33-2.34c0,0,0-9.33,0-10.22c0-1.14,0.01-3.42-1.98-3.47c0,0-4.87-0.67-4.87,7.85
			c0,0.14,0.01,5.79,0.01,5.84c0,1.28-1.05,2.34-2.34,2.34c-1.27,0-2.3-1.01-2.34-2.27l0,0c0,0,0-8.14,0-10.3
			c0-0.75,0.13-3.47-2.02-3.47c-4.15,0-4.83,4.24-4.83,7.71v5.97c0,1.28-1.05,2.34-2.34,2.34c-1.27,0-2.3-1.01-2.34-2.27V11.48"/>
		<g>
			<g>
				<g>
					<g>
						<path class="st0" d="M96.34,16.64c0.04-1.08,0.91-1.91,1.99-1.91h0h0h0.01h0.01h0.02h-0.03h-0.01c0.01,0,0.03,0,2.54,0
							c0.82,0,1.48-0.24,1.94-0.72c0.73-0.73,0.76-1.81,0.76-2.02c0-0.28-0.04-1.19-0.7-1.86c-0.46-0.46-1.11-0.7-1.95-0.7h-2.57
							c-1.75,0-1.75-0.4-1.75-1.46c0-0.02,0.05-2.17,1.77-2.78c0.54-0.2,1.16-0.3,1.81-0.3h0.03h3.04h0.04
							c1.08,0,2.05-0.72,2.35-1.75c0.07-0.23,0.11-0.46,0.11-0.7c0-1.35-1.11-2.45-2.46-2.45c-0.05,0-2.96,0.01-2.96,0.01
							c-0.41,0-0.85,0.03-1.3,0.07c-1.38,0.15-2.63,0.47-3.71,0.94c-4.53,2.01-4.75,6.11-4.75,6.16l0,0.06
							c-0.23,1.42-0.59,2.19-1.94,2.19c-0.67,0-1.21,0.21-1.6,0.64c-0.7,0.74-0.67,1.88-0.67,1.9v-0.02c0,2.33,2.2,2.77,2.24,2.77
							c1.04,0.09,1.83,0.93,1.83,1.95l0,0c0,0.06-0.01,5.3-0.01,8.07c0,0.97,0.26,1.73,0.77,2.24c0.67,0.67,1.54,0.68,1.57,0.68
							h1.18c0.07,0,0.72-0.01,1.33-0.44c0.5-0.34,1.09-1.04,1.09-2.45V16.64z"/>
					</g>
				</g>
			</g>
		</g>
		<g>
			<path class="st0" d="M113.23,24.22c0.17,0.38,0.26,0.8,0.26,1.23c0,2.29-1.27,3.28-1.89,3.79c-1.55,1.29-3.76,1.19-3.79,1.19l0,0
				h-1.2c-0.76,0-1.6,0.63-1.6,1.52c0,0.96,0.64,1.53,1.71,1.53h1.09c0.06,0,1.6,0.06,3.25-0.47c1.67-0.53,3.97-1.79,5.57-4.73
				c0.38-0.7,3.67-8.1,6.06-13.49l1.83-4.1c0.11-0.25,0.12-0.5,0.05-0.72c-0.08-0.26-0.27-0.47-0.54-0.61
				c-0.47-0.25-1.13-0.26-1.78-0.06c-0.67,0.21-1.23,0.65-1.44,1.14c-0.02,0.07-2.73,5.92-2.93,6.33c-0.53,1.06-1.17,1.67-1.75,1.67
				c-0.69,0-1.12-0.08-2.11-1.77c-0.08-0.13-3.04-5.36-3.52-6.18c-0.27-0.52-0.84-0.96-1.54-1.18c-0.7-0.22-1.43-0.21-1.93,0.05
				c-0.3,0.16-0.51,0.39-0.6,0.67c-0.08,0.25-0.06,0.52,0.06,0.79C106.51,10.9,112.85,23.43,113.23,24.22z"/>
		</g>
		<g>
			<g>
				<g>
					<g>
						<g>
							<g>
								<path class="st0" d="M126.04,27.54c-1.62,0-2.71-1.17-2.71-2.73c0-1.57,1.11-2.75,2.72-2.75c1.57,0,2.74,1.18,2.74,2.75
									C128.79,26.37,127.6,27.54,126.04,27.54z M126.04,22.7c-1.16,0-2,0.92-2,2.11c0,1.18,0.83,2.1,2,2.1c1.16,0,2-0.92,2-2.1
									C128.03,23.62,127.2,22.7,126.04,22.7z M126.49,26.14c-0.37-0.67-0.59-1.07-0.69-1.07h-0.07v1.07h-0.6v-2.73h0.91
									c0.61,0,0.94,0.32,0.94,0.74c0,0.45-0.38,0.67-0.62,0.75v0c0.13,0,0.51,0.64,0.84,1.23H126.49z M125.83,23.87h-0.1v0.72
									h0.09c0.28,0,0.51-0.11,0.51-0.39C126.33,23.94,126.15,23.87,125.83,23.87z"/>
							</g>
						</g>
					</g>
				</g>
			</g>
		</g>
	</g>
</g>
</svg>
