<?xml version="1.0" encoding="utf-8"?>
<!-- Generator: Adobe Illustrator 28.1.0, SVG Export Plug-In . SVG Version: 6.00 Build 0)  -->
<svg version="1.1" id="Calque_1" xmlns="http://www.w3.org/2000/svg" xmlns:xlink="http://www.w3.org/1999/xlink" x="0px" y="0px"
	 viewBox="0 0 162.2 42.3" style="enable-background:new 0 0 162.2 42.3;" xml:space="preserve">
<style type="text/css">
	.st0{fill:#FF0000;}
	.st1{stroke:#000000;stroke-width:0.291;}
</style>
<g transform="translate(-877.279 -91.678)">
	<g>
		<g transform="translate(877.279 91.678)">
			<path class="st0" d="M45.2,12.9c0,2.9-2.4,5.3-5.3,5.3c-2.9,0-5.3-2.4-5.3-5.3s2.4-5.3,5.3-5.3l0,0C42.8,7.5,45.2,9.9,45.2,12.9
				L45.2,12.9"/>
			<path d="M82.7,23.1L82.7,23.1c0,1.4,1.1,2.6,2.6,2.6l0,0h2.6V0.1h-5.1L82.7,23.1z M58.3,21.2c-0.6-0.1-1-0.5-1.1-1.1
				c0-0.4,0-20,0-20H52v23.1c0,1.4,1.2,2.6,2.7,2.6h23.2v-4.5C77.7,21.2,58.9,21.2,58.3,21.2 M33.2,0h-9.1L7.4,10.5V0H1.9v23
				c0.1,1.5,1.3,2.7,2.8,2.7h2.6V15.1c0,0,13.7,8.5,14.7,9.2c1.3,0.8,2.7,1.3,4.3,1.4h8.2L13.2,12.4L33.2,0z M121.6,20.4L99.9,0.1
				h-7.1v23.1l0,0c0,1.4,1.1,2.6,2.6,2.6l0,0H98V5.4c0,0,19.8,18.2,20.7,19c0.9,0.8,2,1.3,3.2,1.3h5V0.1h-5.1L121.6,20.4z
				 M160.3,21.2h-21.9c-0.8,0-1.4-0.6-1.5-1.4v-4.7h17.8v-4.5h-17.8V4.5h23.3V0h-28.5v23.1c0,1.4,1.2,2.6,2.7,2.6h25.9V21.2z"/>
			<path d="M1.9,36.9h0.7v4.8h2.3v0.6h-3L1.9,36.9z"/>
			<path d="M11.8,40.5l-0.6,1.7h-0.7l1.8-5.4h0.8l1.8,5.4h-0.7l-0.6-1.7H11.8z M13.5,40L13,38.5c-0.1-0.4-0.2-0.7-0.3-1l0,0
				c-0.1,0.3-0.2,0.6-0.3,1L11.9,40H13.5z"/>
			<path d="M28,36.9h2.9v0.6h-2.2v1.8h2v0.6h-2v2.4H28V36.9z"/>
			<path d="M39.8,39.7h-2.1v1.9H40v0.6h-3v-5.4h3v0.6h-2.2v1.7h2.1L39.8,39.7z"/>
			<path d="M46.2,42.2v-5.4H47l1.7,2.7c0.4,0.6,0.7,1.1,1,1.7l0,0c-0.1-0.7-0.1-1.4-0.1-2.2v-2.3h0.7v5.4h-0.7l-1.7-2.7
				c-0.4-0.6-0.7-1.2-1-1.8l0,0c0,0.7,0.1,1.3,0.1,2.2v2.3L46.2,42.2z"/>
			<path d="M59.5,39.7h-2.1v1.9h2.3v0.6h-3v-5.4h2.9v0.6h-2.2v1.7h2.1V39.7z M58.4,35.7l0.8,0.9h-0.6L58.1,36l0,0l-0.5,0.5H57
				l0.8-0.9h0.6V35.7z"/>
			<path d="M67,37.4h-1.6v-0.6h4v0.6h-1.6v4.8H67V37.4z"/>
			<path d="M75.2,36.9c0.4-0.1,0.9-0.1,1.3-0.1c0.6-0.1,1.1,0.1,1.6,0.4c0.3,0.3,0.4,0.6,0.4,1c0,0.6-0.4,1.2-1,1.4l0,0
				c0.4,0.2,0.7,0.6,0.8,1.1c0.1,0.5,0.2,1,0.4,1.5H78c-0.2-0.4-0.3-0.8-0.4-1.3c-0.2-0.7-0.4-1-1.1-1h-0.7v2.3h-0.7L75.2,36.9z
				 M75.9,39.4h0.7c0.7,0,1.2-0.4,1.2-1c0-0.7-0.5-1-1.2-1c-0.2,0-0.5,0-0.7,0.1V39.4z"/>
			<path d="M87.5,39.7h-2.1v1.9h2.3v0.6h-3v-5.4h2.9v0.6h-2.2v1.7h2.1L87.5,39.7z"/>
			<path d="M100.8,36.9h0.7v4.8h2.3v0.6h-3V36.9z"/>
			<path d="M110.2,36.9V40c0,1.2,0.5,1.7,1.3,1.7s1.3-0.5,1.3-1.7v-3.2h0.7V40c0,1.6-0.9,2.3-2,2.3s-1.9-0.6-1.9-2.3v-3.2h0.6V36.9z
				"/>
			<path d="M124.4,39.9c0-0.8-0.1-1.6-0.1-2.3l0,0c-0.2,0.6-0.4,1.3-0.7,2l-0.9,2.6h-0.5l-0.9-2.6c-0.3-0.8-0.5-1.4-0.6-2.1l0,0
				c0,0.7-0.1,1.6-0.1,2.4l-0.1,2.3h-0.7l0.4-5.4h0.9l0.9,2.6c0.2,0.7,0.4,1.2,0.5,1.8l0,0c0.1-0.5,0.3-1.1,0.6-1.8l1-2.6h0.9
				l0.3,5.4h-0.7L124.4,39.9z"/>
			<rect x="131.5" y="36.9" width="0.7" height="5.4"/>
			<path d="M141.4,39.7h-2.1v1.9h2.3v0.6h-3v-5.4h2.9v0.6h-2.2v1.7h2.1V39.7z M139.8,35.6l0.7,0.9H140l-1-0.9H139.8z"/>
			<path d="M147.8,36.9c0.4-0.1,0.9-0.1,1.3-0.1c0.6-0.1,1.1,0.1,1.6,0.4c0.3,0.3,0.4,0.6,0.4,1c0,0.6-0.4,1.2-1,1.4l0,0
				c0.4,0.2,0.7,0.6,0.8,1.1s0.2,1,0.4,1.5h-0.7c-0.2-0.4-0.3-0.8-0.4-1.3c-0.2-0.7-0.4-1-1.1-1h-0.7v2.3h-0.7L147.8,36.9z
				 M148.5,39.4h0.7c0.7,0,1.2-0.4,1.2-1c0-0.7-0.5-1-1.2-1c-0.2,0-0.5,0-0.7,0.1V39.4z"/>
			<path d="M160.1,39.7H158v1.9h2.3v0.6h-3v-5.4h2.9v0.6H158v1.7h2.1V39.7z"/>
			<line class="st1" x1="2" y1="31.2" x2="160.2" y2="31.2"/>
		</g>
	</g>
</g>
</svg>
