<svg xmlns="http://www.w3.org/2000/svg" xml:space="preserve" style="enable-background:new 0 0 175.748 120.472" viewBox="0 0 175.748 120.472"><path d="M.001.01h175.748v120.471H.001z" style="fill:#182746"/><path d="M9.025 60.272h3.525v10.844h4.086v3.136H9.025v-13.98zm13.351 11.959-.728 2.021h-3.787l5.54-13.98h2.78l5.484 13.98h-3.824l-.671-2.021h-4.794zm.97-2.834h2.891l-1.418-4.78h-.056l-1.417 4.78zm16.967-5.989h-2.724v-3.136h8.954v3.136h-2.705v10.844h-3.525V63.408zm14.321-3.4c4.253 0 7.294 3.363 7.294 7.255s-3.022 7.255-7.313 7.255c-4.346 0-7.256-3.495-7.256-7.084 0-.926.13-1.965.541-2.985.727-1.815 2.873-4.441 6.734-4.441zm.056 11.373c2.499 0 3.712-2.305 3.712-4.1 0-1.813-1.213-4.137-3.749-4.137-2.444 0-3.768 2.116-3.768 4.081 0 2.154 1.436 4.156 3.805 4.156zm12.624-11.109v8.445c0 .945.056 2.664 1.791 2.664 1.753 0 1.753-1.549 1.753-2.664v-8.445h3.526v8.445c0 2.344-.504 3.382-1.381 4.289-.895.925-2.145 1.511-3.862 1.511-1.007 0-2.835-.245-3.973-1.492-1.138-1.266-1.381-2.249-1.381-4.308v-8.445h3.527zm9.065 0h3.526v10.844h4.085v3.136h-7.611v-13.98zm27.598 0v8.445c0 .945.056 2.664 1.791 2.664 1.753 0 1.753-1.549 1.753-2.664v-8.445h3.526v8.445c0 2.344-.504 3.382-1.381 4.289-.895.925-2.145 1.511-3.861 1.511-1.008 0-2.835-.245-3.973-1.492-1.138-1.266-1.381-2.249-1.381-4.308v-8.445h3.526zm14.568 4.081c-.075-.472-.187-1.36-1.269-1.36-.616 0-1.212.434-1.212 1.096 0 .831.373 1.001 2.853 2.135 2.575 1.171 3.227 2.38 3.227 4.005 0 2.04-1.156 4.288-4.812 4.288-3.992 0-4.981-2.645-4.981-4.44v-.453h3.507c0 1.625.988 1.908 1.437 1.908.839 0 1.343-.699 1.343-1.342 0-.925-.579-1.152-2.705-2.059-.97-.396-3.376-1.379-3.376-4.005s2.518-4.119 4.832-4.119c1.362 0 2.835.51 3.731 1.587.82 1.02.876 1.965.913 2.758h-3.488zm8.523 7.878-.727 2.021h-3.786l5.54-13.98h2.779l5.484 13.98h-3.824l-.671-2.021h-4.795zm.97-2.834h2.892l-1.418-4.78h-.056l-1.418 4.78zm10.106-9.125h3.526v13.98h-3.526v-13.98zm6.212 0h3.04l5.335 8.785.037-.038-.149-8.747h3.376v13.98h-3.058l-5.26-8.501-.038.019.093 8.482h-3.376v-13.98zm14.339 0h8.104v3.136h-4.727v2.172h4.16v3.136h-4.16v2.4h4.727v3.136h-8.104v-13.98zm-67.211-.264c4.253 0 7.294 3.363 7.294 7.255s-3.023 7.255-7.312 7.255c-4.346 0-7.256-3.495-7.256-7.084 0-.926.13-1.965.541-2.985.726-1.815 2.871-4.441 6.733-4.441zm.056 11.373c2.499 0 3.712-2.305 3.712-4.1 0-1.813-1.213-4.137-3.749-4.137-2.444 0-3.768 2.116-3.768 4.081-.001 2.154 1.436 4.156 3.805 4.156z" style="fill:#fff"/><path d="M159.314 83.027h7.484V85.6h-7.484z" style="fill:#d61022"/><path d="M151.835 83.027h7.476V85.6h-7.476z" style="fill:#fff"/><path d="M144.355 83.027h7.484V85.6h-7.484z" style="fill:#0062a5"/><path d="m77.848 46.997.001-12.976s-.467-9.349 10.028-14.023v-1.615l-16.912 9.944V47.84l5.568-3.249.008 3.129 11.341 6.818-.001-1.609-10.033-5.932zm21.392-2.406-.032 3.14-11.322 6.8.002 3.267 16.911-9.943z" style="fill:#fff"/><path d="M80.686 31.955v13.662l1.289.762V33.546h1.66v13.815l1.29.762V33.546h1.66v15.558l1.296.767.001-17.916zm14.39 0v13.662l-1.289.762V33.546h-1.66V47.36l-1.289.762V33.546h-1.66v15.558l-1.295.766v3.059l10.033-5.931-.001-12.976s.467-9.349-10.028-14.023l-.001 11.957h7.19z" style="fill:#fff"/><path d="m24.094 100.768.657-5.397c.033-.269 0-.465-.095-.588-.095-.124-.265-.187-.511-.187h-.468l-.076.063-.777 6.383c-.029.24.015.426.131.557.118.131.284.195.498.195h2.667c.299 0 .521-.075.667-.227s.245-.432.294-.839h-2.036c-.286.001-.607.015-.951.04zm4.83-6.984a1.614 1.614 0 0 0-.355-.044c-.115 0-.242.016-.379.047a1.31 1.31 0 0 0-.318.104 1.001 1.001 0 0 0-.104.248 1.357 1.357 0 0 0-.071.592.803.803 0 0 0 .044.236.458.458 0 0 0 .195.08c.089.02.167.034.237.045a.792.792 0 0 1-.171.387 1.505 1.505 0 0 1-.329.301 1.99 1.99 0 0 1-.371.2.607.607 0 0 0 .022.332.43.43 0 0 0 .203.243c.519-.168.92-.425 1.207-.773s.456-.74.509-1.176c.016-.129.021-.255.017-.379a1.49 1.49 0 0 0-.046-.336.98.98 0 0 0-.29-.107zm4.308 2.9a1.92 1.92 0 0 0-.874-.186c-.239 0-.494.021-.766.062-.271.041-.541.1-.805.172a7.134 7.134 0 0 0-.718.235c-.012.153.002.312.043.476.04.164.099.293.179.387.293-.102.583-.191.873-.27.288-.078.558-.117.811-.117.267 0 .462.068.588.206.125.138.169.36.132.666l-.045.373c-.101-.013-.191-.034-.3-.041a9.949 9.949 0 0 0-.649-.023c-.375 0-.724.062-1.046.186-.322.123-.589.313-.801.571s-.342.589-.391.993c-.03.247-.004.488.08.726s.231.433.444.588c.213.155.494.231.846.231.309 0 .591-.057.847-.172.255-.115.486-.255.69-.42.051-.041.082-.077.129-.117a.944.944 0 0 0 .27.411c.135.122.321.201.555.236.098-.06.196-.149.293-.27a1.17 1.17 0 0 0 .202-.343.611.611 0 0 1-.19-.359 1.825 1.825 0 0 1-.001-.491l.261-2.142c.05-.407.015-.74-.104-.998a1.187 1.187 0 0 0-.553-.57zm-1.192 4.056c-.293.171-.562.256-.807.256-.214 0-.371-.067-.469-.203a.681.681 0 0 1-.113-.503.944.944 0 0 1 .318-.629c.18-.155.421-.232.723-.232.189 0 .399.007.629.019.089.005.153.022.233.031l-.117.959c-.125.117-.257.22-.397.302zm6.457-4.184a2.47 2.47 0 0 0-.298-.016c-.302 0-.564.065-.788.197a1.77 1.77 0 0 0-.558.525c-.052.075-.08.167-.125.248a1.628 1.628 0 0 0-.15-.451c-.152-.284-.413-.459-.784-.525-.094.059-.19.152-.286.277a1.416 1.416 0 0 0-.206.35c.082.077.154.204.216.381.062.178.076.409.042.695l-.431 3.541a3.53 3.53 0 0 0 .595.047 3.753 3.753 0 0 0 .601-.047l.409-3.359c.081-.124.166-.244.263-.347a1.48 1.48 0 0 1 .402-.301c.152-.076.322-.114.511-.114l.222.021c.075.008.147.021.218.042a1.98 1.98 0 0 0 .292-.566c.074-.214.12-.398.139-.552a3.334 3.334 0 0 0-.284-.046zm4.252.425a1.593 1.593 0 0 0-.562-.371 2.19 2.19 0 0 0-.817-.138c-.281 0-.56.052-.837.156s-.536.267-.778.485a2.745 2.745 0 0 0-.611.853c-.167.348-.28.766-.339 1.254a4.07 4.07 0 0 0 .001 1.047c.046.325.145.612.293.861s.351.443.607.583c.257.14.572.208.948.208.382 0 .75-.07 1.103-.213a3.32 3.32 0 0 0 .929-.564 1 1 0 0 0-.141-.395.893.893 0 0 0-.269-.301 4.365 4.365 0 0 1-.63.355 1.629 1.629 0 0 1-.69.156c-.357 0-.619-.137-.784-.409-.165-.273-.209-.717-.135-1.329.076-.621.215-1.082.419-1.388.204-.305.464-.457.779-.457.242 0 .418.059.531.175a.779.779 0 0 1 .201.469c.021.194.012.41-.027.647a2.484 2.484 0 0 0 .49.046c.203 0 .362-.055.475-.166a.775.775 0 0 0 .208-.471 1.363 1.363 0 0 0-.054-.577 1.36 1.36 0 0 0-.31-.516zm5.312-.227c-.188-.153-.446-.23-.772-.23-.379 0-.746.094-1.101.28a3.95 3.95 0 0 0-.597.393l.286-2.355c.032-.264.01-.455-.069-.572-.08-.116-.242-.175-.487-.175h-.458l-.077.068-.926 7.615c.171.031.362.047.573.047.231 0 .431-.016.6-.047l.434-3.564c.052-.05.089-.115.146-.16.193-.149.392-.265.594-.344.203-.08.385-.12.547-.12.241 0 .396.075.461.227s.079.391.039.719l-.312 2.564c-.03.247-.005.435.074.562.079.127.236.19.471.19.147 0 .291-.024.43-.073.14-.048.255-.109.348-.183a1.125 1.125 0 0 1-.092-.434 3.413 3.413 0 0 1 .025-.527l.289-2.371a2.41 2.41 0 0 0-.042-.889 1.157 1.157 0 0 0-.384-.621zm3.354-2.142a1.825 1.825 0 0 0-.344-.035c-.108 0-.223.012-.343.035a1.157 1.157 0 0 0-.293.095 1.156 1.156 0 0 0-.104.24 1.276 1.276 0 0 0-.017.747.695.695 0 0 0 .263.099c.118.024.232.037.34.037.109 0 .228-.014.355-.04a.837.837 0 0 0 .282-.096c.039-.065.074-.145.103-.235a1.31 1.31 0 0 0 .062-.509 1.013 1.013 0 0 0-.045-.243.69.69 0 0 0-.259-.095zm-.703 1.964h-.152a6.06 6.06 0 0 0-.732.047 1.64 1.64 0 0 0-.063.219 2.296 2.296 0 0 0-.035.21 1.826 1.826 0 0 0-.004.418h.132c.175 0 .291.046.345.141.056.094.073.231.051.413l-.457 3.755a3.417 3.417 0 0 0 .594.047 3.733 3.733 0 0 0 .601-.047l.513-4.215c.037-.307-.015-.548-.154-.724s-.354-.264-.639-.264zm3.826.042.186-1.53-.06-.074h-.458c-.246 0-.421.06-.526.176-.106.116-.174.308-.207.572l-.104.851-.783-.011c-.05.146-.083.29-.1.429-.019.15-.021.297-.006.439l.786-.014-.392 3.221c-.047.387.017.674.192.864.175.19.454.284.836.284a8.943 8.943 0 0 0 1.22-.084.77.77 0 0 0 .037-.125 1.749 1.749 0 0 0-.002-.726h-.7c-.157 0-.266-.041-.324-.123-.059-.082-.08-.192-.062-.332l.363-2.985 1.287.019a1.713 1.713 0 0 0 .106-.868l-1.289.017zm5.346.149c-.289-.196-.663-.295-1.119-.295-.501 0-.932.119-1.291.358a2.52 2.52 0 0 0-.855.979 4.18 4.18 0 0 0-.413 1.4 4.667 4.667 0 0 0-.018 1.013c.031.324.114.613.25.869.135.256.336.459.602.606.266.148.611.222 1.035.222.369 0 .736-.052 1.102-.159.365-.105.687-.25.965-.43a1.355 1.355 0 0 0-.073-.395.959.959 0 0 0-.199-.354 4.487 4.487 0 0 1-.723.274c-.25.072-.508.106-.771.106-.312 0-.544-.072-.694-.219-.151-.146-.241-.345-.272-.598-.021-.173-.004-.375.007-.572h2.986c.054-.153.095-.293.125-.421a4.33 4.33 0 0 0 .078-.461c.05-.415.015-.791-.105-1.127a1.598 1.598 0 0 0-.617-.796zm-.424 1.956h-1.948c.07-.393.176-.725.342-.961a.93.93 0 0 1 .801-.423c.235 0 .417.057.544.172a.833.833 0 0 1 .255.455c.042.188.049.395.022.621l-.016.136zm5.999-1.742a1.593 1.593 0 0 0-.562-.371 2.19 2.19 0 0 0-.817-.138c-.281 0-.56.052-.837.156s-.536.267-.778.485a2.745 2.745 0 0 0-.611.853c-.167.348-.28.766-.339 1.254a4.07 4.07 0 0 0 .001 1.047c.046.325.145.612.293.861s.351.443.607.583c.257.14.572.208.948.208.382 0 .75-.07 1.103-.213a3.32 3.32 0 0 0 .929-.564 1 1 0 0 0-.141-.395.893.893 0 0 0-.269-.301 4.365 4.365 0 0 1-.63.355 1.629 1.629 0 0 1-.69.156c-.357 0-.619-.137-.784-.409-.165-.273-.209-.717-.135-1.329.076-.621.215-1.082.419-1.388.204-.305.464-.457.779-.457.242 0 .418.059.531.175a.779.779 0 0 1 .201.469c.021.194.012.41-.027.647a2.484 2.484 0 0 0 .49.046c.203 0 .362-.055.475-.166a.775.775 0 0 0 .208-.471 1.363 1.363 0 0 0-.054-.577 1.36 1.36 0 0 0-.31-.516zm3.107-.363.186-1.53-.06-.074h-.458c-.246 0-.421.06-.526.176-.106.116-.174.308-.207.572l-.104.851-.783-.011c-.05.146-.083.29-.1.429-.019.15-.021.297-.006.439l.786-.014-.392 3.221c-.047.387.017.674.192.864.175.19.454.284.836.284a8.943 8.943 0 0 0 1.22-.084.77.77 0 0 0 .037-.125 1.749 1.749 0 0 0-.002-.726h-.7c-.157 0-.266-.041-.324-.123-.059-.082-.08-.192-.062-.332l.363-2.985 1.287.019a1.713 1.713 0 0 0 .106-.868l-1.289.017zm5.346.149c-.289-.196-.663-.295-1.119-.295-.501 0-.932.119-1.291.358a2.52 2.52 0 0 0-.855.979 4.18 4.18 0 0 0-.413 1.4 4.667 4.667 0 0 0-.018 1.013c.031.324.114.613.25.869.135.256.336.459.602.606.266.148.611.222 1.035.222.369 0 .736-.052 1.102-.159.365-.105.687-.25.965-.43a1.355 1.355 0 0 0-.073-.395.959.959 0 0 0-.199-.354 4.487 4.487 0 0 1-.723.274c-.25.072-.508.106-.771.106-.312 0-.544-.072-.694-.219-.151-.146-.241-.345-.272-.598-.021-.173-.004-.375.007-.572h2.986c.054-.153.095-.293.125-.421a4.33 4.33 0 0 0 .078-.461c.05-.415.015-.791-.105-1.127a1.604 1.604 0 0 0-.617-.796zm-.425 1.956h-1.948c.07-.393.176-.725.342-.961a.93.93 0 0 1 .801-.423c.235 0 .417.057.544.172a.833.833 0 0 1 .255.455c.042.188.049.395.022.621l-.016.136zm8.761-4.628h-.458l-.077.068-.327 2.692c-.07-.041-.129-.089-.202-.127a1.916 1.916 0 0 0-.909-.209c-.344 0-.683.099-1.017.298-.334.198-.625.501-.868.906-.245.406-.403.917-.479 1.533-.063.521-.052.983.034 1.384.086.4.251.714.493.94.243.227.566.339.969.339.337 0 .649-.073.938-.222.26-.133.483-.305.68-.505.019.059.027.125.054.18.129.267.375.428.736.484.098-.06.196-.149.293-.27.097-.12.166-.234.207-.343a.654.654 0 0 1-.18-.396 2.192 2.192 0 0 1 .001-.549l.664-5.458c.032-.264.01-.455-.068-.572-.077-.114-.238-.173-.484-.173zm-1.895 6.71a1.328 1.328 0 0 1-.542.134.594.594 0 0 1-.418-.171c-.121-.112-.208-.293-.258-.54-.051-.247-.052-.568-.004-.962.049-.407.133-.744.252-1.013s.26-.47.426-.604a.825.825 0 0 1 .533-.201c.245 0 .479.069.703.209.082.051.148.111.224.165l-.304 2.497c-.014.017-.026.039-.041.055a1.822 1.822 0 0 1-.571.431zm6.882-4.038c-.289-.196-.663-.295-1.119-.295-.501 0-.932.119-1.291.358a2.52 2.52 0 0 0-.855.979 4.18 4.18 0 0 0-.413 1.4 4.667 4.667 0 0 0-.018 1.013c.031.324.114.613.25.869.135.256.336.459.602.606.266.148.611.222 1.035.222.369 0 .736-.052 1.102-.159.365-.105.687-.25.965-.43a1.355 1.355 0 0 0-.073-.395.959.959 0 0 0-.199-.354 4.487 4.487 0 0 1-.723.274c-.25.072-.508.106-.771.106-.312 0-.544-.072-.694-.219-.151-.146-.241-.345-.272-.598-.021-.173-.004-.375.007-.572h2.986c.054-.153.095-.293.125-.421a4.33 4.33 0 0 0 .078-.461c.05-.415.015-.791-.105-1.127a1.604 1.604 0 0 0-.617-.796zm-.424 1.956h-1.948c.07-.393.176-.725.342-.961a.93.93 0 0 1 .801-.423c.235 0 .417.057.544.172a.833.833 0 0 1 .255.455c.042.188.049.395.022.621l-.016.136zm8.76-2.137a2.505 2.505 0 0 0-.535-.012 1.485 1.485 0 0 0-.233.033l-1.693 4.226c-.031 0-.053-.005-.064-.014-.011-.008-.02-.031-.025-.069a21.023 21.023 0 0 0-.104-.946 8.843 8.843 0 0 0-.085-.527l-.387-2.225c-.029-.195-.093-.332-.19-.408-.098-.076-.234-.114-.41-.114a1.36 1.36 0 0 0-.327.045 2.31 2.31 0 0 0-.378.128l.874 4.497c.051.269.135.44.252.52.117.078.292.117.528.117.144 0 .292-.004.446-.013.154-.009.299-.023.435-.045.134-.289.291-.64.473-1.053a297.194 297.194 0 0 0 1.187-2.723c.2-.467.382-.897.546-1.295l-.025-.053a1.485 1.485 0 0 0-.285-.069zm4.286.234c-.314-.232-.725-.348-1.233-.348-.502 0-.938.114-1.308.345-.37.229-.667.55-.89.958a3.909 3.909 0 0 0-.433 1.419c-.065.532-.036 1.003.086 1.412s.34.731.654.964c.313.233.723.35 1.228.35s.943-.114 1.312-.344c.37-.23.668-.551.894-.962.225-.41.37-.884.436-1.42s.036-1.009-.088-1.416a1.806 1.806 0 0 0-.658-.958zm-.491 2.374a4.565 4.565 0 0 1-.198.891 1.686 1.686 0 0 1-.402.674c-.175.172-.405.258-.689.258s-.494-.086-.629-.258c-.135-.173-.215-.397-.241-.674a4.135 4.135 0 0 1 .019-.891c.039-.317.105-.614.198-.892a1.69 1.69 0 0 1 .405-.676c.178-.174.408-.261.692-.261s.493.087.626.261c.133.174.212.4.238.676.025.277.019.574-.019.892zm4.107-2.576.186-1.53-.06-.074h-.458c-.246 0-.421.06-.526.176-.106.116-.174.308-.207.572l-.104.851-.783-.011c-.05.146-.083.29-.1.429-.019.15-.021.297-.006.439l.786-.014-.392 3.221c-.047.387.017.674.192.864.175.19.454.284.836.284a8.943 8.943 0 0 0 1.22-.084.77.77 0 0 0 .037-.125 1.749 1.749 0 0 0-.002-.726h-.7c-.157 0-.266-.041-.324-.123-.059-.082-.08-.192-.062-.332l.363-2.985 1.287.019a1.713 1.713 0 0 0 .106-.868l-1.289.017zm4.95-.078c-.302 0-.564.065-.788.197a1.77 1.77 0 0 0-.558.525c-.052.075-.08.167-.125.248a1.628 1.628 0 0 0-.15-.451c-.152-.284-.413-.459-.784-.525-.094.059-.19.152-.286.277a1.416 1.416 0 0 0-.206.35c.082.077.154.204.216.381.062.178.076.409.042.695l-.431 3.541a3.53 3.53 0 0 0 .595.047 3.753 3.753 0 0 0 .601-.047l.409-3.359c.081-.124.166-.244.263-.347a1.48 1.48 0 0 1 .402-.301c.152-.076.322-.114.511-.114l.222.021c.075.008.147.021.218.042a1.98 1.98 0 0 0 .292-.566c.074-.214.12-.398.139-.552a3.271 3.271 0 0 0-.284-.046 2.494 2.494 0 0 0-.298-.016zm4.284.227c-.289-.196-.663-.295-1.119-.295-.501 0-.932.119-1.291.358a2.52 2.52 0 0 0-.855.979 4.18 4.18 0 0 0-.413 1.4 4.667 4.667 0 0 0-.018 1.013c.031.324.114.613.25.869.135.256.336.459.602.606.266.148.611.222 1.035.222.369 0 .736-.052 1.102-.159.365-.105.687-.25.965-.43a1.355 1.355 0 0 0-.073-.395.959.959 0 0 0-.199-.354 4.487 4.487 0 0 1-.723.274c-.25.072-.508.106-.771.106-.312 0-.544-.072-.694-.219-.151-.146-.241-.345-.272-.598-.021-.173-.004-.375.007-.572h2.986c.054-.153.095-.293.125-.421a4.33 4.33 0 0 0 .078-.461c.05-.415.015-.791-.105-1.127a1.604 1.604 0 0 0-.617-.796zm-.425 1.956h-1.948c.07-.393.176-.725.342-.961a.93.93 0 0 1 .801-.423c.235 0 .417.057.544.172a.833.833 0 0 1 .255.455c.042.188.049.395.022.621l-.016.136zm6.682-2.251c-.361 0-.692.063-.994.19a1.897 1.897 0 0 0-.742.544c-.193.234-.31.516-.35.843-.032.265 0 .494.097.687.098.194.24.357.425.489.186.133.395.242.626.329l.578.219c.198.073.343.168.434.285a.504.504 0 0 1 .112.384c-.025.171-.122.312-.292.426-.169.113-.39.17-.66.17a2.01 2.01 0 0 1-.743-.142 5.37 5.37 0 0 1-.674-.318 1.5 1.5 0 0 0-.305.384 1.395 1.395 0 0 0-.174.437c.215.139.476.261.782.365.306.105.646.156 1.018.156.635 0 1.161-.142 1.581-.426.418-.282.657-.669.717-1.156.05-.415-.036-.748-.257-1.003-.222-.254-.522-.453-.901-.596l-.619-.234c-.194-.073-.336-.155-.422-.246a.396.396 0 0 1-.106-.34.57.57 0 0 1 .238-.399.856.856 0 0 1 .524-.153c.26 0 .509.037.747.112.238.074.447.156.625.242.077-.06.148-.137.215-.231.066-.097.12-.201.162-.314a1.22 1.22 0 0 0 .075-.316 3.773 3.773 0 0 0-.793-.271 3.86 3.86 0 0 0-.924-.117zm6.087.295c-.289-.196-.663-.295-1.119-.295-.501 0-.932.119-1.291.358a2.52 2.52 0 0 0-.855.979 4.18 4.18 0 0 0-.413 1.4 4.667 4.667 0 0 0-.018 1.013c.031.324.114.613.25.869.135.256.336.459.602.606.266.148.611.222 1.035.222.369 0 .736-.052 1.102-.159.365-.105.687-.25.965-.43a1.355 1.355 0 0 0-.073-.395.959.959 0 0 0-.199-.354 4.487 4.487 0 0 1-.723.274c-.25.072-.508.106-.771.106-.312 0-.544-.072-.694-.219-.151-.146-.241-.345-.272-.598-.021-.173-.004-.375.007-.572h2.986c.054-.153.095-.293.125-.421a4.33 4.33 0 0 0 .078-.461c.05-.415.015-.791-.105-1.127a1.598 1.598 0 0 0-.617-.796zm-.424 1.956h-1.948c.07-.393.176-.725.342-.961a.93.93 0 0 1 .801-.423c.235 0 .417.057.544.172a.833.833 0 0 1 .255.455c.042.188.049.395.022.621l-.016.136zm-.945-2.569 2.001-1.4c-.04-.163-.128-.317-.267-.462s-.289-.243-.452-.295l-1.741 1.682a.627.627 0 0 0 .175.298.71.71 0 0 0 .284.177zm6.944.827a1.593 1.593 0 0 0-.562-.371 2.19 2.19 0 0 0-.817-.138c-.281 0-.56.052-.837.156s-.536.267-.778.485a2.745 2.745 0 0 0-.611.853c-.167.348-.28.766-.339 1.254a4.07 4.07 0 0 0 .001 1.047c.046.325.145.612.293.861s.351.443.607.583c.257.14.572.208.948.208.382 0 .75-.07 1.103-.213a3.32 3.32 0 0 0 .929-.564 1 1 0 0 0-.141-.395.893.893 0 0 0-.269-.301 4.365 4.365 0 0 1-.63.355 1.629 1.629 0 0 1-.69.156c-.357 0-.619-.137-.784-.409-.165-.273-.209-.717-.135-1.329.076-.621.215-1.082.419-1.388.204-.305.464-.457.779-.457.242 0 .418.059.531.175a.779.779 0 0 1 .201.469c.021.194.012.41-.027.647a2.484 2.484 0 0 0 .49.046c.203 0 .362-.055.475-.166a.775.775 0 0 0 .208-.471 1.363 1.363 0 0 0-.054-.577 1.36 1.36 0 0 0-.31-.516zm5.917-.368a1.915 1.915 0 0 0-.28-.036 4.704 4.704 0 0 0-.633 0 1.959 1.959 0 0 0-.281.036l-.434 3.564c-.054.052-.092.12-.152.166-.193.15-.391.264-.592.342a1.51 1.51 0 0 1-.548.118c-.238 0-.391-.076-.458-.228-.068-.151-.082-.389-.042-.712l.313-2.576c.03-.243.004-.43-.075-.557-.08-.127-.237-.189-.471-.189a1.3 1.3 0 0 0-.425.072 1.255 1.255 0 0 0-.354.184c.056.121.087.266.095.431.007.165 0 .34-.022.525l-.289 2.376c-.04.327-.026.623.042.888s.196.474.384.627c.188.153.446.23.772.23.382 0 .749-.095 1.1-.282.274-.147.515-.324.739-.518.026.101.047.204.093.295.137.27.387.433.748.489a1.15 1.15 0 0 0 .293-.267c.097-.118.166-.232.208-.34a.628.628 0 0 1-.182-.392 2.192 2.192 0 0 1 .001-.549l.45-3.697zm4.166-.073c-.302 0-.564.065-.788.197a1.77 1.77 0 0 0-.558.525c-.052.075-.08.167-.125.248a1.628 1.628 0 0 0-.15-.451c-.152-.284-.413-.459-.784-.525-.094.059-.19.152-.286.277a1.416 1.416 0 0 0-.206.35c.082.077.154.204.216.381.062.178.076.409.042.695l-.431 3.541a3.53 3.53 0 0 0 .595.047 3.753 3.753 0 0 0 .601-.047l.409-3.359c.081-.124.166-.244.263-.347a1.48 1.48 0 0 1 .402-.301c.152-.076.322-.114.511-.114l.222.021c.075.008.147.021.218.042a1.98 1.98 0 0 0 .292-.566c.074-.214.12-.398.139-.552a3.271 3.271 0 0 0-.284-.046 2.494 2.494 0 0 0-.298-.016zm2.796-1.928a1.825 1.825 0 0 0-.344-.035c-.108 0-.223.012-.343.035a1.157 1.157 0 0 0-.293.095 1.156 1.156 0 0 0-.104.24 1.276 1.276 0 0 0-.017.747.695.695 0 0 0 .263.099c.118.024.232.037.34.037.109 0 .228-.014.355-.04a.837.837 0 0 0 .282-.096c.039-.065.074-.145.103-.235a1.31 1.31 0 0 0 .062-.509 1.013 1.013 0 0 0-.045-.243.683.683 0 0 0-.259-.095zm-.702 1.964h-.152a6.06 6.06 0 0 0-.732.047 1.64 1.64 0 0 0-.063.219 2.296 2.296 0 0 0-.035.21 1.826 1.826 0 0 0-.004.418h.132c.175 0 .291.046.345.141.056.094.073.231.051.413l-.457 3.755a3.417 3.417 0 0 0 .594.047 3.733 3.733 0 0 0 .601-.047l.513-4.215c.037-.307-.015-.548-.154-.724s-.355-.264-.639-.264zm3.826.042.186-1.53-.06-.074h-.458c-.246 0-.421.06-.526.176-.106.116-.174.308-.207.572l-.104.851-.783-.011c-.05.146-.083.29-.1.429-.019.15-.021.297-.006.439l.786-.014-.392 3.221c-.047.387.017.674.192.864.175.19.454.284.836.284a8.943 8.943 0 0 0 1.22-.084.77.77 0 0 0 .037-.125 1.749 1.749 0 0 0-.002-.726h-.7c-.157 0-.266-.041-.324-.123-.059-.082-.08-.192-.062-.332l.363-2.985 1.287.019a1.713 1.713 0 0 0 .106-.868l-1.289.017zm3.977-.464 2.001-1.4c-.04-.163-.128-.317-.267-.462s-.289-.243-.452-.295l-1.741 1.682a.627.627 0 0 0 .175.298.71.71 0 0 0 .284.177zm1.985 1.412a1.591 1.591 0 0 0-.616-.799c-.289-.196-.663-.295-1.119-.295-.501 0-.932.119-1.291.358a2.52 2.52 0 0 0-.855.979 4.18 4.18 0 0 0-.413 1.4 4.667 4.667 0 0 0-.018 1.013c.031.324.114.613.25.869.135.256.336.459.602.606.266.148.611.222 1.035.222.369 0 .736-.052 1.102-.159.365-.105.687-.25.965-.43a1.355 1.355 0 0 0-.073-.395.959.959 0 0 0-.199-.354 4.487 4.487 0 0 1-.723.274c-.25.072-.508.106-.771.106-.312 0-.544-.072-.694-.219-.151-.146-.241-.345-.272-.598-.021-.173-.004-.375.007-.572h2.986c.054-.153.095-.293.125-.421a4.33 4.33 0 0 0 .078-.461c.05-.412.014-.788-.106-1.124zm-1.04 1.157h-1.948c.07-.393.176-.725.342-.961a.93.93 0 0 1 .801-.423c.235 0 .417.057.544.172a.833.833 0 0 1 .255.455c.042.188.049.395.022.621l-.016.136z" style="fill:#a5b6c4"/><path d="M9.032 83.027H141.67V85.6H9.032z" style="fill:#007a85"/></svg>