<svg id="Logo_2014" xmlns="http://www.w3.org/2000/svg" width="100mm" height="31mm" viewBox="0 0 283.46 87.87"><defs><style>.cls-1{fill:#e3000f;}.cls-2{fill-rule:evenodd;}</style></defs><path class="cls-1" d="M260.79,0H22.68A22.67,22.67,0,0,0,0,22.68V65.19A22.67,22.67,0,0,0,22.68,87.87H260.25v-6.2H22.68A16.49,16.49,0,0,1,6.2,65.19V22.68A16.49,16.49,0,0,1,22.68,6.2H260.79a16.49,16.49,0,0,1,16.47,16.48v42h6.2v-42A22.67,22.67,0,0,0,260.79,0Z"/><rect class="cls-1" x="271.32" y="69.14" width="6.2" height="19.38" transform="translate(24.63 217.13) rotate(-45)"/><path class="cls-2" d="M227.67,18.61V67.84h13.05V48.3c3.24,6.27,5.12,13.05,7.57,19.61H262.7l-9.94-20.69c5.4,0,7.71-8.22,7.71-12.54,0-9.66-5.84-16.07-15.64-16.07H227.67Zm13.12,22.77h-.14V29.27h.64a6.06,6.06,0,1,1-.5,12.11Z"/><path class="cls-2" d="M19.63,51.55V66.68c3.25,1.08,6,2.09,9.45,2.09,9.87,0,16.07-6.92,16.07-16.65,0-13.4-12.54-14.34-12.54-19.31,0-1.66,2-2.82,3.39-2.82,3.46,0,6,2.74,8,5.19h0V20.12a18.9,18.9,0,0,0-9.3-2.31c-9.73,0-15.21,6.71-15.21,16.08,0,12,12.54,14.27,12.54,19.68,0,2-2,3.31-3.82,3.31-3,0-6.92-2.88-8.65-5.33h.07Z"/><path class="cls-2" d="M93.16,18.61l-5.84,49.3h14.27c.65-10,1.45-20.18,1.66-30.2h0l4.54,30.2h10.74l6-29.91,1,29.91h13.84l-4.54-49.3H118.32c-1.8,8.21-3.25,16.5-4.62,24.79-.5-4-.79-7.86-1.44-11.75-.65-4.32-1.66-8.65-2.3-13H93.16Z"/><path class="cls-2" d="M146.36,18.61l-5.84,49.3h14.2c.72-10,1.51-20.18,1.73-30.2h0L161,67.91h10.74l6-29.91,1,29.91h13.83L188,18.61h-16.5c-1.81,8.21-3.25,16.5-4.62,24.79-.5-4-.79-7.86-1.44-11.68-.65-4.39-1.66-8.72-2.23-13.11H146.36Z"/><polygon class="cls-2" points="196.96 18.61 196.96 67.91 221.83 67.91 221.83 56.3 210.3 56.3 210.3 48.3 220.68 48.3 220.68 37.27 210.37 37.27 210.37 30.14 222.05 30.14 222.05 18.61 196.96 18.61 196.96 18.61"/><path class="cls-2" d="M67,17.52c-13.62,0-18.67,13.84-18.67,25.38s4.11,25.8,18.17,25.8c13.48,0,19.1-14.05,19.1-25.59,0-11.82-4.54-25.59-18.6-25.59Zm0,12.62c4.4,0,4.91,9.59,4.91,12.76,0,3.38-.29,13.19-5.12,13.19-4.11,0-4.9-9.16-4.9-12.11,0-3.17.57-13.84,5.11-13.84Z"/></svg>