<?xml version="1.0" encoding="UTF-8"?>
<svg id="Calque_1" xmlns="http://www.w3.org/2000/svg" version="1.1" viewBox="0 0 1920 1080">
  <!-- Generator: Adobe Illustrator 29.1.0, SVG Export Plug-In . SVG Version: 2.1.0 Build 142)  -->
  <defs>
    <style>
      .st0 {
        fill: #fff;
      }
    </style>
  </defs>
  <path d="M1291.2,330l-115.4,283.7h-563.8l115.1-283.7h564.1ZM1049.9,466.3h-12l21-52.2c6.2-11.8,17-23.8,31-25.1s3.3-.4,3.6.5c-12.1.4-20.2,19-2.6,17.8s10.6-4.1,12.8-9.3c6.7-15.9-17.8-14.6-27-13.1-17.9,2.9-28.7,15.5-36.3,30.9-8.1,16.3-14.4,34-22.2,50.5h-13.8c-4.6,8.5,10.2,3.7,9.4,9.8l-29,69.9-206.4-27.5c-1-1-.2-.5.1-.8,10-9.5,18.9-25.3,25.4-37.5,18.9-35.5,35.5-97.7,74.1-115.5,26.8-12.3,59.8-1.5,43.9,32.9-9.4,20.4-28.5,32.3-50,36.9-5.3,1.1-14.4.3-16.3,6.5,28.9-.6,64.7-10.6,80.3-37,22.5-38.1-9.7-52-43.2-50.4-86.1,4.1-91.6,87.9-126.3,147.2-1.2,2.1-7.6,12.8-8.9,13.6s-1.1.5-1.9.5c-3.9,0-9.7-1.5-13.9-1.9-20.7-2.1-60.3-7.8-74.3,11.6-10.1,14,1.9,23.5,15.2,26.5,26.8,6.1,58.3-3.1,80-19.1l212.6,31.5.6.9c-4.6,6.9-11.7,14-19.5,17s-12.9,1.5-15.8,6.5c.9,1.2,13.3-.3,15.4-.6,14.2-2.4,26.9-9.4,36.6-19.9,34.9,4.6,69.2,9.8,104.4,4.6,33.3-4.9,65.2-19.6,89.1-43.4-9.3-.8-17.1,7.5-25.1,11.8-36,19.5-73.7,17.9-113.3,14.3-14.5-1.3-28.9-3.6-43.4-4.8l.2-1.9,28.6-71.2c3.5-7.2,14.8-1.6,16.7-10.4ZM1214.8,354.6c-19.8,2.8-19.8,34.8,0,37.7,30,4.3,30.1-42,0-37.7ZM1091.6,420.2h-25.7c-4.5,5.4,3.2,5.1,3.6,7.9l-31,77.5c-2.2,6.2-11.4,3.6-12.2,10.6h33.3c.8,0,1.9-3,1.6-4-.6-2-5-1.4-5-4.2l35.3-87.9ZM986.1,509.9c-.5-.9-.2-1.5,0-2.5,3.3-10.5,17.7-28.4,6.4-37.8-8.8-7.4-34.4-4.8-42.7,2.9s21.8,11.7,15.6-1c4-1.6,10.2-2.5,12.9,1.8s-1,8.7-1.9,13.1c-13.1-1.3-37.8-.1-43,14.8s-.6,11.9,6,14.4c9.2,3.5,21.9,1,29.2-5.6,3.1,11.2,17.5,7.1,23.5,1-.2-3.9-3.8.2-6-1ZM1127.1,489.3c10-29.9-24.4-27.3-41.3-16.2-13.5,8.8-28,35.5-5.5,42.8s23.5-.3,32.8-5.8,5.9-3.7,5.9-4.6l-1.2-2.3c-6.8,3.8-23.7,13-29.1,3.2-.7-1.3-1.3-3.5-1.3-4.9s1.5-10.6,2.6-11.8,32.7.1,37.1-.5ZM842.2,466.3h-26.6c-4.7,6.3,4,4.1,3.6,8.8-2.7,9.2-9.1,18.7-11.6,27.8-4.3,15.7,15.9,16.2,25.9,12l7.8-5.4-2.9,6.7h25.7c4.3-6.3-3.8-4-4-8.8l16.7-41.2h-25.2c-4.8,6.4,4.5,4,3.6,9.3-4.3,7.9-6.8,18.2-11.1,25.9s-8,7.5-12.7,7.5-4.5-1.5-4-5l14.8-37.8ZM918.5,466.3h-32.9c-4.1,5.6,2.4,4.7,4.7,8.3s5.7,13.4,6.3,15.8.5,1.2.3,2-10.8,9.9-12.4,11.2c-2.5,2-7,5.9-9.8,7s-6.9,0-6.5,5.7h19.9c.7,0,1.7-2.6,1.6-3.5-.3-2-3.5-2.1-2.6-4.2l13-11c1.1,2.9,6.2,10.4,2.6,12.7s-7.4-.2-6.7,6h32.4c4.2-6-2.3-4.8-4.7-8.8s-6.8-16.4-6.6-17.3c7.7-6.2,14.9-13.4,23.4-18.3,4.4-.6,5.9-.9,6.7-5.5h-21.1c-1,2.8-1.7,5,1.9,5.8.9,1.3-1.7,3.5-2.6,4.3-3.3,3-8.1,5.9-11.7,8.7-.4-3.1-6.1-11.2-1.9-13.2s6.4.3,6.7-5.5ZM1167.9,466.3h-32.9c-3.6,5.1.5,4.6,3.1,6.5s5.9,15.1,8.5,19.2c-4.4,3.9-8.7,8.3-13.3,12s-6.4,5.3-9.3,6.5-7,.2-6.5,5.7h19.9c.7,0,1.8-2.8,1.7-3.6-.2-1.9-3.7-1.9-2.7-4.1l13-11c1.2,2.9,6.3,10.4,2.6,12.7s-7.4-.2-6.7,6h32.4c1.2,0,1.5-3.5,1.1-4.5s-5.3-1.9-5.8-4.3l-6.6-17.3c7.7-6.2,14.9-13.4,23.4-18.3,4.3-.6,6-.9,6.7-5.5h-20.4c-2.2,2-2.2,5.2,1.1,5.8.9,1.3-1.7,3.5-2.6,4.3-3.5,3.2-7.8,5.7-11.5,8.7-.8-2.9-6.2-11.3-2.1-13.2s6.4.3,6.7-5.5Z"/>
  <path class="st0" d="M727.1,330l-115.1,283.7h563.8l115.4-283.7h.5v420h-235.5c5.2-1.9,6.6-5.2,8.5-10,5.5-13.3,9.4-27.4,14.9-40.8v-1.1c0,0-3.5,0-3.5,0l-11.7,30.3-10.8-29.8-4.6-.5,13.5,36.2c-1.3,6.3-3.7,13.2-11.5,11.8.1,1.4-.7,3.1,1,3.8h-440.8v-420h116.1ZM963.1,682.3h-4.3v52.8h4.3v-52.8ZM978.4,735.1v-52.1c-1-1.3-2.9-.6-4.3-.7v52.8h4.3ZM1135.7,735.1v-52.1c-1-1.3-2.9-.6-4.3-.7v20.2c-4.5-4.5-10.2-6.6-16.4-4.2-11.1,4.3-11.8,24.5-5.1,32.7s15.7,6,21.5-.2l.5,4.1,3.9.2ZM1225,682.3c-1.4.1-3.3-.5-4.3.7v52.1h4.3v-52.8ZM910.3,729.1v-17.3l-.7-.7h-16.3l-.6.8v3c0,0,13.4,0,13.4,0v12.7c-7.2,6.7-20.4,6.2-25.7-2.6s-4.4-23.6.1-30.7c6.4-10.1,23.7-7.8,25.7,4.7h4.2c-1.2-7.7-6.6-13.5-14.6-14.3-19.6-2-23.9,13.8-22.8,30,1.1,15.8,12.4,23.9,27.8,20.1,2.3-.6,8.9-3.5,9.6-5.8ZM943.4,706.6c.4,2-.3,4.8,0,7h-11.3c-1,0-5.5,1.5-6.6,2-2.9,1.4-5.6,4.1-6,7.4-2.1,14.7,16.4,16,24.4,7.4l.5,4.7h4.3c-2.3-8.9.2-19.2-1-28-1.8-13.8-27-12.7-27.3,1.2h3.8c.3-9.2,17.8-9.7,19.2-1.7ZM1017.8,716.9v-7c0-4.2-5-10.2-9-11.7-18.6-6.8-27.6,19.8-17.1,32s19.3,7.5,25-.4c.4-1.2-1.4-2.6-2.4-2.4-9,10.7-23.5,2.6-22.8-10.5h26.4ZM1026.4,698.2v37h4.3v-26.6c0-.2,1.6-2.9,1.9-3.4,2.8-3.7,6.7-3.9,11-3.6v-3.8c-5-1.5-10.2.8-12.7,5.2l-.2-4.8h-4.3ZM1175.1,716.9c1.4-28.3-33.6-24.8-30.6,3.1s20.2,21.8,29.7,9.2c-2.9-3.4-3.9.3-6.8,1.8-10,5-19.6-3.6-18.6-14h26.4ZM1205.8,713.5h-11.8c-.4,0-3.8,1-4.5,1.2-3.5,1.2-7.6,4.3-8.1,8.2-2,14.5,16.5,16.2,24.2,7.4l.8,4.7h4.3c-2.3-9,.2-19.4-1.1-28.4-1.9-13.4-27-12.1-27.2,1.6h3.8c1-6.2,7.2-7.9,12.7-7.2,6.5.9,7.3,6.9,7,12.4ZM1238.4,716.9h25.7c1.1,0,.3-5.8.1-6.8-3.1-17-23.9-16.6-29-1.4-2,6.1-1.6,14.5,1.9,19.9,5.9,9.2,20.7,9.8,26.8.6-3.3-3.3-3.5,0-6.6,1.6-10.2,5.2-20-3.1-18.9-13.8ZM1272.9,698.2v37h4.3v-26.2c0-.6,1.5-3.1,2-3.8,2.9-3.9,6.4-4,10.9-3.7v-3.8c-4.9-1.6-10.2,1-12.7,5.2l-.2-4.8h-4.3Z"/>
  <path d="M1051.8,750c-1.6-.7-.8-2.5-1-3.8,7.8,1.5,10.3-5.5,11.5-11.8l-13.5-36.2,4.6.5,10.8,29.8,11.7-30.3h3.6s0,1.1,0,1.1c-5.5,13.3-9.4,27.5-14.9,40.8s-3.3,8.1-8.5,10h-4.3Z"/>
  <path class="st0" d="M1049.9,466.3c-1.9,8.8-13.2,3.2-16.7,10.4l-28.6,71.2-.2,1.9c14.5,1.2,28.9,3.5,43.4,4.8,39.6,3.6,77.3,5.2,113.3-14.3,8-4.4,15.8-12.7,25.1-11.8-23.8,23.8-55.8,38.5-89.1,43.4-35.2,5.2-69.5,0-104.4-4.6-9.8,10.5-22.4,17.5-36.6,19.9-2.2.4-14.5,1.9-15.4.6,2.9-5,10.6-4.4,15.8-6.5,7.8-3.1,14.9-10.1,19.5-17l-.6-.9-212.6-31.5c-21.7,16-53.2,25.2-80,19.1-13.2-3-25.3-12.5-15.2-26.5,14-19.3,53.6-13.6,74.3-11.6,4.2.4,10,1.9,13.9,1.9s1.2,0,1.9-.5c1.3-.8,7.7-11.5,8.9-13.6,34.7-59.3,40.2-143.1,126.3-147.2,33.5-1.6,65.6,12.2,43.2,50.4-15.6,26.4-51.4,36.4-80.3,37,1.9-6.1,11-5.3,16.3-6.5,21.5-4.6,40.5-16.5,50-36.9,15.9-34.4-17.1-45.2-43.9-32.9-38.6,17.8-55.2,79.9-74.1,115.5-6.5,12.2-15.4,28-25.4,37.5s-1.1-.1-.1.8l206.4,27.5,29-69.9c.8-6.1-14-1.3-9.4-9.6h13.8c7.9-16.6,14.1-34.3,22.2-50.6,7.6-15.4,18.4-28,36.3-30.9s33.8-2.8,27,13.1-7.1,8.9-12.8,9.3c-17.6,1.2-9.5-17.4,2.6-17.8-.3-.9-2.8-.5-3.6-.5-14.1,1.3-24.9,13.4-31,25.1l-21,52.2h12ZM744.8,529.2c-11.4-1.6-22.8-3.9-34.3-4.8s-34-2.5-39,6.1,8.3,12.7,14.2,13.9c19.9,4.3,36,1.9,52.7-9.8s6.8-4.9,6.4-5.4Z"/>
  <path class="st0" d="M842.2,466.3l-14.8,37.8c-.5,3.4.4,5,4,5s10.4-3.5,12.7-7.5c4.3-7.7,6.8-18,11.1-25.9.9-5.3-8.3-2.9-3.6-9.3h25.2l-16.7,41.2c.2,4.8,8.3,2.5,4,8.8h-25.7l2.9-6.7-7.8,5.4c-10,4.2-30.2,3.7-25.9-12s8.9-18.5,11.6-27.8c.4-4.7-8.2-2.6-3.6-8.8h26.6Z"/>
  <path class="st0" d="M1091.6,420.2l-35.3,87.9c0,2.7,4.5,2.1,5,4.2s-.8,4-1.6,4h-33.3c.8-7,10.1-4.4,12.2-10.6l31-77.5c-.4-2.8-8.1-2.6-3.6-7.9h25.7Z"/>
  <path class="st0" d="M986.1,509.9c2.1,1.2,5.7-2.8,6,1-6.1,6.1-20.5,10.2-23.5-1-7.3,6.6-20,9.2-29.2,5.6-6.6-2.5-8.3-7.9-6-14.4,5.2-14.9,29.9-16.1,43-14.8.9-4.4,4.8-8.6,1.9-13.1s-8.9-3.3-12.9-1.8c6.2,12.6-27,11.5-15.6,1s33.8-10.2,42.7-2.9c11.3,9.4-3.1,27.3-6.4,37.8s-.6,1.5,0,2.5ZM976,491.3c-8.5,0-20,2.2-23,11.3s4.9,10,11.5,6.3,9.4-11.1,11.5-17.5Z"/>
  <path class="st0" d="M918.5,466.3c-.3,5.8-3.5,4-6.7,5.5s1.5,10.1,1.9,13.2c3.7-2.7,8.4-5.6,11.7-8.7s3.5-3,2.6-4.3c-3.5-.8-2.9-3.1-1.9-5.8h21.1c-.8,4.6-2.3,4.9-6.7,5.5-8.5,5-15.8,12.1-23.4,18.3-.2.9,5.6,15.8,6.6,17.3,2.4,4,8.8,2.8,4.7,8.8h-32.4c-.7-6.2,3.9-4.3,6.7-6s-1.5-9.8-2.6-12.7l-13,11c-1,2.1,2.3,2.1,2.6,4.2s-.9,3.5-1.6,3.5h-19.9c-.4-5.7,2.8-4.3,6.5-5.7s7.3-4.9,9.8-7,12.2-10.4,12.4-11.2,0-1.3-.3-2c-.6-2.4-5.1-13.8-6.3-15.8-2.2-3.6-8.8-2.7-4.7-8.3h32.9Z"/>
  <path class="st0" d="M1167.9,466.3c-.3,5.8-3.5,4-6.7,5.5s1.3,10.3,2.1,13.2c3.7-3,8-5.5,11.5-8.7s3.5-3,2.6-4.3c-3.4-.6-3.3-3.8-1.1-5.8h20.4c-.7,4.7-2.4,4.9-6.7,5.5-8.6,4.9-15.7,12.2-23.4,18.3l6.6,17.3c.5,2.4,5.4,3.1,5.8,4.3s0,4.5-1.1,4.5h-32.4c-.7-6.2,3.9-4.3,6.7-6s-1.4-9.8-2.6-12.7l-13,11c-1,2.2,2.5,2.2,2.7,4.1s-1,3.6-1.7,3.6h-19.9c-.5-5.5,3-4.4,6.5-5.7s6.8-4.4,9.3-6.5c4.6-3.7,8.9-8.1,13.3-12-2.6-4.1-5-16.6-8.5-19.2s-6.6-1.5-3.1-6.5h32.9Z"/>
  <path class="st0" d="M1127.1,489.3c-4.4.6-35.8-.8-37.1.5s-2.7,9.9-2.6,11.8.7,3.7,1.3,4.9c5.4,9.7,22.3.5,29.1-3.2l1.2,2.3c0,.9-4.9,4-5.9,4.6-9.3,5.5-22.2,9.2-32.8,5.8-22.5-7.2-8-33.9,5.5-42.8,17-11.1,51.4-13.7,41.3,16.2ZM1093.1,484.6h17c2.1-4.5,7.2-14.4-1.4-14.4s-13.2,8.5-15.6,14.4Z"/>
  <path class="st0" d="M1214.8,354.6c30.1-4.3,30,42,0,37.7-19.8-2.9-19.8-34.8,0-37.7ZM1215.7,357.5c-4.9.8-10.3,6.2-11.6,10.9-4.8,17.2,16.1,29.4,26.8,14.8s-.7-28-15.2-25.8Z"/>
  <path d="M910.3,729.1c-.6,2.3-7.3,5.2-9.6,5.8-15.5,3.8-26.7-4.4-27.8-20.1-1.1-16.3,3.2-32,22.8-30,8,.8,13.4,6.6,14.6,14.4h-4.2c-2-12.5-19.3-14.9-25.7-4.8-4.5,7.1-4.5,23.6-.1,30.7s18.6,9.3,25.7,2.6v-12.7h-13.4v-3c0,0,.7-.8.7-.8h16.3l.7.7v17.3Z"/>
  <path d="M1135.7,735.1l-3.9-.2-.5-4.1c-5.8,6.2-15.9,7-21.5.2s-6.1-28.3,5.1-32.7,11.9-.3,16.4,4.2v-20.2c1.4.1,3.3-.5,4.3.7v52.1ZM1113.9,703.6c-6.8,6.8-5.8,28.9,7.3,28.7s9.4-2.9,10.2-6.6.3-16.4-.3-18.3c-2.1-6.5-12.3-8.6-17.2-3.8Z"/>
  <path d="M943.4,706.6c-1.4-8-18.9-7.5-19.2,1.6h-3.8c.3-13.8,25.5-15,27.3-1.1,1.2,8.8-1.3,19.1,1,28h-4.3c0,0-.5-4.8-.5-4.8-8,8.6-26.5,7.3-24.4-7.4s3.2-6,6-7.4,5.7-2,6.6-2h11.3c-.3-2.1.4-5,0-7ZM943.4,716.9h-11.3c-2.3,0-6.9,2.8-8,4.9-4.8,9.1,9.4,13.6,16.6,7.1s2.6-3.2,2.6-3.6v-8.4Z"/>
  <path d="M1205.8,713.5c.4-5.5-.5-11.5-7-12.4-5.6-.8-11.7,1-12.7,7.1h-3.8c.2-13.6,25.3-14.9,27.2-1.5s-1.2,19.4,1.1,28.4h-4.3c0,0-.8-4.8-.8-4.8-7.7,8.8-26.2,7.1-24.2-7.4.5-3.9,4.6-7,8.1-8.2s4.1-1.2,4.5-1.2h11.8ZM1205.8,716.9h-11.8c-.6,0-4.4,1.5-5.2,2-5,3.2-4.6,10.2.9,12.4s9.9.4,13.2-2.6,2.9-3.4,2.9-3.9v-7.9Z"/>
  <path d="M1238.4,716.9c-1.1,10.7,8.6,19,18.9,13.8s3.3-4.8,6.6-1.6c-6.1,9.3-20.9,8.6-26.8-.6s-3.9-13.9-1.9-19.9c5.1-15.2,25.9-15.6,29,1.4.2,1,1,6.8-.1,6.8h-25.7ZM1260.5,713c-.6-16.5-20.7-15.8-22.1,0h22.1Z"/>
  <path d="M1175.1,716.9h-26.4c-1,10.4,8.5,19.1,18.6,14,3-1.5,3.9-5.1,6.8-1.8-9.4,12.7-28,6.4-29.7-9.2-2.9-27.9,32-31.4,30.6-3.1ZM1170.8,713c-.3-16.6-20.8-15.7-22.1,0h22.1Z"/>
  <path d="M1017.8,716.9h-26.4c-.7,13.1,13.9,21.3,22.8,10.5,1-.2,2.8,1.3,2.4,2.4-5.6,7.9-18.8,7.7-25,.4-10.4-12.2-1.4-38.8,17.1-32,4,1.5,9,7.4,9,11.7v7ZM1013.9,713c-.7-16.5-20.8-15.8-22.1,0h22.1Z"/>
  <rect x="958.8" y="682.3" width="4.3" height="52.8"/>
  <path d="M978.4,735.1h-4.3v-52.8c1.4.1,3.3-.5,4.3.7v52.1Z"/>
  <path d="M1225,682.3v52.8h-4.3v-52.1c1-1.3,2.9-.6,4.3-.7Z"/>
  <path d="M1272.9,698.2h4.3s.2,4.8.2,4.8c2.5-4.2,7.9-6.8,12.6-5.2v3.8c-4.4-.3-8-.2-10.9,3.7s-2,3.2-2,3.8v26.2h-4.3v-37Z"/>
  <path d="M1026.4,698.2h4.3s.2,4.8.2,4.8c2.5-4.4,7.8-6.7,12.7-5.2v3.8c-4.3-.3-8.1,0-11,3.6s-1.9,3.2-1.9,3.4v26.6h-4.3v-37Z"/>
  <path d="M744.8,529.2c.5.5-5.8,5-6.4,5.4-16.7,11.7-32.8,14.1-52.7,9.8-5.9-1.3-19.2-5.3-14.2-13.9s30.3-6.8,39-6.1,22.9,3.2,34.3,4.8Z"/>
  <path d="M976,491.3c-2.1,6.4-5.3,14.1-11.5,17.5s-14.7,3.2-11.5-6.3,14.6-11.3,23-11.3Z"/>
  <path d="M1093.1,484.6c2.3-6,8.5-14.5,15.6-14.4s3.5,10,1.4,14.4h-17Z"/>
  <path d="M1215.7,357.5c14.5-2.3,23.5,14.6,15.2,25.8s-31.7,2.4-26.8-14.8,6.7-10.1,11.6-10.9ZM1211.5,363.1v20.9c.5,1,3.1,1.1,3.6.3,1.4-4.3-3.2-11.7,4.6-8.5s2,6.4,3.7,8.8h3.4c-1.3-3.6-.6-8.5-4.3-10.6,2.5-1,4.1-3.3,3.7-6.1-.9-6.4-10.1-5.4-14.8-4.7Z"/>
  <path class="st0" d="M1113.9,703.6c4.9-4.8,15.1-2.7,17.2,3.8s.7,16.2.3,18.3c-.9,3.7-6.6,6.5-10.2,6.6-13,.3-14.1-21.9-7.3-28.7Z"/>
  <path class="st0" d="M943.4,716.9v8.4c0,.4-2.1,3.1-2.6,3.6-7.2,6.5-21.4,2.1-16.6-7.1,1.1-2.2,5.7-4.9,8-4.9h11.3Z"/>
  <path class="st0" d="M1205.8,716.9v7.9c0,.4-2.3,3.3-2.9,3.9-3.3,3.1-9,4.4-13.2,2.6s-5.9-9.2-.9-12.4,4.6-2,5.2-2h11.8Z"/>
  <path class="st0" d="M1260.5,713h-22.1c1.4-15.8,21.5-16.5,22.1,0Z"/>
  <path class="st0" d="M1170.8,713h-22.1c1.3-15.7,21.8-16.6,22.1,0Z"/>
  <path class="st0" d="M1013.9,713h-22.1c1.3-15.8,21.4-16.5,22.1,0Z"/>
  <path class="st0" d="M1211.5,363.1c4.7-.8,13.9-1.7,14.8,4.7.4,2.8-1.3,5.1-3.7,6.1,3.8,2.1,3,7,4.3,10.6h-3.4c-1.7-2.3-.8-7.5-3.7-8.7-7.8-3.2-3.3,4.2-4.6,8.5-.6.8-3.1.7-3.6-.3v-20.9ZM1215.4,372.7c9.7,1.3,9.8-8.6,0-7.2v7.2Z"/>
  <path d="M1215.4,372.7v-7.2c9.8-1.4,9.7,8.5,0,7.2Z"/>
</svg>