<svg xmlns="http://www.w3.org/2000/svg" viewBox="0 0 732.49 179.27">
	<path d="M26.39,43.63L0,179.1l29.09,0,15.19-78.76,40.88,0,5.61-29-40.87,0,5.41-27.45c2-10.39,8.92-14.06,14.87-14.1l71.16,0,5.64-29-71.16,0C65,0.86,32.94,9.51,26.39,43.63"/>
	<path d="M232.1,49.29h23.83l2.57-12.94H234.62l3-15.56c1-5,4.92-6.93,7.06-6.93h23.83L271.23,0H247.41c-7.61,0-20.74,5.7-23.68,20.7l-12.63,65H225Z"/>
	<path d="M213.92,142.92h23.8l2.58-13H216.43l3-15.5c0.38-2,1.79-6.95,7.1-6.95h23.88l2.74-13.91H229.21c-4,0-20.26,3.06-23.68,20.7l-12.63,65H206.8Z"/>
	<path d="M315.83,33.54C318.06,13.4,303.55,12,299.95,12h-24L261.61,85.58h13.91l6-30.52h10.08c4.45,0,4.9,4.94,4.52,6.9l-4.61,23.62h13.92L310,62c1.34-7-1.24-12.74-3.22-13.91,6.65-4.18,9-14.52,9-14.52m-13.44,0s-1.52,8.24-8,8.24H284.06l3.21-16.5h10.33c5,0,5.37,5.31,4.8,8.26"/>
	<path d="M630,127c2.24-20.13-12.28-21.54-15.88-21.54h-24l-14.32,73.59h13.91l6-30.52h10.08c4.45,0,4.9,4.94,4.52,6.9l-4.61,23.62h13.92l4.61-23.62c1.34-7-1.24-12.73-3.21-13.9,6.65-4.18,9-14.52,9-14.52m-13.43,0s-1.52,8.24-8,8.24H598.26l3.21-16.5H611.8c5,0,5.37,5.31,4.8,8.26"/>
	<path d="M348.25,126.89c2.24-20.13-12.28-21.54-15.88-21.54h-24L294,178.94h13.91l6-30.52H324c4.45,0,4.9,4.93,4.52,6.9l-4.61,23.62h13.92l4.61-23.62c1.34-7-1.24-12.74-3.22-13.91,6.65-4.18,9-14.52,9-14.52m-13.44.16s-1.52,8.24-8,8.24H316.48l3.21-16.5H330c5,0,5.37,5.31,4.8,8.26"/>
	<path d="M357.19,12h-4.25c-18.08,0-23.08,16.69-23.82,20.74L318.85,85.62h13.91l6-30.56h15.87l-6,30.56h13.91l10.28-52.87c0.8-4.19,0-20.74-15.62-20.74m-7,13.84h4.28c1.55,0,5.5,1.55,4.45,6.9l-1.82,9.08H341.21L343,32.75a8.42,8.42,0,0,1,7.14-6.9"/>
	<polygon points="419.26 85.62 433.59 12.04 419.74 12.04 413.83 42.35 404.26 12.04 389.96 12.04 375.64 85.62 389.92 85.62 398.96 39.2 409.51 64.36 405.37 85.62 419.26 85.62"/>
	<path d="M471.86,71.71H453.71c-4.47,0-4.81-4.84-4.43-6.81l6.25-32.14c0.38-2,2.6-6.91,7.09-6.91h18.12L483.45,12H465.33c-13.58,0-21.36,8.49-23.71,20.71l-6.26,32.06c-0.5,2.52-4.68,20.81,15.65,20.81h18.15Z"/>
	<path d="M163.48,136.36l26.3-135.5h-29L147.13,71.41H104.68l-5.61,28.87,42.42,0-6.95,35.74c-0.8,4.12-4.86,13.87-14.81,13.86H48.68L43,179.09h74.13c22.71,0,41.59-18.72,46.31-42.73"/>
	<polygon points="388.04 133.37 379.72 105.5 365.8 105.5 351.52 179.12 365.38 179.12 374.42 132.65 381.15 148.61 389 148.61 401.91 132.65 392.88 179.12 406.74 179.12 421 105.5 407.24 105.5 388.04 133.37"/>
	<polygon points="479.43 119.43 494.2 119.43 482.62 179.23 496.48 179.23 508.05 119.46 522.98 119.46 525.77 105.5 482.13 105.5 479.43 119.43"/>
	<path d="M554.16,158.48c-0.38,2-3.1,7.48-8.32,7.48h-2.3c-4.74,0-5.57-5.52-5.19-7.48l10.24-53H534.73l-10.25,52.9c-1.94,11.45,4.85,20.83,19.81,20.83,18.87,0,23.21-18,23.75-20.83l10.22-52.59H564.4Z"/>
	<path d="M711.44,125.44c-1.25-5.78,2.45-6.86,4.05-6.94h10.59s2.49,0.15,3.47-3.07l2.93-10.18H711.08c-9.29,0-18.78,7.78-14.55,20.8l11.56,32.57c0.26,2,0,6.5-4.82,6.5H681.44l-2.52,14h26.26c5.91,0,23.26-4.73,17.18-22.49Z"/>
	<path d="M277.69,105.37h-3.37c-19.1,0-23.7,18-24.24,20.82l-6.24,32.06c-0.9,4.84-1.29,20.82,15.63,20.8H280l2.71-13.75H262.17c-4.28,0-5-4.43-4.49-7l1.91-9.78h29.28L293.24,126c0.75-4.51,2.72-20.66-15.55-20.66M263.92,126.2c0.95-4.78,5.55-6.9,7.16-6.9h4c2.31,0,5.33,2,4.45,6.59l-1.9,9.38H262.21Z"/>
	<path d="M456.68,105.37H453.3c-19.1,0-23.7,18-24.24,20.82l-6.23,32.06c-0.9,4.84-1.29,20.82,15.63,20.8H459l2.71-13.75H441.16c-4.29,0-5-4.43-4.49-7l1.91-9.78h29.28L472.22,126c0.75-4.51,2.72-20.66-15.55-20.66M442.91,126.2c0.95-4.78,5.54-6.9,7.16-6.9h4c2.3,0,5.33,2,4.45,6.59l-1.9,9.38H441.19Z"/>
	<path d="M667.86,105.37h-3.38c-19.1,0-23.7,18-24.24,20.82L634,158.25c-0.9,4.84-1.29,20.82,15.63,20.8h20.54l2.71-13.75H652.35c-4.29,0-5-4.43-4.49-7l1.91-9.78H679L683.41,126c0.75-4.51,2.72-20.66-15.55-20.66M654.1,126.2c0.95-4.78,5.54-6.9,7.16-6.9h4c2.3,0,5.33,2,4.45,6.59l-1.9,9.38H652.38Z"/>
	<path d="M515,11.84h-3.38c-19.09,0-23.69,18-24.24,20.82l-6.23,32.06c-0.9,4.84-1.29,20.82,15.63,20.81h20.53L520,71.78H499.51c-4.28,0-5-4.43-4.49-7l1.9-9.78h29.28l4.37-22.51C531.33,28,533.29,11.84,515,11.84M501.27,32.66c0.94-4.78,5.54-6.9,7.16-6.9h4.05c2.3,0,5.33,2,4.45,6.59L515,41.73H499.55Z"/>
</svg>