<?xml version="1.0" encoding="utf-8"?>
<!-- Generator: Adobe Illustrator 28.1.0, SVG Export Plug-In . SVG Version: 6.00 Build 0)  -->
<svg version="1.1" id="Calque_1" xmlns="http://www.w3.org/2000/svg" xmlns:xlink="http://www.w3.org/1999/xlink" x="0px" y="0px"
	 viewBox="0 0 223.24 88.23" style="enable-background:new 0 0 223.24 88.23;" xml:space="preserve">
<style type="text/css">
	
		.st0{clip-path:url(#SVGID_00000065761322908780857760000018151182807761515958_);fill:url(#SVGID_00000141430999845800247840000014468060248908314253_);}
	.st1{fill:#002C58;}
	.st2{fill:#F29200;}
</style>
<g>
	<defs>
		<rect id="SVGID_1_" x="113.36" y="9.76" width="59.34" height="36.29"/>
	</defs>
	<clipPath id="SVGID_00000107562491349611651730000006347486032460888960_">
		<use xlink:href="#SVGID_1_"  style="overflow:visible;"/>
	</clipPath>
	
		<radialGradient id="SVGID_00000021109800401638828510000010479150571685286828_" cx="-305.0009" cy="355.0522" r="0.9249" gradientTransform="matrix(48.1219 0 0 -48.3052 14790.1367 17159.0586)" gradientUnits="userSpaceOnUse">
		<stop  offset="0" style="stop-color:#FFFFFF"/>
		<stop  offset="0.2991" style="stop-color:#FAC88B"/>
		<stop  offset="1" style="stop-color:#F18E00"/>
	</radialGradient>
	
		<rect x="113.36" y="9.76" style="clip-path:url(#SVGID_00000107562491349611651730000006347486032460888960_);fill:url(#SVGID_00000021109800401638828510000010479150571685286828_);" width="59.34" height="36.29"/>
</g>
<path class="st1" d="M106.98,36.29V0c0,0-11.19,5.88-27.25,8.32C63,10.86,47.55,9.58,47.55,9.58v36.29c0,0,13.83,0.7,32.18-1.33
	C98.07,42.51,106.98,36.29,106.98,36.29"/>
<polygon class="st1" points="160.78,70.67 163.15,66.79 149.03,66.79 149.03,88.12 153.75,88.12 153.75,78.67 158.45,78.67 
	160.77,74.82 153.74,74.81 153.74,70.67 "/>
<polygon class="st1" points="199.51,84.22 191.25,84.22 191.25,78.66 195.95,78.66 198.28,74.81 191.25,74.81 191.25,70.67 
	198.29,70.67 200.65,66.79 186.53,66.79 186.53,88.1 190.95,88.1 197.15,88.11 "/>
<polygon class="st1" points="67.03,66.79 72.04,66.79 80.7,79.76 80.7,66.79 85.36,66.79 85.36,88.11 81.13,88.11 71.72,73.98 
	71.72,88.11 67.03,88.11 "/>
<rect x="113.36" y="73.57" class="st1" width="4.29" height="14.53"/>
<polygon class="st2" points="113.36,66.79 117.98,66.79 115.29,71.14 113.36,71.14 "/>
<polygon class="st1" points="167.96,66.8 172.68,66.8 172.68,84.25 181.71,84.25 179.49,88.11 167.96,88.11 "/>
<polygon class="st1" points="213.52,73.15 217.33,66.79 222.55,66.79 216.87,76.62 223.24,88.11 218.15,88.11 213.49,80.35 
	208.83,88.11 203.74,88.11 210.1,76.62 204.43,66.79 209.65,66.79 213.49,73.18 "/>
<path class="st1" d="M32.73,79.6c-0.42-0.8-1.47-1.97-2.4-2.13c5.7-1.68,4.93-10.53-1.17-10.69H18.93v21.32h4.72v-8.93h2.3
	c0.61,0,1.65,0.21,2.4,1.44c0.75,1.22,2.98,6.66,3.36,7.51h4.85L32.73,79.6z M26.95,75.28h-3.3v-4.68h3.3
	c1.29,0,2.34,1.04,2.34,2.33C29.29,74.23,28.24,75.28,26.95,75.28"/>
<path class="st1" d="M144.3,88.13l-7.5-21.18c-0.08-0.16,0.03-0.16-0.28-0.16h-5.76c-0.29,0-0.27-0.01-0.32,0.2L122.7,88.1h5.12
	l2.25-6.37h7.12l2.25,6.39H144.3z M131.42,77.86l2.19-6.23l2.18,6.23H131.42z"/>
<path class="st1" d="M103.65,83.24c-0.56,0.2-1.91,0.41-2.51,0.41c-3.45,0-6.25-2.81-6.25-6.26c0-3.45,2.81-6.25,6.25-6.25
	c0.94,0,1.84,0.2,2.68,0.6c0.18,0.09,0.36,0.18,0.53,0.28l2.35-3.93c-0.3-0.18-0.6-0.34-0.91-0.49c-1.46-0.69-3.02-1.04-4.64-1.04
	c-5.97,0-10.83,4.86-10.83,10.83c0,5.97,4.86,10.83,10.83,10.83c1.04,0,2.09-0.1,3.07-0.44c1.52-0.53,2.43-1.62,2.43-1.62v-4.43
	C106.64,81.74,105.41,82.62,103.65,83.24"/>
<polygon class="st1" points="11.75,70.67 14.12,66.79 0,66.79 0,88.12 4.72,88.12 4.71,78.67 9.42,78.67 11.74,74.82 4.71,74.81 
	4.71,70.67 "/>
<path class="st1" d="M61.93,88.13l-7.5-21.18c-0.08-0.16,0.03-0.16-0.28-0.16h-5.76c-0.29,0-0.27-0.01-0.32,0.2L40.32,88.1h5.12
	l2.25-6.37h7.12l2.25,6.39H61.93z M49.05,77.86l2.19-6.23l2.18,6.23H49.05z"/>
</svg>
