<?xml version="1.0" encoding="UTF-8"?>
<svg id="layer" xmlns="http://www.w3.org/2000/svg" version="1.1" viewBox="0 0 652 652">
  <!-- Generator: Adobe Illustrator 29.8.2, SVG Export Plug-In . SVG Version: 2.1.1 Build 3)  -->
  <path d="M39.7,353.7c.4,8.6,5.5,11.4,13.2,11.4s11.2-2.1,11.2-7.5-10-7.7-20.1-10.6c-10-3-20.5-7.7-20.5-21.1s15.4-22.2,28.5-22.2,27.9,7.1,28,23.6h-18.1c.3-6.7-5.7-8.8-11.3-8.8s-8.8,1.4-8.8,6.3,10.1,6.7,20.3,9.6c10.1,3,20.3,7.9,20.3,21.1s-15.1,24.5-30.5,24.5-30.3-7.4-30.4-26.1c0-.2,18.2-.2,18.2-.2Z"/>
  <path d="M102.6,356c.3,7.3,4.3,12.1,11.4,12.1s7.9-1.9,9.5-5.8h15.6c-3,12.3-13.9,17.6-25.3,17.6-16.6,0-27.8-10.4-27.8-28.3s12.4-28,27.4-28,27.4,14.3,26.6,32.4h-37.4ZM123.3,346.2c-.3-5.9-4.3-10.9-9.9-10.9s-9.8,4.4-10.8,10.9h20.7Z"/>
  <path d="M145.2,325.1h16.2v9.3h.2c2.4-6.8,8.1-10.3,15.3-10.3s2.6.1,3.9.4v15.9c-2.2-.6-4.1-1-6.4-1-8.2,0-12.6,5.9-12.6,12.6v26.3h-16.7v-53.2h.1Z"/>
  <path d="M235.7,371.8c0,8.7-1.6,25.1-25.4,25.1s-23-2.8-25-17h16.7c.4,2.4,1.3,3.8,2.8,4.6,1.5.8,3.5,1.1,6.1,1.1,7.9,0,8.7-5.8,8.7-12.4v-5h-.2c-3,4.9-8.1,7.8-13.5,7.8-15.4,0-22.4-11.5-22.4-26.4s7.9-26,22.4-26,10.7,2.8,13.6,8.2h.2v-6.7h16s0,46.7,0,46.7ZM210,336.9c-7.3,0-9.7,6.8-9.7,13.3s2.7,12.5,9.6,12.5,10.1-5.7,10.1-12.4c0-6.7-2.6-13.4-10-13.4"/>
  <path d="M257.9,356c.3,7.3,4.3,12.1,11.4,12.1s7.9-1.9,9.5-5.8h15.6c-3,12.3-13.9,17.6-25.3,17.6-16.6,0-27.8-10.4-27.8-28.3s12.5-28,27.5-28,27.4,14.3,26.6,32.4h-37.5ZM278.6,346.2c-.3-5.9-4.3-10.9-9.9-10.9s-9.8,4.4-10.8,10.9h20.7Z"/>
  <polygon points="314.8 304.8 366.8 304.8 366.8 320.2 333 320.2 333 335.2 362.3 335.2 362.3 350 333 350 333 378.3 314.8 378.3 314.8 304.8"/>
  <path d="M383.2,356c.3,7.3,4.3,12.1,11.4,12.1s7.9-1.9,9.5-5.8h15.6c-3,12.3-13.9,17.6-25.3,17.6-16.6,0-27.8-10.4-27.8-28.3s12.4-28,27.5-28,27.4,14.3,26.6,32.4h-37.5ZM403.9,346.2c-.3-5.9-4.3-10.9-9.9-10.9s-9.8,4.4-10.8,10.9h20.7Z"/>
  <path d="M425.8,325.1h16.2v9.3h.2c2.4-6.8,8.1-10.3,15.3-10.3s2.6.1,3.9.4v15.9c-2.2-.6-4.1-1-6.4-1-8.2,0-12.5,5.9-12.5,12.6v26.3h-16.7v-53.2Z"/>
  <path d="M467.8,325.1h16.2v9.3h.2c2.4-6.8,8.1-10.3,15.3-10.3s2.6.1,3.9.4v15.9c-2.2-.6-4.1-1-6.4-1-8.2,0-12.5,5.9-12.5,12.6v26.3h-16.7v-53.2Z"/>
  <path d="M507.6,341.5c.3-6.9,3.4-11.5,7.9-14.2,4.5-2.6,10.4-3.7,16.2-3.7,12.1,0,23.7,2.8,23.7,17.8v23.2c0,4.5,0,9.4,2,13.6h-16.8c-.6-1.6-.8-3.3-1-5-4.3,4.7-10.7,6.6-16.8,6.6-9.7,0-17.4-5.1-17.4-16.1,0-17.3,18.1-16,29.6-18.4,2.8-.6,4.4-1.6,4.4-4.9s-4.6-5.5-8.1-5.5-7.5,2.2-8.3,6.7h-15.4ZM528.1,369.1c7.9,0,10.6-4.7,10.2-15.7-2.4,1.5-6.7,1.9-10.3,2.9-3.7.9-6.9,2.6-6.9,6.8.1,4.2,3.3,6,7,6"/>
  <path d="M563.1,325.1h16.2v9.3h.2c2.4-6.8,8.1-10.3,15.3-10.3s2.6.1,3.9.4v15.9c-2.2-.6-4.1-1-6.4-1-8.2,0-12.6,5.9-12.6,12.6v26.3h-16.7v-53.2h0Z"/>
  <rect x="604.8" y="325.1" width="16.7" height="53.1"/>
  <rect x="604.8" y="304.8" width="16.7" height="13.3"/>
  <path d="M468.5,276.1c11.6,11.9,25.5,20.7,41.3,25.2,39.5,11.3,81.3-6.6,111.7-42.8-25.9-18.2-54.5-19.9-88.7,7.8,0,0-35.5,31-64.3,9.8"/>
</svg>