<?xml version="1.0" encoding="UTF-8" standalone="no"?>
<!-- Created with Inkscape (http://www.inkscape.org/) -->

<svg
   version="1.1"
   id="svg2"
   xml:space="preserve"
   width="321.92001"
   height="43.773335"
   viewBox="0 0 321.92001 43.773335"
   sodipodi:docname="TEMPOTEST_CENTENARIO_NEG_ORIZZ_BOLD.eps"
   xmlns:inkscape="http://www.inkscape.org/namespaces/inkscape"
   xmlns:sodipodi="http://sodipodi.sourceforge.net/DTD/sodipodi-0.dtd"
   xmlns="http://www.w3.org/2000/svg"
   xmlns:svg="http://www.w3.org/2000/svg"><defs
     id="defs6" /><sodipodi:namedview
     id="namedview4"
     pagecolor="#ffffff"
     bordercolor="#666666"
     borderopacity="1.0"
     inkscape:pageshadow="2"
     inkscape:pageopacity="0.0"
     inkscape:pagecheckerboard="0" /><g
     id="g8"
     inkscape:groupmode="layer"
     inkscape:label="ink_ext_XXXXXX"
     transform="matrix(1.3333333,0,0,-1.3333333,0,43.773333)"><g
       id="g10"
       transform="scale(0.1)"><path
         d="M 7.96484,41.3203 V 2.98828 H 5 V 41.3203 h 2.96484 v 0"
         style="fill:#ffffff;fill-opacity:1;fill-rule:nonzero;stroke:none"
         id="path12" /><path
         d="M 7.96484,41.3203 V 2.98828 H 5 V 41.3203 h 2.96484 z"
         style="fill:none;stroke:#ffffff;stroke-width:5;stroke-linecap:butt;stroke-linejoin:miter;stroke-miterlimit:10;stroke-dasharray:none;stroke-opacity:1"
         id="path14" /><path
         d="M 72.3359,41.3203 V 38.8281 H 57.9609 V 2.98828 H 54.9688 V 38.8281 H 40.6016 v 2.4922 h 31.7343 v 0"
         style="fill:#ffffff;fill-opacity:1;fill-rule:nonzero;stroke:none"
         id="path16" /><path
         d="M 72.3359,41.3203 V 38.8281 H 57.9609 V 2.98828 H 54.9688 V 38.8281 H 40.6016 v 2.4922 h 31.7343 z"
         style="fill:none;stroke:#ffffff;stroke-width:5;stroke-linecap:butt;stroke-linejoin:miter;stroke-miterlimit:10;stroke-dasharray:none;stroke-opacity:1"
         id="path18" /><path
         d="m 122.012,18.7031 -8.258,18.0547 -8.223,-18.0547 h 16.481 z m -7.41,22.8789 17.707,-38.59372 h -3.11 L 123.141,16.2422 H 104.398 L 98.3672,2.98828 H 95.2578 L 112.969,41.582 h 1.633 v 0"
         style="fill:#ffffff;fill-opacity:1;fill-rule:nonzero;stroke:none"
         id="path20" /><path
         d="m 122.012,18.7031 -8.258,18.0547 -8.223,-18.0547 h 16.481 z m -7.41,22.8789 17.707,-38.59372 h -3.11 L 123.141,16.2422 H 104.398 L 98.3672,2.98828 H 95.2578 L 112.969,41.582 h 1.633 z"
         style="fill:none;stroke:#ffffff;stroke-width:5;stroke-linecap:butt;stroke-linejoin:miter;stroke-miterlimit:10;stroke-dasharray:none;stroke-opacity:1"
         id="path22" /><path
         d="M 167.988,41.3203 V 5.46094 h 18.953 V 2.98828 H 165.027 V 41.3203 h 2.961 v 0"
         style="fill:#ffffff;fill-opacity:1;fill-rule:nonzero;stroke:none"
         id="path24" /><path
         d="M 167.988,41.3203 V 5.46094 h 18.953 V 2.98828 H 165.027 V 41.3203 h 2.961 z"
         style="fill:none;stroke:#ffffff;stroke-width:5;stroke-linecap:butt;stroke-linejoin:miter;stroke-miterlimit:10;stroke-dasharray:none;stroke-opacity:1"
         id="path26" /><path
         d="M 222.379,41.3203 V 2.98828 H 219.41 V 41.3203 h 2.969 v 0"
         style="fill:#ffffff;fill-opacity:1;fill-rule:nonzero;stroke:none"
         id="path28" /><path
         d="M 222.379,41.3203 V 2.98828 H 219.41 V 41.3203 h 2.969 z"
         style="fill:none;stroke:#ffffff;stroke-width:5;stroke-linecap:butt;stroke-linejoin:miter;stroke-miterlimit:10;stroke-dasharray:none;stroke-opacity:1"
         id="path30" /><path
         d="m 281.762,18.7031 -8.25,18.0547 -8.231,-18.0547 h 16.481 z M 274.348,41.582 292.055,2.98828 h -3.102 L 282.895,16.2422 H 264.156 L 258.113,2.98828 h -3.101 L 272.727,41.582 h 1.621 v 0"
         style="fill:#ffffff;fill-opacity:1;fill-rule:nonzero;stroke:none"
         id="path32" /><path
         d="m 281.762,18.7031 -8.25,18.0547 -8.231,-18.0547 h 16.481 z M 274.348,41.582 292.055,2.98828 h -3.102 L 282.895,16.2422 H 264.156 L 258.113,2.98828 h -3.101 L 272.727,41.582 h 1.621 z"
         style="fill:none;stroke:#ffffff;stroke-width:5;stroke-linecap:butt;stroke-linejoin:miter;stroke-miterlimit:10;stroke-dasharray:none;stroke-opacity:1"
         id="path34" /><path
         d="M 359.254,41.3203 V 2.98828 H 356.82 L 327.691,36.4766 V 2.98828 H 324.73 V 41.3203 h 2.504 L 356.293,7.82422 V 41.3203 h 2.961 v 0"
         style="fill:#ffffff;fill-opacity:1;fill-rule:nonzero;stroke:none"
         id="path36" /><path
         d="M 359.254,41.3203 V 2.98828 H 356.82 L 327.691,36.4766 V 2.98828 H 324.73 V 41.3203 h 2.504 L 356.293,7.82422 V 41.3203 h 2.961 z"
         style="fill:none;stroke:#ffffff;stroke-width:5;stroke-linecap:butt;stroke-linejoin:miter;stroke-miterlimit:10;stroke-dasharray:none;stroke-opacity:1"
         id="path38" /><path
         d="m 442.77,38.8281 v -15.457 h 7.132 c 3.188,0 5.625,0.6836 7.293,2.0312 1.668,1.3438 2.496,3.2579 2.496,5.7305 0,2.3633 -0.82,4.2305 -2.445,5.625 -1.625,1.3867 -3.961,2.0703 -6.992,2.0703 h -7.484 z m -2.961,2.4922 h 10.546 c 4.047,0 7.141,-0.918 9.293,-2.7344 2.149,-1.8086 3.223,-4.2773 3.223,-7.3945 0,-3.1641 -1.086,-5.6719 -3.246,-7.5195 -2.176,-1.8438 -5.348,-2.7735 -9.535,-2.7735 h -7.32 V 2.98828 h -2.961 v 38.33202 0"
         style="fill:#ffffff;fill-opacity:1;fill-rule:nonzero;stroke:none"
         id="path40" /><path
         d="m 442.77,38.8281 v -15.457 h 7.132 c 3.188,0 5.625,0.6836 7.293,2.0312 1.668,1.3438 2.496,3.2579 2.496,5.7305 0,2.3633 -0.82,4.2305 -2.445,5.625 -1.625,1.3867 -3.961,2.0703 -6.992,2.0703 h -7.484 z m -2.961,2.4922 h 10.546 c 4.047,0 7.141,-0.918 9.293,-2.7344 2.149,-1.8086 3.223,-4.2773 3.223,-7.3945 0,-3.1641 -1.086,-5.6719 -3.246,-7.5195 -2.176,-1.8438 -5.348,-2.7735 -9.535,-2.7735 h -7.32 V 2.98828 h -2.961 V 41.3203 Z"
         style="fill:none;stroke:#ffffff;stroke-width:5;stroke-linecap:butt;stroke-linejoin:miter;stroke-miterlimit:10;stroke-dasharray:none;stroke-opacity:1"
         id="path42" /><path
         d="M 517.535,41.3203 V 38.8281 H 499.602 V 23.5078 h 17.461 v -2.5 H 499.602 V 5.46094 h 18.367 V 2.98828 H 496.637 V 41.3203 h 20.898 v 0"
         style="fill:#ffffff;fill-opacity:1;fill-rule:nonzero;stroke:none"
         id="path44" /><path
         d="M 517.535,41.3203 V 38.8281 H 499.602 V 23.5078 h 17.461 v -2.5 H 499.602 V 5.46094 h 18.367 V 2.98828 H 496.637 V 41.3203 h 20.898 z"
         style="fill:none;stroke:#ffffff;stroke-width:5;stroke-linecap:butt;stroke-linejoin:miter;stroke-miterlimit:10;stroke-dasharray:none;stroke-opacity:1"
         id="path46" /><path
         d="M 555.16,38.8281 V 23.8398 h 6.36 c 3.242,0 5.707,0.6524 7.418,1.961 1.714,1.3008 2.566,3.1523 2.566,5.5586 0,2.3515 -0.875,4.1875 -2.609,5.5078 -1.731,1.3086 -4.231,1.9609 -7.477,1.9609 h -6.258 z m -2.969,2.4922 h 9.825 c 4.113,0 7.257,-0.8984 9.429,-2.6758 2.172,-1.8086 3.274,-4.2109 3.274,-7.2382 0,-4.4219 -2.438,-7.5274 -7.301,-9.3282 1.266,-0.6015 2.965,-2.5468 5.098,-5.8359 l 8.668,-13.25392 h -3.508 l -6.668,10.50002 c -2.238,3.5156 -3.965,5.7031 -5.211,6.582 -1.246,0.8672 -3.063,1.2969 -5.461,1.2969 H 555.16 V 2.98828 h -2.969 v 38.33202 0"
         style="fill:#ffffff;fill-opacity:1;fill-rule:nonzero;stroke:none"
         id="path48" /><path
         d="M 555.16,38.8281 V 23.8398 h 6.36 c 3.242,0 5.707,0.6524 7.418,1.961 1.714,1.3008 2.566,3.1523 2.566,5.5586 0,2.3515 -0.875,4.1875 -2.609,5.5078 -1.731,1.3086 -4.231,1.9609 -7.477,1.9609 h -6.258 z m -2.969,2.4922 h 9.825 c 4.113,0 7.257,-0.8984 9.429,-2.6758 2.172,-1.8086 3.274,-4.2109 3.274,-7.2382 0,-4.4219 -2.438,-7.5274 -7.301,-9.3282 1.266,-0.6015 2.965,-2.5468 5.098,-5.8359 l 8.668,-13.25392 h -3.508 l -6.668,10.50002 c -2.238,3.5156 -3.965,5.7031 -5.211,6.582 -1.246,0.8672 -3.063,1.2969 -5.461,1.2969 H 555.16 V 2.98828 h -2.969 V 41.3203 Z"
         style="fill:none;stroke:#ffffff;stroke-width:5;stroke-linecap:butt;stroke-linejoin:miter;stroke-miterlimit:10;stroke-dasharray:none;stroke-opacity:1"
         id="path50" /><path
         d="M 632.141,41.3203 V 38.8281 H 615.383 V 24.2773 h 15.113 V 21.8086 H 615.383 V 2.98828 h -2.961 V 41.3203 h 19.719 v 0"
         style="fill:#ffffff;fill-opacity:1;fill-rule:nonzero;stroke:none"
         id="path52" /><path
         d="M 632.141,41.3203 V 38.8281 H 615.383 V 24.2773 h 15.113 V 21.8086 H 615.383 V 2.98828 h -2.961 V 41.3203 h 19.719 z"
         style="fill:none;stroke:#ffffff;stroke-width:5;stroke-linecap:butt;stroke-linejoin:miter;stroke-miterlimit:10;stroke-dasharray:none;stroke-opacity:1"
         id="path54" /><path
         d="m 683.906,5.24609 c 4.766,0 8.789,1.62891 12.071,4.89061 3.277,3.2617 4.921,7.2735 4.921,12.0039 0,4.7344 -1.644,8.7578 -4.921,12.0196 -3.282,3.2617 -7.305,4.8945 -12.071,4.8945 -4.785,0 -8.843,-1.6328 -12.148,-4.8945 -3.32,-3.2618 -4.981,-7.2852 -4.981,-12.0196 0,-4.7304 1.661,-8.7422 4.981,-12.0039 3.305,-3.2617 7.363,-4.89061 12.148,-4.89061 z m -0.105,36.55081 c 5.656,0 10.457,-1.9024 14.398,-5.711 3.942,-3.8086 5.906,-8.4687 5.906,-13.9453 0,-5.4687 -1.964,-10.1093 -5.906,-13.91794 C 694.258,4.40625 689.457,2.5 683.801,2.5 c -5.653,0 -10.438,1.90625 -14.352,5.72266 -3.918,3.80864 -5.875,8.44924 -5.875,13.91794 0,5.4766 1.957,10.1367 5.875,13.9453 3.914,3.8086 8.699,5.711 14.352,5.711 v 0"
         style="fill:#ffffff;fill-opacity:1;fill-rule:nonzero;stroke:none"
         id="path56" /><path
         d="m 683.906,5.24609 c 4.766,0 8.789,1.62891 12.071,4.89061 3.277,3.2617 4.921,7.2735 4.921,12.0039 0,4.7344 -1.644,8.7578 -4.921,12.0196 -3.282,3.2617 -7.305,4.8945 -12.071,4.8945 -4.785,0 -8.843,-1.6328 -12.148,-4.8945 -3.32,-3.2618 -4.981,-7.2852 -4.981,-12.0196 0,-4.7304 1.661,-8.7422 4.981,-12.0039 3.305,-3.2617 7.363,-4.89061 12.148,-4.89061 z m -0.105,36.55081 c 5.656,0 10.457,-1.9024 14.398,-5.711 3.942,-3.8086 5.906,-8.4687 5.906,-13.9453 0,-5.4687 -1.964,-10.1093 -5.906,-13.91794 C 694.258,4.40625 689.457,2.5 683.801,2.5 c -5.653,0 -10.438,1.90625 -14.352,5.72266 -3.918,3.80864 -5.875,8.44924 -5.875,13.91794 0,5.4766 1.957,10.1367 5.875,13.9453 3.914,3.8086 8.699,5.711 14.352,5.711 z"
         style="fill:none;stroke:#ffffff;stroke-width:5;stroke-linecap:butt;stroke-linejoin:miter;stroke-miterlimit:10;stroke-dasharray:none;stroke-opacity:1"
         id="path58" /><path
         d="M 742.445,38.8281 V 23.8398 h 6.364 c 3.238,0 5.711,0.6524 7.418,1.961 1.711,1.3008 2.562,3.1523 2.562,5.5586 0,2.3515 -0.867,4.1875 -2.605,5.5078 -1.731,1.3086 -4.235,1.9609 -7.493,1.9609 h -6.246 z m -2.957,2.4922 h 9.821 c 4.105,0 7.25,-0.8984 9.425,-2.6758 2.18,-1.8086 3.27,-4.2109 3.27,-7.2382 0,-4.4219 -2.438,-7.5274 -7.301,-9.3282 1.266,-0.6015 2.969,-2.5468 5.102,-5.8359 l 8.664,-13.25392 h -3.508 l -6.668,10.50002 c -2.234,3.5156 -3.969,5.7031 -5.211,6.582 -1.246,0.8672 -3.062,1.2969 -5.449,1.2969 h -5.188 V 2.98828 h -2.957 v 38.33202 0"
         style="fill:#ffffff;fill-opacity:1;fill-rule:nonzero;stroke:none"
         id="path60" /><path
         d="M 742.445,38.8281 V 23.8398 h 6.364 c 3.238,0 5.711,0.6524 7.418,1.961 1.711,1.3008 2.562,3.1523 2.562,5.5586 0,2.3515 -0.867,4.1875 -2.605,5.5078 -1.731,1.3086 -4.235,1.9609 -7.493,1.9609 h -6.246 z m -2.957,2.4922 h 9.821 c 4.105,0 7.25,-0.8984 9.425,-2.6758 2.18,-1.8086 3.27,-4.2109 3.27,-7.2382 0,-4.4219 -2.438,-7.5274 -7.301,-9.3282 1.266,-0.6015 2.969,-2.5468 5.102,-5.8359 l 8.664,-13.25392 h -3.508 l -6.668,10.50002 c -2.234,3.5156 -3.969,5.7031 -5.211,6.582 -1.246,0.8672 -3.062,1.2969 -5.449,1.2969 h -5.188 V 2.98828 h -2.957 V 41.3203 Z"
         style="fill:none;stroke:#ffffff;stroke-width:5;stroke-linecap:butt;stroke-linejoin:miter;stroke-miterlimit:10;stroke-dasharray:none;stroke-opacity:1"
         id="path62" /><path
         d="m 817.266,23.5078 14.55,17.8125 h 2.997 V 2.98828 h -2.989 V 36.9727 L 817.246,19.0742 802.617,36.9727 V 2.98828 h -2.965 V 41.3203 h 2.965 l 14.649,-17.8125 v 0"
         style="fill:#ffffff;fill-opacity:1;fill-rule:nonzero;stroke:none"
         id="path64" /><path
         d="m 817.266,23.5078 14.55,17.8125 h 2.997 V 2.98828 h -2.989 V 36.9727 L 817.246,19.0742 802.617,36.9727 V 2.98828 h -2.965 V 41.3203 h 2.965 l 14.649,-17.8125 z"
         style="fill:none;stroke:#ffffff;stroke-width:5;stroke-linecap:butt;stroke-linejoin:miter;stroke-miterlimit:10;stroke-dasharray:none;stroke-opacity:1"
         id="path66" /><path
         d="m 894.238,18.7031 -8.261,18.0547 -8.227,-18.0547 h 16.488 z M 886.816,41.582 904.52,2.98828 h -3.102 L 895.359,16.2422 H 876.625 L 870.586,2.98828 H 867.48 L 885.191,41.582 h 1.625 v 0"
         style="fill:#ffffff;fill-opacity:1;fill-rule:nonzero;stroke:none"
         id="path68" /><path
         d="m 894.238,18.7031 -8.261,18.0547 -8.227,-18.0547 h 16.488 z M 886.816,41.582 904.52,2.98828 h -3.102 L 895.359,16.2422 H 876.625 L 870.586,2.98828 H 867.48 L 885.191,41.582 h 1.625 z"
         style="fill:none;stroke:#ffffff;stroke-width:5;stroke-linecap:butt;stroke-linejoin:miter;stroke-miterlimit:10;stroke-dasharray:none;stroke-opacity:1"
         id="path70" /><path
         d="M 971.723,41.3203 V 2.98828 h -2.442 L 940.152,36.4766 V 2.98828 h -2.961 V 41.3203 h 2.504 L 968.762,7.82422 V 41.3203 h 2.961 v 0"
         style="fill:#ffffff;fill-opacity:1;fill-rule:nonzero;stroke:none"
         id="path72" /><path
         d="M 971.723,41.3203 V 2.98828 h -2.442 L 940.152,36.4766 V 2.98828 h -2.961 V 41.3203 h 2.504 L 968.762,7.82422 V 41.3203 h 2.961 z"
         style="fill:none;stroke:#ffffff;stroke-width:5;stroke-linecap:butt;stroke-linejoin:miter;stroke-miterlimit:10;stroke-dasharray:none;stroke-opacity:1"
         id="path74" /><path
         d="m 1040.53,38.5859 v -3.2343 c -4.64,2.4804 -9.2,3.7031 -13.66,3.7031 -4.75,0 -8.73,-1.6133 -11.93,-4.8555 -3.2,-3.2304 -4.79,-7.2734 -4.79,-12.1211 0,-4.8906 1.61,-8.9336 4.83,-12.08591 3.21,-3.16406 7.32,-4.7461 12.31,-4.7461 4.16,0 8.71,1.29688 13.63,3.92579 V 6.08594 C 1036.38,3.69141 1031.86,2.5 1027.34,2.5 c -5.83,0 -10.69,1.875 -14.58,5.61719 -3.88,3.73051 -5.83,8.38671 -5.83,13.96091 0,5.6172 1.99,10.3047 5.96,14.0742 3.97,3.7579 8.69,5.6446 14.18,5.6446 4.31,0 8.8,-1.0625 13.46,-3.211 v 0"
         style="fill:#ffffff;fill-opacity:1;fill-rule:nonzero;stroke:none"
         id="path76" /><path
         d="m 1040.53,38.5859 v -3.2343 c -4.64,2.4804 -9.2,3.7031 -13.66,3.7031 -4.75,0 -8.73,-1.6133 -11.93,-4.8555 -3.2,-3.2304 -4.79,-7.2734 -4.79,-12.1211 0,-4.8906 1.61,-8.9336 4.83,-12.08591 3.21,-3.16406 7.32,-4.7461 12.31,-4.7461 4.16,0 8.71,1.29688 13.63,3.92579 V 6.08594 C 1036.38,3.69141 1031.86,2.5 1027.34,2.5 c -5.83,0 -10.69,1.875 -14.58,5.61719 -3.88,3.73051 -5.83,8.38671 -5.83,13.96091 0,5.6172 1.99,10.3047 5.96,14.0742 3.97,3.7579 8.69,5.6446 14.18,5.6446 4.31,0 8.8,-1.0625 13.46,-3.211 z"
         style="fill:none;stroke:#ffffff;stroke-width:5;stroke-linecap:butt;stroke-linejoin:miter;stroke-miterlimit:10;stroke-dasharray:none;stroke-opacity:1"
         id="path78" /><path
         d="m 1095.68,41.3203 v -2.4922 h -17.93 V 23.5078 h 17.47 v -2.5 h -17.47 V 5.46094 h 18.37 V 2.98828 h -21.33 V 41.3203 h 20.89 v 0"
         style="fill:#ffffff;fill-opacity:1;fill-rule:nonzero;stroke:none"
         id="path80" /><path
         d="m 1095.68,41.3203 v -2.4922 h -17.93 V 23.5078 h 17.47 v -2.5 h -17.47 V 5.46094 h 18.37 V 2.98828 h -21.33 V 41.3203 h 20.89 z"
         style="fill:none;stroke:#ffffff;stroke-width:5;stroke-linecap:butt;stroke-linejoin:miter;stroke-miterlimit:10;stroke-dasharray:none;stroke-opacity:1"
         id="path82" /><path
         d="m 1193.7,41.3203 v -2.4922 h -16.75 V 24.2773 h 15.11 v -2.4687 h -15.11 V 2.98828 h -2.97 V 41.3203 h 19.72 v 0"
         style="fill:#ffffff;fill-opacity:1;fill-rule:nonzero;stroke:none"
         id="path84" /><path
         d="m 1193.7,41.3203 v -2.4922 h -16.75 V 24.2773 h 15.11 v -2.4687 h -15.11 V 2.98828 h -2.97 V 41.3203 h 19.72 z"
         style="fill:none;stroke:#ffffff;stroke-width:5;stroke-linecap:butt;stroke-linejoin:miter;stroke-miterlimit:10;stroke-dasharray:none;stroke-opacity:1"
         id="path86" /><path
         d="m 1247,18.7031 -8.25,18.0547 -8.23,-18.0547 H 1247 Z m -7.42,22.8789 17.72,-38.59372 h -3.11 l -6.06,13.25392 h -18.73 l -6.05,-13.25392 h -3.1 l 17.71,38.59372 h 1.62 v 0"
         style="fill:#ffffff;fill-opacity:1;fill-rule:nonzero;stroke:none"
         id="path88" /><path
         d="m 1247,18.7031 -8.25,18.0547 -8.23,-18.0547 H 1247 Z m -7.42,22.8789 17.72,-38.59372 h -3.11 l -6.06,13.25392 h -18.73 l -6.05,-13.25392 h -3.1 l 17.71,38.59372 h 1.62 z"
         style="fill:none;stroke:#ffffff;stroke-width:5;stroke-linecap:butt;stroke-linejoin:miter;stroke-miterlimit:10;stroke-dasharray:none;stroke-opacity:1"
         id="path90" /><path
         d="M 1293.03,21.0664 V 5.46094 h 7.94 c 3.26,0 5.75,0.69922 7.45,2.10937 1.71,1.41407 2.55,3.28909 2.55,5.65239 0,5.2343 -3.76,7.8437 -11.3,7.8437 h -6.64 z m 0,17.7617 V 23.5547 h 4.12 c 6.98,0 10.45,2.5508 10.45,7.6367 0,5.0977 -3.51,7.6367 -10.55,7.6367 h -4.02 z m -2.95,2.4922 h 7.98 c 4.18,0 7.36,-0.8906 9.52,-2.6484 2.15,-1.7461 3.23,-4.1797 3.23,-7.2656 0,-3.7032 -1.84,-6.5352 -5.5,-8.5352 5.9,-1.2695 8.85,-4.5117 8.85,-9.707 0,-3.1055 -1.15,-5.58597 -3.47,-7.42191 -2.32,-1.83594 -5.44,-2.75391 -9.4,-2.75391 h -11.21 v 38.33202 0"
         style="fill:#ffffff;fill-opacity:1;fill-rule:nonzero;stroke:none"
         id="path92" /><path
         d="M 1293.03,21.0664 V 5.46094 h 7.94 c 3.26,0 5.75,0.69922 7.45,2.10937 1.71,1.41407 2.55,3.28909 2.55,5.65239 0,5.2343 -3.76,7.8437 -11.3,7.8437 h -6.64 z m 0,17.7617 V 23.5547 h 4.12 c 6.98,0 10.45,2.5508 10.45,7.6367 0,5.0977 -3.51,7.6367 -10.55,7.6367 h -4.02 z m -2.95,2.4922 h 7.98 c 4.18,0 7.36,-0.8906 9.52,-2.6484 2.15,-1.7461 3.23,-4.1797 3.23,-7.2656 0,-3.7032 -1.84,-6.5352 -5.5,-8.5352 5.9,-1.2695 8.85,-4.5117 8.85,-9.707 0,-3.1055 -1.15,-5.58597 -3.47,-7.42191 -2.32,-1.83594 -5.44,-2.75391 -9.4,-2.75391 h -11.21 V 41.3203 Z"
         style="fill:none;stroke:#ffffff;stroke-width:5;stroke-linecap:butt;stroke-linejoin:miter;stroke-miterlimit:10;stroke-dasharray:none;stroke-opacity:1"
         id="path94" /><path
         d="M 1350.87,38.8281 V 23.8398 h 6.37 c 3.23,0 5.71,0.6524 7.42,1.961 1.7,1.3008 2.57,3.1523 2.57,5.5586 0,2.3515 -0.87,4.1875 -2.61,5.5078 -1.74,1.3086 -4.23,1.9609 -7.49,1.9609 h -6.26 z m -2.95,2.4922 h 9.81 c 4.12,0 7.27,-0.8984 9.44,-2.6758 2.18,-1.8086 3.26,-4.2109 3.26,-7.2382 0,-4.4219 -2.43,-7.5274 -7.29,-9.3282 1.27,-0.6015 2.97,-2.5468 5.11,-5.8359 l 8.66,-13.25392 h -3.52 l -6.67,10.50002 c -2.22,3.5156 -3.96,5.7031 -5.2,6.582 -1.24,0.8672 -3.07,1.2969 -5.45,1.2969 h -5.2 V 2.98828 h -2.95 v 38.33202 0"
         style="fill:#ffffff;fill-opacity:1;fill-rule:nonzero;stroke:none"
         id="path96" /><path
         d="M 1350.87,38.8281 V 23.8398 h 6.37 c 3.23,0 5.71,0.6524 7.42,1.961 1.7,1.3008 2.57,3.1523 2.57,5.5586 0,2.3515 -0.87,4.1875 -2.61,5.5078 -1.74,1.3086 -4.23,1.9609 -7.49,1.9609 h -6.26 z m -2.95,2.4922 h 9.81 c 4.12,0 7.27,-0.8984 9.44,-2.6758 2.18,-1.8086 3.26,-4.2109 3.26,-7.2382 0,-4.4219 -2.43,-7.5274 -7.29,-9.3282 1.27,-0.6015 2.97,-2.5468 5.11,-5.8359 l 8.66,-13.25392 h -3.52 l -6.67,10.50002 c -2.22,3.5156 -3.96,5.7031 -5.2,6.582 -1.24,0.8672 -3.07,1.2969 -5.45,1.2969 h -5.2 V 2.98828 h -2.95 V 41.3203 Z"
         style="fill:none;stroke:#ffffff;stroke-width:5;stroke-linecap:butt;stroke-linejoin:miter;stroke-miterlimit:10;stroke-dasharray:none;stroke-opacity:1"
         id="path98" /><path
         d="M 1411.11,41.3203 V 2.98828 h -2.96 V 41.3203 h 2.96 v 0"
         style="fill:#ffffff;fill-opacity:1;fill-rule:nonzero;stroke:none"
         id="path100" /><path
         d="M 1411.11,41.3203 V 2.98828 h -2.96 V 41.3203 h 2.96 z"
         style="fill:none;stroke:#ffffff;stroke-width:5;stroke-linecap:butt;stroke-linejoin:miter;stroke-miterlimit:10;stroke-dasharray:none;stroke-opacity:1"
         id="path102" /><path
         d="m 1479.87,38.5859 v -3.2343 c -4.65,2.4804 -9.2,3.7031 -13.67,3.7031 -4.75,0 -8.72,-1.6133 -11.93,-4.8555 -3.19,-3.2304 -4.79,-7.2734 -4.79,-12.1211 0,-4.8906 1.6,-8.9336 4.82,-12.08591 3.21,-3.16406 7.33,-4.7461 12.32,-4.7461 4.17,0 8.71,1.29688 13.63,3.92579 V 6.08594 C 1475.71,3.69141 1471.19,2.5 1466.67,2.5 c -5.84,0 -10.69,1.875 -14.59,5.61719 -3.87,3.73051 -5.82,8.38671 -5.82,13.96091 0,5.6172 2,10.3047 5.95,14.0742 3.97,3.7579 8.7,5.6446 14.18,5.6446 4.32,0 8.82,-1.0625 13.48,-3.211 v 0"
         style="fill:#ffffff;fill-opacity:1;fill-rule:nonzero;stroke:none"
         id="path104" /><path
         d="m 1479.87,38.5859 v -3.2343 c -4.65,2.4804 -9.2,3.7031 -13.67,3.7031 -4.75,0 -8.72,-1.6133 -11.93,-4.8555 -3.19,-3.2304 -4.79,-7.2734 -4.79,-12.1211 0,-4.8906 1.6,-8.9336 4.82,-12.08591 3.21,-3.16406 7.33,-4.7461 12.32,-4.7461 4.17,0 8.71,1.29688 13.63,3.92579 V 6.08594 C 1475.71,3.69141 1471.19,2.5 1466.67,2.5 c -5.84,0 -10.69,1.875 -14.59,5.61719 -3.87,3.73051 -5.82,8.38671 -5.82,13.96091 0,5.6172 2,10.3047 5.95,14.0742 3.97,3.7579 8.7,5.6446 14.18,5.6446 4.32,0 8.82,-1.0625 13.48,-3.211 z"
         style="fill:none;stroke:#ffffff;stroke-width:5;stroke-linecap:butt;stroke-linejoin:miter;stroke-miterlimit:10;stroke-dasharray:none;stroke-opacity:1"
         id="path106" /><path
         d="m 1532.08,39.3867 v -3.2656 c -3.33,1.957 -6.18,2.9336 -8.59,2.9336 -2.29,0 -4.23,-0.6953 -5.77,-2.0899 -1.54,-1.4062 -2.31,-3.1367 -2.31,-5.207 0,-1.4726 0.45,-2.8125 1.36,-3.9922 0.92,-1.2031 2.82,-2.3359 5.74,-3.4375 2.91,-1.0937 5.02,-2.0039 6.36,-2.7461 1.34,-0.7226 2.46,-1.7851 3.4,-3.1718 0.94,-1.3868 1.4,-3.1954 1.4,-5.4141 0,-2.9375 -1.08,-5.42579 -3.24,-7.44922 -2.15,-2.03125 -4.78,-3.04688 -7.9,-3.04688 -3.17,0 -6.45,1.11328 -9.81,3.35156 v 3.47657 c 3.71,-2.72657 6.92,-4.08204 9.65,-4.08204 2.26,0 4.2,0.73047 5.75,2.20704 1.56,1.47265 2.34,3.26957 2.34,5.41797 0,1.6211 -0.48,3.0977 -1.45,4.3945 -0.97,1.3086 -2.94,2.5313 -5.89,3.6719 -2.97,1.1328 -5.08,2.0508 -6.35,2.7461 -1.27,0.7031 -2.35,1.6797 -3.24,2.9766 -0.89,1.289 -1.33,2.9414 -1.33,4.9726 0,2.8203 1.08,5.2031 3.24,7.1953 2.16,1.9727 4.75,2.9688 7.79,2.9688 2.97,0 5.94,-0.8008 8.85,-2.4102 v 0"
         style="fill:#ffffff;fill-opacity:1;fill-rule:nonzero;stroke:none"
         id="path108" /><path
         d="m 1532.08,39.3867 v -3.2656 c -3.33,1.957 -6.18,2.9336 -8.59,2.9336 -2.29,0 -4.23,-0.6953 -5.77,-2.0899 -1.54,-1.4062 -2.31,-3.1367 -2.31,-5.207 0,-1.4726 0.45,-2.8125 1.36,-3.9922 0.92,-1.2031 2.82,-2.3359 5.74,-3.4375 2.91,-1.0937 5.02,-2.0039 6.36,-2.7461 1.34,-0.7226 2.46,-1.7851 3.4,-3.1718 0.94,-1.3868 1.4,-3.1954 1.4,-5.4141 0,-2.9375 -1.08,-5.42579 -3.24,-7.44922 -2.15,-2.03125 -4.78,-3.04688 -7.9,-3.04688 -3.17,0 -6.45,1.11328 -9.81,3.35156 v 3.47657 c 3.71,-2.72657 6.92,-4.08204 9.65,-4.08204 2.26,0 4.2,0.73047 5.75,2.20704 1.56,1.47265 2.34,3.26957 2.34,5.41797 0,1.6211 -0.48,3.0977 -1.45,4.3945 -0.97,1.3086 -2.94,2.5313 -5.89,3.6719 -2.97,1.1328 -5.08,2.0508 -6.35,2.7461 -1.27,0.7031 -2.35,1.6797 -3.24,2.9766 -0.89,1.289 -1.33,2.9414 -1.33,4.9726 0,2.8203 1.08,5.2031 3.24,7.1953 2.16,1.9727 4.75,2.9688 7.79,2.9688 2.97,0 5.94,-0.8008 8.85,-2.4102 z"
         style="fill:none;stroke:#ffffff;stroke-width:5;stroke-linecap:butt;stroke-linejoin:miter;stroke-miterlimit:10;stroke-dasharray:none;stroke-opacity:1"
         id="path110" /><path
         d="m 1507.48,141.414 h 3.58 c 2.49,0 4.27,0.293 5.31,0.891 1.06,0.586 1.56,1.633 1.56,3.125 0,1.457 -0.46,2.453 -1.43,2.984 -0.95,0.535 -2.64,0.809 -5.04,0.809 h -3.98 v -7.809 z m -2.64,9.965 h 8.93 c 2.28,0 4.08,-0.516 5.38,-1.524 1.29,-1.023 1.94,-2.414 1.94,-4.218 0,-3.321 -1.95,-5.313 -5.89,-5.996 1.54,-0.93 2.66,-1.887 3.35,-2.864 0.7,-0.964 1.83,-3.308 3.38,-7.031 h -3.25 c -1.93,4.231 -3.44,6.867 -4.56,7.918 -1.11,1.059 -2.9,1.606 -5.37,1.606 h -1.27 v -9.524 h -2.64 v 21.633 z m 26.25,-10.578 c 0,4.933 -1.76,9.156 -5.29,12.691 -3.53,3.524 -7.76,5.289 -12.7,5.289 -4.94,0 -9.17,-1.765 -12.68,-5.289 -3.51,-3.535 -5.28,-7.758 -5.28,-12.691 0,-4.942 1.77,-9.168 5.28,-12.703 3.51,-3.528 7.74,-5.285 12.68,-5.285 4.94,0 9.17,1.757 12.7,5.285 3.53,3.535 5.29,7.761 5.29,12.703 z m -38.56,0 c 0,5.644 2.02,10.488 6.04,14.523 4.03,4.024 8.89,6.039 14.53,6.039 5.66,0 10.5,-2.015 14.52,-6.039 4.04,-4.035 6.05,-8.879 6.05,-14.523 0,-5.664 -2.01,-10.496 -6.05,-14.531 -4.02,-4.024 -8.86,-6.043 -14.52,-6.043 -5.64,0 -10.5,2.019 -14.53,6.043 -4.02,4.035 -6.04,8.867 -6.04,14.531 v 0"
         style="fill:#ffffff;fill-opacity:1;fill-rule:nonzero;stroke:none"
         id="path112" /><path
         d="m 1507.48,141.414 h 3.58 c 2.49,0 4.27,0.293 5.31,0.891 1.06,0.586 1.56,1.633 1.56,3.125 0,1.457 -0.46,2.453 -1.43,2.984 -0.95,0.535 -2.64,0.809 -5.04,0.809 h -3.98 v -7.809 z m -2.64,9.965 h 8.93 c 2.28,0 4.08,-0.516 5.38,-1.524 1.29,-1.023 1.94,-2.414 1.94,-4.218 0,-3.321 -1.95,-5.313 -5.89,-5.996 1.54,-0.93 2.66,-1.887 3.35,-2.864 0.7,-0.964 1.83,-3.308 3.38,-7.031 h -3.25 c -1.93,4.231 -3.44,6.867 -4.56,7.918 -1.11,1.059 -2.9,1.606 -5.37,1.606 h -1.27 v -9.524 h -2.64 v 21.633 z m 26.25,-10.578 c 0,4.933 -1.76,9.156 -5.29,12.691 -3.53,3.524 -7.76,5.289 -12.7,5.289 -4.94,0 -9.17,-1.765 -12.68,-5.289 -3.51,-3.535 -5.28,-7.758 -5.28,-12.691 0,-4.942 1.77,-9.168 5.28,-12.703 3.51,-3.528 7.74,-5.285 12.68,-5.285 4.94,0 9.17,1.757 12.7,5.285 3.53,3.535 5.29,7.761 5.29,12.703 z m -38.56,0 c 0,5.644 2.02,10.488 6.04,14.523 4.03,4.024 8.89,6.039 14.53,6.039 5.66,0 10.5,-2.015 14.52,-6.039 4.04,-4.035 6.05,-8.879 6.05,-14.523 0,-5.664 -2.01,-10.496 -6.05,-14.531 -4.02,-4.024 -8.86,-6.043 -14.52,-6.043 -5.64,0 -10.5,2.019 -14.53,6.043 -4.02,4.035 -6.04,8.867 -6.04,14.531 z"
         style="fill:none;stroke:#ffffff;stroke-width:2.5;stroke-linecap:butt;stroke-linejoin:miter;stroke-miterlimit:10;stroke-dasharray:none;stroke-opacity:1"
         id="path114" /><path
         d="M 171.094,320.766 V 307.844 H 95.8672 V 120.227 H 80.2188 V 307.844 H 5 v 12.922 h 166.094 v 0"
         style="fill:#ffffff;fill-opacity:1;fill-rule:nonzero;stroke:none"
         id="path116" /><path
         d="M 171.094,320.766 V 307.844 H 95.8672 V 120.227 H 80.2188 V 307.844 H 5 v 12.922 h 166.094 z"
         style="fill:none;stroke:#ffffff;stroke-width:10;stroke-linecap:butt;stroke-linejoin:miter;stroke-miterlimit:10;stroke-dasharray:none;stroke-opacity:1"
         id="path118" /><path
         d="m 305.309,320.766 v -12.922 h -93.883 v -80.242 h 91.445 v -13.063 h -91.445 v -81.394 h 96.176 v -12.918 h -111.68 v 200.539 h 109.387 v 0"
         style="fill:#ffffff;fill-opacity:1;fill-rule:nonzero;stroke:none"
         id="path120" /><path
         d="m 305.309,320.766 v -12.922 h -93.883 v -80.242 h 91.445 v -13.063 h -91.445 v -81.394 h 96.176 v -12.918 h -111.68 v 200.539 h 109.387 z"
         style="fill:none;stroke:#ffffff;stroke-width:10;stroke-linecap:butt;stroke-linejoin:miter;stroke-miterlimit:10;stroke-dasharray:none;stroke-opacity:1"
         id="path122" /><path
         d="m 431.348,227.629 76.175,93.137 h 15.696 V 120.227 H 507.574 V 298.086 L 431.27,204.34 354.688,298.086 V 120.227 h -15.504 v 200.539 h 15.511 l 76.653,-93.137 v 0"
         style="fill:#ffffff;fill-opacity:1;fill-rule:nonzero;stroke:none"
         id="path124" /><path
         d="m 431.348,227.629 76.175,93.137 h 15.696 V 120.227 H 507.574 V 298.086 L 431.27,204.34 354.688,298.086 V 120.227 h -15.504 v 200.539 h 15.511 l 76.653,-93.137 z"
         style="fill:none;stroke:#ffffff;stroke-width:10;stroke-linecap:butt;stroke-linejoin:miter;stroke-miterlimit:10;stroke-dasharray:none;stroke-opacity:1"
         id="path126" /><path
         d="m 584.516,307.844 v -80.965 h 37.332 c 16.738,0 29.465,3.547 38.172,10.625 8.71,7.078 13.07,17.086 13.07,30 0,12.344 -4.262,22.16 -12.781,29.43 -8.516,7.281 -20.719,10.91 -36.61,10.91 h -39.183 z m -15.5,12.922 h 55.265 c 21.149,0 37.352,-4.735 48.59,-14.211 11.238,-9.473 16.863,-22.395 16.863,-38.762 0,-16.563 -5.668,-29.668 -17.004,-39.332 -11.343,-9.668 -27.972,-14.5 -49.886,-14.5 h -38.328 v -93.734 h -15.5 v 200.539 0"
         style="fill:#ffffff;fill-opacity:1;fill-rule:nonzero;stroke:none"
         id="path128" /><path
         d="m 584.516,307.844 v -80.965 h 37.332 c 16.738,0 29.465,3.547 38.172,10.625 8.71,7.078 13.07,17.086 13.07,30 0,12.344 -4.262,22.16 -12.781,29.43 -8.516,7.281 -20.719,10.91 -36.61,10.91 h -39.183 z m -15.5,12.922 h 55.265 c 21.149,0 37.352,-4.735 48.59,-14.211 11.238,-9.473 16.863,-22.395 16.863,-38.762 0,-16.563 -5.668,-29.668 -17.004,-39.332 -11.343,-9.668 -27.972,-14.5 -49.886,-14.5 h -38.328 v -93.734 h -15.5 v 200.539 z"
         style="fill:none;stroke:#ffffff;stroke-width:10;stroke-linecap:butt;stroke-linejoin:miter;stroke-miterlimit:10;stroke-dasharray:none;stroke-opacity:1"
         id="path130" /><path
         d="m 1083.07,320.766 v -12.922 h -75.23 V 120.227 h -15.645 v 187.617 h -75.222 v 12.922 h 166.097 v 0"
         style="fill:#ffffff;fill-opacity:1;fill-rule:nonzero;stroke:none"
         id="path132" /><path
         d="m 1083.07,320.766 v -12.922 h -75.23 V 120.227 h -15.645 v 187.617 h -75.222 v 12.922 h 166.097 z"
         style="fill:none;stroke:#ffffff;stroke-width:10;stroke-linecap:butt;stroke-linejoin:miter;stroke-miterlimit:10;stroke-dasharray:none;stroke-opacity:1"
         id="path134" /><path
         d="m 1217.29,320.766 v -12.922 h -93.89 v -80.242 h 91.44 v -13.063 h -91.44 v -81.394 h 96.18 v -12.918 h -111.69 v 200.539 h 109.4 v 0"
         style="fill:#ffffff;fill-opacity:1;fill-rule:nonzero;stroke:none"
         id="path136" /><path
         d="m 1217.29,320.766 v -12.922 h -93.89 v -80.242 h 91.44 v -13.063 h -91.44 v -81.394 h 96.18 v -12.918 h -111.69 v 200.539 h 109.4 z"
         style="fill:none;stroke:#ffffff;stroke-width:10;stroke-linecap:butt;stroke-linejoin:miter;stroke-miterlimit:10;stroke-dasharray:none;stroke-opacity:1"
         id="path138" /><path
         d="m 1346.05,310.719 v -17.086 c -17.42,10.246 -32.39,15.363 -44.93,15.363 -12.06,0 -22.13,-3.664 -30.22,-10.984 -8.08,-7.324 -12.13,-16.391 -12.13,-27.207 0,-7.746 2.39,-14.731 7.17,-20.957 4.8,-6.223 14.8,-12.2 30.01,-17.938 15.22,-5.75 26.31,-10.531 33.3,-14.355 6.99,-3.832 12.92,-9.379 17.8,-16.657 4.88,-7.277 7.32,-16.699 7.32,-28.277 0,-15.41 -5.64,-28.422 -16.94,-39.047 -11.29,-10.625 -25.07,-15.937 -41.34,-15.937 -16.64,0 -33.78,5.84 -51.39,17.519 v 18.227 c 19.44,-14.262 36.27,-21.379 50.53,-21.379 11.86,0 21.88,3.836 30.08,11.543 8.18,7.707 12.27,17.16 12.27,28.359 0,8.52 -2.54,16.199 -7.61,23.047 -5.06,6.832 -15.36,13.235 -30.84,19.184 -15.5,5.953 -26.59,10.746 -33.25,14.379 -6.65,3.632 -12.3,8.824 -16.94,15.566 -4.65,6.738 -6.97,15.422 -6.97,26.039 0,14.727 5.65,27.281 16.94,37.668 11.29,10.371 24.88,15.563 40.76,15.563 15.61,0 31.06,-4.215 46.38,-12.633 v 0"
         style="fill:#ffffff;fill-opacity:1;fill-rule:nonzero;stroke:none"
         id="path140" /><path
         d="m 1346.05,310.719 v -17.086 c -17.42,10.246 -32.39,15.363 -44.93,15.363 -12.06,0 -22.13,-3.664 -30.22,-10.984 -8.08,-7.324 -12.13,-16.391 -12.13,-27.207 0,-7.746 2.39,-14.731 7.17,-20.957 4.8,-6.223 14.8,-12.2 30.01,-17.938 15.22,-5.75 26.31,-10.531 33.3,-14.355 6.99,-3.832 12.92,-9.379 17.8,-16.657 4.88,-7.277 7.32,-16.699 7.32,-28.277 0,-15.41 -5.64,-28.422 -16.94,-39.047 -11.29,-10.625 -25.07,-15.937 -41.34,-15.937 -16.64,0 -33.78,5.84 -51.39,17.519 v 18.227 c 19.44,-14.262 36.27,-21.379 50.53,-21.379 11.86,0 21.88,3.836 30.08,11.543 8.18,7.707 12.27,17.16 12.27,28.359 0,8.52 -2.54,16.199 -7.61,23.047 -5.06,6.832 -15.36,13.235 -30.84,19.184 -15.5,5.953 -26.59,10.746 -33.25,14.379 -6.65,3.632 -12.3,8.824 -16.94,15.566 -4.65,6.738 -6.97,15.422 -6.97,26.039 0,14.727 5.65,27.281 16.94,37.668 11.29,10.371 24.88,15.563 40.76,15.563 15.61,0 31.06,-4.215 46.38,-12.633 z"
         style="fill:none;stroke:#ffffff;stroke-width:10;stroke-linecap:butt;stroke-linejoin:miter;stroke-miterlimit:10;stroke-dasharray:none;stroke-opacity:1"
         id="path142" /><path
         d="m 1533.67,320.766 v -12.922 h -75.23 V 120.227 h -15.64 v 187.617 h -75.22 v 12.922 h 166.09 v 0"
         style="fill:#ffffff;fill-opacity:1;fill-rule:nonzero;stroke:none"
         id="path144" /><path
         d="m 1533.67,320.766 v -12.922 h -75.23 V 120.227 h -15.64 v 187.617 h -75.22 v 12.922 h 166.09 z"
         style="fill:none;stroke:#ffffff;stroke-width:10;stroke-linecap:butt;stroke-linejoin:miter;stroke-miterlimit:10;stroke-dasharray:none;stroke-opacity:1"
         id="path146" /><path
         d="m 725.582,171.25 c 4.633,-8.375 10.539,-16.195 17.93,-23.465 20.281,-19.972 44.457,-29.668 73.91,-29.668 29.273,0 53.223,9.676 73.226,29.578 7.317,7.297 13.18,15.153 17.77,23.555 H 725.582 v 0"
         style="fill:#ffffff;fill-opacity:1;fill-rule:nonzero;stroke:none"
         id="path148" /><path
         d="m 725.582,171.25 c 4.633,-8.375 10.539,-16.195 17.93,-23.465 20.281,-19.972 44.457,-29.668 73.91,-29.668 29.273,0 53.223,9.676 73.226,29.578 7.317,7.297 13.18,15.153 17.77,23.555 H 725.582 Z"
         style="fill:none;stroke:#ffffff;stroke-width:10;stroke-linecap:butt;stroke-linejoin:miter;stroke-miterlimit:10;stroke-dasharray:none;stroke-opacity:1"
         id="path150" /><path
         d="m 835.387,321.465 c -5.813,0.93 -11.824,1.406 -18.047,1.406 -6.52,0 -12.809,-0.523 -18.879,-1.523 V 220.313 h 36.926 v 101.152 0"
         style="fill:#f9a521;fill-opacity:1;fill-rule:nonzero;stroke:none"
         id="path152" /><path
         d="m 792.926,320.285 c -13.469,-2.961 -25.778,-8.496 -36.93,-16.613 v -83.359 h 36.93 v 99.972 0"
         style="fill:#f9a521;fill-opacity:1;fill-rule:nonzero;stroke:none"
         id="path154" /><path
         d="m 883.391,299.68 v -79.367 h 36.922 c 0,28.812 -9.942,53.109 -29.809,72.89 -2.316,2.301 -4.684,4.449 -7.113,6.477 v 0"
         style="fill:#f9a521;fill-opacity:1;fill-rule:nonzero;stroke:none"
         id="path156" /><path
         d="M 840.934,320.441 V 220.313 h 36.918 v 83.675 c -11.122,8.086 -23.434,13.567 -36.918,16.453 v 0"
         style="fill:#f9a521;fill-opacity:1;fill-rule:nonzero;stroke:none"
         id="path158" /><path
         d="m 750.469,299.336 c -2.321,-1.934 -4.586,-3.965 -6.793,-6.133 -20.09,-19.781 -30.137,-44.078 -30.137,-72.89 h 36.93 v 79.023 0"
         style="fill:#f9a521;fill-opacity:1;fill-rule:nonzero;stroke:none"
         id="path160" /><path
         d="m 713.531,203.863 h 0.008 c 0,-10.203 8.27,-18.468 18.465,-18.468 10.187,0 18.465,8.265 18.465,18.468 v 10.907 h -36.938 v -10.907 0"
         style="fill:#f9a521;fill-opacity:1;fill-rule:nonzero;stroke:none"
         id="path162" /><path
         d="m 755.996,203.863 h -0.004 c 0,-10.203 8.27,-18.468 18.473,-18.468 10.187,0 18.461,8.265 18.461,18.468 v 10.907 h -36.93 v -10.907 0"
         style="fill:#f9a521;fill-opacity:1;fill-rule:nonzero;stroke:none"
         id="path164" /><path
         d="m 798.461,203.863 h 0.008 c 0,-10.203 8.261,-18.468 18.457,-18.468 10.187,0 18.461,8.265 18.461,18.468 v 10.907 h -36.926 v -10.907 0"
         style="fill:#f9a521;fill-opacity:1;fill-rule:nonzero;stroke:none"
         id="path166" /><path
         d="m 840.934,203.863 h -0.012 c 0,-10.203 8.266,-18.468 18.469,-18.468 10.187,0 18.461,8.265 18.461,18.468 v 10.907 h -36.918 v -10.907 0"
         style="fill:#f9a521;fill-opacity:1;fill-rule:nonzero;stroke:none"
         id="path168" /><path
         d="m 883.391,214.77 v -10.907 c 0,-10.203 8.257,-18.468 18.464,-18.468 10.188,0 18.458,8.265 18.458,18.468 v 10.907 h -36.922 v 0"
         style="fill:#f9a521;fill-opacity:1;fill-rule:nonzero;stroke:none"
         id="path170" /><path
         d="M 1673.79,323.063 V 2.78516"
         style="fill:none;stroke:#ffffff;stroke-width:4.00355;stroke-linecap:butt;stroke-linejoin:miter;stroke-miterlimit:10;stroke-dasharray:none;stroke-opacity:1"
         id="path172" /><path
         d="m 2366.11,149.973 c 1.08,-1.977 2.48,-3.813 4.21,-5.52 4.77,-4.695 10.46,-6.98 17.39,-6.98 6.88,0 12.52,2.273 17.22,6.953 1.72,1.719 3.1,3.562 4.18,5.547 h -43"
         style="fill:#ffffff;fill-opacity:1;fill-rule:nonzero;stroke:none"
         id="path174" /><path
         d="m 2391.93,185.297 c -1.36,0.223 -2.78,0.332 -4.24,0.332 -1.54,0 -3.02,-0.121 -4.44,-0.359 v -23.766 h 8.68 v 23.793"
         style="fill:#f89f1c;fill-opacity:1;fill-rule:nonzero;stroke:none"
         id="path176" /><path
         d="m 2381.94,185.02 c -3.16,-0.692 -6.07,-1.993 -8.68,-3.903 v -19.613 h 8.68 v 23.516"
         style="fill:#f89f1c;fill-opacity:1;fill-rule:nonzero;stroke:none"
         id="path178" /><path
         d="m 2403.23,180.176 v -18.672 h 8.68 c 0,6.781 -2.34,12.496 -7.01,17.148 -0.55,0.539 -1.11,1.051 -1.67,1.524"
         style="fill:#f89f1c;fill-opacity:1;fill-rule:nonzero;stroke:none"
         id="path180" /><path
         d="m 2393.23,185.059 v -23.555 h 8.69 v 19.687 c -2.62,1.899 -5.51,3.188 -8.69,3.868"
         style="fill:#f89f1c;fill-opacity:1;fill-rule:nonzero;stroke:none"
         id="path182" /><path
         d="m 2371.96,180.094 c -0.55,-0.453 -1.09,-0.934 -1.59,-1.442 -4.74,-4.652 -7.09,-10.367 -7.09,-17.148 h 8.68 v 18.59"
         style="fill:#f89f1c;fill-opacity:1;fill-rule:nonzero;stroke:none"
         id="path184" /><path
         d="m 2363.28,157.637 v 0 c 0,-2.399 1.94,-4.348 4.33,-4.348 2.4,0 4.35,1.949 4.35,4.348 v 2.562 h -8.68 v -2.562"
         style="fill:#f89f1c;fill-opacity:1;fill-rule:nonzero;stroke:none"
         id="path186" /><path
         d="m 2373.26,157.637 v 0 c 0,-2.399 1.94,-4.348 4.34,-4.348 2.4,0 4.34,1.949 4.34,4.348 v 2.562 h -8.68 v -2.562"
         style="fill:#f89f1c;fill-opacity:1;fill-rule:nonzero;stroke:none"
         id="path188" /><path
         d="m 2383.25,157.637 v 0 c 0,-2.399 1.94,-4.348 4.33,-4.348 2.41,0 4.35,1.949 4.35,4.348 v 2.562 h -8.68 v -2.562"
         style="fill:#f89f1c;fill-opacity:1;fill-rule:nonzero;stroke:none"
         id="path190" /><path
         d="m 2393.23,157.637 v 0 c 0,-2.399 1.95,-4.348 4.34,-4.348 2.41,0 4.35,1.949 4.35,4.348 v 2.562 h -8.69 v -2.562"
         style="fill:#f89f1c;fill-opacity:1;fill-rule:nonzero;stroke:none"
         id="path192" /><path
         d="m 2403.23,160.199 v -2.562 c 0,-2.399 1.94,-4.348 4.33,-4.348 2.4,0 4.35,1.949 4.35,4.348 v 2.562 h -8.68"
         style="fill:#f89f1c;fill-opacity:1;fill-rule:nonzero;stroke:none"
         id="path194" /><path
         d="m 1958.07,10.3125 c -0.48,0.2461 -1.01,0.4219 -1.52,0.5781 l 1.52,-0.5781"
         style="fill:#ffffff;fill-opacity:1;fill-rule:nonzero;stroke:none"
         id="path196" /><path
         d="m 2171.42,209.094 c 4.99,12.566 11.02,22.961 18.43,31.789 8.49,10.129 18.52,18.203 29.79,23.992 6.33,3.254 13.35,5.801 21.47,7.773 6.58,1.602 13.27,2.18 19.73,2.739 l 1.4,0.125 c 0.51,0.039 1.05,0.07 1.57,0.07 2.19,0 4.25,-0.371 6.24,-0.723 1.15,-0.211 2.22,-0.402 3.29,-0.523 l 1.63,-0.176 c 3.27,-0.367 6.66,-0.738 10.07,-1.512 11.4,-2.617 22.29,-7.316 32.34,-13.945 10.24,-6.758 19.37,-15.66 27.14,-26.453 3.94,-5.477 7.48,-11.691 10.85,-19.008 1.9,-4.168 3.58,-8.758 5.23,-14.297 h 51.24 c -0.19,1.016 -0.41,2.032 -0.61,3.028 -0.13,0.582 -0.24,1.164 -0.37,1.742 h -0.01 c 0,0 -1.45,6.14 -4.08,14.918 -2.45,8.14 -5.57,15.422 -6.01,16.43 -0.36,0.781 -0.74,1.558 -1.12,2.316 -0.39,0.824 -0.8,1.648 -1.18,2.48 -4.9,10.446 -11.33,20.45 -19.12,29.746 -6.76,8.051 -14.62,15.497 -23.37,22.118 -11.17,8.449 -23.71,15.113 -38.32,20.382 -3.05,1.102 -6.31,1.918 -9.46,2.711 -2.23,0.551 -4.53,1.125 -6.78,1.805 -2.84,0.852 -5.73,1.274 -8.79,1.731 -1.52,0.222 -3.09,0.449 -4.65,0.742 -4.95,0.918 -10.24,0.996 -15.24,0.996 l -1.99,-0.008 c -8.26,-0.012 -17.63,-0.031 -26.77,-1.758 l -1.03,-0.187 c -5.86,-1.114 -11.93,-2.258 -17.69,-3.918 -9.88,-2.848 -19.79,-6.871 -29.42,-11.957 -12.48,-6.578 -24.17,-14.957 -34.77,-24.899 -5.29,-4.945 -10.59,-10.8 -16.2,-17.894 -0.65,-0.797 -1.59,-2.004 -3.25,-2.004 -1.19,0 -2.27,0.656 -3.17,1.953 -2.71,3.898 -5.75,7.613 -8.87,11.402 -4.84,5.836 -10.54,11.403 -17.96,17.539 -2.37,1.946 -4.94,3.77 -7.44,5.539 -1.25,0.883 -2.49,1.762 -3.69,2.645 l -0.11,0.074 -4.39,2.781 c -0.76,0.461 -1.53,0.95 -2.57,1.532 -10.24,5.793 -20.01,10.011 -29.86,12.918 -1.8,0.527 -3.68,0.972 -5.51,1.406 -1.86,0.441 -3.8,0.894 -5.68,1.449 -2.76,0.813 -5.56,1.227 -8.54,1.66 -1.46,0.215 -2.98,0.442 -4.48,0.715 -4.84,0.887 -9.96,1.012 -14.34,1.012 -0.89,0 -1.78,-0.008 -2.66,-0.016 l -0.96,-0.004 c -8.15,-0.07 -16.58,-0.132 -24.72,-1.738 -2.12,-0.418 -4.26,-0.797 -6.41,-1.172 -2.07,-0.379 -4.16,-0.75 -6.24,-1.16 -5.65,-1.102 -11.05,-2.93 -17.03,-5.027 -8.23,-2.883 -16.5,-6.754 -25.29,-11.821 -7.94,-4.589 -14.94,-9.429 -21.43,-14.855 -0.4,-0.352 -1.26,-1.07 -2.52,-1.07 -0.52,0 -1.02,0.117 -1.49,0.359 -1.25,0.629 -1.87,1.789 -1.84,3.449 v 0.137 c 0,2.473 0,4.949 0.02,7.418 v 30.094 c -0.01,0.093 0,0.175 -0.01,0.257 l -117.94,-9.515 c 0,-0.09 0,-0.192 0,-0.293 -0.01,-11.399 -0.01,-22.793 -0.01,-34.184 v -0.269 c 0,-0.293 0,-1.02 0.04,-1.528 0.55,-0.05 1.33,-0.05 1.65,-0.05 h 50.09 c 0.88,0 4.36,-0.016 5.23,-0.016 2.09,0 3.69,0.019 5.18,0.066 h 0.25 c 0.52,0 2.1,0 3.25,-1.218 0.76,-0.805 1.11,-1.899 1.03,-3.254 -0.02,-0.328 -0.01,-0.66 0,-0.989 0,-0.211 0,-0.418 0,-0.628 V 4.44531 c 0,-0.27343 0,-0.70312 0.02,-1.09375 0.38,-0.01172 0.81,-0.01172 1.08,-0.01172 h 24.46 24.47 c 0.25,0 0.75,0 1.16,0.01954 0.02,0.44921 0.02,1.01562 0.02,1.28125 0,13.24997 0,26.50387 -0.01,39.75387 -0.01,33.1953 -0.01,67.5115 0.05,101.2615 0,2.449 -0.03,4.887 -0.06,7.324 -0.1,8.891 -0.21,18.086 1.31,27.196 1.2,7.203 2.37,12.73 3.81,17.941 1.63,5.903 3.53,11.309 5.85,16.535 5.06,11.414 11.27,21.036 19,29.43 8.23,8.938 17.02,15.727 26.89,20.766 4.81,2.461 9.67,4.23 15.08,6.125 6.8,2.382 13.83,3.179 20.62,3.945 1.24,0.141 2.46,0.281 3.7,0.434 1.13,0.136 2.29,0.199 3.54,0.199 2.98,0 5.88,-0.375 9.08,-0.828 6.49,-0.922 13.2,-1.879 19.81,-3.926 7.13,-2.207 13.84,-5.094 19.95,-8.586 9.06,-5.168 17.37,-11.875 24.69,-19.922 5.87,-6.445 10.77,-13.215 14.54,-20.125 3.32,-6.09 7.36,-14.129 9.75,-23.219 h 55.98 c 0.87,3.203 2.01,6.547 3.44,10.149"
         style="fill:#ffffff;fill-opacity:1;fill-rule:nonzero;stroke:none"
         id="path198" /><path
         d="m 2351.39,106.367 c -4.52,-8.8279 -9.91,-17.0389 -16.68,-24.2772 -11.93,-12.7734 -26.16,-22.0312 -42.95,-27.207 -7.2,-2.2187 -14.5,-3.8086 -22.11,-3.9922 -9.4,-0.2343 -18.7,0.5157 -27.82,2.8125 -4.61,1.1602 -9.2,2.5586 -13.57,4.5313 l -4.74,2.2265 c -6.66,3.0664 -12.74,7.0899 -18.33,11.8164 -5.48,4.629 -10.55,9.668 -14.82,15.4688 -1.01,1.3867 -1.89,1.2187 -2.45,-0.4023 -1.52,-4.1875 -3.22,-8.2813 -5.26,-12.2344 -2.13,-4.1524 -4.02,-8.4492 -6.44,-12.4336 -4.14,-6.7852 -8.4,-13.5039 -13.33,-19.7539 -1.02,-1.2891 -0.75,-2.5117 0.39,-3.5078 7.3,-6.4063 14.87,-12.5 22.57,-18.4258 0.06,-0.0391 0.13,-0.0781 0.19,-0.1172 6.91,-4.0742 14.16,-7.5313 21.54,-10.625 7.74,-3.24219 15.82,-5.52735 24.08,-7.01172 7.45,-1.33985 14.99,-2.324224 22.6,-2.304692 8.24,0.007812 16.46,-0.011719 24.71,1.062502 6.29,0.8125 12.57,1.69922 18.74,3.05859 9.75,2.16797 19.1,5.60552 28.25,9.68752 9.66,4.2969 18.61,9.7656 27.11,15.957 9.85,7.1367 18.47,15.6328 26.38,24.8633 7.38,8.6328 13.62,18.0625 19,28.0352 3.77,6.9921 6.98,14.2578 9.78,21.7192 2.54,6.808 4.54,13.742 6.22,20.769 h -55.43 c -2.05,-6.746 -4.4,-13.387 -7.63,-19.715"
         style="fill:#f9a521;fill-opacity:1;fill-rule:nonzero;stroke:none"
         id="path200" /><path
         d="m 2105.77,117.371 c -4.48,-12.019 -10.77,-23.0038 -19.17,-32.6913 -9.04,-10.4336 -19.77,-18.6836 -32.27,-24.668 -8.35,-4.0039 -17.05,-6.9062 -26.16,-8.2929 -11.14,-1.6875 -22.33,-1.1211 -33.33,1.2226 -9.82,2.0977 -19.17,5.5274 -27.82,10.7305 -8,4.8164 -15.26,10.5195 -21.54,17.4492 -1.9,2.1133 -3.67,4.3477 -5.5,6.5156 -0.38,0.4492 -0.77,0.9766 -1.45,0.7031 -0.58,-0.2226 -0.53,-0.8203 -0.56,-1.3281 -0.02,-0.5859 -0.02,-1.1601 -0.02,-1.7578 0,-18.582 0,-37.168 0,-55.7422 0,-2.6367 0.02,-5.2734 0,-7.8984 -0.01,-1.4844 0.61,-2.461 1.94,-3.1445 5.22,-2.5977 10.39,-5.2852 15.89,-7.3165 0.23,-0.0859 0.49,-0.164 0.77,-0.2539 v 0 -0.0078 c 0.51,-0.1562 1.04,-0.332 1.52,-0.5781 l 4.62,-1.75781 v 0 c 6.15,-1.81641 12.3,-3.65235 18.65,-4.83203 7.25,-1.35938 14.53,-2.47266 21.87,-2.70703 8.38,-0.261724 16.75,-0.07813 25.14,0.95703 7.77,0.97656 15.42,2.21875 22.98,4.12109 8.49,2.12891 16.66,5.22655 24.65,8.83985 12.12,5.4961 23.22,12.6172 33.45,21.0625 8.46,6.9844 16.04,14.8828 22.82,23.543 5.88,7.5625 11.12,15.5195 15.7,23.9297 2.89,5.332 5.38,10.8085 7.7,16.4257 2.44,5.9335 4.49,11.9805 6.32,18.1325 0.78,2.668 1.47,5.352 2.1,8.055 h -55.06 l -3.24,-8.711"
         style="fill:#f9a521;fill-opacity:1;fill-rule:nonzero;stroke:none"
         id="path202" /><path
         d="m 1956.55,10.8984 c 0,0 0,0 0,-0.0078 v 0.0078 0"
         style="fill:#ffffff;fill-opacity:1;fill-rule:nonzero;stroke:none"
         id="path204" /><path
         d="m 1988.16,190.773 c -5.24,-15.246 -11.19,-32.753 -16.08,-48.109 -0.83,-2.73 -2.03,-9.41 -5.72,-9.41 -1.66,0 -3.56,1.074 -3.56,2.859 0,1.192 19.04,54.778 20.24,57.871 -1.67,-1.191 -7.02,-6.546 -8.1,-6.546 -1.19,0 -1.9,0.71 -1.9,1.898 0,2.504 13.21,12.984 15.24,12.984 1.19,0 2.97,-0.836 2.97,-2.261 0,-0.594 -2.61,-8.094 -3.09,-9.286"
         style="fill:#ffffff;fill-opacity:1;fill-rule:nonzero;stroke:none"
         id="path206" /><path
         d="m 2016.14,196.723 c 0,0.832 -0.12,1.55 -0.6,2.261 -8.57,-0.953 -21.31,-19.168 -21.31,-27.386 0,-0.481 0.11,-0.836 0.24,-1.309 9.4,0.238 21.67,17.742 21.67,26.434 z m 7.26,-5.004 c -8.33,-16.785 -13.69,-35.723 -17.62,-54.055 -0.6,-2.625 -0.6,-5.242 -4.17,-5.242 -1.55,0 -3.45,1.191 -3.45,2.969 0,4.882 8.57,31.089 10.96,37.398 -3.58,-3.57 -8.7,-7.5 -13.94,-7.5 -3.93,0 -6.67,2.02 -6.67,6.07 0,10.598 15.48,31.918 26.91,31.918 3.45,0 5.24,-2.144 5.24,-5.601 l -0.12,-1.555 c 1.44,0.242 3.69,-0.465 3.69,-2.258 0,-0.707 -0.47,-1.425 -0.83,-2.144"
         style="fill:#ffffff;fill-opacity:1;fill-rule:nonzero;stroke:none"
         id="path208" /><path
         d="m 2025.67,139.207 c 4.16,0.481 27.02,2.141 27.02,-3.211 0,-2.148 -2.38,-2.742 -4.04,-2.742 -4.29,0 -8.7,0.828 -12.98,0.828 -5.48,0 -10.84,-1.543 -16.09,-1.543 -1.89,0 -3.44,1.074 -3.44,3.098 0,7.136 39.05,38.582 39.05,57.758 0,3.207 -1.42,4.878 -4.52,4.878 -6.08,0 -17.27,-5.718 -17.27,-12.382 0,-2.032 1.08,-3.817 -2.25,-3.817 -2.15,0 -2.63,3.219 -2.63,4.883 0,8.816 14.77,15.965 22.38,15.965 6.09,0 9.9,-3.699 9.9,-9.766 0,-17.984 -25.01,-40.015 -35.13,-53.949"
         style="fill:#ffffff;fill-opacity:1;fill-rule:nonzero;stroke:none"
         id="path210" /><path
         d="m 2088.42,190.773 c -5.24,-15.246 -11.2,-32.753 -16.08,-48.109 -0.83,-2.73 -2.02,-9.41 -5.72,-9.41 -1.66,0 -3.57,1.074 -3.57,2.859 0,1.192 19.05,54.778 20.25,57.871 -1.67,-1.191 -7.03,-6.546 -8.1,-6.546 -1.19,0 -1.9,0.71 -1.9,1.898 0,2.504 13.22,12.984 15.23,12.984 1.19,0 2.99,-0.836 2.99,-2.261 0,-0.594 -2.63,-8.094 -3.1,-9.286"
         style="fill:#ffffff;fill-opacity:1;fill-rule:nonzero;stroke:none"
         id="path212" /><path
         d="m 2133.67,153.613 c 0,-1.547 -1.68,-2.019 -3.11,-2.019 -2.37,0 -4.64,0.113 -7.02,0.113 -2.5,0 -11.79,-1.187 -11.79,2.625 0,3.574 7.62,2.856 9.88,2.856 2.74,0 12.04,0.601 12.04,-3.575"
         style="fill:#ffffff;fill-opacity:1;fill-rule:nonzero;stroke:none"
         id="path214" /><path
         d="m 2169.02,139.207 c 4.17,0.481 27.03,2.141 27.03,-3.211 0,-2.148 -2.38,-2.742 -4.04,-2.742 -4.3,0 -8.7,0.828 -12.99,0.828 -5.48,0 -10.84,-1.543 -16.08,-1.543 -1.9,0 -3.45,1.074 -3.45,3.098 0,7.136 39.06,38.582 39.06,57.758 0,3.207 -1.43,4.878 -4.53,4.878 -6.07,0 -17.27,-5.718 -17.27,-12.382 0,-2.032 1.09,-3.817 -2.25,-3.817 -2.14,0 -2.63,3.219 -2.63,4.883 0,8.816 14.78,15.965 22.39,15.965 6.08,0 9.89,-3.699 9.89,-9.766 0,-17.984 -25.01,-40.015 -35.13,-53.949"
         style="fill:#ffffff;fill-opacity:1;fill-rule:nonzero;stroke:none"
         id="path216" /><path
         d="m 2241.06,180.531 c 0,3.449 -0.71,18.215 -5.95,18.332 -14.05,0.36 -22.62,-35.601 -22.62,-46.797 0,-4.515 0,-14.293 6.42,-14.293 15.49,0 22.15,31.446 22.15,42.758 z m 6.19,0.477 c 0,-16.074 -8.09,-48.352 -28.34,-48.352 -9.88,0 -12.51,9.766 -12.51,17.864 0,14.531 9.78,52.636 27.87,52.636 10.84,0 12.98,-13.933 12.98,-22.148"
         style="fill:#ffffff;fill-opacity:1;fill-rule:nonzero;stroke:none"
         id="path218" /><path
         d="m 2253.44,139.207 c 4.16,0.481 27.02,2.141 27.02,-3.211 0,-2.148 -2.38,-2.742 -4.04,-2.742 -4.29,0 -8.7,0.828 -12.98,0.828 -5.48,0 -10.84,-1.543 -16.08,-1.543 -1.9,0 -3.45,1.074 -3.45,3.098 0,7.136 39.05,38.582 39.05,57.758 0,3.207 -1.41,4.878 -4.52,4.878 -6.07,0 -17.26,-5.718 -17.26,-12.382 0,-2.032 1.07,-3.817 -2.26,-3.817 -2.15,0 -2.63,3.219 -2.63,4.883 0,8.816 14.77,15.965 22.39,15.965 6.08,0 9.89,-3.699 9.89,-9.766 0,-17.984 -25.01,-40.015 -35.13,-53.949"
         style="fill:#ffffff;fill-opacity:1;fill-rule:nonzero;stroke:none"
         id="path220" /><path
         d="m 2316.2,190.773 c -5.25,-15.246 -11.2,-32.753 -16.09,-48.109 -0.83,-2.73 -2.02,-9.41 -5.72,-9.41 -1.66,0 -3.56,1.074 -3.56,2.859 0,1.192 19.05,54.778 20.24,57.871 -1.67,-1.191 -7.02,-6.546 -8.1,-6.546 -1.19,0 -1.9,0.71 -1.9,1.898 0,2.504 13.21,12.984 15.23,12.984 1.2,0 2.99,-0.836 2.99,-2.261 0,-0.594 -2.62,-8.094 -3.09,-9.286"
         style="fill:#ffffff;fill-opacity:1;fill-rule:nonzero;stroke:none"
         id="path222" /></g></g></svg>
