<?xml version="1.0" encoding="UTF-8"?>
<svg xmlns="http://www.w3.org/2000/svg" version="1.1" viewBox="0 0 135.5 63.9" fill="currentColor">
  <g>
    <path d="M38.1,37v-10.3c0-3.8-1.2-4.3-2.5-4.3-2.2,0-3.1,1.6-3.1,5.6v9h-4.6v-9.7c0-3-.4-4.9-2.5-4.9s-3.1,1.6-3.1,5.6v9h-4.6v-18.3h4.6v1.1c1.1-1,2.5-1.6,3.9-1.6,2,0,3.7.8,4.9,2.5,1.3-1.5,3.2-2.5,5.2-2.5,5.2,0,6.3,4.4,6.3,8v10.8h-4.6Z"/>
    <path d="M54.1,22.4c-2.3,0-4.7,1.9-4.7,5.4s1.6,5.5,4.7,5.5,4.9-2.8,4.9-5.5-1.5-5.4-4.9-5.4M53.6,37.6c-5.8,0-8.8-5-8.8-9.9s3-9.6,8.7-9.6,3.8.8,5.3,2.2v-1.7h4.6v18.3h-4.6v-1.6c-1.4,1.4-3.3,2.2-5.2,2.2"/>
  </g>
  <polygon points="67.5 37 67.5 23.1 65.7 23.1 65.7 18.7 67.5 18.7 67.5 12.2 72.1 12.2 72.1 18.7 75.3 18.7 75.3 23.1 72.1 23.1 72.1 37 67.5 37"/>
  <g>
    <path d="M88.3,25.3c-.6-1.9-1.9-2.9-3.9-2.9s-3.4,1.1-4,2.9h7.8ZM84.5,37.6c-5.3,0-9-4-9-9.6s3.4-9.8,9-9.8,8.6,3.7,8.6,9.7v1.2h-12.9c.3,2.2,1.8,4.3,4.4,4.3s3.4-1.1,4.5-3l.3-.6,3.9,2.2-.3.6c-1.7,3.1-4.9,5-8.5,5"/>
    <path d="M100.8,37.6c-2.9,0-5.5-1.7-6.5-4.2l-.2-.6,3.9-1.8.3.5c.6,1.2,1.2,1.8,2.5,1.8s1.9-.6,1.9-1.7-.2-.8-.9-1.3l-3.2-1.7c-1.9-1-3.6-2.2-3.6-4.9s2.5-5.6,5.7-5.6,4.2,1.2,5.2,3.4l.3.6-3.8,2-.3-.6c-.3-.7-1-1.1-1.6-1.1s-1.1.4-1.1,1c0,.9,1.3,1.5,2.8,2.1.2.1.5.2.7.3,2,.9,4.3,2.4,4.3,5.4s-2.9,6.3-6.5,6.3"/>
  </g>
  <polygon points="110 37 110 23.1 108.2 23.1 108.2 18.7 110 18.7 110 12.2 114.6 12.2 114.6 18.7 117.8 18.7 117.8 23.1 114.6 23.1 114.6 37 110 37"/>
  <path d="M74.6,49.5c.8,0,1.3-.5,1.3-1.1s-.6-1.1-1.7-1.4c-1.9-.5-2.8-1.2-2.8-2.9s1.4-3.4,3.6-3.4,2.2.3,3.1.9l-.9,2c-.7-.6-1.3-.8-2-.8s-1.1.4-1.1.9c0,.7.7.9,1.7,1.1,1.8.5,2.9,1.2,2.9,3.1s-1.5,3.7-4,3.7-2.6-.5-3.7-1.5l1.3-2.1c.8.9,1.6,1.4,2.5,1.4"/>
  <polygon points="80.3 46 79.2 46 79.2 44.3 80.3 44.3 80.3 42.1 82.8 42.1 82.8 44.3 83.8 44.3 83.8 46 82.8 46 82.8 51.4 80.3 51.4 80.3 46"/>
  <path d="M88.6,46.1c-.9,0-1.5.7-1.5,1.7s.6,1.7,1.5,1.7,1.5-.7,1.5-1.7-.6-1.7-1.5-1.7M88.6,51.7c-2.3,0-4-1.7-4-3.8s1.7-3.8,4-3.8,4,1.7,4,3.8-1.7,3.8-4,3.8"/>
  <path d="M94.1,44.3h2.4v1.7c.5-1.2,1.3-1.8,2.4-1.8s.4,0,.7,0l-.2,2.3c-.3,0-.6-.1-.9-.1-1.2,0-1.9.7-1.9,2.2v3h-2.5v-7.1Z"/>
  <path d="M104,45.6c-.8,0-1.3.5-1.5,1.3h2.9c0-.8-.7-1.3-1.4-1.3M102.5,48.3c0,1.1.6,1.7,1.6,1.7s1.3-.3,1.6-.9l1.9.8c-.4,1.1-1.6,1.7-3.3,1.7-2.6,0-4.1-1.6-4.1-3.8s1.6-3.9,4-3.9,3.8,1.6,3.8,4.2h0c0,.1-5.4.1-5.4.1Z"/>
  <path d="M109.2,48.9c.7.7,1.7,1,2.6,1s1-.2,1-.6c0-.6-.6-.6-1.5-.8-1.5-.4-2.2-1-2.2-2.1s1-2.3,2.9-2.3,1.9.2,2.9.7l-.5,1.7c-.7-.5-1.4-.7-2.1-.7s-.9.2-.9.5c0,.5.6.5,1.6.8,1.4.4,2,1,2,2.2s-1.2,2.5-3.1,2.5-2.3-.3-3.3-.9l.5-1.9Z"/>
  <path d="M22.3,42.3c-2.5,0-4.6,2-4.6,4.6s2,4.6,4.6,4.6h45.8c.4-.1,1-.4,1-1.2,0-1.2-1.4-1.3-1.4-1.3l-45.4-6.6Z"/>
</svg>