<?xml version="1.0" encoding="UTF-8"?> <svg xmlns="http://www.w3.org/2000/svg" id="Calque_1" data-name="Calque 1" viewBox="0 0 679.47 274.07"><defs><style>.cls-1{fill:#fff;}</style></defs><path class="cls-1" d="M240.28,242.37c0,16.88-8.45,24.41-27.41,24.41s-27.41-7.53-27.41-24.41V192.89h-7.93v49.69c0,20.9,11.89,31.49,35.34,31.49s35.34-10.59,35.34-31.49V192.89h-7.93Z"></path><path class="cls-1" d="M122,192.06c-23.45,0-35.34,10.59-35.34,31.48v18.21c0,20.89,11.89,31.48,35.34,31.48s35.34-10.59,35.34-31.48V223.54C157.38,202.65,145.49,192.06,122,192.06Zm27.42,31.7v17.77C149.46,258.42,141,266,122,266s-27.41-7.53-27.41-24.42V223.76c0-16.89,8.45-24.42,27.41-24.42S149.46,206.87,149.46,223.76Z"></path><path class="cls-1" d="M362.23,240.65V192.89h-7.92v48c0,20.89,11.89,31.49,35.34,31.49H419v-7.29H389.65C370.69,265.07,362.23,257.54,362.23,240.65Z"></path><path class="cls-1" d="M0,224.38v16.49c0,20.89,11.89,31.49,35.34,31.49H70.68v-7.29H35.34c-19,0-27.41-7.53-27.41-24.42V224.59c0-16.89,8.45-24.42,27.41-24.42H70.68v-7.28H35.34C11.89,192.89,0,203.48,0,224.38Z"></path><path class="cls-1" d="M644.13,200.17h35.34v-7.28H644.13c-23.45,0-35.34,10.59-35.34,31.49v16.49c0,20.89,11.89,31.49,35.34,31.49h35.34v-7.29H644.13c-19,0-27.42-7.53-27.42-24.42V224.59C616.71,207.7,625.17,200.17,644.13,200.17Z"></path><path class="cls-1" d="M553.23,191.94c-23.45,0-35.34,10.6-35.34,31.49v48.93h7.93V223.64c0-16.88,8.45-24.41,27.41-24.41s27.42,7.53,27.42,24.41v48.72h7.92V223.43C588.57,202.54,576.68,191.94,553.23,191.94Z"></path><path class="cls-1" d="M462.4,191.94c-23.45,0-35.34,10.6-35.34,31.49v48.93H435V241.8h54.83v30.56h7.92V223.43C497.74,202.54,485.85,191.94,462.4,191.94Zm27.42,31.7v11H435v-11c0-16.88,8.45-24.41,27.41-24.41S489.82,206.76,489.82,223.64Z"></path><path class="cls-1" d="M323.36,219.12c-1.88-17-13.14-25.78-33.48-26.21l-23.45,0v7.29l21.88,0c16.37,0,24.93,5.77,26.94,18.16a37.37,37.37,0,0,1,.46,5.4l0,.77.75.18c.91.22,1.8.47,2.62.75,6.4,2.17,10.47,6.21,12.43,12.36a25,25,0,0,1,.9,6.19,25.64,25.64,0,0,1-.68,6.13c-2.92,10.21-11.25,15-26.23,15H266.43v7.28H307c17.86-.37,28.76-7.17,32.41-20.25a28.08,28.08,0,0,0,1-8,29.28,29.28,0,0,0-1.35-8.65C336.57,227.64,331.28,222.15,323.36,219.12Z"></path><path class="cls-1" d="M270.69,45.74V58.06h8.89v-12c0-26,13.54-38.13,42.63-38.13h51.53V0H322.21C288,0,270.69,15.39,270.69,45.74Z"></path><path class="cls-1" d="M408.19,70.68V58.36H399.3v12c0,26-13.55,38.14-42.64,38.14H305.13v7.92h51.53C390.85,116.42,408.19,101,408.19,70.68Z"></path></svg> 