<?xml version="1.0" encoding="utf-8"?>
<!-- Generator: Adobe Illustrator 28.1.0, SVG Export Plug-In . SVG Version: 6.00 Build 0)  -->
<svg version="1.1" id="Calque_1" xmlns="http://www.w3.org/2000/svg" xmlns:xlink="http://www.w3.org/1999/xlink" x="0px" y="0px"
	 viewBox="0 0 82.46 82.45" style="enable-background:new 0 0 82.46 82.45;" xml:space="preserve">
<style type="text/css">
	.st0{fill:#909090;}
	.st1{fill:#FFFFFF;stroke:#909090;stroke-width:0.5;}
	.st2{font-family:'BrushScript';}
	.st3{font-size:12.189px;}
	.st4{fill:#FBBB21;}
	.st5{fill:#FFFFFF;}
</style>
<polygon class="st0" points="82.21,78.2 82.21,0.25 4.25,0.25 0,4.5 0,82.45 77.95,82.45 "/>
<rect x="4.25" y="0.25" class="st1" width="77.95" height="77.95"/>
<rect x="12" y="8.75" class="st0" width="62.36" height="11.91"/>
<g>
	<text transform="matrix(1.82 0 0 1 13.8562 29.5)" class="st0 st2 st3">qualit</text>
	<text transform="matrix(1.82 0 0 1 59.5673 29.5)" class="st0 st2 st3">é</text>
</g>
<g>
	<path class="st4" d="M12,34.42h4.33V66.9H19v4.35h-7V34.42z"/>
	<path class="st4" d="M25.06,34.42h5.42l4.59,36.83h-4.49l-0.97-10.02h-3.75l-1.01,10.02h-4.49L25.06,34.42z M27.69,41.12h-0.05
		L26.18,56.9h3.03L27.69,41.12z"/>
	<path class="st4" d="M37.73,38.48h-4.24v-4.07H46.3v4.07h-4.24v32.77h-4.33V38.48z"/>
	<path class="st4" d="M47.79,34.42h4.33v36.83h-4.33V34.42z"/>
	<polygon class="st4" points="67.87,70.75 71.5,55.19 71.5,70.75 75.75,70.75 75.75,33.92 69.72,33.88 65.5,55.12 61.91,33.88 
		55.88,33.92 55.88,70.75 60.13,70.75 60.13,55.19 63.76,70.75 	"/>
</g>
<g>
	<path class="st5" d="M20.33,19H18.5v-6.86h-2.65v-1.47h7.13v1.47h-2.65V19z"/>
	<path class="st5" d="M30.08,10.44c1.16,0,4.21,0.48,4.21,4.39c0,3.91-3.05,4.39-4.21,4.39c-1.16,0-4.21-0.48-4.21-4.39
		C25.87,10.92,28.92,10.44,30.08,10.44z M30.08,17.75c0.99,0,2.38-0.58,2.38-2.91s-1.39-2.91-2.38-2.91c-0.99,0-2.38,0.58-2.38,2.91
		S29.09,17.75,30.08,17.75z"/>
	<path class="st5" d="M40.12,19h-1.83v-8.34h1.83V19z"/>
	<path class="st5" d="M46.34,17.49h4.36V19h-6.19v-8.34h1.83V17.49z"/>
	<path class="st5" d="M60.1,12.14h-4.65v1.75h4.27v1.47h-4.27v2.16h4.86V19h-6.65v-8.34h6.45V12.14z"/>
	<path class="st5" d="M65.78,16.43c0.01,0.46,0.26,1.35,1.86,1.35c0.87,0,1.83-0.2,1.83-1.08c0-0.65-0.66-0.82-1.59-1.03l-0.94-0.21
		c-1.42-0.31-2.78-0.62-2.78-2.45c0-0.93,0.52-2.57,3.37-2.57c2.68,0,3.41,1.67,3.42,2.69h-1.76c-0.05-0.37-0.2-1.25-1.79-1.25
		c-0.7,0-1.53,0.24-1.53,1c0,0.65,0.56,0.79,0.93,0.87l2.14,0.5c1.2,0.28,2.29,0.74,2.29,2.24c0,2.51-2.69,2.73-3.45,2.73
		c-3.2,0-3.75-1.75-3.75-2.79H65.78z"/>
</g>
</svg>
