<?xml version="1.0" encoding="utf-8"?>
<!-- Generator: Adobe Illustrator 28.1.0, SVG Export Plug-In . SVG Version: 6.00 Build 0)  -->
<svg version="1.1" id="Objet_dynamique_vectoriel_xA0_Image_00000037690661926981619270000013605359725040407738_"
	 xmlns="http://www.w3.org/2000/svg" xmlns:xlink="http://www.w3.org/1999/xlink" x="0px" y="0px" viewBox="0 0 175.92 43.2"
	 style="enable-background:new 0 0 175.92 43.2;" xml:space="preserve">
<style type="text/css">
	.st0{fill:#FFFFFF;}
	.st1{fill:#E84E0F;}
</style>
<g>
	<path class="st0" d="M84.5,43.19c-1.12,0-2.24,0-3.36,0c0.32-1.72,0.6-3.46,0.97-5.17c0.29-1.38,0.28-2.69-0.41-3.72
		c0.61-1.1,1.28-2.01,1.66-3.03c1.02-2.72-0.34-5.5-2.89-5.75c-2.13-0.21-4.29-0.04-6.47-0.04c-1.15,5.96-2.28,11.83-3.42,17.71
		c-1.12,0-2.24,0-3.36,0c0.2-1.08,0.4-2.17,0.6-3.24c-0.17-0.06-0.25-0.1-0.32-0.1c-1.12-0.01-2.24-0.01-3.36-0.02
		c-2.26,0-2.56-0.37-2.09-2.63c0.02-0.12,0.08-0.23,0.08-0.35c-0.02-0.91,0.47-1.1,1.3-1.08c1.95,0.06,3.9,0.02,5.95,0.02
		c0.39-2.16,0.85-4.23,1.1-6.32c0.25-2.06-0.76-3.45-2.56-3.9c-3.68-0.92-6.97,0.98-7.83,4.62c-0.61,2.6-1.09,5.24-1.52,7.87
		c-0.46,2.8,0.33,4.11,2.88,5.12c-3.92,0-7.84,0-11.76,0c0.5-2.63,1-5.25,1.48-7.88c0.11-0.62,0.38-0.87,1.03-0.85
		c1.59,0.04,3.18,0.01,4.84,0.01c0.21-1.05,0.4-2,0.63-3.12c-1.06,0-1.96,0-2.87,0c-0.89,0-1.79,0-2.81,0
		c0.25-1.36,0.42-2.49,0.66-3.62c0.29-1.37,0.84-1.79,2.25-1.8c1.48-0.01,2.96,0.03,4.43-0.03c0.3-0.01,0.79-0.28,0.86-0.52
		c0.25-0.87,0.37-1.78,0.56-2.8c-1.86,0-3.61-0.02-5.36,0c-2.98,0.04-5.35,1.82-5.96,4.74c-1.1,5.27-2.07,10.57-3.09,15.85
		c-5.68,0-11.36,0-17.04,0c5.71-1.24,8.86-4.98,9.99-10.5c1.63-7.98,3.11-15.99,4.66-23.99c0.53-2.73,1.06-5.47,1.62-8.37
		c-2.1,0-4.05,0.03-5.99-0.02c-0.75-0.02-1.04,0.24-1.17,0.98c-0.52,2.95-1.11,5.88-1.68,8.82c-0.46,2.38-0.94,4.75-1.42,7.17
		c-3.44,0-6.75,0-10.16,0c-0.45,2.31-0.89,4.57-1.35,6.94c3.4,0,6.7,0,10.18,0c-0.6,3.01-1.1,5.91-1.76,8.77
		c-0.51,2.23-1.82,3.13-4.17,3.14c-5.08,0-10.16,0.02-15.23-0.01c-0.81,0-1.2,0.16-1.33,1.07c-0.3,2.01-0.75,4-1.14,6
		c-1.12,0-2.24,0-3.36,0c1.19-6.3,2.38-12.61,3.59-19.01c2.65,0,5.2,0,7.75,0c2.11,0,2.11,0,2.5-2.1c0.29-1.54,0.55-3.09,0.86-4.8
		c-3.36,0-6.5,0-9.75,0c0.43-2.14,0.83-4.13,1.22-6.12c0.6-3.03,1.73-3.96,4.85-3.96c4.92,0,9.84,0.01,14.75-0.02
		c0.41,0,1.13-0.21,1.18-0.44c0.47-2.04,0.83-4.1,1.22-6.17c-0.28-0.07-0.4-0.12-0.51-0.12c-5.56-0.01-11.12-0.14-16.67,0.03
		C12.41,0.65,7.66,4.77,6.55,10.25C4.8,18.81,3.19,27.4,1.5,35.97c-0.45,2.26-0.97,4.5-1.47,6.74c0-14.24,0-28.48,0-42.71
		c58.63,0,117.26,0,175.89,0c0,14.4,0,28.8,0,43.19c-1.92,0-3.84,0-5.76,0c3.83-1.83,4.17-2.68,2.71-6.82
		c-0.63-1.81-1.27-3.61-1.9-5.42c-0.64-1.83-0.27-2.36,1.63-2.37c0.44,0,0.92,0.11,1.31-0.03c0.45-0.17,0.99-0.48,1.19-0.88
		c0.33-0.65,0.42-1.42,0.65-2.26c-1.67,0-3.18-0.01-4.69,0c-3.33,0.02-4.87,2.19-3.78,5.35c0.78,2.26,1.6,4.51,2.39,6.77
		c0.58,1.65,0.16,2.25-1.55,2.26c-1.51,0.01-3.02,0-4.6,0c-0.2,1.2-0.38,2.29-0.56,3.39c-0.72,0-1.44,0-2.16,0
		c0.22-1.08,0.44-2.17,0.69-3.36c-1.14,0-2.18,0-3.21,0c-2.96,0-3.06-0.16-2.54-3.07c0.15-0.84,0.53-1,1.28-0.99
		c1.95,0.04,3.91,0.01,6.01,0.01c0.38-2.26,0.87-4.44,1.07-6.65c0.18-1.96-0.86-3.27-2.64-3.57c-3.62-0.61-6.61,0.46-7.71,4.61
		c-0.69,2.62-1.14,5.31-1.56,7.99c-0.43,2.74,0.37,4.01,2.86,5.03c-2.08,0-4.16,0-6.24,0c0.28-1.61,0.52-3.22,0.84-4.82
		c0.3-1.48,0.42-2.91-0.33-4.03c0.64-1.19,1.36-2.18,1.73-3.28c0.89-2.64-0.48-5.25-2.97-5.51c-2.12-0.22-4.28-0.05-6.46-0.05
		c-0.37,1.9-0.74,3.74-1.09,5.58c-0.77,4.03-1.52,8.07-2.28,12.1c-2.16,0-4.32,0-6.48,0c2.94-0.85,4.25-3,4.75-5.85
		c0.41-2.32,0.87-4.63,1.31-6.94c0.3-1.59,0.61-3.17,0.93-4.81c-1.21,0-2.23,0-3.33,0c-0.75,3.89-1.48,7.72-2.26,11.55
		c-0.14,0.69-0.34,1.41-0.71,2c-0.56,0.88-1.5,1.09-2.44,0.71c-0.89-0.37-0.92-1.18-0.75-2.04c0.33-1.6,0.62-3.21,0.93-4.82
		c0.47-2.46,0.94-4.93,1.44-7.55c-0.93,0-1.73,0.04-2.51-0.01c-0.67-0.04-0.88,0.25-0.99,0.87c-0.74,3.96-1.53,7.91-2.28,11.88
		c-0.28,1.51,0.03,2.91,1.28,3.89c0.64,0.5,1.47,0.75,2.21,1.12c-3.36,0-6.72,0-10.08,0c0.32-1.88,0.62-3.77,0.97-5.65
		c0.54-2.89,1.12-5.78,1.7-8.75c1.24,0,2.38,0,3.57,0c0.21-1.14,0.41-2.18,0.62-3.28c-3.56,0-6.98,0-10.45,0
		c-0.2,1.09-0.39,2.14-0.61,3.32c1.23,0,2.33,0,3.51,0c-0.3,1.58-0.59,3.03-0.86,4.48c-0.61,3.29-1.2,6.59-1.81,9.88
		c-1.92,0-3.84,0-5.76,0c0.2-1.08,0.4-2.17,0.61-3.36c-1.2,0-2.27,0-3.34,0c-2.77,0-2.89-0.2-2.39-2.99
		c0.16-0.88,0.5-1.09,1.33-1.07c1.95,0.06,3.9,0.02,5.95,0.02c0.38-2.17,0.84-4.23,1.1-6.32c0.25-2.06-0.76-3.45-2.56-3.89
		c-3.68-0.91-6.97,0.98-7.83,4.63c-0.61,2.6-1.09,5.24-1.52,7.88c-0.46,2.79,0.34,4.11,2.89,5.11c-2.24,0-4.48,0-6.72,0
		c0.2-1.14,0.38-2.28,0.59-3.41c0.91-4.73,1.83-9.47,2.75-14.2c-2.02-0.38-3.66-0.29-4.72,1.86c-0.79,1.6-2,3-3.17,4.68
		c-0.51-1.68-0.94-3.08-1.36-4.48c-0.67-2.23-0.67-2.19-3.01-2.21c-0.83-0.01-1.06,0.31-1.2,1.07c-0.49,2.75-1.08,5.48-1.59,8.22
		C85.47,37.55,84.99,40.37,84.5,43.19z M99.37,10c-0.15-0.24-0.21-0.3-0.23-0.37c-0.47-1.44-0.93-2.88-1.39-4.33
		c-0.72-2.29-0.72-2.25-3.13-2.26c-0.79,0-1.1,0.25-1.25,1.04c-0.66,3.61-1.39,7.21-2.09,10.81c-0.37,1.89-0.71,3.79-1.08,5.74
		c1.24,0,2.31,0,3.4,0c0.71-3.57,1.4-7.08,2.09-10.59c0.97,1.71,2.04,3.35,2.29,5.1c0.25,1.76-0.31,3.64-0.53,5.55
		c0.76,0,1.48-0.05,2.19,0.01c0.82,0.07,1.07-0.27,1.21-1.06c0.56-3.14,1.22-6.27,1.83-9.4c0.45-2.34,0.89-4.69,1.37-7.2
		c-0.85,0-1.56,0.04-2.27-0.01c-0.76-0.05-1.13,0.16-1.26,1C100.22,5.97,99.79,7.87,99.37,10z M73.93,11.89
		c0.62-1.14,1.31-2.09,1.69-3.15c1.11-3.15-0.7-5.67-4.01-5.71c-1.44-0.02-2.88,0.05-4.32-0.02c-0.89-0.05-1.15,0.32-1.3,1.13
		c-0.66,3.57-1.39,7.13-2.08,10.7c-0.37,1.9-0.72,3.81-1.08,5.75c1.21,0,2.26,0,3.32,0c0.43-2.16,0.84-4.24,1.26-6.31
		c0.05-0.26,0.16-0.73,0.26-0.74c0.94-0.05,1.95-0.2,2.81,0.08c0.33,0.11,0.54,1.25,0.46,1.88c-0.22,1.69-0.62,3.36-0.97,5.18
		c1.02,0,1.9,0.06,2.76-0.03c0.26-0.03,0.63-0.42,0.7-0.7c0.33-1.4,0.56-2.82,0.86-4.23C74.59,14.3,74.62,12.94,73.93,11.89z
		 M87.04,20.62c0.83-4.29,1.71-8.51,2.44-12.75c0.38-2.23-0.83-4.37-2.62-4.68C83.22,2.55,80.13,3.48,79,8.01
		c-0.37,1.51-0.62,3.05-0.91,4.58c-0.51,2.65-1.01,5.31-1.53,8.02c1.18,0,2.24,0,3.33,0c0.42-2.14,0.81-4.22,1.26-6.28
		c0.07-0.33,0.34-0.86,0.55-0.88c1.09-0.09,2.18-0.04,3.38-0.04c-0.25,1.34-0.46,2.47-0.68,3.61c-0.22,1.17-0.45,2.34-0.69,3.6
		C84.84,20.62,85.87,20.62,87.04,20.62z M119.39,13.38c2.02,0,3.98,0.02,5.93-0.02c0.36-0.01,0.98-0.25,1.03-0.47
		c0.42-2.19,0.87-4.39,1.05-6.6c0.12-1.4-0.61-2.64-2.08-3.02c-3.51-0.91-6.68,0.04-8.01,3.69c-0.39,1.08-0.59,2.24-0.79,3.37
		c-0.4,2.24-0.91,4.47-1.04,6.73c-0.13,2.24,1.35,3.56,3.57,3.6c1.44,0.03,2.88,0.04,4.31-0.02c0.31-0.01,0.81-0.26,0.88-0.5
		c0.25-0.87,0.36-1.78,0.55-2.79c-1.03,0-1.94,0-2.85,0C118.52,17.35,118.17,16.83,119.39,13.38z M65.1,0.23
		c-2.29,0-4.42-0.19-6.5,0.05c-2.31,0.27-3.88,1.76-4.64,3.99c-0.25,0.75-0.38,1.55-0.54,2.33c-0.91,4.65-1.81,9.3-2.72,14.04
		c1.15,0,2.21,0,3.33,0c0.57-2.89,1.14-5.73,1.71-8.66c1.93,0,3.8,0,5.7,0c0.2-1.05,0.39-2.02,0.6-3.13c-1.96,0-3.78,0-5.69,0
		c0.25-1.27,0.43-2.41,0.69-3.53c0.32-1.42,0.86-1.82,2.36-1.83c1.67-0.01,3.34,0,5.06,0C64.68,2.35,64.88,1.34,65.1,0.23z
		 M113.05,17.33c-1.26,0-2.53,0.01-3.8,0c-1.12-0.02-1.6-0.5-1.41-1.56c0.47-2.59,0.98-5.18,1.52-7.76c0.23-1.11,0.94-1.7,2.14-1.67
		c1.27,0.04,2.55,0.01,3.88,0.01c0.22-1.12,0.42-2.15,0.64-3.31c-1.61,0-3-0.02-4.39,0c-2.91,0.06-4.8,1.56-5.51,4.39
		c-0.27,1.08-0.48,2.18-0.67,3.28c-0.38,2.12-0.87,4.23-1.06,6.37c-0.19,2.15,1.05,3.4,3.16,3.55c0.72,0.05,1.44,0.04,2.16,0.04
		c3.05,0,3.05,0,3.48-3.06C113.19,17.6,113.15,17.56,113.05,17.33z"/>
	<path d="M10.35,43.19c0.39-2,0.84-3.99,1.14-6c0.13-0.9,0.52-1.07,1.33-1.07c5.08,0.03,10.15,0.02,15.23,0.01
		c2.35,0,3.65-0.9,4.17-3.14c0.66-2.86,1.16-5.76,1.76-8.77c-3.48,0-6.79,0-10.18,0c0.46-2.37,0.9-4.63,1.35-6.94
		c3.41,0,6.72,0,10.16,0c0.48-2.42,0.95-4.79,1.42-7.17c0.57-2.94,1.16-5.88,1.68-8.82c0.13-0.74,0.42-1,1.17-0.98
		c1.95,0.05,3.89,0.02,5.99,0.02c-0.56,2.91-1.09,5.64-1.62,8.37c-1.54,8-3.03,16.01-4.66,23.99c-1.13,5.53-4.28,9.26-9.99,10.5
		C22.99,43.19,16.67,43.19,10.35,43.19z"/>
	<path class="st1" d="M0.03,42.71c0.49-2.25,1.02-4.49,1.47-6.74C3.19,27.4,4.8,18.81,6.55,10.25c1.11-5.48,5.87-9.6,11.43-9.76
		c5.55-0.16,11.11-0.03,16.67-0.03c0.11,0,0.23,0.05,0.51,0.12c-0.39,2.06-0.74,4.13-1.22,6.17c-0.05,0.23-0.77,0.44-1.18,0.44
		C27.84,7.22,22.92,7.21,18,7.21c-3.12,0-4.25,0.93-4.85,3.96c-0.39,1.99-0.79,3.98-1.22,6.12c3.25,0,6.39,0,9.75,0
		c-0.31,1.71-0.58,3.25-0.86,4.8c-0.39,2.1-0.39,2.1-2.5,2.1c-2.55,0-5.1,0-7.75,0c-1.21,6.4-2.4,12.71-3.59,19.01
		c-2.13,0-4.25,0-6.38,0C0.29,43.19-0.11,43.29,0.03,42.71z"/>
	<path d="M84.5,43.19c0.5-2.82,0.97-5.65,1.5-8.47c0.51-2.74,1.1-5.47,1.59-8.22c0.14-0.76,0.36-1.08,1.2-1.07
		c2.34,0.02,2.34-0.02,3.01,2.21c0.42,1.4,0.85,2.81,1.36,4.48c1.16-1.69,2.38-3.08,3.17-4.68c1.06-2.15,2.7-2.24,4.72-1.86
		c-0.92,4.73-1.84,9.47-2.75,14.2c-0.22,1.13-0.4,2.27-0.59,3.41c-1.12,0-2.24,0-3.36,0c0.66-3.53,1.31-7.06,1.98-10.64
		c-0.21,0.04-0.26,0.03-0.28,0.05c-0.74,0.89-1.46,1.79-2.21,2.67c-0.82,0.97-2.24,0.77-2.74-0.37c-0.37-0.84-0.73-1.69-1.21-2.79
		c-0.16,0.79-0.25,1.25-0.35,1.72c-0.64,3.12-1.27,6.24-1.91,9.36C86.58,43.19,85.54,43.19,84.5,43.19z"/>
	<path d="M70.58,43.19c1.13-5.88,2.27-11.75,3.42-17.71c2.18,0,4.34-0.17,6.47,0.04c2.56,0.25,3.91,3.03,2.89,5.75
		c-0.38,1.02-1.05,1.93-1.66,3.03c0.69,1.03,0.7,2.34,0.41,3.72c-0.36,1.71-0.65,3.45-0.97,5.17c-1.12,0-2.24,0-3.36,0
		c0.25-1.37,0.43-2.76,0.76-4.11c0.81-3.38,0.1-3.52-3.18-3.22c-0.47,2.42-0.94,4.88-1.41,7.33C72.82,43.19,71.7,43.19,70.58,43.19z
		 M76,32.63c0.82,0,1.45,0.01,2.08,0c1.46-0.03,2.53-1.21,2.29-2.67c-0.08-0.44-0.52-1.05-0.92-1.17c-0.7-0.2-1.49-0.12-2.24-0.07
		c-0.2,0.01-0.51,0.28-0.55,0.48C76.41,30.28,76.23,31.37,76,32.63z"/>
	<path d="M138.25,43.19c0.76-4.03,1.52-8.07,2.28-12.1c0.35-1.84,0.72-3.68,1.09-5.58c2.18,0,4.34-0.18,6.46,0.05
		c2.5,0.26,3.86,2.87,2.97,5.51c-0.37,1.1-1.08,2.09-1.73,3.28c0.75,1.12,0.63,2.55,0.33,4.03c-0.33,1.6-0.57,3.21-0.84,4.82
		c-1.12,0-2.24,0-3.36,0c0.04-0.39,0.07-0.79,0.14-1.18c0.27-1.49,0.59-2.98,0.83-4.47c0.13-0.81-0.01-1.58-1.01-1.71
		c-0.63-0.08-1.28-0.07-1.91,0c-0.23,0.03-0.57,0.33-0.61,0.55c-0.45,2.27-0.85,4.54-1.27,6.82
		C140.49,43.19,139.37,43.19,138.25,43.19z M143.61,32.63c0.81,0,1.52,0.02,2.23-0.01c1.47-0.06,2.6-1.7,2.05-3.07
		c-0.15-0.36-0.64-0.8-1-0.82c-0.84-0.06-1.7,0.09-2.54,0.18c-0.05,0-0.08,0.21-0.1,0.33C144.04,30.32,143.84,31.41,143.61,32.63z"
		/>
	<path d="M155.04,43.19c-2.49-1.03-3.29-2.3-2.86-5.03c0.42-2.68,0.87-5.37,1.56-7.99c1.1-4.15,4.09-5.22,7.71-4.61
		c1.78,0.3,2.82,1.62,2.64,3.57c-0.2,2.21-0.69,4.39-1.07,6.65c-2.11,0-4.06,0.03-6.01-0.01c-0.75-0.02-1.13,0.14-1.28,0.99
		c-0.52,2.91-0.42,3.07,2.54,3.07c1.03,0,2.07,0,3.21,0c-0.24,1.19-0.46,2.27-0.69,3.36C158.88,43.19,156.96,43.19,155.04,43.19z
		 M156.62,32.55c1.3,0,2.47,0,3.65,0c0.17-0.78,0.44-1.48,0.42-2.18c-0.02-0.5-0.3-1.23-0.69-1.45c-1.06-0.6-2.54,0.09-2.92,1.29
		C156.84,30.94,156.77,31.74,156.62,32.55z"/>
	<path d="M104.41,43.19c-2.56-1.01-3.35-2.32-2.89-5.11c0.43-2.64,0.91-5.27,1.52-7.88c0.85-3.65,4.15-5.54,7.83-4.63
		c1.8,0.45,2.81,1.84,2.56,3.89c-0.25,2.09-0.71,4.16-1.1,6.32c-2.04,0-4,0.04-5.95-0.02c-0.83-0.02-1.17,0.18-1.33,1.07
		c-0.5,2.79-0.39,2.99,2.39,2.99c1.07,0,2.15,0,3.34,0c-0.22,1.19-0.42,2.27-0.61,3.36C108.25,43.19,106.33,43.19,104.41,43.19z
		 M109.6,32.58c0.17-0.84,0.45-1.59,0.41-2.32c-0.02-0.48-0.39-1.2-0.8-1.37c-1.22-0.53-2.54,0.24-2.88,1.55
		c-0.18,0.68-0.26,1.38-0.4,2.14C107.19,32.58,108.34,32.58,109.6,32.58z"/>
	<path d="M61.46,43.19c-2.55-1.02-3.34-2.32-2.88-5.12c0.43-2.64,0.91-5.27,1.52-7.87c0.85-3.65,4.15-5.54,7.83-4.62
		c1.8,0.45,2.81,1.84,2.56,3.9c-0.25,2.09-0.71,4.15-1.1,6.32c-2.05,0-4,0.04-5.95-0.02c-0.83-0.02-1.32,0.17-1.3,1.08
		c0,0.12-0.06,0.23-0.08,0.35c-0.47,2.26-0.17,2.63,2.09,2.63c1.12,0,2.24,0.01,3.36,0.02c0.08,0,0.15,0.04,0.32,0.1
		c-0.2,1.07-0.4,2.16-0.6,3.24C65.3,43.19,63.38,43.19,61.46,43.19z M66.65,32.58c0.16-0.81,0.45-1.55,0.42-2.29
		c-0.02-0.49-0.37-1.21-0.77-1.39c-1.19-0.56-2.57,0.22-2.9,1.51c-0.18,0.69-0.26,1.4-0.4,2.17C64.22,32.58,65.37,32.58,66.65,32.58
		z"/>
	<path d="M129.37,43.19c-0.74-0.36-1.57-0.62-2.21-1.12c-1.25-0.98-1.57-2.38-1.28-3.89c0.75-3.96,1.54-7.91,2.28-11.88
		c0.12-0.62,0.32-0.92,0.99-0.87c0.79,0.05,1.58,0.01,2.51,0.01c-0.5,2.62-0.97,5.08-1.44,7.55c-0.31,1.61-0.6,3.22-0.93,4.82
		c-0.18,0.86-0.15,1.67,0.75,2.04c0.93,0.38,1.88,0.17,2.44-0.71c0.37-0.59,0.57-1.31,0.71-2c0.77-3.83,1.5-7.67,2.26-11.55
		c1.09,0,2.12,0,3.33,0c-0.32,1.64-0.63,3.22-0.93,4.81c-0.44,2.31-0.91,4.62-1.31,6.94c-0.5,2.85-1.81,5-4.75,5.85
		C130.97,43.19,130.17,43.19,129.37,43.19z"/>
	<path d="M46.34,43.19c1.02-5.29,1.99-10.58,3.09-15.85c0.61-2.92,2.97-4.7,5.96-4.74c1.75-0.02,3.5,0,5.36,0
		c-0.19,1.02-0.3,1.93-0.56,2.8c-0.07,0.24-0.55,0.51-0.86,0.52c-1.48,0.05-2.96,0.02-4.43,0.03c-1.41,0.01-1.95,0.43-2.25,1.8
		c-0.24,1.12-0.42,2.26-0.66,3.62c1.02,0,1.92,0,2.81,0c0.91,0,1.82,0,2.87,0c-0.22,1.11-0.41,2.07-0.63,3.12
		c-1.66,0-3.25,0.03-4.84-0.01c-0.66-0.02-0.92,0.23-1.03,0.85c-0.48,2.63-0.98,5.25-1.48,7.88C48.58,43.19,47.46,43.19,46.34,43.19
		z"/>
	<path d="M162.96,43.19c0.18-1.09,0.36-2.19,0.56-3.39c1.58,0,3.09,0.01,4.6,0c1.71-0.01,2.13-0.62,1.55-2.26
		c-0.79-2.26-1.61-4.51-2.39-6.77c-1.09-3.17,0.45-5.33,3.78-5.35c1.51-0.01,3.03,0,4.69,0c-0.23,0.84-0.32,1.61-0.65,2.26
		c-0.21,0.4-0.74,0.71-1.19,0.88c-0.39,0.14-0.87,0.03-1.31,0.03c-1.9,0.01-2.26,0.54-1.63,2.37c0.63,1.81,1.26,3.62,1.9,5.42
		c1.45,4.14,1.12,4.99-2.71,6.82C167.76,43.19,165.36,43.19,162.96,43.19z"/>
	<path d="M115.93,43.19c0.6-3.29,1.2-6.59,1.81-9.88c0.27-1.45,0.55-2.89,0.86-4.48c-1.18,0-2.28,0-3.51,0
		c0.22-1.19,0.41-2.23,0.61-3.32c3.47,0,6.9,0,10.45,0c-0.21,1.1-0.4,2.14-0.62,3.28c-1.19,0-2.33,0-3.57,0
		c-0.58,2.97-1.16,5.86-1.7,8.75c-0.35,1.88-0.65,3.76-0.97,5.65C118.17,43.19,117.05,43.19,115.93,43.19z"/>
	<path class="st0" d="M87.62,43.19c0.64-3.12,1.27-6.24,1.91-9.36c0.1-0.47,0.19-0.93,0.35-1.72c0.48,1.1,0.84,1.95,1.21,2.79
		c0.5,1.14,1.92,1.34,2.74,0.37c0.75-0.88,1.47-1.78,2.21-2.67c0.02-0.02,0.07-0.01,0.28-0.05c-0.67,3.58-1.32,7.11-1.98,10.64
		C92.09,43.19,89.85,43.19,87.62,43.19z"/>
	<path class="st0" d="M73.94,43.19c0.47-2.46,0.94-4.91,1.41-7.33c3.29-0.3,3.99-0.15,3.18,3.22c-0.32,1.35-0.51,2.74-0.76,4.11
		C76.5,43.19,75.22,43.19,73.94,43.19z"/>
	<path class="st0" d="M141.61,43.19c0.42-2.27,0.82-4.55,1.27-6.82c0.04-0.22,0.38-0.52,0.61-0.55c0.63-0.07,1.28-0.08,1.91,0
		c1.01,0.13,1.15,0.9,1.01,1.71c-0.24,1.5-0.56,2.98-0.83,4.47c-0.07,0.39-0.09,0.79-0.14,1.18
		C144.17,43.19,142.89,43.19,141.61,43.19z"/>
	<path d="M99.37,10c0.42-2.13,0.86-4.03,1.16-5.96c0.13-0.84,0.5-1.06,1.26-1c0.7,0.05,1.41,0.01,2.27,0.01
		c-0.48,2.51-0.91,4.86-1.37,7.2c-0.61,3.13-1.26,6.26-1.83,9.4c-0.14,0.78-0.39,1.13-1.21,1.06c-0.71-0.06-1.43-0.01-2.19-0.01
		c0.22-1.92,0.78-3.79,0.53-5.55c-0.25-1.75-1.32-3.39-2.29-5.1c-0.69,3.51-1.39,7.02-2.09,10.59c-1.1,0-2.16,0-3.4,0
		c0.37-1.95,0.71-3.85,1.08-5.74c0.7-3.6,1.43-7.2,2.09-10.81c0.14-0.79,0.45-1.04,1.25-1.04c2.41,0.01,2.41-0.02,3.13,2.26
		c0.46,1.44,0.92,2.89,1.39,4.33C99.16,9.69,99.21,9.75,99.37,10z"/>
	<path d="M73.93,11.89c0.69,1.05,0.66,2.42,0.37,3.82c-0.29,1.41-0.53,2.83-0.86,4.23c-0.07,0.28-0.44,0.68-0.7,0.7
		c-0.86,0.09-1.74,0.03-2.76,0.03c0.36-1.82,0.76-3.49,0.97-5.18c0.08-0.63-0.13-1.77-0.46-1.88c-0.86-0.28-1.87-0.13-2.81-0.08
		c-0.1,0.01-0.2,0.47-0.26,0.74c-0.42,2.07-0.83,4.15-1.26,6.31c-1.06,0-2.11,0-3.32,0c0.36-1.94,0.71-3.84,1.08-5.75
		c0.69-3.57,1.42-7.13,2.08-10.7c0.15-0.81,0.41-1.17,1.3-1.13c1.44,0.07,2.88,0.01,4.32,0.02c3.31,0.04,5.12,2.56,4.01,5.71
		C75.24,9.8,74.55,10.75,73.93,11.89z M68.22,10.12c1,0,1.83,0.06,2.65-0.02c1.06-0.1,1.85-1.36,1.74-2.61
		c-0.1-1.21-0.91-1.32-1.87-1.27c-0.58,0.03-1.17,0.01-1.77,0.01C68.71,7.56,68.48,8.77,68.22,10.12z"/>
	<path d="M87.04,20.62c-1.18,0-2.2,0-3.34,0c0.24-1.26,0.47-2.43,0.69-3.6c0.22-1.13,0.43-2.27,0.68-3.61
		c-1.19,0-2.29-0.05-3.38,0.04c-0.21,0.02-0.48,0.55-0.55,0.88c-0.44,2.07-0.83,4.14-1.26,6.28c-1.09,0-2.15,0-3.33,0
		c0.52-2.72,1.02-5.37,1.53-8.02c0.29-1.53,0.54-3.07,0.91-4.58c1.12-4.54,4.21-5.47,7.87-4.83c1.78,0.31,3,2.45,2.62,4.68
		C88.76,12.11,87.88,16.33,87.04,20.62z M81.94,10.17c0.7,0,1.25,0,1.8,0c2.06,0,2.42-0.36,2.43-2.45c0-0.16,0.03-0.35-0.05-0.47
		c-0.16-0.26-0.33-0.58-0.58-0.72c-1.06-0.61-2.7-0.01-3.09,1.18C82.21,8.45,82.13,9.24,81.94,10.17z"/>
	<path d="M119.39,13.38c-1.22,3.45-0.87,3.97,2.56,3.97c0.91,0,1.83,0,2.85,0c-0.19,1.01-0.3,1.92-0.55,2.79
		c-0.07,0.24-0.57,0.49-0.88,0.5c-1.44,0.05-2.88,0.04-4.31,0.02c-2.22-0.04-3.71-1.37-3.57-3.6c0.13-2.25,0.65-4.49,1.04-6.73
		c0.2-1.14,0.4-2.29,0.79-3.37c1.33-3.65,4.5-4.6,8.01-3.69c1.46,0.38,2.19,1.62,2.08,3.02c-0.18,2.22-0.63,4.41-1.05,6.6
		c-0.04,0.22-0.67,0.46-1.03,0.47C123.37,13.41,121.41,13.38,119.39,13.38z M123.59,10.08c0.16-0.77,0.46-1.51,0.43-2.24
		c-0.02-0.48-0.37-1.18-0.77-1.39c-1.07-0.54-2.43,0.11-2.82,1.26c-0.25,0.73-0.33,1.52-0.5,2.36
		C121.24,10.08,122.38,10.08,123.59,10.08z"/>
	<path d="M65.1,0.23c-0.22,1.12-0.42,2.12-0.64,3.25c-1.72,0-3.39-0.01-5.06,0c-1.49,0.01-2.04,0.42-2.36,1.83
		c-0.26,1.12-0.44,2.26-0.69,3.53c1.92,0,3.73,0,5.69,0c-0.21,1.11-0.4,2.08-0.6,3.13c-1.91,0-3.77,0-5.7,0
		c-0.58,2.92-1.14,5.77-1.71,8.66c-1.12,0-2.18,0-3.33,0c0.92-4.74,1.82-9.39,2.72-14.04c0.15-0.78,0.28-1.58,0.54-2.33
		c0.75-2.23,2.32-3.72,4.64-3.99C60.67,0.04,62.8,0.23,65.1,0.23z"/>
	<path d="M113.05,17.33c0.1,0.23,0.13,0.27,0.13,0.3c-0.42,3.06-0.42,3.06-3.48,3.06c-0.72,0-1.44,0.01-2.16-0.04
		c-2.11-0.15-3.35-1.4-3.16-3.55c0.19-2.14,0.68-4.25,1.06-6.37c0.2-1.1,0.4-2.2,0.67-3.28c0.71-2.83,2.6-4.33,5.51-4.39
		c1.39-0.03,2.79,0,4.39,0c-0.22,1.16-0.42,2.18-0.64,3.31c-1.33,0-2.6,0.03-3.88-0.01c-1.2-0.04-1.91,0.55-2.14,1.67
		c-0.54,2.58-1.06,5.16-1.52,7.76c-0.19,1.05,0.29,1.54,1.41,1.56C110.52,17.35,111.8,17.33,113.05,17.33z"/>
	<path class="st0" d="M76,32.63c0.23-1.26,0.41-2.35,0.65-3.43c0.05-0.2,0.35-0.47,0.55-0.48c0.75-0.04,1.54-0.13,2.24,0.07
		c0.4,0.11,0.84,0.72,0.92,1.17c0.25,1.46-0.83,2.65-2.29,2.67C77.45,32.64,76.82,32.63,76,32.63z"/>
	<path class="st0" d="M143.61,32.63c0.23-1.21,0.43-2.3,0.64-3.39c0.02-0.12,0.06-0.32,0.1-0.33c0.85-0.09,1.7-0.25,2.54-0.18
		c0.36,0.03,0.85,0.46,1,0.82c0.55,1.37-0.58,3.01-2.05,3.07C145.13,32.65,144.42,32.63,143.61,32.63z"/>
	<path class="st0" d="M156.62,32.55c0.15-0.81,0.22-1.6,0.46-2.34c0.38-1.2,1.86-1.89,2.92-1.29c0.39,0.22,0.68,0.94,0.69,1.45
		c0.02,0.69-0.26,1.4-0.42,2.18C159.09,32.55,157.92,32.55,156.62,32.55z"/>
	<path class="st0" d="M109.6,32.58c-1.26,0-2.41,0-3.67,0c0.14-0.76,0.23-1.46,0.4-2.14c0.34-1.31,1.66-2.08,2.88-1.55
		c0.4,0.18,0.78,0.89,0.8,1.37C110.05,30.99,109.77,31.74,109.6,32.58z"/>
	<path class="st0" d="M66.65,32.58c-1.28,0-2.43,0-3.66,0c0.14-0.77,0.22-1.48,0.4-2.17c0.34-1.29,1.72-2.06,2.9-1.51
		c0.4,0.19,0.75,0.9,0.77,1.39C67.1,31.02,66.82,31.77,66.65,32.58z"/>
	<path class="st0" d="M68.22,10.12c0.26-1.35,0.49-2.56,0.75-3.89c0.6,0,1.19,0.03,1.77-0.01c0.96-0.05,1.77,0.06,1.87,1.27
		c0.1,1.24-0.68,2.51-1.74,2.61C70.05,10.19,69.21,10.12,68.22,10.12z"/>
	<path class="st0" d="M81.94,10.17c0.19-0.93,0.27-1.72,0.51-2.46c0.39-1.19,2.02-1.79,3.09-1.18c0.25,0.14,0.42,0.46,0.58,0.72
		c0.07,0.12,0.05,0.31,0.05,0.47c-0.01,2.09-0.37,2.45-2.43,2.45C83.19,10.17,82.64,10.17,81.94,10.17z"/>
	<path class="st0" d="M123.59,10.08c-1.21,0-2.35,0-3.66,0c0.17-0.85,0.26-1.63,0.5-2.36c0.39-1.15,1.76-1.8,2.82-1.26
		c0.4,0.2,0.76,0.9,0.77,1.39C124.05,8.57,123.75,9.31,123.59,10.08z"/>
</g>
</svg>
