<svg version="1.1" xmlns="http://www.w3.org/2000/svg" xmlns:xlink="http://www.w3.org/1999/xlink" x="0px" y="0px"
	 viewBox="0 0 286.17 51.71" style="enable-background:new 0 0 286.17 51.71;" xml:space="preserve">
<g>
	<g>
		<path d="M0,0h6.83v35.59c0,5.74,3.05,9.73,9.22,9.73c6.17,0,9.22-3.99,9.22-9.73V0h6.83v35.59
			c0,5.74,3.05,9.73,9.22,9.73c6.17,0,9.22-3.99,9.22-9.73V0h6.83v35.59c0,10.24-7.41,16.12-15.03,16.12
			c-5.81,0-10.24-1.53-13.65-6.61c-3.41,5.08-7.84,6.61-13.65,6.61C7.41,51.71,0,45.83,0,35.59V0z"/>
		<path d="M74.59,39.37l-2.61-5.08l17.21-9.59c-2.18-2.18-4-3.34-7.92-3.34c-6.61,0-11.4,4.94-11.4,12.06
			s4.79,12.06,11.4,12.06c7.55,0,10.39-4.5,11.69-10.9l6.46,0.8c-0.73,9.22-8.13,16.2-18.16,16.2c-9.66,0-18.09-7.41-18.09-18.16
			s8.43-18.16,18.09-18.16c8.13,0,13.58,4.29,16.85,11.04L74.59,39.37z"/>
		<path d="M106.26,50.84V0h6.39v50.84H106.26z"/>
		<path d="M122.38,50.84V0h6.39v50.84H122.38z"/>
		<path d="M137.71,14.67L140.32,0h6.1l-3.34,14.67H137.71z"/>
		<path d="M176.49,22.08h-4.94c-6.03,0-11.98,3.92-11.98,11.33s5.96,11.33,11.98,11.33h4.94v6.1h-6.1
			c-8.13,0-17.5-6.25-17.5-17.43c0-11.19,9.37-17.43,17.5-17.43h6.1V22.08z"/>
		<path d="M198.21,15.25c9.66,0,18.09,7.41,18.09,18.16s-8.43,18.16-18.09,18.16c-9.66,0-18.08-7.41-18.08-18.16
			S188.54,15.25,198.21,15.25z M198.21,45.47c6.61,0,11.4-4.94,11.4-12.06s-4.79-12.06-11.4-12.06c-6.61,0-11.4,4.94-11.4,12.06
			S191.6,45.47,198.21,45.47z"/>
		<path d="M221.96,50.84V27.16c0-6.54,5.38-11.91,12.49-11.91c3.92,0,7.84,1.6,10.17,4.94
			c2.32-3.34,6.25-4.94,10.17-4.94c7.12,0,12.49,5.37,12.49,11.91v23.68h-6.39V28.62c0-4.43-2.47-7.26-6.25-7.26
			c-4.14,0-6.83,2.32-6.83,8.28v21.21h-6.39V29.63c0-5.96-2.69-8.28-6.83-8.28c-3.78,0-6.25,2.83-6.25,7.26v22.23H221.96z"/>
		<path d="M279,15.76c3.84,0,7.17,2.9,7.17,7.05c0,4.15-3.33,7.05-7.17,7.05c-3.84,0-7.17-2.9-7.17-7.05
			C271.84,18.67,275.17,15.76,279,15.76z M279,28.62c3.13,0,5.53-2.47,5.53-5.8c0-3.31-2.39-5.8-5.53-5.8
			c-3.14,0-5.53,2.49-5.53,5.8C273.47,26.14,275.87,28.62,279,28.62z M277.58,26.84h-1.32v-8.06h3.06c1.95,0,2.92,0.66,2.92,2.32
			c0,1.46-0.88,2.06-2.1,2.2l2.26,3.54h-1.44l-2.08-3.49h-1.29V26.84z M277.58,22.27h1.68c1.15,0,1.65-0.35,1.65-1.27
			c0-0.78-0.58-1.13-1.73-1.13h-1.6V22.27z"/>
	</g>
	<g>
		<path d="M0,0h6.83v35.59c0,5.74,3.05,9.73,9.22,9.73c6.17,0,9.22-3.99,9.22-9.73V0h6.83v35.59
			c0,5.74,3.05,9.73,9.22,9.73c6.17,0,9.22-3.99,9.22-9.73V0h6.83v35.59c0,10.24-7.41,16.12-15.03,16.12
			c-5.81,0-10.24-1.53-13.65-6.61c-3.41,5.08-7.84,6.61-13.65,6.61C7.41,51.71,0,45.83,0,35.59V0z"/>
		<path d="M74.59,39.37l-2.61-5.08l17.21-9.59c-2.18-2.18-4-3.34-7.92-3.34c-6.61,0-11.4,4.94-11.4,12.06
			s4.79,12.06,11.4,12.06c7.55,0,10.39-4.5,11.69-10.9l6.46,0.8c-0.73,9.22-8.13,16.2-18.16,16.2c-9.66,0-18.09-7.41-18.09-18.16
			s8.43-18.16,18.09-18.16c8.13,0,13.58,4.29,16.85,11.04L74.59,39.37z"/>
		<path d="M106.26,50.84V0h6.39v50.84H106.26z"/>
		<path d="M122.38,50.84V0h6.39v50.84H122.38z"/>
		<path class="st2" d="M137.71,14.67L140.32,0h6.1l-3.34,14.67H137.71z"/>
		<path d="M176.49,22.08h-4.94c-6.03,0-11.98,3.92-11.98,11.33s5.96,11.33,11.98,11.33h4.94v6.1h-6.1
			c-8.13,0-17.5-6.25-17.5-17.43c0-11.19,9.37-17.43,17.5-17.43h6.1V22.08z"/>
		<path d="M198.21,15.25c9.66,0,18.09,7.41,18.09,18.16s-8.43,18.16-18.09,18.16c-9.66,0-18.08-7.41-18.08-18.16
			S188.54,15.25,198.21,15.25z M198.21,45.47c6.61,0,11.4-4.94,11.4-12.06s-4.79-12.06-11.4-12.06c-6.61,0-11.4,4.94-11.4,12.06
			S191.6,45.47,198.21,45.47z"/>
		<path d="M221.96,50.84V27.16c0-6.54,5.38-11.91,12.49-11.91c3.92,0,7.84,1.6,10.17,4.94
			c2.32-3.34,6.25-4.94,10.17-4.94c7.12,0,12.49,5.37,12.49,11.91v23.68h-6.39V28.62c0-4.43-2.47-7.26-6.25-7.26
			c-4.14,0-6.83,2.32-6.83,8.28v21.21h-6.39V29.63c0-5.96-2.69-8.28-6.83-8.28c-3.78,0-6.25,2.83-6.25,7.26v22.23H221.96z"/>
		<path d="M279,15.76c3.84,0,7.17,2.9,7.17,7.05c0,4.15-3.33,7.05-7.17,7.05c-3.84,0-7.17-2.9-7.17-7.05
			C271.84,18.67,275.17,15.76,279,15.76z M279,28.62c3.13,0,5.53-2.47,5.53-5.8c0-3.31-2.39-5.8-5.53-5.8
			c-3.14,0-5.53,2.49-5.53,5.8C273.47,26.14,275.87,28.62,279,28.62z M277.58,26.84h-1.32v-8.06h3.06c1.95,0,2.92,0.66,2.92,2.32
			c0,1.46-0.88,2.06-2.1,2.2l2.26,3.54h-1.44l-2.08-3.49h-1.29V26.84z M277.58,22.27h1.68c1.15,0,1.65-0.35,1.65-1.27
			c0-0.78-0.58-1.13-1.73-1.13h-1.6V22.27z"/>
	</g>
</g>
</svg>
