<svg xmlns="http://www.w3.org/2000/svg" viewBox="0 0 24 24" fill="none" stroke="currentColor" stroke-width="1.7" stroke-linecap="round" stroke-linejoin="round">
  <path d="M12 21c3.4 0 6-2.5 6-5.9 0-2.5-1.4-4.4-3-6.1-.7-.8-1.3-1.6-1.6-2.6-.2-.7-.2-1.6.1-2.4-2.7 1.2-4.3 3.1-4.8 5.6-.8-.6-1.4-1.5-1.6-2.5-1.3 1.5-2.1 3.2-2.1 5.5C5 17.5 8 21 12 21Z"/>
  <path d="M12 17.8c1.4 0 2.5-1 2.5-2.4 0-1-.5-1.8-1.2-2.6-.3-.4-.6-.8-.8-1.3-1.1.7-1.8 1.7-2 3-.3-.2-.6-.5-.8-.9-.4.6-.7 1.2-.7 2 0 1.3 1.2 2.2 3 2.2Z"/>
</svg>
