<?xml version="1.0" encoding="UTF-8"?><svg id="Calque_1" xmlns="http://www.w3.org/2000/svg" viewBox="0 0 384 384"><defs><style>.cls-1{fill:#fff;}</style></defs><path class="cls-1" d="M384,0v384H0V0h384ZM124.31,49.31c-1.85,1.78-21.88,2.64-26.26,4.12-1.2.41-2.72,1.96-2.85,3.23l.75,2.25,19.45,18.84c.4,5.19-5.5,25.97-2.98,29.19.48.62,1.22.97,1.99,1.07,4.19.55,20.38-10.71,25.45-12.51,2.88-.03,18.65,10.8,23.61,12.14,3.32.9,5.24,0,5.21-3.68-.05-7.39-4.49-17.85-4.89-25.63l18.49-18.67.34-4.93c-1.5-2.53-24.33-3.46-28.43-5.31-2.69-1.69-8.9-18.77-11.81-22.69-1.52-2.05-2.99-3.33-5.4-1.91-3.76,2.21-9.35,20.04-12.67,24.48ZM92.82,113.42l-28.28-5.09c-3.72-4.27-9.35-21.99-13.26-24.25-1.66-.96-3.44-1.13-4.82.45l-11.4,24.02-27.81,4.63c-1.52,1.5-1.59,3.88-.41,5.61l19.24,18.92c-.02,5.12-5.51,25.16-2.89,28.48.48.62,1.22.97,1.99,1.08,8.82-2.58,16.91-8.77,25.45-12.49,5.96,1.68,20.22,12.48,25.45,12.44,2.49-.02,3.32-1.56,3.24-3.87-.28-7.72-4.19-17.67-4.88-25.64,2.87-4.62,18.93-16.84,19.3-21.14.09-1.07-.31-2.26-.91-3.15ZM259.32,166.32c.68-.68.91-2.13.87-3.09-.32-7.78-4.4-17.57-4.87-25.63l18.48-18.67c1.04-1.39,1.22-4.08-.02-5.32l-28.48-5.27c-2.53-1.92-8.52-18.25-11.42-22.33-1.52-2.14-2.89-3.83-5.55-2.05-3.91,2.61-9.06,20-12.52,24.6l-28.12,4.87c-.9,1.4-1.46,3.32-.23,4.74l19.47,18.84c.74,2.34-3.45,19.51-3.67,23.88-.09,1.77-.46,4.49,1.04,5.68l2.31.74,24.76-12.53c6.15,1.54,20.13,12.48,25.44,12.44.69,0,2.01-.42,2.5-.9ZM163.5,213.75c5.64-18.2,9.57-33.99-.62-51.5-5.64-9.68-21.19-25.7-30.28-10.53-5.42,9.05-9.26,24.55-13.96,34.79-7.43,16.15-18.19,28.88-34.27,36.89-3.14-4.83-6.1-8.56-12.18-9.45-8.07-1.19-32.03-1.13-40.31-.2-5.61.63-11.82,5.46-12.95,11.05-1.95,9.6.5,27.06.61,37.3.27,24.91-1.24,53.61.69,78.06.63,7.94,4.56,15.6,13.22,16.78,8.55,1.16,30.8.89,39.71.1,5.53-.49,9.59-3.21,12.35-7.94l1.08-.35c11.96,6.18,23.11,10.55,36.75,11.29,29.47,1.6,60.4-1.26,90.02-.05,14.71-1.2,23.06-14.08,18.43-28.15-.94-2.86-2.9-5.06-3.79-7.83,11.6-2.57,15.81-14.62,13.92-25.55-.66-3.82-2.86-6.29-4.16-9.7,22.23-3.4,22.61-36.84.75-41.26,1.85-4.07,4.53-8.43,4.55-13.12.03-6.05-3.89-13.25-8.81-16.74-1.36-.97-6.91-3.88-8.12-3.88h-62.62ZM305.82,159.19c-45.15,5.68-57.72,67.3-19.86,93.72,42.3,29.52,96.06-12.94,77.25-60.55,6.57-7.47,16.76-13.35,11.94-24.89-3.12-7.48-11.64-10.49-19.08-7.53-3.35,1.34-8.98,8.82-10.68,8.81-11.72-8.15-25.31-11.36-39.57-9.57Z"/><path d="M163.5,213.75h62.62c1.21,0,6.76,2.91,8.12,3.88,4.92,3.49,8.84,10.69,8.81,16.74-.02,4.68-2.71,9.04-4.55,13.12,21.86,4.42,21.48,37.87-.75,41.26,1.3,3.41,3.5,5.88,4.16,9.7,1.89,10.93-2.32,22.97-13.92,25.55.89,2.77,2.85,4.97,3.79,7.83,4.63,14.08-3.72,26.95-18.43,28.15-29.63-1.21-60.55,1.65-90.02.05-13.64-.74-24.79-5.12-36.75-11.29l-1.08.35c-2.76,4.73-6.82,7.44-12.35,7.94-8.91.8-31.16,1.07-39.71-.1-8.65-1.18-12.59-8.84-13.22-16.78-1.93-24.45-.42-53.15-.69-78.06-.11-10.24-2.56-27.7-.61-37.3,1.13-5.59,7.34-10.41,12.95-11.05,8.27-.93,32.24-.99,40.31.2,6.08.89,9.04,4.62,12.18,9.45,16.08-8.01,26.85-20.74,34.27-36.89,4.71-10.24,8.54-25.74,13.96-34.79,9.09-15.17,24.65.85,30.28,10.53,10.19,17.51,6.26,33.31.62,51.5ZM223.12,288.75h-41.25c-2.37,0-2.37-6.75,0-6.75h54.75c.33,0,4.48-1.94,5.13-2.37,9.79-6.41,6.19-24.04-5.11-25.4-16.58-1.99-36.98,1.56-53.97-.03-6.11-1.01-4.24-7.46-2.29-7.46h45c1.05,0,5.73-2.83,6.68-3.82,6.64-6.95,3.31-18.24-5.53-21.33l-66.42-.33c-2.72-.19-5.37-1.78-4.84-4.8,4.1-15.82,10.31-29.64,3.75-45.86-2.41-5.96-14.38-24.41-20.42-14.39-5.53,9.17-9.34,24.92-14.2,35.3-8.17,17.45-22.09,31.85-39.66,39.91,1.55,13.52.57,27.53.74,41.23.02,1.77.79,3.41.81,5.19.32,20.97.1,41.94.69,62.9,10.34,5.06,20.85,10.91,32.63,11.78,30.28,2.23,63.24-1.75,93.81,0,17.04-1.52,15.57-25.31,1.49-27.05-9.28-1.14-21.74,1.45-30.72-.03-5.22-.86-5.79-6.68-.75-7.39,12.03-1.7,27.41,1.26,39.71-.07,16.34-1.77,15.56-27.06,0-29.25ZM69,349.5c5.31.78,10.41-1.12,10.54-7.09-.31-38.77-.76-77.72-2.23-116.34-1.61-3.18-3.63-4.53-7.14-4.86-7.8-.72-30.99-1.08-38.24.08-2.81.45-5.56,3.23-5.97,6.09l1.85,115.69c1.13,5.37,5.21,7.19,10.45,6.42v-26.62c0-.5,2.14-4.81,2.67-5.58,6.5-9.35,21.04-7.69,26.25,2.15.37.7,1.83,4.52,1.83,4.92v25.12ZM62.25,349.5c.55-2.97-.68-5.82-.78-8.59-.24-6.94,2.95-23.34-8.4-22.73-2.33.13-7.32,3.24-7.32,5.45v25.88h16.5Z"/><path d="M305.82,159.19c14.26-1.79,27.85,1.42,39.57,9.57,1.7,0,7.33-7.48,10.68-8.81,7.43-2.96,15.95.05,19.08,7.53,4.82,11.54-5.36,17.42-11.94,24.89,18.81,47.61-34.95,90.07-77.25,60.55-37.86-26.42-25.29-88.04,19.86-93.72ZM357.74,198l-29.29,29.58c-5.74,3.7-10.89,4.67-17.13,1.47-2.97-1.52-18.25-15.87-20.2-18.8-8.7-13.09,6.16-28.22,19.63-19.63,1.61,1.03,6.28,6.79,7.52,6.57l22.21-22.82c-35.02-24.79-80.94,8.3-67.7,49.71,4.04,12.63,15.3,24,27.76,28.49,34.59,12.46,68.12-19.73,57.2-54.58ZM361.33,165.88c-1.24.16-2.65.89-3.61,1.71l-37.68,38.1c-4.5,1.9-9.44-6.95-13.76-9.09-6.77-3.36-12.86,2.8-9.59,8.84,1.04,1.92,16.06,16.32,18.07,17.19,2.67,1.15,5.38,1.47,8.04.02l45.37-46.12c3.01-4.94-1.27-11.37-6.83-10.65Z"/><path d="M92.82,113.42c.59.89,1,2.08.91,3.15-.38,4.3-16.43,16.51-19.3,21.14.69,7.97,4.6,17.92,4.88,25.64.08,2.31-.75,3.85-3.24,3.87-5.23.04-19.48-10.77-25.45-12.44-8.55,3.72-16.63,9.91-25.45,12.49-.77-.1-1.51-.46-1.99-1.08-2.61-3.33,2.88-23.36,2.89-28.48l-19.24-18.92c-1.18-1.73-1.1-4.11.41-5.61l27.81-4.63,11.4-24.02c1.38-1.58,3.16-1.42,4.82-.45,3.91,2.26,9.55,19.99,13.26,24.25l28.28,5.09ZM50.24,96c-1.75-.38-1.2.24-1.67.96-2.13,3.3-6.93,16.83-8.85,18.13-6.46,1.97-13.32,1.95-19.87,3.39-1.04.23-2.17-.65-1.84,1.13l15.62,15.18-2.87,21.95,19.81-9.74,19.92,9.74-3.62-21.96,15.63-16.29-22.47-3.41-9.79-19.09Z"/><path d="M259.32,166.32c-.48.48-1.81.9-2.5.9-5.31.04-19.3-10.91-25.44-12.44l-24.76,12.53-2.31-.74c-1.49-1.19-1.13-3.91-1.04-5.68.21-4.37,4.41-21.54,3.67-23.88l-19.47-18.84c-1.23-1.41-.67-3.33.23-4.74l28.12-4.87c3.46-4.6,8.61-21.99,12.52-24.6,2.65-1.77,4.02-.09,5.55,2.05,2.9,4.08,8.89,20.41,11.42,22.33l28.48,5.27c1.24,1.23,1.05,3.93.02,5.32l-18.48,18.67c.48,8.06,4.55,17.85,4.87,25.63.04.96-.19,2.42-.87,3.09ZM240.19,114.56l-9.56-19.31-10.17,19.83-21.71,3.42c-.35,1.45.53,1.44,1.26,2.11,4.98,4.54,9.96,9.05,14.35,14.18l-2.86,21.96,19.87-9.79,19.87,9.79-3.45-21.76,15.45-16.48c-7.62-.83-15.88-1.42-23.06-3.95Z"/><path d="M124.31,49.31c3.32-4.44,8.91-22.27,12.67-24.48,2.41-1.42,3.88-.14,5.4,1.91,2.91,3.92,9.12,21,11.81,22.69,4.1,1.85,26.94,2.78,28.43,5.31l-.34,4.93-18.49,18.67c.4,7.79,4.84,18.24,4.89,25.63.02,3.67-1.89,4.58-5.21,3.68-4.96-1.34-20.73-12.17-23.61-12.14-5.07,1.8-21.26,13.06-25.45,12.51-.77-.1-1.51-.46-1.99-1.07-2.52-3.21,3.39-24,2.98-29.19l-19.45-18.84-.75-2.25c.12-1.28,1.65-2.83,2.85-3.23,4.38-1.48,24.4-2.35,26.26-4.12ZM171.75,59.26l-22.46-3.42-10.16-19.83-10.17,19.83-21.72,3.8,15.62,15.91-2.86,21.96c.72.79,16.95-9.57,19.16-9.73,3.8-.28,16.03,8.45,20.58,9.73l-3.44-21.77,15.45-16.48Z"/><path class="cls-1" d="M223.12,288.75c15.56,2.19,16.35,27.48,0,29.25-12.3,1.33-27.68-1.63-39.71.07-5.04.71-4.47,6.53.75,7.39,8.98,1.48,21.44-1.12,30.72.03,14.09,1.73,15.56,25.53-1.49,27.05-30.57-1.75-63.53,2.23-93.81,0-11.77-.87-22.29-6.72-32.63-11.78-.59-20.96-.37-41.93-.69-62.9-.03-1.77-.79-3.42-.81-5.19-.17-13.7.82-27.71-.74-41.23,17.57-8.06,31.49-22.45,39.66-39.91,4.86-10.38,8.67-26.13,14.2-35.3,6.04-10.02,18.01,8.43,20.42,14.39,6.56,16.22.35,30.03-3.75,45.86-.53,3.02,2.12,4.61,4.84,4.8l66.42.33c8.84,3.09,12.16,14.38,5.53,21.33-.95.99-5.62,3.82-6.68,3.82h-45c-1.95,0-3.82,6.45,2.29,7.46,17,1.59,37.4-1.97,53.97.03,11.3,1.36,14.91,18.98,5.11,25.4-.65.43-4.8,2.37-5.13,2.37h-54.75c-2.37,0-2.37,6.75,0,6.75h41.25Z"/><path class="cls-1" d="M69,349.5v-25.12c0-.4-1.46-4.23-1.83-4.92-5.21-9.84-19.75-11.51-26.25-2.15-.54.77-2.67,5.08-2.67,5.58v26.62c-5.24.76-9.33-1.06-10.45-6.42l-1.85-115.69c.41-2.86,3.16-5.64,5.97-6.09,7.25-1.16,30.44-.8,38.24-.08,3.52.33,5.53,1.67,7.14,4.86,1.47,38.62,1.92,77.57,2.23,116.34-.13,5.96-5.22,7.87-10.54,7.09Z"/><path class="cls-1" d="M62.25,349.5h-16.5v-25.88c0-2.21,4.99-5.32,7.32-5.45,11.35-.61,8.15,15.79,8.4,22.73.1,2.77,1.33,5.62.78,8.59Z"/><path class="cls-1" d="M357.74,198c10.92,34.85-22.61,67.04-57.2,54.58-12.46-4.49-23.72-15.86-27.76-28.49-13.24-41.41,32.68-74.5,67.7-49.71l-22.21,22.82c-1.24.22-5.91-5.55-7.52-6.57-13.47-8.59-28.33,6.54-19.63,19.63,1.95,2.93,17.23,17.28,20.2,18.8,6.24,3.2,11.39,2.22,17.13-1.47l29.29-29.58Z"/><path class="cls-1" d="M361.33,165.88c5.55-.72,9.83,5.7,6.83,10.65l-45.37,46.12c-2.66,1.44-5.37,1.13-8.04-.02-2.01-.87-17.03-15.27-18.07-17.19-3.27-6.04,2.83-12.2,9.59-8.84,4.33,2.15,9.26,11,13.76,9.09l37.68-38.1c.96-.82,2.37-1.55,3.61-1.71Z"/><path class="cls-1" d="M50.24,96l9.79,19.09,22.47,3.41-15.63,16.29,3.62,21.96-19.92-9.74-19.81,9.74,2.87-21.95-15.62-15.18c-.33-1.78.8-.9,1.84-1.13,6.55-1.44,13.41-1.42,19.87-3.39,1.92-1.3,6.72-14.83,8.85-18.13.47-.73-.08-1.34,1.67-.96Z"/><path class="cls-1" d="M240.19,114.56c7.18,2.52,15.44,3.12,23.06,3.95l-15.45,16.48,3.45,21.76-19.87-9.79-19.87,9.79,2.86-21.96c-4.39-5.13-9.37-9.64-14.35-14.18-.73-.66-1.61-.66-1.26-2.11l21.71-3.42,10.17-19.83,9.56,19.31Z"/><path class="cls-1" d="M171.75,59.26l-15.45,16.48,3.44,21.77c-4.55-1.28-16.77-10.01-20.58-9.73-2.21.16-18.44,10.52-19.16,9.73l2.86-21.96-15.62-15.91,21.72-3.8,10.17-19.83,10.16,19.83,22.46,3.42Z"/></svg>